<?xml version="1.0" encoding="utf-8"?>
<!-- Generator: Adobe Illustrator 24.0.2, SVG Export Plug-In . SVG Version: 6.00 Build 0)  -->
<svg version="1.1" id="Capa_1" xmlns="http://www.w3.org/2000/svg" xmlns:xlink="http://www.w3.org/1999/xlink" x="0px" y="0px"
	 viewBox="0 0 50 50" style="enable-background:new 0 0 50 50;" xml:space="preserve">
<style type="text/css">
	.st0{fill:#FFFFFF;}
</style>
<g>
	<path class="st0" d="M25,43c-0.6,0-15,0-18.9-1c-2.5-0.7-4.5-2.6-5.1-5.1C0,33,0,25.4,0,25s0-8,1-11.8c0.7-2.5,2.6-4.5,5.1-5.1
		C10,7,24.4,7,25,7c0.6,0,15,0,18.8,1c2.4,0.7,4.4,2.6,5.1,5c0,0,0,0.1,0,0.1c1,3.8,1,11.5,1,11.8s0,8-1,11.8
		c-0.7,2.5-2.6,4.4-5.1,5.1C40,43,25.6,43,25,43z M25,9.6c-4.1,0-15.3,0.2-18.2,1C5.2,11,4,12.3,3.5,13.9C2.6,17.4,2.6,25,2.6,25
		c0,0.1,0,7.6,0.9,11.1C4,37.8,5.2,39,6.8,39.4c2.9,0.8,14.1,1,18.2,1c4.1,0,15.3-0.2,18.2-1c1.6-0.4,2.8-1.6,3.3-3.2
		c0.9-3.5,0.9-11.1,0.9-11.1c0-0.1,0-7.4-0.9-11c0,0,0-0.1,0-0.1c-0.4-1.6-1.7-2.9-3.3-3.3C40.3,9.8,29.1,9.6,25,9.6z M20.1,33.4
		c-0.2,0-0.5-0.1-0.7-0.2c-0.4-0.2-0.6-0.7-0.6-1.1V18c0-0.5,0.2-0.9,0.6-1.1c0.4-0.2,0.9-0.2,1.3,0l12.4,7c0.4,0.2,0.7,0.7,0.7,1.1
		s-0.3,0.9-0.7,1.1l-12.4,7C20.6,33.3,20.4,33.4,20.1,33.4z M21.5,20.2v9.6l8.4-4.8L21.5,20.2z"/>
</g>
</svg>
