<?xml version="1.0" encoding="utf-8"?>
<!-- Generator: Adobe Illustrator 24.0.2, SVG Export Plug-In . SVG Version: 6.00 Build 0)  -->
<svg version="1.1" id="Capa_1" xmlns="http://www.w3.org/2000/svg" xmlns:xlink="http://www.w3.org/1999/xlink" x="0px" y="0px"
	 viewBox="0 0 25 25" style="enable-background:new 0 0 25 25;" xml:space="preserve">
<style type="text/css">
	.st0{fill:#FFFFFF;}
	.st1{fill:#B4B4B4;}
	.st2{fill:#9A9A9A;}
</style>
<g>
	<g>
		<path class="st0" d="M6.5,7.3C6.7,7,7,6.7,7.2,6.4l1.3-1.5V5c0,0.4,0,0.7,0,1.1c0,0.1,0,0.2,0,0.3c0,0.1,0,0.2,0,0.4
			c0,0.1,0,0.2-0.2,0.2C8,7,7.6,7.1,7.2,7.2C7,7.3,6.8,7.3,6.5,7.3C6.5,7.4,6.5,7.4,6.5,7.3C6.4,7.4,6.5,7.4,6.5,7.3z"/>
		<path class="st0" d="M5.8,10.3c0,1.2,0,2.4,0,3.6l0,9.3c0,0,0,0,0,0c0,0,0,0,0,0c-0.1-0.1-0.2-0.1-0.3-0.2C5.3,23,5.2,22.9,5,22.8
			c-0.1,0-0.1-0.1-0.1-0.2c0-1.6,0-3.3,0-4.9l0-3.1c0-2.4,0-4.7,0-7.1c0-0.2,0-0.4,0-0.7l0-0.1l0.7,0.6c0.1,0.1,0.1,0.1,0.1,0.1
			C5.8,8.4,5.8,9.3,5.8,10.3z"/>
		<path class="st0" d="M4.9,23.4c0,0,0.1,0.1,0.1,0.1c0.1,0,0.2,0.1,0.2,0.1c0.1,0.1,0.2,0.1,0.3,0.2c0.2,0.1,0.2,0.2,0.2,0.3
			c-0.2-0.1-0.4-0.2-0.6-0.4C5,23.7,5,23.7,5,23.6C4.9,23.5,4.9,23.5,4.9,23.4C4.9,23.4,4.9,23.4,4.9,23.4z"/>
		<path class="st0" d="M7.4,3.5c0.1-0.1,0.1-0.1,0.1-0.1c0,0,0.1,0.1,0.2,0.1c0.1,0,0.1,0.1,0.2,0.1C8.1,3.7,8.3,3.8,8.5,4l0,0
			c0,0,0,0,0,0L7.8,4.7C7.3,5.4,6.7,6.1,6.1,6.8c0,0.1-0.1,0.1-0.1,0.1c0,0,0,0-0.1,0C5.8,6.7,5.7,6.6,5.5,6.5L5.3,6.3
			c0,0-0.1-0.1-0.1-0.1c0,0,0.1-0.1,0.1-0.1l0.2-0.2c0.6-0.8,1.2-1.5,1.9-2.3C7.4,3.6,7.4,3.5,7.4,3.5z"/>
		<path class="st0" d="M18.5,0.8c0.1,0.1,0.3,0.2,0.4,0.2c0.1,0,0.2,0.1,0.3,0.1l-0.1,0c-0.2,0.1-0.4,0.1-0.6,0.2L9.2,3.6
			c-0.1,0-0.2,0-0.2,0C8.7,3.4,8.5,3.3,8.3,3.1L8.2,3C8.6,3,8.9,2.9,9.2,2.8c0.2,0,0.3-0.1,0.5-0.1c1.1-0.3,2.2-0.6,3.4-0.8
			c1.6-0.4,3.2-0.8,4.8-1.2C18.1,0.6,18.3,0.6,18.5,0.8z"/>
		<path class="st0" d="M7.2,24.2c-0.2,0.1-0.5,0.1-0.7,0.2c-0.1,0-0.1,0-0.1,0c0,0,0-0.1,0-0.1l0-5.9c0-0.4,0-0.7,0-1.1
			c0-0.9,0-1.7,0-2.6c0-1.5,0-2.9,0-4.4c0-0.7,0-1.4,0-2C6.4,8,6.4,8,6.5,8C7,7.9,7.5,7.8,8,7.7l0.5-0.1C9,7.4,9.1,7.2,9.1,6.7
			c0-0.5,0-0.9,0-1.4l0-0.9c0-0.3,0-0.3,0.2-0.3l6.1-1.5c1.4-0.3,2.8-0.7,4.1-1c0.1,0,0.2,0,0.3,0c0,0,0.1,0,0.1,0
			C20,1.7,20,1.7,20,2v18.8c0,0.4,0,0.5-0.5,0.6L7.5,24.1L7.2,24.2z"/>
	</g>
	<path class="st1" d="M20.7,1.7c-0.1-0.4-0.3-0.6-0.6-0.7c-0.4-0.2-0.8-0.5-1.2-0.7L18.4,0H18l-0.1,0c-0.1,0-0.1,0-0.2,0
		c-1.3,0.3-2.5,0.6-3.8,0.9l-0.8,0.2c-1.8,0.4-3.6,0.9-5.4,1.3C7.5,2.6,7.3,2.7,7.1,2.9C6.3,3.9,5.6,4.8,4.8,5.7L4.6,6
		C4.4,6.2,4.3,6.5,4.3,6.9c0,0.8,0,1.6,0,2.3l0,3.6c0,3.5,0,7,0,10.5c0,0.4,0.2,0.7,0.5,0.9c0.3,0.1,0.5,0.3,0.8,0.5l0.2,0.1
		C6,25,6.1,25,6.2,25c0.1,0,0.1,0,0.2,0c1.2-0.3,2.3-0.5,3.5-0.8c3.3-0.7,6.5-1.5,9.8-2.2c0.3-0.1,0.7-0.2,0.9-0.8l0,0L20.7,1.7z
		 M6.5,7.3C6.7,7,7,6.7,7.2,6.4l1.3-1.5V5c0,0.4,0,0.7,0,1.1c0,0.1,0,0.2,0,0.3c0,0.1,0,0.2,0,0.4c0,0.1,0,0.2-0.2,0.2
		C8,7,7.6,7.1,7.2,7.2C7,7.3,6.8,7.3,6.5,7.3C6.5,7.4,6.5,7.4,6.5,7.3C6.4,7.4,6.5,7.4,6.5,7.3z M8.7,4L8.7,4L8.7,4L8.7,4z M7.4,3.5
		c0.1-0.1,0.1-0.1,0.1-0.1c0,0,0.1,0.1,0.2,0.1c0.1,0,0.1,0.1,0.2,0.1C8.1,3.7,8.3,3.8,8.5,4l0,0c0,0,0,0,0,0L7.8,4.7
		C7.3,5.4,6.7,6.1,6.1,6.8c0,0.1-0.1,0.1-0.1,0.1c0,0,0,0-0.1,0C5.8,6.7,5.7,6.6,5.5,6.5L5.3,6.3c0,0-0.1-0.1-0.1-0.1
		c0,0,0.1-0.1,0.1-0.1l0.2-0.2c0.6-0.8,1.2-1.5,1.9-2.3C7.4,3.6,7.4,3.5,7.4,3.5z M5.8,10.3c0,1.2,0,2.4,0,3.6l0,9.3c0,0,0,0,0,0
		c0,0,0,0,0,0c-0.1-0.1-0.2-0.1-0.3-0.2C5.3,23,5.2,22.9,5,22.8c-0.1,0-0.1-0.1-0.1-0.2c0-1.6,0-3.3,0-4.9l0-3.1c0-2.4,0-4.7,0-7.1
		c0-0.2,0-0.4,0-0.7l0-0.1l0.7,0.6c0.1,0.1,0.1,0.1,0.1,0.1C5.8,8.4,5.8,9.3,5.8,10.3z M4.9,23.4c0,0,0.1,0.1,0.1,0.1
		c0.1,0,0.2,0.1,0.2,0.1c0.1,0.1,0.2,0.1,0.3,0.2c0.2,0.1,0.2,0.2,0.2,0.3c-0.2-0.1-0.4-0.2-0.6-0.4C5,23.7,5,23.7,5,23.6
		C4.9,23.5,4.9,23.5,4.9,23.4C4.9,23.4,4.9,23.4,4.9,23.4z M18.5,0.8c0.1,0.1,0.3,0.2,0.4,0.2c0.1,0,0.2,0.1,0.3,0.1l-0.1,0
		c-0.2,0.1-0.4,0.1-0.6,0.2L9.2,3.6c-0.1,0-0.2,0-0.2,0C8.7,3.4,8.5,3.3,8.3,3.1L8.2,3C8.6,3,8.9,2.9,9.2,2.8c0.2,0,0.3-0.1,0.5-0.1
		c1.1-0.3,2.2-0.6,3.4-0.8c1.6-0.4,3.2-0.8,4.8-1.2C18.1,0.6,18.3,0.6,18.5,0.8z M7.2,24.2c-0.2,0.1-0.5,0.1-0.7,0.2
		c-0.1,0-0.1,0-0.1,0c0,0,0-0.1,0-0.1l0-5.9c0-0.4,0-0.7,0-1.1c0-0.9,0-1.7,0-2.6c0-1.5,0-2.9,0-4.4c0-0.7,0-1.4,0-2
		C6.4,8,6.4,8,6.5,8C7,7.9,7.5,7.8,8,7.7l0.5-0.1C9,7.4,9.1,7.2,9.1,6.7c0-0.5,0-0.9,0-1.4l0-0.9c0-0.3,0-0.3,0.2-0.3l6.1-1.5
		c1.4-0.3,2.8-0.7,4.1-1c0.1,0,0.2,0,0.3,0c0,0,0.1,0,0.1,0C20,1.7,20,1.7,20,2v18.8c0,0.4,0,0.5-0.5,0.6L7.5,24.1L7.2,24.2z"/>
	<g>
		<path class="st2" d="M10.3,12.5c0.4-0.1,0.8-0.2,1.2-0.3c0.3-0.1,0.4-0.1,0.4,0.3c0,0.8,0,1.5,0,2.3c0,0,0,0,0,0
			c0,0.7,0,1.5,0,2.2c0,0.6,0.2,0.9,0.8,0.7c0.6-0.1,1.2-0.3,1.8-0.4c0.7-0.2,0.8-0.3,0.8-1.1c0-0.1,0-0.2,0-0.3c0-1.3,0-2.7,0-4
			c0-0.3,0.1-0.5,0.4-0.5c0.5-0.1,1-0.2,1.4-0.3c0.4-0.1,0.6-0.5,0.5-0.8c-0.1-0.2-0.2-0.3-0.3-0.4c-1.1-0.9-2.1-1.8-3.2-2.7
			c-0.4-0.3-0.7-0.3-1,0.1C12.6,8,12,8.7,11.5,9.4c-0.6,0.7-1.1,1.4-1.7,2.1c-0.2,0.2-0.3,0.5-0.1,0.8C9.8,12.6,10.1,12.6,10.3,12.5
			z"/>
		<path class="st2" d="M17.3,17.5c-0.2-0.1-0.4,0-0.6,0c-1.8,0.4-3.6,0.8-5.4,1.2c-0.3,0.1-0.6,0.1-0.9,0.2
			c-0.4,0.1-0.6,0.5-0.5,0.8c0.1,0.4,0.4,0.6,0.8,0.5c0.1,0,0.2,0,0.2,0c2.1-0.5,4.2-1,6.2-1.4c0.4-0.1,0.6-0.3,0.6-0.7
			C17.7,17.8,17.6,17.6,17.3,17.5z"/>
		<path class="st1" d="M10.2,11.7c0.5-0.6,1-1.2,1.5-1.8c0.6-0.7,1.2-1.4,1.7-2.1c0.3-0.3,0.3-0.3,0.6-0.1c1.1,0.9,2.1,1.8,3.2,2.7
			c0.2,0.2,0.2,0.3-0.1,0.4c-0.5,0.1-1,0.2-1.5,0.3c-0.5,0.1-0.6,0.3-0.6,0.8c0,1.5,0,3,0,4.4c0,0.5,0,0.5-0.5,0.7
			c-0.6,0.1-1.1,0.3-1.7,0.4c-0.3,0.1-0.4,0-0.4-0.3c0-0.8,0-1.6,0-2.4c0,0,0,0,0,0c0-0.8,0-1.5,0-2.3c0-0.5-0.2-0.7-0.7-0.6
			c-0.4,0.1-0.9,0.2-1.3,0.3c-0.1,0-0.2,0.1-0.3,0C10,11.9,10.1,11.8,10.2,11.7z"/>
		<path class="st1" d="M17,18.4c-0.5,0.1-1,0.2-1.5,0.4c-1.6,0.4-3.1,0.7-4.7,1.1c-0.1,0-0.1,0-0.2,0c-0.1,0-0.2-0.1-0.3-0.2
			c0-0.1,0-0.3,0.1-0.3c0.1-0.1,0.3-0.1,0.4-0.1c1.9-0.4,3.9-0.9,5.8-1.3c0.1,0,0.1,0,0.2,0c0.2-0.1,0.3,0,0.4,0.2
			C17.3,18.2,17.2,18.4,17,18.4z"/>
	</g>
</g>
</svg>
