<?xml version="1.0" encoding="utf-8"?>
<!-- Generator: Adobe Illustrator 19.2.1, SVG Export Plug-In . SVG Version: 6.00 Build 0)  -->
<svg version="1.1" id="Capa_1" xmlns="http://www.w3.org/2000/svg" xmlns:xlink="http://www.w3.org/1999/xlink" x="0px" y="0px"
	 viewBox="0 0 30 30" style="enable-background:new 0 0 30 30;" xml:space="preserve">
<style type="text/css">
	.st0{fill:#8F1F1F;}
</style>
<g>
	<path class="st0" d="M30,2.7c0-0.5-0.2-0.9-0.6-1.2c-0.6-0.3-1.1-0.7-1.7-1c-0.3-0.2-0.6-0.2-0.9-0.2C25.7,0.6,2.1,6.2,1,6.4
		C0.3,6.6,0,7,0,7.6l0,19.7c0,0.4,0.2,0.8,0.5,1l0.6,0.4c0.4,0.2,0.8,0.5,1.2,0.7c0.2,0.1,0.4,0.2,0.7,0.2c0.1,0,0.2,0,0.3,0
		c0.7-0.2,11.3-2.6,19.1-4.3l6.6-1.5c0.8-0.2,1-0.5,1-1.3l0-3.9C30,13.2,30,4.6,30,2.7z M0.8,13.8l0-3.8c0.2,0.1,0.3,0.2,0.5,0.3
		c0.2,0.1,0.5,0.3,0.7,0.4c0.1,0.1,0.2,0.1,0.2,0.3c0,2.8,0,8.5,0,12.2c0,1.7,0,3,0,3.5c-0.1-0.1-0.2-0.1-0.3-0.2
		c-0.3-0.2-0.5-0.3-0.8-0.5c-0.2-0.1-0.2-0.2-0.2-0.3C0.8,23.9,0.8,18,0.8,13.8z M2.1,8.8c0,0.2,0,0.5,0,0.7l0,0.4
		C1.7,9.7,1.3,9.4,0.9,9.1C0.8,9.1,0.8,9.1,0.8,9l0-0.6c0-0.3,0-0.6,0-0.9c0,0,0,0,0-0.1c0,0,0,0,0.1,0l0.5,0.2
		C1.6,7.9,1.9,8,2.2,8.2C2.1,8.4,2.1,8.6,2.1,8.8z M0.8,26.9c0.4,0.3,0.8,0.5,1.2,0.8c0.1,0,0.1,0.1,0.1,0.1c0,0.1,0,0.2,0,0.3
		l0,0.1c0,0.1,0,0.1,0,0.2c-0.1-0.1-0.1-0.1-0.2-0.1c-0.2-0.1-0.4-0.2-0.6-0.3c-0.1-0.1-0.3-0.2-0.4-0.3c-0.1-0.1-0.2-0.2-0.2-0.3
		C0.8,27.2,0.8,27.1,0.8,26.9z M20.9,3.4c-7,1.7-16.6,3.9-17.7,4.2c-0.2,0-0.3,0-0.4,0c-0.3-0.2-0.7-0.3-1-0.5l0.6-0.1
		c19.4-4.6,24-5.7,24.4-5.8c0.2,0,0.3,0,0.4,0.1c0.3,0.2,0.6,0.3,0.9,0.5C26.9,2,24.2,2.6,20.9,3.4z M2.9,28.6c0-0.4,0-0.8,0-1.3
		c0-0.3,0-0.6,0-0.9c0-0.6,0-5.4,0-9.8c0-3.7,0-7.1,0-7.7c0-0.5,0.1-0.6,0.5-0.7c2.2-0.5,12.9-3,19.9-4.7c2.8-0.7,5-1.2,5.5-1.3
		c0,0,0.1,0,0.1,0c0,0,0.1,0,0.1,0c0,0,0.1,0.1,0.1,0.2c0,0.1,0,0.2,0,0.3l0,0.1l0,19.5c0,0.5,0,0.5-0.5,0.6
		C26.8,23.5,6,28.2,3.2,28.8c-0.2,0-0.2,0-0.2,0C3,28.8,2.9,28.8,2.9,28.6z"/>
	<path class="st0" d="M5.5,26.4c0.1,0.1,0.3,0.2,0.5,0.2c0.1,0,0.2,0,0.4,0c0.6-0.1,7.3-1.7,12.7-2.9l7-1.6c0.7-0.2,0.9-0.4,0.9-1.1
		l0-1.6c0-3.8,0-12.8,0-13.6c0-0.4-0.2-0.7-0.3-0.8c-0.2-0.1-0.4-0.3-0.9-0.2C25.5,4.8,24,5.2,22,5.6C16.7,6.9,7.8,8.9,6.1,9.3
		c-0.6,0.1-0.9,0.5-0.9,1.2c0,1.9,0,13.2,0,15.1C5.2,26,5.3,26.2,5.5,26.4z M26.1,5.5C26.1,5.5,26.1,5.5,26.1,5.5c0,0,0,0,0,0.1
		c0,1,0,14.3,0,15.1c0,0.4,0,0.4-0.4,0.5c-1.2,0.3-17.2,4-19.5,4.5c-0.1,0-0.2,0-0.2,0c0,0,0,0,0,0c0,0,0-0.1,0-0.2
		c0-0.8,0-13.9,0-15c0-0.3,0-0.4,0.3-0.4C8.5,9.6,14.1,8.3,19,7.2c3.1-0.7,5.9-1.4,7-1.6C26,5.5,26.1,5.5,26.1,5.5z"/>
	<path class="st0" d="M14,13.5c0,0.8,0,3.9,0,4.7c0,0.7,0.5,1,1.1,0.8c0.2-0.1,0.4-0.2,0.5-0.3c1.4-1,2.9-2,4.3-3
		c0.7-0.5,0.6-1.1-0.1-1.5c-1.4-0.6-2.8-1.2-4.3-1.8C14.6,12.1,14,12.5,14,13.5z M19.4,15.4c-1.4,1-2.8,2-4.3,3
		c-0.4,0.3-0.6,0.1-0.6-0.3c0-0.8,0-3.8,0-4.5c0-0.6,0.3-0.8,0.9-0.6c1.3,0.5,2.6,1.1,3.9,1.6C19.9,14.8,19.9,15,19.4,15.4z"/>
</g>
</svg>
