<?xml version="1.0" encoding="utf-8"?>
<!-- Generator: Adobe Illustrator 24.0.2, SVG Export Plug-In . SVG Version: 6.00 Build 0)  -->
<svg version="1.1" id="Capa_1" xmlns="http://www.w3.org/2000/svg" xmlns:xlink="http://www.w3.org/1999/xlink" x="0px" y="0px"
	 viewBox="0 0 50 50" style="enable-background:new 0 0 50 50;" xml:space="preserve">
<style type="text/css">
	.st0{fill:#FFFFFF;}
</style>
<g>
	<path class="st0" d="M43,16.3L27.3,0.5C27.1,0.2,26.7,0,26.3,0H11.7c0,0-0.1,0-0.1,0c-0.1,0-1.3,0.1-2.5,0.8C7.9,1.6,6.6,3,6.6,5.8
		v38.8c0,0.4,0,2.2,1.3,3.7C9,49.4,10.5,50,12.5,50h25.6c0,0,0.1,0,0.1,0c0.1,0,1.3-0.1,2.6-0.9c1.7-1,2.7-2.8,2.7-4.9V17.4
		C43.4,17,43.3,16.6,43,16.3z M27.7,13.3c0-0.1,0-0.1,0-0.1v-8L38.4,16h-8.1c-0.9,0-1.6-0.2-2-0.7C27.7,14.7,27.6,13.6,27.7,13.3z
		 M39.3,46.5c-0.5,0.3-1.1,0.5-1.3,0.5H12.5c-1.1,0-1.9-0.3-2.4-0.7c-0.5-0.6-0.5-1.4-0.5-1.5c0,0,0-0.1,0-0.1V5.8
		c0-1.1,0.3-1.9,1-2.4c0.5-0.3,1-0.4,1.2-0.4h12.9v10c0,0.5-0.1,2.6,1.4,4.2c0.7,0.8,2,1.7,4.3,1.7h10.1v25.3
		C40.4,45.3,40.1,46,39.3,46.5z"/>
	<path class="st0" d="M32.9,25.8H17.1c-0.8,0-1.5,0.7-1.5,1.5c0,0.8,0.7,1.5,1.5,1.5h15.9c0.8,0,1.5-0.7,1.5-1.5
		C34.5,26.4,33.8,25.8,32.9,25.8z"/>
	<path class="st0" d="M32.9,35.5H17.1c-0.8,0-1.5,0.7-1.5,1.5c0,0.8,0.7,1.5,1.5,1.5h15.9c0.8,0,1.5-0.7,1.5-1.5
		C34.5,36.1,33.8,35.5,32.9,35.5z"/>
</g>
</svg>
