<?xml version="1.0" encoding="utf-8"?>
<!-- Generator: Adobe Illustrator 24.0.2, SVG Export Plug-In . SVG Version: 6.00 Build 0)  -->
<svg version="1.1" id="Capa_1" xmlns="http://www.w3.org/2000/svg" xmlns:xlink="http://www.w3.org/1999/xlink" x="0px" y="0px"
	 viewBox="0 0 30 30" style="enable-background:new 0 0 30 30;" xml:space="preserve">
<style type="text/css">
	.st0{fill:#8F1F1F;}
</style>
<g>
	<path class="st0" d="M24.8,2c-0.1-0.5-0.4-0.7-0.7-0.8c-0.5-0.3-1-0.6-1.4-0.8L22.1,0h-0.5h-0.1c-0.1,0-0.1,0-0.2,0.1
		c-1.5,0.4-3,0.7-4.5,1.1l-1,0.2C13.6,2,11.4,2.5,9.3,3.1C9,3.1,8.7,3.2,8.5,3.5C7.6,4.6,6.7,5.8,5.8,6.9L5.5,7.2
		c-0.2,0.3-0.3,0.6-0.3,1c0,0.9,0,1.9,0,2.8v4.4c0,4.2,0,8.4,0,12.7c0,0.5,0.2,0.9,0.6,1.1c0.3,0.2,0.6,0.4,1,0.6L7,29.9
		C7.2,30,7.3,30,7.5,30c0.1,0,0.2,0,0.3,0c1.4-0.3,2.8-0.7,4.2-1c3.9-0.9,7.8-1.8,11.8-2.7c0.4-0.1,0.9-0.3,1.1-0.9l0,0L24.8,2z
		 M7.8,8.8c0.3-0.4,0.6-0.7,0.9-1.1l1.5-1.9v0.1c0,0.4,0,0.9,0,1.3c0,0.1,0,0.3,0,0.4s0,0.3,0,0.4c0,0.2,0,0.2-0.2,0.2
		C9.6,8.4,9.1,8.5,8.7,8.6C8.4,8.7,8.1,8.8,7.8,8.8C7.8,8.9,7.7,8.9,7.8,8.8C7.7,8.9,7.8,8.8,7.8,8.8z M10.4,4.8L10.4,4.8L10.4,4.8
		L10.4,4.8z M8.9,4.1C9,4.1,9.1,4,9,4c0,0,0.1,0.1,0.2,0.1c0.1,0,0.1,0.1,0.2,0.2c0.2,0.2,0.4,0.3,0.7,0.5l0,0l0,0L9.4,5.7
		C8.7,6.5,8,7.3,7.4,8.2c-0.1,0-0.1,0-0.1,0s0,0-0.1-0.1C7,8,6.8,7.9,6.6,7.7L6.4,7.6L6.3,7.5l0.1-0.1l0.2-0.2
		c0.7-1,1.4-1.9,2.2-2.9C8.8,4.3,8.9,4.2,8.9,4.1z M6.9,12.3c0,1.4,0,2.9,0,4.3v11.1l0,0l0,0c-0.1-0.1-0.2-0.1-0.3-0.2
		c-0.2-0.1-0.3-0.2-0.5-0.3C6,27.2,6,27.1,6,26.9c0-2,0-3.9,0-5.9v-3.7c0-2.8,0-5.7,0-8.5C6,8.5,6,8.3,6,8V7.9l0.9,0.7
		c0,0.3,0,0.3,0,0.4C6.9,10.1,6.9,11.2,6.9,12.3z M5.9,28.1L6,28.2c0.1,0,0.2,0.1,0.3,0.2c0.1,0.1,0.2,0.1,0.4,0.2
		C6.9,28.7,7,28.8,6.9,29c-0.2-0.1-0.5-0.3-0.7-0.4C6,28.5,6,28.4,5.9,28.3C5.9,28.2,5.9,28.2,5.9,28.1L5.9,28.1z M22.2,0.9
		c0.2,0.1,0.3,0.2,0.5,0.3c0.1,0.1,0.2,0.1,0.3,0.2h-0.1c-0.3,0.1-0.5,0.1-0.8,0.2L11,4.3c-0.1,0-0.2,0-0.3,0
		c-0.3-0.2-0.5-0.4-0.8-0.6H9.8c0.4-0.1,0.8-0.2,1.1-0.3c0.2,0,0.4-0.1,0.6-0.1c1.3-0.3,2.7-0.7,4-1c1.9-0.5,3.8-0.9,5.7-1.4
		C21.7,0.7,21.9,0.8,22.2,0.9z M8.7,29c-0.3,0.1-0.6,0.1-0.9,0.2c-0.1,0-0.1,0-0.1,0s0-0.1,0-0.2v-7.1c0-0.4,0-0.9,0-1.3
		c0-1,0-2.1,0-3.1c0-1.7,0-3.5,0-5.2c0-0.8,0-1.6,0-2.4c0-0.2,0-0.2,0.2-0.2C8.4,9.5,9,9.3,9.6,9.2L10.2,9C10.8,8.9,11,8.6,11,8.1
		s0-1.1,0-1.6V5.4c0-0.3,0-0.3,0.3-0.4l7.3-1.8c1.7-0.4,3.3-0.8,5-1.2c0.1,0,0.2,0,0.3,0H24c0,0,0.1,0.1,0.1,0.4v22.5
		c0,0.5,0,0.6-0.5,0.7L9,28.9L8.7,29z"/>
</g>
<g>
	<path class="st0" d="M20.5,14.7c-0.5,0.1-1,0.2-1.5,0.4c-0.4,0.1-0.5,0.1-0.5-0.4c0-0.9,0-1.8,0-2.8c0,0,0,0,0,0c0-0.9,0-1.8,0-2.6
		c0-0.8-0.3-1-1-0.9c-0.7,0.2-1.5,0.3-2.2,0.5c-0.9,0.2-1,0.4-1,1.3c0,0.1,0,0.3,0,0.4c0,1.6-0.1,3.2,0.1,4.8c0,0.4-0.1,0.6-0.5,0.6
		c-0.6,0.1-1.2,0.2-1.7,0.4c-0.5,0.1-0.7,0.6-0.5,1c0.1,0.2,0.3,0.3,0.4,0.5c1.3,1.1,2.6,2.2,3.8,3.3c0.5,0.4,0.9,0.4,1.2-0.1
		c0.7-0.8,1.4-1.7,2-2.5c0.7-0.8,1.4-1.7,2.1-2.5c0.2-0.3,0.4-0.6,0.1-0.9C21.1,14.6,20.8,14.6,20.5,14.7z M20.6,15.7
		c-0.6,0.7-1.2,1.5-1.8,2.2c-0.7,0.9-1.4,1.7-2.1,2.6c-0.3,0.4-0.4,0.4-0.8,0.1c-1.3-1.1-2.6-2.1-3.8-3.2c-0.3-0.2-0.2-0.4,0.1-0.5
		c0.6-0.2,1.2-0.3,1.8-0.4c0.6-0.1,0.7-0.4,0.8-0.9c0-1.8,0-3.6,0-5.3c0-0.6,0-0.7,0.6-0.8c0.7-0.2,1.3-0.3,2-0.4
		c0.4-0.1,0.5,0,0.5,0.4c0,0.9,0,1.9,0,2.8c0,0,0,0,0,0c0,0.9,0,1.8,0,2.8c0,0.6,0.2,0.8,0.8,0.7c0.5-0.1,1.1-0.3,1.6-0.4
		c0.1,0,0.3-0.2,0.4,0C20.9,15.4,20.7,15.6,20.6,15.7z"/>
	<path class="st0" d="M20.7,20.9c-0.2-0.1-0.5,0-0.7,0.1c-2.1,0.5-4.3,1-6.4,1.5c-0.4,0.1-0.7,0.1-1.1,0.2c-0.5,0.1-0.7,0.6-0.6,1
		c0.1,0.4,0.4,0.7,0.9,0.6c0.1,0,0.2,0,0.3,0c2.5-0.6,5-1.1,7.5-1.7c0.5-0.1,0.7-0.4,0.7-0.9C21.2,21.3,21.1,21.1,20.7,20.9z
		 M20.4,22.1c-0.6,0.2-1.2,0.3-1.8,0.4c-1.9,0.4-3.8,0.9-5.6,1.3c-0.1,0-0.1,0-0.2,0c-0.2,0-0.3-0.1-0.3-0.2c0-0.2,0-0.3,0.2-0.4
		c0.2-0.1,0.4-0.1,0.5-0.1c2.3-0.5,4.6-1.1,6.9-1.6c0.1,0,0.1,0,0.2,0c0.2-0.1,0.4,0,0.4,0.2C20.7,21.9,20.6,22,20.4,22.1z"/>
</g>
</svg>
