<?xml version="1.0" encoding="utf-8"?>
<!-- Generator: Adobe Illustrator 24.0.2, SVG Export Plug-In . SVG Version: 6.00 Build 0)  -->
<svg version="1.1" id="Capa_1" xmlns="http://www.w3.org/2000/svg" xmlns:xlink="http://www.w3.org/1999/xlink" x="0px" y="0px"
	 viewBox="0 0 30 60" style="enable-background:new 0 0 30 60;" xml:space="preserve">
<style type="text/css">
	.st0{fill:#FF161F;}
	.st1{fill:#AD0A0F;}
	.st2{fill:url(#SVGID_1_);}
</style>
<g>
	<path class="st0" d="M12.9,30c0-7.1-5.8-12.9-12.9-12.9L0,0c16.5,0,30,13.5,30,30S16.5,60,0,60l0-17.1C7.1,42.9,12.9,37.1,12.9,30"
		/>
	<path class="st1" d="M12.9,30c0-7.1-5.8-12.9-12.9-12.8l0-8.6c11.8,0,21.4,9.6,21.4,21.4S11.8,51.4,0,51.5l0-8.6
		C7.1,42.9,12.9,37.1,12.9,30"/>
	<g>
		
			<linearGradient id="SVGID_1_" gradientUnits="userSpaceOnUse" x1="-8115.2603" y1="-6560.9355" x2="-8055.2603" y2="-6560.9355" gradientTransform="matrix(4.489659e-11 -1 1 4.489659e-11 6575.9355 -8055.2603)">
			<stop  offset="0" style="stop-color:#FFFFFF;stop-opacity:0.3"/>
			<stop  offset="1" style="stop-color:#FFFFFF;stop-opacity:0"/>
		</linearGradient>
		<path class="st2" d="M0,17.1c7.1,0,12.9,5.8,12.9,12.9S7.1,42.9,0,42.9L0,60c16.5,0,30-13.5,30-30S16.5,0,0,0L0,17.1z"/>
	</g>
</g>
</svg>
