<?xml version="1.0" encoding="utf-8"?>
<!-- Generator: Adobe Illustrator 24.0.2, SVG Export Plug-In . SVG Version: 6.00 Build 0)  -->
<svg version="1.1" id="Capa_1" xmlns="http://www.w3.org/2000/svg" xmlns:xlink="http://www.w3.org/1999/xlink" x="0px" y="0px"
	 viewBox="0 0 40 40" style="enable-background:new 0 0 40 40;" xml:space="preserve">
<style type="text/css">
	.st0{fill:#FFFFFF;}
</style>
<path class="st0" d="M22.7,1.5C23.1,0.6,24,0,25,0h12.5C38.9,0,40,1.1,40,2.5V15c0,1-0.6,1.9-1.5,2.3s-2,0.2-2.7-0.5l-4.5-4.5
	l-12,12c-1,1-2.6,1-3.5,0c-1-1-1-2.6,0-3.5l12-12l-4.5-4.5C22.5,3.5,22.3,2.5,22.7,1.5L22.7,1.5z M0,13.8c0-3.5,2.8-6.3,6.3-6.3h6.3
	c1.4,0,2.5,1.1,2.5,2.5s-1.1,2.5-2.5,2.5H6.3c-0.7,0-1.3,0.6-1.3,1.3v20C5,34.4,5.6,35,6.3,35h20c0.7,0,1.3-0.6,1.3-1.3v-6.3
	c0-1.4,1.1-2.5,2.5-2.5s2.5,1.1,2.5,2.5v6.3c0,3.5-2.8,6.3-6.3,6.3h-20C2.8,40,0,37.2,0,33.8V13.8z"/>
</svg>
