<?xml version="1.0" encoding="utf-8"?>
<!-- Generator: Adobe Illustrator 24.0.2, SVG Export Plug-In . SVG Version: 6.00 Build 0)  -->
<svg version="1.1" id="Capa_1" xmlns="http://www.w3.org/2000/svg" xmlns:xlink="http://www.w3.org/1999/xlink" x="0px" y="0px"
	 viewBox="0 0 30 30" style="enable-background:new 0 0 30 30;" xml:space="preserve">
<style type="text/css">
	.st0{fill:#FFFFFF;}
</style>
<path class="st0" d="M29.4,13.5C29.4,13.5,29.4,13.5,29.4,13.5L18.6,2.8c-0.8-0.8-2.2-0.8-3,0c-0.1,0.1-0.1,0.1-0.2,0.2
	c-0.6,0.9-0.5,2.1,0.3,2.8l7,7H2.3c-1.1,0-2.1,0.7-2.3,1.8c-0.2,1.2,0.6,2.3,1.8,2.5c0.1,0,0.2,0,0.4,0h20.6l-7,7
	c-0.8,0.7-0.9,1.9-0.3,2.8c0.7,1,2,1.2,3,0.5c0.1-0.1,0.2-0.1,0.2-0.2l10.7-10.7C30.2,15.7,30.2,14.3,29.4,13.5z"/>
</svg>
