<?xml version="1.0" encoding="utf-8"?>
<!-- Generator: Adobe Illustrator 24.0.2, SVG Export Plug-In . SVG Version: 6.00 Build 0)  -->
<svg version="1.1" id="Capa_1" xmlns="http://www.w3.org/2000/svg" xmlns:xlink="http://www.w3.org/1999/xlink" x="0px" y="0px"
	 viewBox="0 0 20 20" style="enable-background:new 0 0 20 20;" xml:space="preserve">
<style type="text/css">
	.st0{fill:#CCCCCC;}
</style>
<g>
	<g>
		<path class="st0" d="M9.6,13.6c0.1,0.1,0.2,0.2,0.4,0.2s0.3-0.1,0.4-0.2l3.3-3.8c0.1-0.1,0.1-0.3,0.1-0.5
			c-0.1-0.2-0.2-0.3-0.4-0.3h-1.9V3c0-0.3-0.2-0.5-0.5-0.5H9.1C8.8,2.5,8.6,2.7,8.6,3v6.1H6.7c-0.2,0-0.4,0.1-0.4,0.3
			c-0.1,0.2,0,0.4,0.1,0.5L9.6,13.6z"/>
		<path class="st0" d="M15.2,12.8v2.8H4.8v-2.8H3v3.8c0,0.5,0.4,0.9,0.9,0.9h12.2c0.5,0,0.9-0.4,0.9-0.9v-3.8H15.2z"/>
	</g>
</g>
</svg>
