<?xml version="1.0" encoding="utf-8"?>
<!-- Generator: Adobe Illustrator 24.0.2, SVG Export Plug-In . SVG Version: 6.00 Build 0)  -->
<svg version="1.1" id="Capa_1" xmlns="http://www.w3.org/2000/svg" xmlns:xlink="http://www.w3.org/1999/xlink" x="0px" y="0px"
	 viewBox="0 0 50 50" style="enable-background:new 0 0 50 50;" xml:space="preserve">
<style type="text/css">
	.st0{fill:#FF402B;}
</style>
<g>
	<g>
		<path class="st0" d="M45.8,46.5H4.2c-0.7,0-1.5-0.4-1.9-1.1c-0.4-0.6-0.5-1.5-0.1-2.2l21-41.9c0.4-0.7,1.2-1.3,2-1.3l0,0
			c0.8,0,1.7,0.5,2,1.3l20.6,42c0.4,0.7,0.3,1.6-0.1,2.2C47.4,46.1,46.5,46.5,45.8,46.5z M7.8,42h34.3l-17-34.7L7.8,42z"/>
	</g>
	<g>
		<g>
			<circle class="st0" cx="25" cy="35.1" r="3"/>
		</g>
		<path class="st0" d="M25,31c-1.2,0-2.1-0.9-2.1-2.1V16.6c0-1.2,0.9-2.1,2.1-2.1s2.1,0.9,2.1,2.1v12.3C27.1,30.1,26.2,31,25,31z"/>
	</g>
</g>
</svg>
