<?xml version="1.0" encoding="utf-8"?>
<!-- Generator: Adobe Illustrator 19.2.1, SVG Export Plug-In . SVG Version: 6.00 Build 0)  -->
<svg version="1.1" id="Capa_1" xmlns="http://www.w3.org/2000/svg" xmlns:xlink="http://www.w3.org/1999/xlink" x="0px" y="0px"
	 viewBox="0 0 65 65" style="enable-background:new 0 0 65 65;" xml:space="preserve">
<style type="text/css">
	.st0{fill:#FFFFFF;}
</style>
<g>
	<g>
		<polygon class="st0" points="10,46.2 7,46.2 7,38 26.8,38 26.8,41 10,41 		"/>
	</g>
	<g>
		<polygon class="st0" points="58,46.2 55,46.2 55,41 38.2,41 38.2,38 58,38 		"/>
	</g>
	<g>
		<path class="st0" d="M56.5,59c-4,0-7.2-3.2-7.2-7.2s3.2-7.2,7.2-7.2s7.2,3.2,7.2,7.2S60.4,59,56.5,59z M56.5,47.7
			c-2.3,0-4.2,1.9-4.2,4.2s1.9,4.2,4.2,4.2s4.2-1.9,4.2-4.2S58.8,47.7,56.5,47.7z"/>
	</g>
	<g>
		<path class="st0" d="M8.5,59c-4,0-7.2-3.2-7.2-7.2s3.2-7.2,7.2-7.2s7.2,3.2,7.2,7.2S12.5,59,8.5,59z M8.5,47.7
			c-2.3,0-4.2,1.9-4.2,4.2S6.2,56,8.5,56c2.3,0,4.2-1.9,4.2-4.2S10.8,47.7,8.5,47.7z"/>
	</g>
	<g>
		<rect x="31" y="25.2" class="st0" width="3" height="8.5"/>
	</g>
	<g>
		<path class="st0" d="M32.5,46.5c-4,0-7.2-3.2-7.2-7.2s3.2-7.2,7.2-7.2s7.2,3.2,7.2,7.2S36.5,46.5,32.5,46.5z M32.5,35.2
			c-2.3,0-4.2,1.9-4.2,4.2s1.9,4.2,4.2,4.2s4.2-1.9,4.2-4.2S34.8,35.2,32.5,35.2z"/>
	</g>
	<g>
		<path class="st0" d="M49.5,26.5H15.5V6h33.9V26.5z M18.5,23.5h27.9V9H18.5V23.5z"/>
	</g>
	<g>
		<g>
			<rect x="22.2" y="11.7" class="st0" width="20.6" height="3"/>
		</g>
		<g>
			<rect x="22.2" y="17.9" class="st0" width="20.6" height="3"/>
		</g>
	</g>
</g>
</svg>
