<?xml version="1.0" encoding="utf-8"?>
<!-- Generator: Adobe Illustrator 19.2.1, SVG Export Plug-In . SVG Version: 6.00 Build 0)  -->
<svg version="1.1" id="Capa_1" xmlns="http://www.w3.org/2000/svg" xmlns:xlink="http://www.w3.org/1999/xlink" x="0px" y="0px"
	 viewBox="0 0 30 30" style="enable-background:new 0 0 30 30;" xml:space="preserve">
<style type="text/css">
	.st0{fill:#8F1F1F;}
</style>
<g>
	<path class="st0" d="M29.9,15.1c-0.5-2.9-1.4-5.4-2.8-7.7c-1.2-1.9-2.9-3.2-5-3.9c-0.6-0.2-1.1-0.3-1.7-0.3l-0.6,0l-0.2,0
		c-0.2,0-0.3,0-0.5,0.1c-1.6,0.2-2.7,0.9-3.5,2.1c0,0.1-0.1,0.1-0.2,0.1l-1.4,0.4c-1.3,0.3-2.6,0.6-3.8,1C9.4,7.1,8.9,7.1,8.5,6.8
		c0,0-0.1,0-0.1,0l0,0C7,6.3,5.7,6.3,4.2,6.8c-0.8,0.3-1.5,0.7-2,1.3c-0.6,0.7-0.8,1.6-1.1,2.4c-0.3,1.4-0.5,2.8-0.6,4.1
		c-0.2,1.7-0.3,3.2-0.4,4.6c0,0.3,0,0.7-0.1,1l0,0.5v1.1l0,0c0,0.1,0,0.2,0,0.3c0,0,0,0.1,0,0.1c0,0.6,0.1,1.4,0.3,2.2
		c0.4,1.2,1.1,1.9,2.2,2.2c0.3,0.1,0.7,0.1,1,0.1c0.7,0,1.4-0.2,2.2-0.6c1-0.6,1.8-1.5,2.7-2.9c0.9-1.5,1.5-3.1,2.1-4.8
		c0.1-0.2,0.1-0.2,0.3-0.3c1-0.2,1.9-0.5,2.9-0.7l3-0.7c0.9-0.2,1.8-0.4,2.7-0.7c0.5-0.1,0.8,0,1.2,0.3c0.3,0.3,0.5,0.6,0.8,0.9
		c0.7,0.9,1.3,1.8,2.2,2.6c0.8,0.7,1.7,1,2.7,1c1.6-0.1,3.1-1.3,3.5-2.8C30.1,17,30,15.9,29.9,15.1z M10.8,17.5
		c0.3-0.8,0.8-1.2,1.7-1.5c0.6-0.2,1.3-0.3,1.9-0.5l1.8-0.4c1-0.3,2.1-0.5,3.1-0.8c0.4-0.1,0.9-0.2,1.3-0.1c0.7,0.1,1.1,0.4,1.7,1
		c0.6,0.6,1.1,1.2,1.6,1.9c0.2,0.3,0.4,0.5,0.7,0.8c0.4,0.4,0.8,0.9,1.2,1.2c0.6,0.5,1.2,0.7,1.9,0.7c-1.2,0.7-2.6,0.5-3.6-0.4
		c-0.7-0.6-1.3-1.3-1.8-2c-0.1-0.2-0.3-0.4-0.4-0.5l-0.1-0.1c-0.3-0.4-0.6-0.8-1.1-1c-0.3-0.2-0.6-0.3-0.9-0.3c-0.1,0-0.3,0-0.4,0.1
		L12.9,17c-0.5,0.1-1,0.2-1.4,0.3L10.8,17.5L10.8,17.5C10.8,17.5,10.8,17.5,10.8,17.5z M28.3,19c-0.5,0.2-1,0.2-1.6-0.2
		c-0.5-0.3-1-0.8-1.4-1.3l-0.2-0.2c-0.3-0.3-0.6-0.7-0.8-1c-0.5-0.6-1-1.3-1.6-1.8c-0.6-0.6-1.3-0.9-1.9-1c-0.3,0-0.7,0-1.1,0.1
		c-1.8,0.4-3.6,0.9-5.4,1.3l-0.9,0.2c-0.3,0.1-0.6,0.2-0.9,0.2l-0.1,0c-1,0.3-1.7,0.9-2.1,2C10,17.7,9.9,18,9.8,18.2
		c-0.4,1.1-0.9,2.3-1.4,3.4c-0.5,1-1.1,2.1-2,3c-0.6,0.5-1.2,0.8-1.9,0.7c-0.5,0-0.9-0.2-1.2-0.7C3,24.2,2.9,23.6,2.8,23
		c-0.2-1.5-0.3-3-0.3-5c0-1.9,0.1-3.6,0.3-5.1c0.1-0.8,0.2-1.6,0.5-2.3c0.3-0.9,0.8-1.6,1.7-2c0.9-0.4,1.8-0.7,3-0.8
		c0.8-0.1,1.5,0.2,2.3,0.7c0.2,0.2,0.5,0.2,0.8,0.1C12.6,8,14.3,7.6,16,7.2L16.8,7c0.2,0,0.4-0.1,0.5-0.3c0.8-1.1,1.8-1.8,3.3-2.1
		c1.5-0.3,2.8,0.1,4.1,1.2c1,0.9,1.9,2,2.7,3.7c0.9,1.8,1.5,3.8,1.8,5.9c0.1,0.8,0.2,1.6,0,2.4C29.1,18.3,28.7,18.8,28.3,19z
		 M6.7,7.2C5.7,7.4,4.9,7.7,4.3,8C3.7,8.4,3.2,8.9,2.9,9.5c0,0.1,0,0.1,0,0.1c0,0,0,0-0.1,0C2.5,9.4,2.3,9.3,2.3,9.2
		c0-0.1,0.1-0.3,0.3-0.5C3,8.2,3.5,7.8,4.3,7.5C5,7.2,5.7,7.1,6.4,7.1c0.2,0,0.4,0,0.7,0C6.9,7.2,6.8,7.2,6.7,7.2z M2.6,10.3
		c-0.3,1-0.4,2-0.5,2.8c-0.1,0.8-0.1,1.4-0.2,2l0,0.2c0,0.9-0.1,1.8-0.1,2.7c0,1.7,0.1,3.4,0.3,5.1c0.1,0.5,0.2,0.8,0.3,1.2
		c0.4,1,1,1.6,2,1.7c-0.2,0.1-0.5,0.1-0.7,0.1c0,0-0.1,0-0.1,0c-1.5,0-2.4-0.9-2.7-2.5c-0.2-1.3-0.2-2.5-0.1-4
		c0.1-1.9,0.3-3.9,0.5-5.8l0,0c0.2-1.2,0.3-2.5,0.7-3.8L2,9.9c0,0,0,0,0,0c0.2,0.1,0.4,0.2,0.5,0.3C2.6,10.2,2.6,10.2,2.6,10.3z
		 M16.3,6.4l-1.6,0.4c-1.2,0.3-2.5,0.6-3.7,0.9c-0.2,0.1-0.4,0-0.5-0.1c-0.1-0.1-0.2-0.1-0.2-0.1c0,0-0.1,0-0.1,0l2.5-0.6
		c1-0.3,2-0.5,2.9-0.8c0.1,0,0.2,0,0.2,0L16.3,6.4C16.3,6.4,16.3,6.4,16.3,6.4z M18.2,4.8C17.7,5.1,17.3,5.5,17,6
		c-0.1,0.1-0.1,0.1-0.2,0c-0.1-0.1-0.3-0.2-0.5-0.3c-0.1,0-0.1-0.1-0.1-0.1c0,0,0,0,0.1-0.1c0.5-0.7,1.1-1.2,2.1-1.4
		c0.5-0.2,1.1-0.2,1.6-0.2c0.2,0,0.4,0,0.6,0C19.7,4.1,18.9,4.4,18.2,4.8z"/>
	<path class="st0" d="M24.7,8l-0.1-0.2c-0.2-0.4-0.5-0.6-1-0.5c-0.3,0.1-0.6,0.1-0.9,0.2c-0.1,0-0.2,0-0.2-0.1
		c-0.1-0.3-0.3-0.7-0.4-1C21.9,6,21.6,5.9,21.2,6c-0.4,0.1-0.8,0.2-1.1,0.3c-0.2,0.1-0.4,0.2-0.5,0.3c-0.1,0.2-0.1,0.3,0,0.6
		c0.1,0.3,0.2,0.6,0.4,0.9c0,0.1,0,0.1,0,0.1c0,0,0,0-0.1,0c-0.3,0.1-0.6,0.1-0.9,0.2c-0.3,0.1-0.5,0.3-0.5,0.6l0,0l0,0
		c0,0,0,0.1,0,0.1c0.1,0.4,0.3,0.9,0.6,1.3c0.2,0.3,0.4,0.4,0.8,0.3c0.1,0,0.3-0.1,0.4-0.1c0.2-0.1,0.4-0.1,0.6-0.2
		c0.1,0,0.2,0,0.2,0.1c0.2,0.4,0.3,0.7,0.4,1c0.1,0.3,0.4,0.4,0.6,0.4c0.1,0,0.1,0,0.2,0c0.3-0.1,0.7-0.2,1.2-0.3
		c0.2-0.1,0.4-0.2,0.4-0.3c0.1-0.2,0.1-0.4,0-0.6c-0.1-0.2-0.2-0.5-0.3-0.7l0-0.1c0-0.1,0-0.1,0-0.1c0,0,0,0,0.1-0.1
		c0.3-0.1,0.6-0.2,0.9-0.2c0.2-0.1,0.4-0.2,0.4-0.3c0.1-0.2,0.1-0.3,0-0.5C24.9,8.5,24.8,8.3,24.7,8z M22.9,9.6
		c-0.1,0.2-0.1,0.3,0,0.6c0.1,0.3,0.2,0.5,0.3,0.7c0.1,0.1,0,0.1,0,0.2c0,0,0,0-0.1,0.1c-0.3,0.1-0.6,0.1-0.8,0.2
		c-0.1,0-0.1,0-0.2-0.1c-0.1-0.3-0.3-0.7-0.4-1c-0.1-0.3-0.3-0.4-0.7-0.4c0,0,0,0,0,0l-0.3,0.1c-0.2,0.1-0.5,0.1-0.8,0.2
		c-0.2,0.1-0.2,0-0.3-0.1c-0.1-0.2-0.2-0.4-0.3-0.7l-0.1-0.1c0-0.1,0-0.1,0-0.1c0,0,0.1,0,0.1-0.1l0.2,0C19.8,9,20,8.9,20.3,8.9
		c0.3-0.1,0.4-0.2,0.5-0.3c0.1-0.2,0.1-0.3,0-0.6c-0.1-0.2-0.2-0.4-0.2-0.5c0-0.1-0.1-0.2-0.1-0.3c-0.1-0.1,0-0.2,0-0.2
		c0,0,0,0,0.1-0.1c0.1,0,0.3-0.1,0.4-0.1c0.2,0,0.3-0.1,0.5-0.1c0.1,0,0.2,0,0.2,0.1c0.1,0.3,0.3,0.6,0.4,1c0.2,0.5,0.4,0.6,0.9,0.5
		c0.3-0.1,0.6-0.2,0.9-0.2c0.1,0,0.2,0,0.2,0.1c0.1,0.3,0.3,0.6,0.4,0.9c0,0.1,0,0.1,0,0.1c0,0,0,0-0.1,0l-0.2,0.1
		c-0.2,0.1-0.5,0.1-0.7,0.2C23.1,9.4,23,9.5,22.9,9.6z"/>
	<path class="st0" d="M6.8,11.7C6.8,11.7,6.8,11.7,6.8,11.7c0.4,0,0.8-0.1,1-0.4c0.3-0.2,0.4-0.6,0.4-1c0-0.8-0.7-1.5-1.5-1.5
		c0,0,0,0,0,0C6.4,8.9,6,9,5.7,9.3c-0.2,0.2-0.4,0.6-0.4,1c0,0.4,0.2,0.8,0.4,1.1C6.1,11.6,6.4,11.7,6.8,11.7z M6.2,10.9
		C6.1,10.7,6,10.5,6,10.2C6,10,6,9.8,6.2,9.7c0.1-0.1,0.4-0.2,0.6-0.2c0,0,0,0,0,0c0.4,0,0.8,0.4,0.8,0.9c0,0.4-0.3,0.7-0.8,0.7
		C6.6,11.1,6.4,11,6.2,10.9z"/>
	<path class="st0" d="M5.4,14.3C5.4,14.3,5.4,14.3,5.4,14.3c0.8,0,1.4-0.6,1.4-1.4c0-0.8-0.7-1.5-1.5-1.5c0,0,0,0,0,0
		c-0.4,0-0.8,0.1-1.1,0.4c-0.3,0.3-0.4,0.6-0.4,1c0,0.4,0.2,0.7,0.4,1C4.6,14.1,5,14.3,5.4,14.3z M5.3,12.1
		C5.3,12.1,5.3,12.1,5.3,12.1c0.5,0,0.9,0.4,0.9,0.8c0,0.2-0.1,0.4-0.2,0.5c-0.2,0.1-0.4,0.2-0.6,0.2c-0.5,0-0.9-0.4-0.9-0.9
		C4.5,12.4,4.9,12.1,5.3,12.1z"/>
	<path class="st0" d="M10,10.3c-0.4,0-0.8,0.1-1,0.4c-0.2,0.2-0.4,0.6-0.4,0.9c0,0.4,0.1,0.8,0.4,1c0.3,0.3,0.7,0.5,1.1,0.5
		c0,0,0,0,0,0c0.4,0,0.8-0.1,1-0.4c0.2-0.2,0.4-0.6,0.4-0.9C11.6,11,10.9,10.3,10,10.3z M10,10.9c0.5,0,0.9,0.4,0.9,0.9
		c0,0.4-0.3,0.7-0.8,0.7c0,0,0,0,0,0c-0.2,0-0.4-0.1-0.6-0.3c-0.2-0.2-0.2-0.4-0.2-0.6c0-0.2,0.1-0.4,0.2-0.5
		C9.6,11,9.8,10.9,10,10.9z"/>
	<path class="st0" d="M8.5,12.8c-0.4,0-0.8,0.1-1,0.4c-0.2,0.2-0.4,0.6-0.4,0.9c0,0.4,0.1,0.8,0.4,1c0.3,0.3,0.7,0.5,1.1,0.5
		c0,0,0,0,0,0c0.4,0,0.8-0.1,1-0.4c0.2-0.2,0.4-0.6,0.4-0.9C10.1,13.5,9.4,12.8,8.5,12.8z M8.5,13.4c0.5,0,0.9,0.4,0.9,0.9
		c0,0.4-0.3,0.7-0.8,0.7c0,0,0,0,0,0c-0.2,0-0.4-0.1-0.6-0.3c-0.2-0.2-0.2-0.4-0.2-0.6c0-0.2,0.1-0.4,0.2-0.5
		C8.1,13.5,8.3,13.4,8.5,13.4z"/>
	<path class="st0" d="M16.5,8.7C16.5,8.7,16.5,8.7,16.5,8.7L16.5,8.7c-0.3,0-0.6,0.1-1,0.2c-0.3,0.1-0.5,0.4-0.5,0.7
		c0.1,0.3,0.3,0.5,0.6,0.5c0,0,0.1,0,0.1,0c0.3-0.1,0.7-0.1,1-0.2c0.3-0.1,0.5-0.4,0.4-0.7C17.2,8.9,16.9,8.7,16.5,8.7z M16.6,9.4
		C16.6,9.4,16.7,9.4,16.6,9.4c-0.3,0.1-0.5,0.2-0.7,0.2l-0.2,0c-0.1,0-0.1,0-0.1,0c0,0,0,0,0-0.1C16,9.4,16.3,9.4,16.6,9.4
		C16.6,9.3,16.6,9.3,16.6,9.4C16.6,9.3,16.6,9.3,16.6,9.4z"/>
	<path class="st0" d="M14,9.4c-0.3,0-0.6,0.1-1,0.2c-0.3,0.1-0.4,0.3-0.4,0.5c0,0.2,0.1,0.4,0.2,0.6c0.1,0.1,0.2,0.1,0.4,0.1
		c0,0,0.1,0,0.1,0c0.4-0.1,0.7-0.1,1-0.2c0.3-0.1,0.5-0.4,0.4-0.7C14.6,9.5,14.3,9.3,14,9.4z M14.1,10C14.1,10,14.1,10,14.1,10
		c-0.3,0.1-0.5,0.2-0.7,0.2l-0.2,0c-0.1,0-0.1,0-0.1-0.1c0,0,0,0,0,0C13.5,10.1,13.8,10,14.1,10C14,9.9,14,9.9,14.1,10
		C14.1,9.9,14.1,10,14.1,10z"/>
</g>
</svg>
