<?xml version="1.0" encoding="utf-8"?>
<!-- Generator: Adobe Illustrator 24.0.2, SVG Export Plug-In . SVG Version: 6.00 Build 0)  -->
<svg version="1.1" id="Capa_1" xmlns="http://www.w3.org/2000/svg" xmlns:xlink="http://www.w3.org/1999/xlink" x="0px" y="0px"
	 viewBox="0 0 30 30" style="enable-background:new 0 0 30 30;" xml:space="preserve">
<style type="text/css">
	.st0{fill:#D61921;}
</style>
<g>
	<path class="st0" d="M15.7,0.3C15.5,0.1,15.3,0,15,0c-0.3,0-0.5,0.1-0.7,0.3L7.7,7.8c-0.2,0.3-0.3,0.7-0.1,1
		c0.2,0.3,0.5,0.5,0.9,0.5h3.8v12.2c0,0.5,0.4,0.9,0.9,0.9h3.8c0.5,0,0.9-0.4,0.9-0.9V9.4h3.8c0.4,0,0.7-0.2,0.9-0.5
		c0.2-0.3,0.1-0.7-0.1-1L15.7,0.3z"/>
	<path class="st0" d="M25.3,20.6v5.6H4.7v-5.6H0.9v7.5c0,1,0.8,1.9,1.9,1.9h24.4c1,0,1.9-0.8,1.9-1.9v-7.5H25.3z"/>
</g>
</svg>
