<?xml version="1.0" encoding="utf-8"?>
<!-- Generator: Adobe Illustrator 24.0.2, SVG Export Plug-In . SVG Version: 6.00 Build 0)  -->
<svg version="1.1" id="Capa_1" xmlns="http://www.w3.org/2000/svg" xmlns:xlink="http://www.w3.org/1999/xlink" x="0px" y="0px"
	 viewBox="0 0 20 20" style="enable-background:new 0 0 20 20;" xml:space="preserve">
<style type="text/css">
	.st0{fill:#FFFFFF;}
</style>
<g>
	<path class="st0" d="M9.5,14.8C9.6,14.9,9.8,15,10,15s0.4-0.1,0.5-0.2l4.4-5C15,9.6,15,9.3,14.9,9.1c-0.1-0.2-0.3-0.4-0.6-0.4h-2.5
		V0.6c0-0.3-0.3-0.6-0.6-0.6H8.8C8.4,0,8.1,0.3,8.1,0.6v8.1H5.6c-0.2,0-0.5,0.1-0.6,0.4C5,9.3,5,9.6,5.2,9.8L9.5,14.8z"/>
	<path class="st0" d="M16.9,13.8v3.8H3.1v-3.8H0.6v5c0,0.7,0.6,1.3,1.3,1.3h16.3c0.7,0,1.3-0.6,1.3-1.3v-5H16.9z"/>
</g>
</svg>
