<?xml version="1.0" encoding="utf-8"?>
<!-- Generator: Adobe Illustrator 24.0.2, SVG Export Plug-In . SVG Version: 6.00 Build 0)  -->
<svg version="1.1" id="Capa_1" xmlns="http://www.w3.org/2000/svg" xmlns:xlink="http://www.w3.org/1999/xlink" x="0px" y="0px"
	 viewBox="0 0 30 30" style="enable-background:new 0 0 30 30;" xml:space="preserve">
<style type="text/css">
	.st0{fill:#FFFFFF;}
</style>
<g>
	<g>
		<path class="st0" d="M21.8,16.4H8.2c-0.8,0-1.4-0.6-1.4-1.4c0-0.8,0.6-1.4,1.4-1.4h13.6c0.8,0,1.4,0.6,1.4,1.4
			C23.2,15.8,22.6,16.4,21.8,16.4z"/>
	</g>
	<g>
		<path class="st0" d="M15,23.2c-0.4,0-0.7-0.2-1-0.4L7.2,16c-0.3-0.3-0.4-0.6-0.4-1c0-0.4,0.2-0.8,0.5-1L14,7.2
			c0.3-0.3,0.6-0.4,1-0.4c0.4,0,0.7,0.2,1,0.4c0.2,0.3,0.4,0.6,0.4,1c0,0.4-0.2,0.7-0.5,1L10.2,15l5.8,5.8c0.3,0.3,0.4,0.6,0.4,1
			c0,0.4-0.2,0.7-0.4,1C15.7,23.1,15.4,23.2,15,23.2z"/>
	</g>
	<g>
		<path class="st0" d="M15,30C6.7,30,0,23.3,0,15C0,6.7,6.7,0,15,0c8.3,0,15,6.7,15,15C30,23.3,23.3,30,15,30z M15,2.7
			C8.2,2.7,2.7,8.2,2.7,15S8.2,27.3,15,27.3S27.3,21.8,27.3,15S21.8,2.7,15,2.7z"/>
	</g>
</g>
</svg>
