<?xml version="1.0" encoding="utf-8"?>
<!-- Generator: Adobe Illustrator 24.0.2, SVG Export Plug-In . SVG Version: 6.00 Build 0)  -->
<svg version="1.1" id="Capa_1" xmlns="http://www.w3.org/2000/svg" xmlns:xlink="http://www.w3.org/1999/xlink" x="0px" y="0px"
	 viewBox="0 0 24 24" style="enable-background:new 0 0 24 24;" xml:space="preserve">
<style type="text/css">
	.st0{fill:#FFFFFF;}
</style>
<g>
	<path class="st0" d="M10.3,21c-0.4,0-0.9-0.2-1.2-0.5l-3.4-3.4C5.6,17,5.5,17,5.4,17c0,0,0,0,0,0H3c-1.1,0-2-0.9-2-2V9
		c0-1.1,0.9-2,2-2h2.4c0,0,0,0,0,0c0.1,0,0.2,0,0.3-0.1l3.4-3.4C9.4,3.2,9.8,3,10.3,3c0.4,0,0.9,0.2,1.2,0.5C11.8,3.8,12,4.2,12,4.7
		c0,0,0,0,0,0v14.6c0,0.5-0.2,0.9-0.5,1.2C11.2,20.8,10.7,21,10.3,21z M10,19.3C10,19.3,10,19.3,10,19.3L10,19.3z M5.4,15
		c0.6,0,1.3,0.3,1.7,0.7l2.9,2.9V5.4L7.1,8.3C6.7,8.7,6.1,9,5.4,9c0,0,0,0,0,0H3v6H5.4C5.4,15,5.4,15,5.4,15z"/>
</g>
<g>
	<path class="st0" d="M16,16c-0.2,0-0.4-0.1-0.6-0.2c-0.4-0.3-0.5-1-0.2-1.4c1.1-1.4,1.1-3.4,0-4.8c-0.3-0.4-0.2-1.1,0.2-1.4
		c0.4-0.3,1.1-0.2,1.4,0.2c1.6,2.1,1.6,5.1,0,7.2C16.6,15.9,16.3,16,16,16z"/>
</g>
<g>
	<path class="st0" d="M19.4,19.4c-0.3,0-0.5-0.1-0.7-0.3c-0.4-0.4-0.4-1,0-1.4c3.1-3.1,3.1-8.2,0-11.3c-0.4-0.4-0.4-1,0-1.4
		s1-0.4,1.4,0c3.9,3.9,3.9,10.2,0,14.1C19.9,19.3,19.6,19.4,19.4,19.4z"/>
</g>
</svg>
