<?xml version="1.0" encoding="utf-8"?>
<!-- Generator: Adobe Illustrator 24.0.2, SVG Export Plug-In . SVG Version: 6.00 Build 0)  -->
<svg version="1.1" id="Capa_1" xmlns="http://www.w3.org/2000/svg" xmlns:xlink="http://www.w3.org/1999/xlink" x="0px" y="0px"
	 viewBox="0 0 50 50" style="enable-background:new 0 0 50 50;" xml:space="preserve">
<style type="text/css">
	.st0{fill:#10B981;}
</style>
<g>
	<g>
		<path class="st0" d="M23.6,31.8c-0.6,0-1.2-0.2-1.7-0.6l-6.8-5.4c-1.2-0.9-1.4-2.6-0.4-3.8c0.9-1.2,2.6-1.4,3.8-0.4l4.9,3.9
			l7.7-7.7c1.1-1.1,2.8-1.1,3.8,0c1.1,1.1,1.1,2.8,0,3.8L25.6,31C25,31.5,24.3,31.8,23.6,31.8z"/>
	</g>
	<g>
		<path class="st0" d="M25,50C11.2,50,0,38.8,0,25S11.2,0,25,0s25,11.2,25,25S38.8,50,25,50z M25,4.1C13.5,4.1,4.1,13.5,4.1,25
			S13.5,45.9,25,45.9S45.9,36.5,45.9,25S36.5,4.1,25,4.1z"/>
	</g>
</g>
</svg>
