<?xml version="1.0" encoding="utf-8"?>
<!-- Generator: Adobe Illustrator 24.0.2, SVG Export Plug-In . SVG Version: 6.00 Build 0)  -->
<svg version="1.1" id="Capa_1" xmlns="http://www.w3.org/2000/svg" xmlns:xlink="http://www.w3.org/1999/xlink" x="0px" y="0px"
	 viewBox="0 0 35 35" style="enable-background:new 0 0 35 35;" xml:space="preserve">
<style type="text/css">
	.st0{fill:#FFFFFF;}
</style>
<path class="st0" d="M34.3,15.7C34.3,15.7,34.3,15.7,34.3,15.7L21.7,3.2c-1-1-2.6-1-3.5,0c-0.1,0.1-0.1,0.2-0.2,0.2
	c-0.7,1-0.5,2.4,0.4,3.3l8.2,8.2H2.7c-1.3,0-2.4,0.8-2.6,2.1c-0.2,1.4,0.7,2.6,2.1,2.9c0.1,0,0.3,0,0.4,0h24l-8.2,8.2
	c-0.9,0.9-1.1,2.3-0.4,3.3c0.8,1.1,2.4,1.4,3.5,0.5c0.1-0.1,0.2-0.1,0.3-0.2l12.5-12.5C35.2,18.3,35.2,16.7,34.3,15.7z"/>
</svg>
