<?xml version="1.0" encoding="utf-8"?>
<!-- Generator: Adobe Illustrator 24.0.2, SVG Export Plug-In . SVG Version: 6.00 Build 0)  -->
<svg version="1.1" id="Capa_1" xmlns="http://www.w3.org/2000/svg" xmlns:xlink="http://www.w3.org/1999/xlink" x="0px" y="0px"
	 viewBox="0 0 30 60" style="enable-background:new 0 0 30 60;" xml:space="preserve">
<style type="text/css">
	.st0{fill:#FF161F;}
	.st1{fill:#AD0A0F;}
	.st2{fill:url(#SVGID_1_);}
</style>
<g>
	<path class="st0" d="M17.1,30c0,7.1,5.8,12.9,12.9,12.9V60C13.5,60,0,46.5,0,30S13.5,0,30,0v17.1C22.9,17.1,17.1,22.9,17.1,30"/>
	<path class="st1" d="M17.1,30c0,7.1,5.8,12.9,12.9,12.9v8.6C18.2,51.4,8.6,41.8,8.6,30C8.6,18.2,18.2,8.6,30,8.6v8.6
		C22.9,17.1,17.1,22.9,17.1,30"/>
	<g>
		
			<linearGradient id="SVGID_1_" gradientUnits="userSpaceOnUse" x1="-8111.2603" y1="6606.9351" x2="-8051.2603" y2="6606.9351" gradientTransform="matrix(0 -1 1 0 -6591.9355 -8051.2603)">
			<stop  offset="0" style="stop-color:#FFFFFF;stop-opacity:0.3"/>
			<stop  offset="1" style="stop-color:#FFFFFF;stop-opacity:0"/>
		</linearGradient>
		<path class="st2" d="M30,0C13.5,0,0,13.5,0,30c0,16.5,13.5,30,30,30l0-17.1c-7.1,0-12.9-5.8-12.9-12.9c0-7.1,5.8-12.9,12.9-12.9
			L30,0z"/>
	</g>
</g>
</svg>
