<?xml version="1.0" encoding="utf-8"?>
<!-- Generator: Adobe Illustrator 24.0.2, SVG Export Plug-In . SVG Version: 6.00 Build 0)  -->
<svg version="1.1" id="Capa_1" xmlns="http://www.w3.org/2000/svg" xmlns:xlink="http://www.w3.org/1999/xlink" x="0px" y="0px"
	 viewBox="0 0 35 35" style="enable-background:new 0 0 35 35;" xml:space="preserve">
<style type="text/css">
	.st0{fill:#E2E8F0;}
</style>
<path class="st0" d="M27.3,13.1h-1.1V8.8c0-4.8-3.9-8.8-8.8-8.8S8.8,3.9,8.8,8.8v4.4H7.7c-1.8,0-3.3,1.5-3.3,3.3v15.3
	c0,1.8,1.5,3.3,3.3,3.3h19.7c1.8,0,3.3-1.5,3.3-3.3V16.4C30.6,14.6,29.2,13.1,27.3,13.1z M11.7,8.8c0-3.2,2.6-5.8,5.8-5.8
	s5.8,2.6,5.8,5.8v4.4H11.7V8.8z M19,24.4v3.3c0,0.8-0.7,1.5-1.5,1.5S16,28.5,16,27.7v-3.3c-0.9-0.5-1.5-1.4-1.5-2.5
	c0-1.6,1.3-2.9,2.9-2.9s2.9,1.3,2.9,2.9C20.4,22.9,19.8,23.9,19,24.4z"/>
</svg>
