<?xml version="1.0" encoding="utf-8"?>
<!-- Generator: Adobe Illustrator 19.2.1, SVG Export Plug-In . SVG Version: 6.00 Build 0)  -->
<svg version="1.1" id="Capa_1" xmlns="http://www.w3.org/2000/svg" xmlns:xlink="http://www.w3.org/1999/xlink" x="0px" y="0px"
	 viewBox="0 0 50 50" style="enable-background:new 0 0 50 50;" xml:space="preserve">
<style type="text/css">
	.st0{fill:#FFFFFF;}
</style>
<g id="_11_Hand_pointing">
	<g>
		<path class="st0" d="M41,18.6c-1-0.1-1.9,0.2-2.7,0.8c0-2-1.5-3.6-3.5-3.9c-1.1-0.1-2.2,0.3-3,1c-0.7-2-2.9-3.1-4.9-2.3
			c-0.4,0.1-0.7,0.3-1,0.6V8c0-2-1.5-3.8-3.5-4c-2.1-0.2-4.1,1.4-4.3,3.5c0,0.1,0,0.3,0,0.4v14.1c0,0.4,0.3,0.8,0.8,0.8
			c0.4,0,0.8-0.3,0.8-0.8V7.8c0-0.7,0.3-1.3,0.8-1.7c0.5-0.4,1.1-0.7,1.8-0.6c1.2,0.2,2.1,1.2,2.1,2.5v19.4c0,0.4,0.3,0.8,0.8,0.8
			c0.4,0,0.8-0.3,0.8-0.8v-9.5c0-0.7,0.3-1.3,0.8-1.7c0.5-0.4,1.1-0.7,1.8-0.6c1.2,0.2,2.1,1.2,2.1,2.5v9.4c0,0.4,0.3,0.8,0.8,0.8
			c0.4,0,0.8-0.3,0.8-0.8v-7.9c0-0.7,0.3-1.3,0.8-1.7c0.5-0.4,1.1-0.7,1.8-0.6c1.2,0.2,2.1,1.2,2.1,2.5v7.8c0,0.4,0.3,0.8,0.8,0.8
			c0.4,0,0.8-0.3,0.8-0.8v-4.8c0-0.7,0.3-1.3,0.8-1.7c0.5-0.4,1.1-0.7,1.8-0.6c1.2,0.2,2.1,1.2,2.1,2.5v10.9
			c0,8.2-6.6,14.8-14.8,14.8h-0.3c-5.3,0-10.3-2.9-12.9-7.5L7.4,27.6c-0.7-1.2-0.3-2.7,1-3.4c1.1-0.6,2.5-0.3,3.2,0.7l6.6,8.5
			c0.3,0.3,0.8,0.4,1.1,0.1c0.2-0.1,0.3-0.4,0.3-0.6V25c0-0.4-0.3-0.8-0.8-0.8c-0.4,0-0.8,0.3-0.8,0.8v5.5l-5.2-6.7
			c-1.4-1.8-3.9-2.1-5.7-0.7c-1.6,1.2-2,3.5-1.1,5.2l7.6,13.3c2.9,5.1,8.4,8.3,14.3,8.3h0.3c9.1,0,16.4-7.3,16.4-16.4V22.7
			C44.5,20.6,43,18.9,41,18.6L41,18.6z"/>
		<path class="st0" d="M15.6,14c0.4,0,0.8-0.3,0.8-0.8c0-0.2-0.1-0.3-0.2-0.5c-0.9-1.2-1.4-2.7-1.4-4.2c0-3.9,3.1-7,7-7
			c3.9,0,7,3.1,7,7c0,0.9-0.2,1.9-0.6,2.8c-0.2,0.4,0,0.9,0.4,1c0.4,0.2,0.8,0,1-0.4c1.9-4.4-0.2-9.4-4.5-11.3S15.8,0.8,14,5.2
			c-1.2,2.8-0.8,6.1,1,8.5C15.1,13.9,15.4,14,15.6,14z"/>
	</g>
</g>
</svg>
