<?xml version="1.0" encoding="utf-8"?>
<!-- Generator: Adobe Illustrator 24.0.2, SVG Export Plug-In . SVG Version: 6.00 Build 0)  -->
<svg version="1.1" id="Capa_1" xmlns="http://www.w3.org/2000/svg" xmlns:xlink="http://www.w3.org/1999/xlink" x="0px" y="0px"
	 viewBox="0 0 24 24" style="enable-background:new 0 0 24 24;" xml:space="preserve">
<style type="text/css">
	.st0{fill:#FFFFFF;}
</style>
<g>
	<path class="st0" d="M9.8,20c0,1.1-0.9,2-2,2H4.9c-1.1,0-2-0.9-2-2V4c0-1.1,0.9-2,2-2h2.9c1.1,0,2,0.9,2,2V20z"/>
	<path class="st0" d="M21.1,20c0,1.1-0.9,2-2,2h-2.9c-1.1,0-2-0.9-2-2V4c0-1.1,0.9-2,2-2h2.9c1.1,0,2,0.9,2,2V20z"/>
</g>
</svg>
