<?xml version="1.0" encoding="utf-8"?>
<!-- Generator: Adobe Illustrator 24.0.2, SVG Export Plug-In . SVG Version: 6.00 Build 0)  -->
<svg version="1.1" id="Capa_1" xmlns="http://www.w3.org/2000/svg" xmlns:xlink="http://www.w3.org/1999/xlink" x="0px" y="0px"
	 viewBox="0 0 50 50" style="enable-background:new 0 0 50 50;" xml:space="preserve">
<style type="text/css">
	.st0{fill:#FF402B;}
</style>
<g>
	<circle class="st0" cx="25" cy="39.6" r="3.5"/>
</g>
<g>
	<path class="st0" d="M47.5,50.1h-45c-0.8,0-1.6-0.4-2.1-1.2c-0.4-0.7-0.5-1.6-0.1-2.4L23,1.2c0.4-0.8,1.3-1.4,2.2-1.4c0,0,0,0,0,0
		c0.9,0,1.8,0.5,2.2,1.4l22.3,45.4c0.4,0.8,0.3,1.7-0.1,2.4S48.3,50.1,47.5,50.1z M6.4,45.3h37.1L25.1,7.8L6.4,45.3z"/>
</g>
<path class="st0" d="M25,34.9c-1.4,0-2.5-1.1-2.5-2.5V18c0-1.4,1.1-2.5,2.5-2.5s2.5,1.1,2.5,2.5v14.3C27.5,33.8,26.4,34.9,25,34.9z"
	/>
</svg>
