<?xml version="1.0" encoding="utf-8"?>
<!-- Generator: Adobe Illustrator 24.0.2, SVG Export Plug-In . SVG Version: 6.00 Build 0)  -->
<svg version="1.1" id="Capa_1" xmlns="http://www.w3.org/2000/svg" xmlns:xlink="http://www.w3.org/1999/xlink" x="0px" y="0px"
	 viewBox="0 0 24 24" style="enable-background:new 0 0 24 24;" xml:space="preserve">
<style type="text/css">
	.st0{fill:#FFFFFF;}
</style>
<g>
	<path class="st0" d="M15.8,21c-0.4,0-0.9-0.2-1.2-0.5l-3.4-3.4C11.1,17,11,17,10.9,17l0,0H8.5c-1.1,0-2-0.9-2-2V9c0-1.1,0.9-2,2-2
		h2.4l0,0c0.1,0,0.2,0,0.3-0.1l3.4-3.4C14.9,3.2,15.3,3,15.8,3c0.4,0,0.9,0.2,1.2,0.5s0.5,0.7,0.5,1.2l0,0v14.6
		c0,0.5-0.2,0.9-0.5,1.2C16.7,20.8,16.2,21,15.8,21z M15.5,19.3L15.5,19.3L15.5,19.3z M10.9,15c0.6,0,1.3,0.3,1.7,0.7l2.9,2.9V5.4
		l-2.9,2.9c-0.4,0.4-1,0.7-1.7,0.7l0,0H8.5v6H10.9L10.9,15z"/>
</g>
</svg>
