<?xml version="1.0" encoding="utf-8"?>
<!-- Generator: Adobe Illustrator 24.0.2, SVG Export Plug-In . SVG Version: 6.00 Build 0)  -->
<svg version="1.1" id="Capa_1" xmlns="http://www.w3.org/2000/svg" xmlns:xlink="http://www.w3.org/1999/xlink" x="0px" y="0px"
	 viewBox="0 0 200 200" style="enable-background:new 0 0 200 200;" xml:space="preserve">
<style type="text/css">
	.st0{fill:#A4A5AA;}
	.st1{fill:#AD0A0F;}
</style>
<g>
	<path class="st0" d="M100,10c-49.7,0-90,40.3-90,90c0,0.3,0,0.5,0,0.8h10.4c0-0.3,0-0.5,0-0.8c0-44,35.6-79.6,79.6-79.6
		S179.6,56,179.6,100c0,0.3,0,0.5,0,0.8H190c0-0.3,0-0.5,0-0.8C190,50.3,149.7,10,100,10z"/>
	<path class="st1" d="M100,179.6c-43.7,0-79.2-35.2-79.6-78.8H10c0.4,49.3,40.6,89.2,90,89.2s89.6-39.9,90-89.2h-10.4
		C179.2,144.4,143.7,179.6,100,179.6z"/>
</g>
</svg>
