<?xml version="1.0" encoding="utf-8"?>
<!-- Generator: Adobe Illustrator 24.0.2, SVG Export Plug-In . SVG Version: 6.00 Build 0)  -->
<svg version="1.1" id="Capa_1" xmlns="http://www.w3.org/2000/svg" xmlns:xlink="http://www.w3.org/1999/xlink" x="0px" y="0px"
	 viewBox="0 0 200 200" style="enable-background:new 0 0 200 200;" xml:space="preserve">
<style type="text/css">
	.st0{fill:#FF161F;}
	.st1{fill:#D9DADE;}
</style>
<g>
	<path class="st0" d="M190,100.8c-0.4,49.3-40.6,89.2-90,89.2s-89.6-39.9-90-89.2H0C0.4,155.7,45,200,100,200s99.6-44.3,100-99.2
		H190z"/>
	<path class="st1" d="M10,100c0-49.7,40.3-90,90-90s90,40.3,90,90c0,0.3,0,0.5,0,0.8h10c0-0.3,0-0.5,0-0.8C200,44.8,155.2,0,100,0
		S0,44.8,0,100c0,0.3,0,0.5,0,0.8h10C10,100.5,10,100.3,10,100z"/>
</g>
</svg>
