<?xml version="1.0" encoding="utf-8"?>
<!-- Generator: Adobe Illustrator 24.0.2, SVG Export Plug-In . SVG Version: 6.00 Build 0)  -->
<svg version="1.1" id="Capa_1" xmlns="http://www.w3.org/2000/svg" xmlns:xlink="http://www.w3.org/1999/xlink" x="0px" y="0px"
	 viewBox="0 0 360 210" style="enable-background:new 0 0 360 210;" xml:space="preserve">
<style type="text/css">
	.st0{fill:#FFFFFF;}
</style>
<g>
	<path class="st0" d="M60.3,153.7c0,2-0.6,3.5-1.8,4.5c-1.2,1-3,1.5-5.4,1.5H50v-11.9h2.6c2.7,0,4.7,0.5,5.9,1.4
		C59.7,150.2,60.3,151.7,60.3,153.7 M57,153.7c0-1.2-0.3-2-0.9-2.5c-0.6-0.5-1.5-0.8-2.8-0.8h-0.3v6.7h0.3c1.3,0,2.2-0.3,2.8-0.8
		C56.7,155.7,57,154.9,57,153.7"/>
	<polygon class="st0" points="69,159.7 62.1,159.7 62.1,147.7 69,147.7 69,150.4 65.2,150.4 65.2,152.4 68.8,152.4 68.8,154.9 
		65.2,154.9 65.2,157 69,157 	"/>
	<polygon class="st0" points="90.2,159.7 87.1,159.7 86.2,152.4 84,159.7 81.9,159.7 79.8,152.4 78.8,159.7 75.7,159.7 77.5,147.7 
		80.8,147.7 83,155.3 85.1,147.7 88.4,147.7 	"/>
	<polygon class="st0" points="98.7,159.7 91.8,159.7 91.8,147.7 98.7,147.7 98.7,150.4 95,150.4 95,152.4 98.5,152.4 98.5,154.9 
		95,154.9 95,157 98.7,157 	"/>
	<path class="st0" d="M110.8,153.7c0,2-0.6,3.5-1.8,4.5c-1.2,1-3,1.5-5.4,1.5h-3v-11.9h2.6c2.7,0,4.7,0.5,5.9,1.4
		C110.2,150.2,110.8,151.7,110.8,153.7 M107.6,153.7c0-1.2-0.3-2-0.9-2.5c-0.6-0.5-1.5-0.8-2.8-0.8h-0.3v6.7h0.3
		c1.3,0,2.2-0.3,2.8-0.8C107.3,155.7,107.6,154.9,107.6,153.7"/>
	<polygon class="st0" points="119.5,159.7 112.7,159.7 112.7,147.7 119.5,147.7 119.5,150.4 115.8,150.4 115.8,152.4 119.3,152.4 
		119.3,154.9 115.8,154.9 115.8,157 119.5,157 	"/>
	<polygon class="st0" points="127.8,159.7 121.4,159.7 121.4,147.7 124.6,147.7 124.6,156.9 127.8,156.9 	"/>
	<polygon class="st0" points="135.7,159.7 129.2,159.7 129.2,147.7 132.5,147.7 132.5,156.9 135.7,156.9 	"/>
	<rect x="137" y="147.7" class="st0" width="3.1" height="11.9"/>
	<polygon class="st0" points="154.2,159.7 151.1,159.7 145.6,152.3 145.6,159.7 142.5,159.7 142.5,147.7 145.6,147.7 151.1,155.2 
		151.1,147.7 154.2,147.7 	"/>
	<path class="st0" d="M170.7,151.8c0,1.3-0.4,2.3-1.3,3c-0.9,0.7-2.2,1-3.9,1H165v3.9h-3.1v-11.9h3.5c1.8,0,3.2,0.3,4.1,1
		C170.2,149.4,170.7,150.4,170.7,151.8 M167.4,151.8c0-0.5-0.2-0.9-0.5-1.1c-0.3-0.2-0.8-0.4-1.6-0.4H165v3h0.4
		c0.8,0,1.3-0.1,1.6-0.3C167.3,152.7,167.4,152.3,167.4,151.8"/>
	<path class="st0" d="M182.9,159.7h-3.3l-0.6-2.1h-4.6l-0.7,2.1h-3.3l4.2-11.9h4L182.9,159.7z M178.3,155.3l-1.6-5.1l-1.6,5.1H178.3
		z"/>
	<path class="st0" d="M193.5,159.7h-3.7l-2.7-4.6v4.6H184v-11.9h3.6c1.9,0,3.3,0.3,4.1,0.9c0.8,0.6,1.2,1.6,1.2,2.9
		c0,0.9-0.2,1.7-0.7,2.2c-0.4,0.6-1.1,1-2,1.1L193.5,159.7z M189.6,151.9c0-0.6-0.1-1-0.4-1.3c-0.3-0.3-0.8-0.4-1.5-0.4h-0.6v3.2
		h0.6c0.7,0,1.2-0.1,1.5-0.4C189.5,152.8,189.6,152.4,189.6,151.9"/>
	<path class="st0" d="M206.4,159.7H203l-0.7-2.1h-4.6l-0.7,2.1h-3.3l4.2-11.9h4L206.4,159.7z M201.7,155.3l-1.6-5.1l-1.6,5.1H201.7z
		"/>
	<path class="st0" d="M224.2,159.7h-3.3l-0.6-2.1h-4.6l-0.7,2.1h-3.3l4.3-11.9h4L224.2,159.7z M219.5,155.3l-1.6-5.1l-1.6,5.1H219.5
		z"/>
	<polygon class="st0" points="236.9,159.7 233.8,159.7 228.3,152.3 228.3,159.7 225.2,159.7 225.2,147.7 228.3,147.7 233.8,155.2 
		233.8,147.7 236.9,147.7 	"/>
	<polygon class="st0" points="246.2,150.5 243.8,150.5 243.8,159.7 240.7,159.7 240.7,150.5 238.3,150.5 238.3,147.7 246.2,147.7 	
		"/>
	<rect x="247.4" y="147.7" class="st0" width="3.1" height="11.9"/>
	<path class="st0" d="M265.1,153.7c0,1.8-0.6,3.2-1.8,4.4c-1.2,1.2-2.8,1.8-4.6,1.8c-1.8,0-3.4-0.6-4.6-1.8
		c-1.3-1.2-1.9-2.7-1.9-4.4c0-1.8,0.6-3.2,1.9-4.4c1.2-1.2,2.8-1.8,4.6-1.8c1.8,0,3.4,0.6,4.6,1.8
		C264.5,150.5,265.1,152,265.1,153.7 M261.9,153.7c0-0.9-0.3-1.7-0.9-2.3c-0.6-0.6-1.4-0.9-2.3-0.9c-1,0-1.7,0.3-2.3,0.9
		c-0.6,0.6-0.9,1.4-0.9,2.3c0,0.9,0.3,1.7,0.9,2.3c0.6,0.6,1.4,0.9,2.3,0.9c0.9,0,1.7-0.3,2.3-0.9
		C261.6,155.4,261.9,154.7,261.9,153.7"/>
	<path class="st0" d="M279.2,153.7c0,0.9-0.2,1.7-0.5,2.5c-0.3,0.8-0.8,1.5-1.5,2l1.9,2.5l-2.6,0.3l-1.2-1.6
		c-0.4,0.2-0.8,0.3-1.2,0.4c-0.4,0.1-0.9,0.1-1.3,0.1c-1.8,0-3.4-0.6-4.6-1.8c-1.2-1.2-1.9-2.7-1.9-4.4c0-1.8,0.6-3.2,1.9-4.4
		c1.3-1.2,2.8-1.8,4.6-1.8c1.8,0,3.4,0.6,4.6,1.8C278.6,150.5,279.2,152,279.2,153.7 M276,153.7c0-0.9-0.3-1.7-0.9-2.3
		c-0.6-0.6-1.4-0.9-2.3-0.9c-1,0-1.7,0.3-2.3,0.9c-0.6,0.6-0.9,1.4-0.9,2.3c0,0.9,0.3,1.7,0.9,2.3c0.6,0.6,1.4,0.9,2.3,0.9
		c0.1,0,0.2,0,0.3,0c0.1,0,0.2,0,0.3,0l-1.5-1.9l2.6-0.3l0.8,1.1c0.2-0.3,0.4-0.6,0.5-0.9C275.9,154.5,276,154.1,276,153.7"/>
	<path class="st0" d="M291.2,154.2c0,2.2-0.4,3.7-1.2,4.5c-0.8,0.8-2.1,1.2-4,1.2c-1.9,0-3.2-0.4-4-1.2c-0.8-0.8-1.1-2.3-1.1-4.5
		v-6.4h3.1v6.5c0,1.2,0.2,2,0.4,2.4c0.3,0.4,0.8,0.6,1.6,0.6c0.8,0,1.3-0.2,1.6-0.6c0.3-0.4,0.4-1.2,0.4-2.4v-6.5h3.1V154.2z"/>
	<rect x="293.4" y="147.7" class="st0" width="3.1" height="11.9"/>
	<path class="st0" d="M310,159.7h-3.3l-0.6-2.1h-4.6l-0.7,2.1h-3.3l4.2-11.9h4L310,159.7z M305.4,155.3l-1.6-5.1l-1.6,5.1H305.4z"/>
	<path class="st0" d="M61.8,140.7c-0.5,0.3-1.1,0.6-1.9,0.8c-0.7,0.2-1.5,0.3-2.4,0.3c-2.4,0-4.3-0.8-5.9-2.4
		c-1.6-1.6-2.3-3.6-2.3-6c0-2.4,0.8-4.4,2.3-6c1.6-1.6,3.5-2.4,5.9-2.4c0.9,0,1.7,0.1,2.4,0.2c0.7,0.2,1.3,0.4,1.8,0.8v4.7
		c-0.5-0.5-1.1-1-1.7-1.3c-0.7-0.3-1.4-0.5-2.1-0.5c-1.3,0-2.3,0.4-3.1,1.2c-0.8,0.8-1.2,1.9-1.2,3.2c0,1.2,0.4,2.2,1.2,3
		c0.8,0.8,1.8,1.2,3.1,1.2c0.7,0,1.4-0.1,2.1-0.4c0.7-0.3,1.3-0.7,1.7-1.3V140.7z"/>
	<path class="st0" d="M79.4,141.3h-4.5l-0.9-2.8h-6.1l-0.9,2.8h-4.5l5.7-16h5.4L79.4,141.3z M73.1,135.4l-2.1-6.8l-2.1,6.8H73.1z"/>
	<polygon class="st0" points="99.5,141.3 95.3,141.3 94,131.5 91.2,141.3 88.3,141.3 85.4,131.5 84.1,141.3 80,141.3 82.4,125.3 
		86.8,125.3 89.7,135.4 92.6,125.3 97,125.3 	"/>
	<path class="st0" d="M116.9,141.3h-4.5l-0.9-2.8h-6.1l-0.9,2.8h-4.5l5.7-16h5.4L116.9,141.3z M110.6,135.4l-2.1-6.8l-2.2,6.8H110.6
		z"/>
	<path class="st0" d="M131,141.3h-4.9l-3.7-6.2v6.2h-4.2v-16h4.9c2.6,0,4.4,0.4,5.5,1.2c1,0.8,1.6,2.1,1.6,3.9c0,1.2-0.3,2.2-0.9,3
		c-0.6,0.8-1.5,1.3-2.7,1.5L131,141.3z M125.9,130.9c0-0.8-0.2-1.4-0.6-1.7c-0.4-0.3-1.1-0.5-2-0.5h-0.8v4.3h0.8
		c0.9,0,1.6-0.2,2-0.5C125.7,132.1,125.9,131.6,125.9,130.9"/>
	<path class="st0" d="M148.3,141.3h-4.5l-0.9-2.8h-6.1l-0.9,2.8h-4.5l5.7-16h5.4L148.3,141.3z M142.1,135.4l-2.1-6.8l-2.1,6.8H142.1
		z"/>
	<path class="st0" d="M170.8,133.3c0,2.7-0.8,4.7-2.4,6c-1.6,1.3-4,2-7.3,2H157v-16h3.5c3.7,0,6.3,0.7,7.9,1.9
		C170,128.5,170.8,130.6,170.8,133.3 M166.5,133.3c0-1.5-0.4-2.7-1.2-3.4c-0.8-0.7-2-1.1-3.7-1.1h-0.4v9h0.4c1.7,0,2.9-0.4,3.7-1.1
		C166.1,136,166.5,134.9,166.5,133.3"/>
	<polygon class="st0" points="182.5,141.3 173.3,141.3 173.3,125.3 182.5,125.3 182.5,128.8 177.5,128.8 177.5,131.5 182.3,131.5 
		182.3,134.9 177.5,134.9 177.5,137.8 182.5,137.8 	"/>
	<path class="st0" d="M223.1,133.3c0,2.4-0.8,4.3-2.5,5.9c-1.7,1.6-3.7,2.4-6.2,2.4c-2.5,0-4.5-0.8-6.2-2.4
		c-1.7-1.6-2.5-3.6-2.5-5.9c0-2.4,0.8-4.4,2.5-6c1.7-1.6,3.7-2.4,6.2-2.4c2.5,0,4.5,0.8,6.2,2.4C222.3,129,223.1,131,223.1,133.3
		 M218.8,133.3c0-1.2-0.4-2.3-1.2-3.1c-0.8-0.8-1.9-1.3-3.1-1.3c-1.3,0-2.3,0.4-3.1,1.3c-0.8,0.8-1.2,1.9-1.2,3.1
		c0,1.2,0.4,2.3,1.2,3.1c0.8,0.8,1.9,1.2,3.1,1.2c1.3,0,2.3-0.4,3.1-1.2C218.4,135.6,218.8,134.6,218.8,133.3"/>
	<polygon class="st0" points="244,141.3 239.8,141.3 238.5,131.5 235.7,141.3 232.8,141.3 230,131.5 228.6,141.3 224.5,141.3 
		226.9,125.3 231.3,125.3 234.3,135.4 237.2,125.3 241.5,125.3 	"/>
	<polygon class="st0" points="255.4,141.3 246.2,141.3 246.2,125.3 255.4,125.3 255.4,128.8 250.4,128.8 250.4,131.5 255.1,131.5 
		255.1,134.9 250.4,134.9 250.4,137.8 255.4,137.8 	"/>
	<path class="st0" d="M270.6,141.3h-4.9l-3.7-6.2v6.2h-4.2v-16h4.9c2.6,0,4.4,0.4,5.5,1.2c1.1,0.8,1.6,2.1,1.6,3.9
		c0,1.2-0.3,2.2-0.9,3c-0.6,0.8-1.5,1.3-2.7,1.5L270.6,141.3z M265.5,130.9c0-0.8-0.2-1.4-0.6-1.7c-0.4-0.3-1.1-0.5-2-0.5h-0.8v4.3
		h0.8c0.9,0,1.6-0.2,2-0.5C265.3,132.1,265.5,131.6,265.5,130.9"/>
	<path class="st0" d="M283.9,140.7c-0.5,0.3-1.1,0.6-1.9,0.8c-0.7,0.2-1.5,0.3-2.4,0.3c-2.4,0-4.3-0.8-5.9-2.4
		c-1.6-1.6-2.3-3.6-2.3-6c0-2.4,0.8-4.4,2.3-6c1.6-1.6,3.5-2.4,5.9-2.4c0.9,0,1.7,0.1,2.4,0.2c0.7,0.2,1.3,0.4,1.8,0.8v4.7
		c-0.5-0.5-1.1-1-1.7-1.3c-0.7-0.3-1.4-0.5-2.1-0.5c-1.3,0-2.3,0.4-3.1,1.2c-0.8,0.8-1.2,1.9-1.2,3.2c0,1.2,0.4,2.2,1.2,3
		c0.8,0.8,1.8,1.2,3.1,1.2c0.7,0,1.4-0.1,2.1-0.4c0.7-0.3,1.3-0.7,1.7-1.3V140.7z"/>
	<rect x="286.2" y="125.3" class="st0" width="4.2" height="16"/>
	<path class="st0" d="M310,133.3c0,2.4-0.8,4.3-2.5,5.9c-1.7,1.6-3.7,2.4-6.2,2.4c-2.5,0-4.5-0.8-6.2-2.4c-1.7-1.6-2.5-3.6-2.5-5.9
		c0-2.4,0.8-4.4,2.5-6c1.7-1.6,3.7-2.4,6.2-2.4c2.5,0,4.5,0.8,6.2,2.4C309.2,129,310,131,310,133.3 M305.7,133.3
		c0-1.2-0.4-2.3-1.2-3.1c-0.8-0.8-1.9-1.3-3.1-1.3c-1.3,0-2.3,0.4-3.1,1.3c-0.8,0.8-1.2,1.9-1.2,3.1c0,1.2,0.4,2.3,1.2,3.1
		c0.8,0.8,1.9,1.2,3.1,1.2c1.3,0,2.3-0.4,3.1-1.2C305.3,135.6,305.7,134.6,305.7,133.3"/>
	<path class="st0" d="M204,140.7c-0.5,0.3-1.1,0.6-1.8,0.8c-0.7,0.2-1.5,0.3-2.4,0.3c-2.4,0-4.3-0.8-5.9-2.4c-1.5-1.6-2.3-3.6-2.3-6
		c0-2.4,0.8-4.4,2.3-6c1.6-1.6,3.5-2.4,5.9-2.4c0.9,0,1.7,0.1,2.4,0.2c0.7,0.2,1.3,0.4,1.8,0.8v4.7c-0.5-0.5-1.1-1-1.7-1.3
		c-0.7-0.3-1.4-0.5-2.1-0.5c-1.3,0-2.3,0.4-3.1,1.2c-0.8,0.8-1.2,1.9-1.2,3.2c0,1.2,0.4,2.2,1.2,3c0.8,0.8,1.8,1.2,3.1,1.2
		c0.7,0,1.4-0.1,2.1-0.4c0.7-0.3,1.3-0.7,1.7-1.3V140.7z"/>
	<path class="st0" d="M313.3,128.7c0-1.5,1.2-2.7,2.7-2.7c1.5,0,2.6,1.2,2.6,2.7c0,1.6-1.2,2.7-2.6,2.7
		C314.5,131.4,313.3,130.2,313.3,128.7 M316,131.9c1.7,0,3.2-1.4,3.2-3.2c0-1.8-1.5-3.2-3.2-3.2c-1.8,0-3.2,1.4-3.2,3.2
		C312.8,130.5,314.2,131.9,316,131.9 M315.3,128.9h0.7l1,1.6h0.6l-1.1-1.6c0.5-0.1,1-0.4,1-1c0-0.7-0.4-1-1.3-1h-1.4v3.7h0.6V128.9z
		 M315.3,128.5v-1.1h0.8c0.4,0,0.8,0.1,0.8,0.6c0,0.5-0.4,0.6-0.9,0.6H315.3z"/>
	<path class="st0" d="M204.5,74.9c0-13.3-10.5-24.2-23.7-24.8v8.4c8.6,0.6,15.4,7.7,15.4,16.4c0,8.7-6.8,15.9-15.4,16.4v8.4
		C194,99.1,204.5,88.2,204.5,74.9"/>
	<path class="st0" d="M163.2,74.9c0-8.7,6.8-15.9,15.4-16.4v-8.4c-13.2,0.6-23.7,11.5-23.7,24.8c0,13.3,10.5,24.2,23.7,24.8v-8.4
		C170,90.8,163.2,83.6,163.2,74.9"/>
	<path class="st0" d="M211,74.9h-2.8c0,15.7-12.8,28.4-28.5,28.4c-15.7,0-28.4-12.7-28.4-28.4h-7.3h-2.1v42.6h9.4V99.3
		c6.9,7.7,17.1,12.6,28.5,12.6c11.3,0,21.5-4.9,28.4-12.6v18.1h9.4V74.9H211z"/>
</g>
</svg>
