<?xml version="1.0" encoding="utf-8"?>
<!-- Generator: Adobe Illustrator 24.0.2, SVG Export Plug-In . SVG Version: 6.00 Build 0)  -->
<svg version="1.1" id="Capa_1" xmlns="http://www.w3.org/2000/svg" xmlns:xlink="http://www.w3.org/1999/xlink" x="0px" y="0px"
	 viewBox="0 0 360 150" style="enable-background:new 0 0 360 150;" xml:space="preserve">
<style type="text/css">
	.st0{fill:#010202;}
	.st1{fill:#BBBDBF;}
	.st2{fill:#E22227;}
	.st3{display:none;}
	.st4{display:inline;fill:#BBBDBF;}
	.st5{display:inline;fill:none;stroke:#BBBDBF;stroke-width:0.283;stroke-miterlimit:10;}
</style>
<g>
	<path class="st0" d="M15.7,139.3c0,2.7-0.8,4.6-2.3,5.9c-1.5,1.3-3.9,1.9-7.2,1.9h-4v-15.8h3.4c3.6,0,6.2,0.6,7.8,1.9
		C14.9,134.6,15.7,136.6,15.7,139.3 M11.5,139.3c0-1.5-0.4-2.6-1.2-3.4c-0.8-0.7-2-1.1-3.7-1.1H6.3v8.8h0.4c1.7,0,2.9-0.3,3.7-1.1
		C11.1,141.9,11.5,140.8,11.5,139.3"/>
	<polygon class="st0" points="27.2,147.2 18.2,147.2 18.2,131.4 27.2,131.4 27.2,134.8 22.3,134.8 22.3,137.5 27,137.5 27,140.8 
		22.3,140.8 22.3,143.7 27.2,143.7 	"/>
	<polygon class="st0" points="55.3,147.2 51.3,147.2 50,137.5 47.2,147.2 44.3,147.2 41.5,137.5 40.2,147.2 36.1,147.2 38.5,131.4 
		42.9,131.4 45.7,141.3 48.6,131.4 52.9,131.4 	"/>
	<polygon class="st0" points="66.5,147.2 57.5,147.2 57.5,131.4 66.5,131.4 66.5,134.8 61.6,134.8 61.6,137.5 66.3,137.5 
		66.3,140.8 61.6,140.8 61.6,143.7 66.5,143.7 	"/>
	<path class="st0" d="M82.6,139.3c0,2.7-0.8,4.6-2.3,5.9c-1.5,1.3-3.9,1.9-7.2,1.9h-4v-15.8h3.4c3.6,0,6.2,0.6,7.8,1.9
		C81.8,134.6,82.6,136.6,82.6,139.3 M78.3,139.3c0-1.5-0.4-2.6-1.2-3.4c-0.8-0.7-2-1.1-3.7-1.1H73v8.8h0.4c1.7,0,2.9-0.3,3.7-1.1
		C77.9,141.9,78.3,140.8,78.3,139.3"/>
	<polygon class="st0" points="94.1,147.2 85,147.2 85,131.4 94.1,131.4 94.1,134.8 89.1,134.8 89.1,137.5 93.9,137.5 93.9,140.8 
		89.1,140.8 89.1,143.7 94.1,143.7 	"/>
	<polygon class="st0" points="105.1,147.2 96.5,147.2 96.5,131.4 100.8,131.4 100.8,143.5 105.1,143.5 	"/>
	<polygon class="st0" points="115.5,147.2 106.9,147.2 106.9,131.4 111.2,131.4 111.2,143.5 115.5,143.5 	"/>
	<rect x="117.2" y="131.4" class="st0" width="4.1" height="15.8"/>
	<polygon class="st0" points="139.9,147.2 135.8,147.2 128.5,137.4 128.5,147.2 124.4,147.2 124.4,131.4 128.5,131.4 135.8,141.2 
		135.8,131.4 139.9,131.4 	"/>
	<path class="st0" d="M161.7,136.7c0,1.7-0.6,3-1.7,3.9c-1.2,0.9-2.9,1.3-5.1,1.3h-0.7v5.2h-4.1v-15.8h4.6c2.4,0,4.2,0.4,5.4,1.3
		C161.1,133.6,161.7,134.9,161.7,136.7 M157.4,136.7c0-0.7-0.2-1.2-0.6-1.5c-0.4-0.3-1.1-0.5-2.1-0.5h-0.6v3.9h0.5
		c1,0,1.7-0.2,2.1-0.5C157.2,137.9,157.4,137.4,157.4,136.7"/>
	<path class="st0" d="M178,147.2h-4.4l-0.9-2.8h-6l-0.9,2.8h-4.4l5.6-15.8h5.3L178,147.2z M171.8,141.3l-2.1-6.7l-2.1,6.7H171.8z"/>
	<path class="st0" d="M191.9,147.2H187l-3.6-6.1v6.1h-4.1v-15.8h4.8c2.6,0,4.4,0.4,5.4,1.2s1.6,2.1,1.6,3.8c0,1.2-0.3,2.2-0.9,3
		c-0.6,0.8-1.5,1.3-2.6,1.5L191.9,147.2z M186.8,136.9c0-0.8-0.2-1.3-0.6-1.7c-0.4-0.3-1.1-0.5-2-0.5h-0.8v4.2h0.8
		c0.9,0,1.6-0.2,2-0.5C186.6,138.1,186.8,137.6,186.8,136.9"/>
	<path class="st0" d="M208.9,147.2h-4.4l-0.9-2.8h-6l-0.9,2.8h-4.4l5.6-15.8h5.3L208.9,147.2z M202.7,141.3l-2.1-6.7l-2.1,6.7H202.7
		z"/>
	<path class="st0" d="M232.5,147.2h-4.4l-0.8-2.8h-6l-0.9,2.8H216l5.6-15.8h5.3L232.5,147.2z M226.3,141.3l-2.1-6.7l-2.1,6.7H226.3z
		"/>
	<polygon class="st0" points="249.3,147.2 245.2,147.2 237.9,137.4 237.9,147.2 233.8,147.2 233.8,131.4 237.9,131.4 245.2,141.2 
		245.2,131.4 249.3,131.4 	"/>
	<polygon class="st0" points="261.6,135 258.4,135 258.4,147.2 254.3,147.2 254.3,135 251.1,135 251.1,131.4 261.6,131.4 	"/>
	<rect x="263.2" y="131.4" class="st0" width="4.1" height="15.8"/>
	<path class="st0" d="M286.6,139.3c0,2.3-0.8,4.3-2.4,5.8c-1.6,1.6-3.7,2.4-6.1,2.4s-4.5-0.8-6.1-2.4c-1.7-1.6-2.5-3.5-2.5-5.8
		s0.8-4.3,2.5-5.9c1.6-1.6,3.7-2.4,6.1-2.4s4.5,0.8,6.1,2.4C285.8,135,286.6,136.9,286.6,139.3 M282.4,139.3c0-1.2-0.4-2.2-1.2-3
		c-0.8-0.8-1.8-1.2-3.1-1.2c-1.3,0-2.3,0.4-3.1,1.2c-0.8,0.8-1.2,1.8-1.2,3.1c0,1.2,0.4,2.2,1.2,3c0.8,0.8,1.8,1.2,3.1,1.2
		c1.2,0,2.3-0.4,3.1-1.2C282,141.5,282.4,140.5,282.4,139.3"/>
	<path class="st0" d="M305.2,139.3c0,1.2-0.2,2.3-0.7,3.3c-0.4,1-1.1,1.9-1.9,2.7l2.5,3.3l-3.4,0.4l-1.6-2.1
		c-0.5,0.2-1.1,0.4-1.6,0.5c-0.6,0.1-1.1,0.2-1.7,0.2c-2.4,0-4.5-0.8-6.1-2.4c-1.6-1.6-2.5-3.5-2.5-5.8s0.8-4.3,2.5-5.9
		c1.7-1.6,3.7-2.4,6.1-2.4s4.4,0.8,6.1,2.4C304.4,135,305.2,136.9,305.2,139.3 M301,139.3c0-1.2-0.4-2.2-1.2-3
		c-0.8-0.8-1.8-1.2-3.1-1.2c-1.3,0-2.3,0.4-3.1,1.2c-0.8,0.8-1.2,1.8-1.2,3.1c0,1.2,0.4,2.2,1.2,3c0.8,0.8,1.8,1.2,3.1,1.2
		c0.1,0,0.3,0,0.4,0s0.3,0,0.4-0.1l-1.9-2.5l3.4-0.4l1.1,1.4c0.3-0.4,0.5-0.8,0.6-1.2C300.9,140.2,301,139.8,301,139.3"/>
	<path class="st0" d="M321,139.9c0,2.9-0.5,4.9-1.5,6s-2.8,1.6-5.3,1.6s-4.3-0.5-5.3-1.6s-1.5-3.1-1.5-6v-8.5h4.1v8.5
		c0,1.6,0.2,2.6,0.6,3.1c0.4,0.6,1.1,0.8,2.1,0.8s1.7-0.3,2.1-0.8s0.6-1.6,0.6-3.1v-8.5h4.1L321,139.9L321,139.9z"/>
	<rect x="324" y="131.4" class="st0" width="4.1" height="15.8"/>
	<path class="st0" d="M346,147.2h-4.4l-0.9-2.8h-6l-0.9,2.8h-4.4l5.6-15.8h5.3L346,147.2z M339.8,141.3l-2.1-6.7l-2.1,6.7H339.8z"/>
	<path class="st0" d="M17.8,122c-0.7,0.5-1.5,0.8-2.5,1s-2,0.3-3.2,0.3c-3.1,0-5.7-1-7.8-3.1s-3.1-4.7-3.1-7.9c0-3.2,1-5.8,3.1-7.9
		s4.6-3.2,7.7-3.2c1.2,0,2.3,0.1,3.2,0.3c0.9,0.2,1.8,0.6,2.4,1v6.3c-0.6-0.7-1.4-1.3-2.3-1.7c-0.9-0.4-1.8-0.6-2.8-0.6
		c-1.7,0-3.1,0.6-4.1,1.6c-1,1.1-1.6,2.5-1.6,4.2c0,1.6,0.5,3,1.6,4s2.4,1.6,4.1,1.6c0.9,0,1.8-0.2,2.7-0.6c0.9-0.4,1.7-1,2.3-1.7
		v6.4H17.8z"/>
	<path class="st0" d="M41,122.9h-5.9l-1.2-3.8h-8.1l-1.2,3.8h-5.9l7.5-21.2h7.2L41,122.9z M32.7,115l-2.8-9l-2.8,9H32.7z"/>
	<polygon class="st0" points="67.6,122.9 62.1,122.9 60.3,109.9 56.6,122.9 52.8,122.9 49,109.9 47.2,122.9 41.8,122.9 45,101.7 
		50.8,101.7 54.7,115 58.5,101.7 64.3,101.7 	"/>
	<path class="st0" d="M90.6,122.9h-5.9l-1.2-3.8h-8.1l-1.2,3.8h-5.9l7.5-21.2H83L90.6,122.9z M82.3,115l-2.8-9l-2.8,9H82.3z"/>
	<path class="st0" d="M109.3,122.9h-6.5l-4.9-8.2v8.2h-5.5v-21.2h6.5c3.4,0,5.9,0.5,7.3,1.6s2.1,2.8,2.1,5.1c0,1.6-0.4,3-1.2,4
		c-0.8,1-2,1.7-3.5,2L109.3,122.9z M102.5,109.1c0-1-0.3-1.8-0.8-2.2c-0.5-0.4-1.4-0.7-2.7-0.7h-1.1v5.6h1c1.2,0,2.1-0.2,2.7-0.7
		C102.2,110.7,102.5,110,102.5,109.1"/>
	<path class="st0" d="M132.2,122.9h-5.9l-1.1-3.8H117l-1.2,3.8h-5.9l7.5-21.2h7.2L132.2,122.9z M123.9,115l-2.8-9l-2.8,9H123.9z"/>
	<path class="st0" d="M161.9,112.3c0,3.6-1,6.2-3.1,8c-2.1,1.7-5.3,2.6-9.7,2.6h-5.4v-21.2h4.6c4.8,0,8.3,0.9,10.4,2.6
		C160.8,106,161.9,108.7,161.9,112.3 M156.1,112.3c0-2-0.5-3.5-1.6-4.5c-1-1-2.7-1.5-4.9-1.5h-0.5v11.9h0.5c2.2,0,3.9-0.5,4.9-1.4
		C155.6,115.8,156.1,114.3,156.1,112.3"/>
	<polygon class="st0" points="177.3,122.9 165.2,122.9 165.2,101.7 177.3,101.7 177.3,106.3 170.7,106.3 170.7,109.9 177,109.9 
		177,114.4 170.7,114.4 170.7,118.2 177.3,118.2 	"/>
	<path class="st0" d="M231.1,112.3c0,3.1-1.1,5.7-3.3,7.9c-2.2,2.1-4.9,3.2-8.2,3.2s-6-1.1-8.2-3.2s-3.3-4.7-3.3-7.9
		c0-3.1,1.1-5.8,3.3-7.9s4.9-3.2,8.2-3.2c3.2,0,6,1.1,8.2,3.2S231.1,109.2,231.1,112.3 M225.3,112.3c0-1.6-0.5-3-1.6-4.1
		s-2.5-1.7-4.1-1.7c-1.7,0-3.1,0.6-4.2,1.7c-1.1,1.1-1.6,2.4-1.6,4.1c0,1.6,0.5,3,1.6,4.1s2.5,1.6,4.1,1.6c1.7,0,3-0.6,4.1-1.6
		C224.8,115.3,225.3,113.9,225.3,112.3"/>
	<polygon class="st0" points="258.7,122.9 253.2,122.9 251.4,109.9 247.7,122.9 243.9,122.9 240.1,109.9 238.3,122.9 232.9,122.9 
		236.1,101.7 241.9,101.7 245.8,115 249.6,101.7 255.4,101.7 	"/>
	<polygon class="st0" points="273.7,122.9 261.6,122.9 261.6,101.7 273.7,101.7 273.7,106.3 267.1,106.3 267.1,109.9 273.4,109.9 
		273.4,114.4 267.1,114.4 267.1,118.2 273.7,118.2 	"/>
	<path class="st0" d="M293.9,122.9h-6.5l-4.9-8.2v8.2H277v-21.2h6.5c3.4,0,5.9,0.5,7.2,1.6c1.4,1.1,2.1,2.8,2.1,5.1
		c0,1.6-0.4,3-1.2,4c-0.8,1-2,1.7-3.5,2L293.9,122.9z M287.1,109.1c0-1-0.3-1.8-0.8-2.2c-0.5-0.4-1.4-0.7-2.7-0.7h-1.1v5.6h1
		c1.2,0,2.1-0.2,2.7-0.7C286.8,110.7,287.1,110,287.1,109.1"/>
	<path class="st0" d="M311.5,122c-0.7,0.5-1.5,0.8-2.5,1s-2,0.3-3.2,0.3c-3.1,0-5.7-1-7.8-3.1c-2.1-2.1-3.1-4.7-3.1-7.9
		c0-3.2,1-5.8,3.1-7.9s4.6-3.2,7.8-3.2c1.2,0,2.3,0.1,3.2,0.3c1,0.2,1.8,0.6,2.4,1v6.3c-0.6-0.7-1.4-1.3-2.3-1.7
		c-0.9-0.4-1.8-0.6-2.8-0.6c-1.7,0-3.1,0.6-4.1,1.6c-1,1.1-1.6,2.5-1.6,4.2c0,1.6,0.5,3,1.6,4s2.4,1.6,4.1,1.6
		c0.9,0,1.8-0.2,2.7-0.6c0.9-0.4,1.7-1,2.3-1.7v6.4H311.5z"/>
	<rect x="314.4" y="101.7" class="st0" width="5.5" height="21.2"/>
	<path class="st0" d="M346,112.3c0,3.1-1.1,5.7-3.3,7.9c-2.2,2.1-4.9,3.2-8.2,3.2c-3.3,0-6-1.1-8.2-3.2s-3.3-4.7-3.3-7.9
		c0-3.1,1.1-5.8,3.3-7.9c2.2-2.1,4.9-3.2,8.2-3.2c3.3,0,6,1.1,8.2,3.2C344.9,106.5,346,109.2,346,112.3 M340.2,112.3
		c0-1.6-0.5-3-1.6-4.1s-2.5-1.7-4.1-1.7c-1.7,0-3.1,0.6-4.1,1.7c-1.1,1.1-1.6,2.4-1.6,4.1c0,1.6,0.5,3,1.6,4.1s2.5,1.6,4.1,1.6
		c1.7,0,3-0.6,4.1-1.6C339.7,115.3,340.2,113.9,340.2,112.3"/>
	<path class="st0" d="M205.8,122c-0.7,0.4-1.5,0.8-2.4,1c-1,0.2-2,0.3-3.2,0.3c-3.1,0-5.7-1-7.7-3.1s-3.1-4.7-3.1-7.9
		c0-3.2,1-5.8,3.1-7.9c2-2.1,4.6-3.2,7.7-3.2c1.2,0,2.3,0.1,3.2,0.3c0.9,0.2,1.8,0.6,2.4,1v6.3c-0.6-0.7-1.4-1.3-2.3-1.7
		c-0.9-0.4-1.8-0.6-2.8-0.6c-1.7,0-3.1,0.6-4.1,1.6c-1,1.1-1.6,2.5-1.6,4.2c0,1.6,0.5,3,1.6,4s2.4,1.6,4.1,1.6
		c0.9,0,1.8-0.2,2.7-0.6s1.7-1,2.3-1.7v6.4H205.8z"/>
	<path class="st0" d="M350.3,106.1c0-1.9,1.6-3.5,3.6-3.5c1.9,0,3.5,1.6,3.5,3.5c0,2.1-1.6,3.6-3.5,3.6
		C351.9,109.7,350.3,108.2,350.3,106.1 M353.9,110.4c2.3,0,4.2-1.8,4.2-4.3c0-2.4-1.9-4.2-4.2-4.2c-2.3,0-4.3,1.8-4.3,4.2
		C349.6,108.6,351.5,110.4,353.9,110.4 M353,106.5h0.9l1.3,2.1h0.8l-1.4-2.1c0.7-0.1,1.3-0.5,1.3-1.3c0-0.9-0.6-1.4-1.7-1.4h-1.9
		v4.8h0.7L353,106.5L353,106.5z M353,105.9v-1.5h1c0.5,0,1.1,0.1,1.1,0.7c0,0.7-0.6,0.8-1.2,0.8H353z"/>
	<g>
		<path class="st1" d="M206.5,35c0-17.6-13.9-32.1-31.4-32.8v11.1c11.4,0.7,20.3,10.2,20.3,21.7s-9,21-20.3,21.8v11.1
			C192.6,67.1,206.5,52.7,206.5,35"/>
		<path class="st2" d="M151.9,35c0-11.5,9-21,20.3-21.7V2.2C154.7,3,140.8,17.4,140.8,35c0,17.7,13.9,32.1,31.4,32.8v-11
			C160.8,56,151.9,46.5,151.9,35"/>
		<path class="st0" d="M215,35.1h-3.7c0,20.8-16.9,37.6-37.6,37.6c-20.8,0-37.6-16.8-37.6-37.6h-9.7h-2.8v56.3H136v-24
			c9.2,10.2,22.6,16.7,37.6,16.7s28.4-6.5,37.6-16.7v24h12.4V35.1H215z"/>
	</g>
</g>
<g class="st3">
	<path class="st4" d="M173.6-63.5c-18.1,0-32.8,14.7-32.8,32.8s14.7,32.8,32.8,32.8s32.8-14.7,32.8-32.8
		C206.5-48.8,191.8-63.5,173.6-63.5 M173.6-8.9c-12,0-21.8-9.8-21.8-21.8s9.8-21.8,21.8-21.8s21.8,9.8,21.8,21.8
		C195.4-18.6,185.7-8.9,173.6-8.9"/>
	<path class="st4" d="M173.6,147.5c-18.1,0-32.8,14.7-32.8,32.8s14.7,32.8,32.8,32.8s32.8-14.7,32.8-32.8
		C206.5,162.2,191.8,147.5,173.6,147.5 M173.6,202.1c-12,0-21.8-9.8-21.8-21.8s9.8-21.8,21.8-21.8s21.8,9.8,21.8,21.8
		C195.4,192.4,185.7,202.1,173.6,202.1"/>
	<path class="st4" d="M-64.4,74.8c0,18.1,14.7,32.8,32.8,32.8S1.3,93,1.3,74.8C1.3,56.7-13.4,42-31.5,42S-64.4,56.7-64.4,74.8
		 M-9.8,74.8c0,12-9.8,21.8-21.8,21.8s-21.8-9.8-21.8-21.8S-43.6,53-31.6,53C-19.5,53.1-9.8,62.8-9.8,74.8"/>
	<path class="st4" d="M346,74.8c0,18.1,14.7,32.8,32.8,32.8c18.1,0,32.8-14.7,32.8-32.8S396.9,42,378.8,42
		C360.7,42,346,56.7,346,74.8 M400.6,74.8c0,12-9.8,21.8-21.8,21.8S357,86.8,357,74.8S366.8,53,378.8,53
		C390.8,53.1,400.6,62.8,400.6,74.8"/>
	<rect x="-64.4" y="-63.5" class="st5" width="476" height="276.7"/>
	<rect x="1.3" y="2.2" class="st5" width="344.7" height="145.3"/>
</g>
</svg>
