<?xml version="1.0" encoding="utf-8"?>
<!-- Generator: Adobe Illustrator 24.0.2, SVG Export Plug-In . SVG Version: 6.00 Build 0)  -->
<svg version="1.1" id="Capa_1" xmlns="http://www.w3.org/2000/svg" xmlns:xlink="http://www.w3.org/1999/xlink" x="0px" y="0px"
	 viewBox="0 0 360 210" style="enable-background:new 0 0 360 210;" xml:space="preserve">
<style type="text/css">
	.st0{fill:#BBBDBF;}
	.st1{fill:#E21F26;}
</style>
<g>
	<path d="M60.6,153.7c0,2-0.6,3.5-1.8,4.5c-1.2,1-3,1.5-5.4,1.5h-3.1v-11.9h2.6c2.7,0,4.7,0.5,5.9,1.4
		C60,150.2,60.6,151.7,60.6,153.7 M57.4,153.7c0-1.2-0.3-2-0.9-2.5c-0.6-0.5-1.5-0.8-2.8-0.8h-0.3v6.7h0.3c1.3,0,2.2-0.3,2.8-0.8
		C57.1,155.7,57.4,154.9,57.4,153.7"/>
	<polygon points="69.3,159.7 62.4,159.7 62.4,147.7 69.3,147.7 69.3,150.4 65.5,150.4 65.5,152.4 69.1,152.4 69.1,154.9 65.5,154.9 
		65.5,157 69.3,157 	"/>
	<polygon points="90.5,159.7 87.5,159.7 86.5,152.4 84.3,159.7 82.2,159.7 80.1,152.4 79.1,159.7 76,159.7 77.8,147.7 81.1,147.7 
		83.3,155.3 85.5,147.7 88.7,147.7 	"/>
	<polygon points="99,159.7 92.2,159.7 92.2,147.7 99,147.7 99,150.4 95.3,150.4 95.3,152.4 98.8,152.4 98.8,154.9 95.3,154.9 
		95.3,157 99,157 	"/>
	<path d="M111.1,153.7c0,2-0.6,3.5-1.8,4.5c-1.2,1-3,1.5-5.4,1.5h-3v-11.9h2.6c2.7,0,4.7,0.5,5.9,1.4
		C110.5,150.2,111.1,151.7,111.1,153.7 M107.9,153.7c0-1.2-0.3-2-0.9-2.5c-0.6-0.5-1.5-0.8-2.8-0.8H104v6.7h0.3
		c1.3,0,2.2-0.3,2.8-0.8C107.6,155.7,107.9,154.9,107.9,153.7"/>
	<polygon points="119.8,159.7 113,159.7 113,147.7 119.8,147.7 119.8,150.4 116.1,150.4 116.1,152.4 119.7,152.4 119.7,154.9 
		116.1,154.9 116.1,157 119.8,157 	"/>
	<polygon points="128.2,159.7 121.7,159.7 121.7,147.7 124.9,147.7 124.9,156.9 128.2,156.9 	"/>
	<polygon points="136,159.7 129.5,159.7 129.5,147.7 132.8,147.7 132.8,156.9 136,156.9 	"/>
	<rect x="137.3" y="147.7" width="3.1" height="11.9"/>
	<polygon points="154.5,159.7 151.4,159.7 145.9,152.3 145.9,159.7 142.8,159.7 142.8,147.7 145.9,147.7 151.4,155.2 151.4,147.7 
		154.5,147.7 	"/>
	<path d="M171,151.8c0,1.3-0.4,2.3-1.3,3c-0.9,0.7-2.2,1-3.9,1h-0.5v3.9h-3.1v-11.9h3.5c1.8,0,3.2,0.3,4.1,1
		C170.6,149.4,171,150.4,171,151.8 M167.8,151.8c0-0.5-0.2-0.9-0.5-1.1c-0.3-0.2-0.8-0.4-1.6-0.4h-0.4v3h0.4c0.8,0,1.3-0.1,1.6-0.3
		C167.6,152.7,167.8,152.3,167.8,151.8"/>
	<path d="M183.3,159.7h-3.3l-0.6-2.1h-4.6l-0.7,2.1h-3.3l4.2-11.9h4L183.3,159.7z M178.6,155.3l-1.6-5.1l-1.6,5.1H178.6z"/>
	<path d="M193.8,159.7h-3.7l-2.7-4.6v4.6h-3.1v-11.9h3.6c1.9,0,3.3,0.3,4.1,0.9c0.8,0.6,1.2,1.6,1.2,2.9c0,0.9-0.2,1.7-0.7,2.2
		c-0.4,0.6-1.1,1-2,1.1L193.8,159.7z M190,151.9c0-0.6-0.1-1-0.4-1.3c-0.3-0.3-0.8-0.4-1.5-0.4h-0.6v3.2h0.6c0.7,0,1.2-0.1,1.5-0.4
		C189.8,152.8,190,152.4,190,151.9"/>
	<path d="M206.7,159.7h-3.3l-0.7-2.1h-4.6l-0.7,2.1h-3.3l4.2-11.9h4L206.7,159.7z M202,155.3l-1.6-5.1l-1.6,5.1H202z"/>
	<path d="M224.5,159.7h-3.3l-0.6-2.1H216l-0.7,2.1H212l4.3-11.9h4L224.5,159.7z M219.8,155.3l-1.6-5.1l-1.6,5.1H219.8z"/>
	<polygon points="237.3,159.7 234.2,159.7 228.6,152.3 228.6,159.7 225.5,159.7 225.5,147.7 228.6,147.7 234.2,155.2 234.2,147.7 
		237.3,147.7 	"/>
	<polygon points="246.6,150.5 244.1,150.5 244.1,159.7 241,159.7 241,150.5 238.6,150.5 238.6,147.7 246.6,147.7 	"/>
	<rect x="247.7" y="147.7" width="3.1" height="11.9"/>
	<path d="M265.5,153.7c0,1.8-0.6,3.2-1.8,4.4c-1.2,1.2-2.8,1.8-4.6,1.8c-1.8,0-3.4-0.6-4.6-1.8c-1.3-1.2-1.9-2.7-1.9-4.4
		c0-1.8,0.6-3.2,1.9-4.4c1.2-1.2,2.8-1.8,4.6-1.8c1.8,0,3.4,0.6,4.6,1.8C264.8,150.5,265.5,152,265.5,153.7 M262.2,153.7
		c0-0.9-0.3-1.7-0.9-2.3c-0.6-0.6-1.4-0.9-2.3-0.9c-1,0-1.7,0.3-2.3,0.9c-0.6,0.6-0.9,1.4-0.9,2.3c0,0.9,0.3,1.7,0.9,2.3
		c0.6,0.6,1.4,0.9,2.3,0.9c0.9,0,1.7-0.3,2.3-0.9C261.9,155.4,262.2,154.7,262.2,153.7"/>
	<path d="M279.5,153.7c0,0.9-0.2,1.7-0.5,2.5c-0.3,0.8-0.8,1.5-1.5,2l1.9,2.5l-2.6,0.3l-1.2-1.6c-0.4,0.2-0.8,0.3-1.2,0.4
		c-0.4,0.1-0.9,0.1-1.3,0.1c-1.8,0-3.4-0.6-4.6-1.8c-1.2-1.2-1.9-2.7-1.9-4.4c0-1.8,0.6-3.2,1.9-4.4c1.3-1.2,2.8-1.8,4.6-1.8
		c1.8,0,3.4,0.6,4.6,1.8C278.9,150.5,279.5,152,279.5,153.7 M276.3,153.7c0-0.9-0.3-1.7-0.9-2.3c-0.6-0.6-1.4-0.9-2.3-0.9
		c-1,0-1.7,0.3-2.3,0.9c-0.6,0.6-0.9,1.4-0.9,2.3c0,0.9,0.3,1.7,0.9,2.3c0.6,0.6,1.4,0.9,2.3,0.9c0.1,0,0.2,0,0.3,0
		c0.1,0,0.2,0,0.3,0l-1.5-1.9l2.6-0.3l0.8,1.1c0.2-0.3,0.4-0.6,0.5-0.9C276.2,154.5,276.3,154.1,276.3,153.7"/>
	<path d="M291.5,154.2c0,2.2-0.4,3.7-1.2,4.5c-0.8,0.8-2.1,1.2-4,1.2c-1.9,0-3.2-0.4-4-1.2c-0.8-0.8-1.1-2.3-1.1-4.5v-6.4h3.1v6.5
		c0,1.2,0.2,2,0.4,2.4c0.3,0.4,0.8,0.6,1.6,0.6c0.8,0,1.3-0.2,1.6-0.6c0.3-0.4,0.4-1.2,0.4-2.4v-6.5h3.1V154.2z"/>
	<rect x="293.8" y="147.7" width="3.1" height="11.9"/>
	<path d="M310.3,159.7H307l-0.6-2.1h-4.6l-0.7,2.1h-3.3l4.2-11.9h4L310.3,159.7z M305.7,155.3l-1.6-5.1l-1.6,5.1H305.7z"/>
	<path d="M62.1,140.7c-0.5,0.3-1.1,0.6-1.9,0.8c-0.7,0.2-1.5,0.3-2.4,0.3c-2.4,0-4.3-0.8-5.9-2.4c-1.6-1.6-2.3-3.6-2.3-6
		c0-2.4,0.8-4.4,2.3-6c1.6-1.6,3.5-2.4,5.9-2.4c0.9,0,1.7,0.1,2.4,0.2c0.7,0.2,1.3,0.4,1.8,0.8v4.7c-0.5-0.5-1.1-1-1.7-1.3
		c-0.7-0.3-1.4-0.5-2.1-0.5c-1.3,0-2.3,0.4-3.1,1.2c-0.8,0.8-1.2,1.9-1.2,3.2c0,1.2,0.4,2.2,1.2,3c0.8,0.8,1.8,1.2,3.1,1.2
		c0.7,0,1.4-0.1,2.1-0.4c0.7-0.3,1.3-0.7,1.7-1.3V140.7z"/>
	<path d="M79.7,141.3h-4.5l-0.9-2.8h-6.1l-0.9,2.8h-4.5l5.7-16H74L79.7,141.3z M73.4,135.4l-2.1-6.8l-2.1,6.8H73.4z"/>
	<polygon points="99.8,141.3 95.6,141.3 94.3,131.5 91.5,141.3 88.6,141.3 85.8,131.5 84.4,141.3 80.3,141.3 82.7,125.3 87.1,125.3 
		90,135.4 93,125.3 97.3,125.3 	"/>
	<path d="M117.2,141.3h-4.5l-0.9-2.8h-6.1l-0.9,2.8h-4.5l5.7-16h5.4L117.2,141.3z M111,135.4l-2.1-6.8l-2.2,6.8H111z"/>
	<path d="M131.4,141.3h-4.9l-3.7-6.2v6.2h-4.2v-16h4.9c2.6,0,4.4,0.4,5.5,1.2c1,0.8,1.6,2.1,1.6,3.9c0,1.2-0.3,2.2-0.9,3
		c-0.6,0.8-1.5,1.3-2.7,1.5L131.4,141.3z M126.2,130.9c0-0.8-0.2-1.4-0.6-1.7c-0.4-0.3-1.1-0.5-2-0.5h-0.8v4.3h0.8
		c0.9,0,1.6-0.2,2-0.5C126,132.1,126.2,131.6,126.2,130.9"/>
	<path d="M148.6,141.3h-4.5l-0.9-2.8h-6.1l-0.9,2.8h-4.5l5.7-16h5.4L148.6,141.3z M142.4,135.4l-2.1-6.8l-2.1,6.8H142.4z"/>
	<path d="M171.1,133.3c0,2.7-0.8,4.7-2.4,6c-1.6,1.3-4,2-7.3,2h-4.1v-16h3.5c3.7,0,6.3,0.7,7.9,1.9
		C170.3,128.5,171.1,130.6,171.1,133.3 M166.8,133.3c0-1.5-0.4-2.7-1.2-3.4c-0.8-0.7-2-1.1-3.7-1.1h-0.4v9h0.4
		c1.7,0,2.9-0.4,3.7-1.1C166.4,136,166.8,134.9,166.8,133.3"/>
	<polygon points="182.8,141.3 173.6,141.3 173.6,125.3 182.8,125.3 182.8,128.8 177.8,128.8 177.8,131.5 182.6,131.5 182.6,134.9 
		177.8,134.9 177.8,137.8 182.8,137.8 	"/>
	<path d="M223.4,133.3c0,2.4-0.8,4.3-2.5,5.9c-1.7,1.6-3.7,2.4-6.2,2.4c-2.5,0-4.5-0.8-6.2-2.4c-1.7-1.6-2.5-3.6-2.5-5.9
		c0-2.4,0.8-4.4,2.5-6c1.7-1.6,3.7-2.4,6.2-2.4c2.5,0,4.5,0.8,6.2,2.4C222.6,129,223.4,131,223.4,133.3 M219.1,133.3
		c0-1.2-0.4-2.3-1.2-3.1c-0.8-0.8-1.9-1.3-3.1-1.3c-1.3,0-2.3,0.4-3.1,1.3c-0.8,0.8-1.2,1.9-1.2,3.1c0,1.2,0.4,2.3,1.2,3.1
		c0.8,0.8,1.9,1.2,3.1,1.2c1.3,0,2.3-0.4,3.1-1.2C218.7,135.6,219.1,134.6,219.1,133.3"/>
	<polygon points="244.3,141.3 240.2,141.3 238.8,131.5 236,141.3 233.1,141.3 230.3,131.5 228.9,141.3 224.8,141.3 227.2,125.3 
		231.6,125.3 234.6,135.4 237.5,125.3 241.9,125.3 	"/>
	<polygon points="255.7,141.3 246.5,141.3 246.5,125.3 255.7,125.3 255.7,128.8 250.7,128.8 250.7,131.5 255.5,131.5 255.5,134.9 
		250.7,134.9 250.7,137.8 255.7,137.8 	"/>
	<path d="M270.9,141.3H266l-3.7-6.2v6.2h-4.2v-16h4.9c2.6,0,4.4,0.4,5.5,1.2c1.1,0.8,1.6,2.1,1.6,3.9c0,1.2-0.3,2.2-0.9,3
		c-0.6,0.8-1.5,1.3-2.7,1.5L270.9,141.3z M265.8,130.9c0-0.8-0.2-1.4-0.6-1.7c-0.4-0.3-1.1-0.5-2-0.5h-0.8v4.3h0.8
		c0.9,0,1.6-0.2,2-0.5C265.6,132.1,265.8,131.6,265.8,130.9"/>
	<path d="M284.3,140.7c-0.5,0.3-1.1,0.6-1.9,0.8c-0.7,0.2-1.5,0.3-2.4,0.3c-2.4,0-4.3-0.8-5.9-2.4c-1.6-1.6-2.3-3.6-2.3-6
		c0-2.4,0.8-4.4,2.3-6c1.6-1.6,3.5-2.4,5.9-2.4c0.9,0,1.7,0.1,2.4,0.2c0.7,0.2,1.3,0.4,1.8,0.8v4.7c-0.5-0.5-1.1-1-1.7-1.3
		c-0.7-0.3-1.4-0.5-2.1-0.5c-1.3,0-2.3,0.4-3.1,1.2c-0.8,0.8-1.2,1.9-1.2,3.2c0,1.2,0.4,2.2,1.2,3c0.8,0.8,1.8,1.2,3.1,1.2
		c0.7,0,1.4-0.1,2.1-0.4c0.7-0.3,1.3-0.7,1.7-1.3V140.7z"/>
	<rect x="286.5" y="125.3" width="4.2" height="16"/>
	<path d="M310.3,133.3c0,2.4-0.8,4.3-2.5,5.9c-1.7,1.6-3.7,2.4-6.2,2.4c-2.5,0-4.5-0.8-6.2-2.4c-1.7-1.6-2.5-3.6-2.5-5.9
		c0-2.4,0.8-4.4,2.5-6c1.7-1.6,3.7-2.4,6.2-2.4c2.5,0,4.5,0.8,6.2,2.4C309.5,129,310.3,131,310.3,133.3 M306,133.3
		c0-1.2-0.4-2.3-1.2-3.1c-0.8-0.8-1.9-1.3-3.1-1.3c-1.3,0-2.3,0.4-3.1,1.3c-0.8,0.8-1.2,1.9-1.2,3.1c0,1.2,0.4,2.3,1.2,3.1
		c0.8,0.8,1.9,1.2,3.1,1.2c1.3,0,2.3-0.4,3.1-1.2C305.6,135.6,306,134.6,306,133.3"/>
	<path d="M204.3,140.7c-0.5,0.3-1.1,0.6-1.8,0.8c-0.7,0.2-1.5,0.3-2.4,0.3c-2.4,0-4.3-0.8-5.9-2.4c-1.5-1.6-2.3-3.6-2.3-6
		c0-2.4,0.8-4.4,2.3-6c1.6-1.6,3.5-2.4,5.9-2.4c0.9,0,1.7,0.1,2.4,0.2c0.7,0.2,1.3,0.4,1.8,0.8v4.7c-0.5-0.5-1.1-1-1.7-1.3
		c-0.7-0.3-1.4-0.5-2.1-0.5c-1.3,0-2.3,0.4-3.1,1.2c-0.8,0.8-1.2,1.9-1.2,3.2c0,1.2,0.4,2.2,1.2,3c0.8,0.8,1.8,1.2,3.1,1.2
		c0.7,0,1.4-0.1,2.1-0.4c0.7-0.3,1.3-0.7,1.7-1.3V140.7z"/>
	<path d="M313.6,128.7c0-1.5,1.2-2.7,2.7-2.7c1.5,0,2.6,1.2,2.6,2.7c0,1.6-1.2,2.7-2.6,2.7C314.8,131.4,313.6,130.2,313.6,128.7
		 M316.3,131.9c1.7,0,3.2-1.4,3.2-3.2c0-1.8-1.5-3.2-3.2-3.2c-1.8,0-3.2,1.4-3.2,3.2C313.1,130.5,314.5,131.9,316.3,131.9
		 M315.6,128.9h0.7l1,1.6h0.6l-1.1-1.6c0.5-0.1,1-0.4,1-1c0-0.7-0.4-1-1.3-1H315v3.7h0.6V128.9z M315.6,128.5v-1.1h0.8
		c0.4,0,0.8,0.1,0.8,0.6c0,0.5-0.4,0.6-0.9,0.6H315.6z"/>
	<path class="st0" d="M204.8,74.9c0-13.3-10.5-24.2-23.7-24.8v8.4c8.6,0.6,15.4,7.7,15.4,16.4c0,8.7-6.8,15.9-15.4,16.4v8.4
		C194.3,99.1,204.8,88.2,204.8,74.9"/>
	<path class="st1" d="M163.5,74.9c0-8.7,6.8-15.9,15.4-16.4v-8.4c-13.2,0.6-23.7,11.5-23.7,24.8c0,13.3,10.5,24.2,23.7,24.8v-8.4
		C170.3,90.8,163.5,83.6,163.5,74.9"/>
	<path d="M211.3,74.9h-2.8c0,15.7-12.8,28.4-28.5,28.4c-15.7,0-28.4-12.7-28.4-28.4h-7.3h-2.1v42.6h9.4V99.3
		c6.9,7.7,17.1,12.6,28.5,12.6c11.3,0,21.5-4.9,28.4-12.6v18.1h9.4V74.9H211.3z"/>
</g>
</svg>
