<?xml version="1.0" encoding="utf-8"?>
<!-- Generator: Adobe Illustrator 24.0.2, SVG Export Plug-In . SVG Version: 6.00 Build 0)  -->
<svg version="1.1" id="Capa_1" xmlns="http://www.w3.org/2000/svg" xmlns:xlink="http://www.w3.org/1999/xlink" x="0px" y="0px"
	 viewBox="0 0 80 80" style="enable-background:new 0 0 80 80;" xml:space="preserve">
<style type="text/css">
	.st0{fill:#E31F26;}
</style>
<g>
	<path class="st0" d="M43.5,50.6c5,3,10,5.9,14.9,8.9c0-0.2,0-0.3,0-0.5c0-3.3,0-6.7,0-10c0-0.4,0.1-0.6,0.4-0.7
		c0.4-0.2,0.9-0.5,1.3-0.7c0.2-0.1,0.3-0.2,0.3-0.5c0-0.5,0-1.1,0-1.6c0-0.3,0.1-0.5,0.4-0.6c1.7-1,3.3-2,5-3c1-0.6,2-1.2,3-1.8
		c0.3-0.2,0.5-0.2,0.8,0c3.4,2,6.7,4,10.1,6c0.3,0.2,0.4,0.4,0.4,0.7c0,8.8,0,17.7,0,26.5c0,0.4-0.1,0.6-0.4,0.8
		c-2.2,1.2-4.3,2.5-6.4,3.7c-0.2,0.1-0.4,0.1-0.6,0c-0.2-0.1-0.4-0.2-0.6-0.4c-0.3-0.2-0.5-0.2-0.8,0c-0.9,0.5-1.8,1-2.6,1.5
		c-0.4,0.2-0.6,0.2-1,0c-2.9-1.7-5.8-3.5-8.7-5.2c-0.3-0.2-0.5-0.4-0.5-0.8c0-4.2,0-8.4,0-12.6c0-0.3-0.1-0.5-0.4-0.7
		c-4.7-2.8-9.5-5.6-14.2-8.4c-0.3-0.2-0.5-0.3-0.8-0.5c-0.7,0.4-1.5,0.9-2.2,1.3c-3,1.8-5.9,3.5-8.9,5.3c-0.6,0.3-0.6,0.3-0.8-0.3
		c-0.2-0.8-0.3-1.7-0.5-2.5c0-0.1-0.1-0.3-0.1-0.4c-0.2,0.1-0.3,0.1-0.4,0.2c-2.7,1.6-5.4,3.2-8,4.8c-0.4,0.2-0.5,0.5-0.5,0.9
		c0,4.1,0,8.2,0,12.3c0,0.4-0.1,0.6-0.4,0.7c-0.4,0.2-0.7,0.5-1.1,0.7c0,0.2,0,0.5,0,0.8c0,0.2,0,0.4-0.2,0.5
		c-0.3,0.2-0.6,0.5-0.9,0.5c-0.3,0-0.6-0.3-1-0.4c-0.1-0.1-0.2-0.1-0.3-0.2c-1,0.6-1.9,1.3-2.9,1.9c0,0.4,0,0.8,0,1.2
		c0,0.2-0.1,0.4-0.3,0.5c-0.2,0.1-0.5,0.3-0.7,0.5c-0.2,0.1-0.3,0.1-0.5,0c-0.2-0.1-0.4-0.2-0.7-0.4c-0.6,0.4-1.2,0.8-1.7,1.2
		c-0.3,0.2-0.5,0.2-0.7,0c-1.6-1-3.2-1.9-4.7-2.9c-1.6-1-3.3-2-4.9-3C0.1,73.8,0,73.5,0,73.2c0-8.3,0-16.5,0-24.8
		C0,48,0,47.8,0.4,47.6c3.4-2,6.8-4,10.2-6c0.2-0.1,0.4-0.3,0.6-0.4c0.2-0.1,0.4-0.1,0.6,0c0.6,0.4,1.2,0.7,1.8,1.1
		c2.5,1.4,5,2.9,7.4,4.3c0.3,0.2,0.4,0.4,0.4,0.8c0,3.7,0,7.4,0,11.1c0,0.1,0,0.2,0,0.4c3-1.8,5.9-3.5,8.9-5.3
		c-0.1-0.4-0.1-0.7-0.2-1.1c-0.9-4.5-1.9-9-2.8-13.5c-0.1-0.3-0.2-0.6-0.5-0.7c-3.2-1.9-6.4-3.8-9.7-5.7c-0.1,0-0.1-0.1-0.2-0.1
		c-0.5,0.3-1,0.5-1.5,0.8c0,0.3,0,0.6,0,1c0,0.2-0.1,0.3-0.3,0.5c-0.7,0.4-0.7,0.4-1.4,0c-0.1,0-0.1-0.1-0.2-0.1
		c-0.5,0.3-1.1,0.6-1.6,0.9c-0.3,0.2-0.5,0.2-0.7,0c-0.2-0.1-0.3-0.2-0.5-0.4c-0.2-0.3-0.5-0.2-0.8-0.1c-1.2,0.4-2.3,0.8-3.5,1.2
		c-0.2,0.1-0.4,0.1-0.6-0.1c-1.9-1.3-3.8-2.6-5.7-3.9C0,32.1,0,32,0,31.7C0,26,0,20.3,0,14.6c0-0.1,0-0.1,0-0.3
		c0.3-0.2,0.7-0.4,1.1-0.6c0.8-0.4,1.5-0.9,2.3-1.3c0.3-0.2,0.4-0.3,0.4-0.7c0-1.6,0-3.3,0-4.9c0-0.1,0-0.2,0-0.3
		c0-0.3,0.1-0.5,0.4-0.7C5.4,5,6.7,4.2,8,3.5c1.9-1.1,3.8-2.2,5.7-3.4c0.2-0.1,0.4-0.2,0.6,0c2.5,1.5,5,3,7.6,4.4
		C22,4.6,22,4.6,22.2,4.7c0,0.5,0,0.9,0,1.4c0,0.2,0.1,0.4,0.3,0.5c0.9,0.5,1.7,1.1,2.5,1.6c0.3,0.2,0.4,0.4,0.4,0.7
		c0,4.3,0,8.5,0,12.8c0,1.3,0,2.6,0,3.9c0,0.3-0.1,0.5-0.4,0.6c-0.8,0.5-1.7,1-2.5,1.4c-0.2,0.1-0.3,0.2-0.3,0.5c0,0.4,0,0.9,0,1.3
		c0,0.3-0.1,0.4-0.3,0.5c-0.3,0.2-0.6,0.3-0.9,0.5c-0.2,0.1-0.2,0.2-0.2,0.4c0,0.2,0,0.5,0,0.7c-0.1,0.1-0.1,0.1-0.2,0.1
		c-0.8,0.5-0.8,0.5-1.4-0.1c-0.2-0.2-0.3-0.2-0.6-0.1c-0.3,0.2-0.7,0.4-1,0.6c0,0,0,0-0.1,0.1c3.2,1.9,6.4,3.8,9.7,5.7
		c-0.1-0.3-0.1-0.5-0.1-0.7c-0.5-2.2-0.9-4.4-1.4-6.6c0-0.2-0.1-0.3-0.1-0.5c0-0.6,0.1-1,0.7-1.3c1.7-1,3.5-2,5.2-3.1
		c0.6-0.3,1.1-0.7,1.7-1c0.6-0.3,0.7-0.3,1.2,0.2c0.3,0.4,0.7,0.7,1,1.1c0.8-0.5,1.6-1,2.4-1.4c2.1-1.2,4.2-2.5,6.3-3.7
		c0.1-0.1,0.3-0.1,0.4-0.2c0.5-0.2,0.9-0.1,1.1,0.5c0.1,0.2,0.1,0.5,0.2,0.8c0.5-0.2,0.9-0.6,1.5-0.8c0,0.7,0,1.3,0.1,1.9
		c0.3-0.2,0.6-0.3,0.8-0.5c0.2-0.1,0.5-0.3,0.8-0.4c0.1,0.5,0,1,0,1.5c0,0.5,0,1,0,1.5c0,0.5,0,1,0,1.5c0,0.5,0,1,0,1.5
		c0,0.5,0,1,0,1.5c0,0.5,0,1,0,1.5c0,0.5,0,1,0,1.5c0,0.5,0,1,0,1.6c0.2-0.1,0.4-0.2,0.5-0.3c1.2-0.7,2.4-1.4,3.6-2
		c0.2-0.1,0.3-0.2,0.5-0.3c0.5-0.2,0.9,0,0.8,0.6c0,0.2-0.1,0.3-0.1,0.5c-0.4,1.4-0.7,2.9-1.1,4.3c0,0.1-0.1,0.3-0.1,0.4
		c0.4-0.1,8.8-5,9.9-5.8c-0.1-0.1-0.2-0.1-0.2-0.2c-0.8-0.5-1.6-0.9-2.3-1.4c-0.3-0.1-0.4-0.3-0.3-0.6c0-0.6,0-1.2,0-1.8
		c-0.8-0.5-1.5-0.9-2.3-1.3c-0.3-0.2-0.4-0.4-0.4-0.7c0-5.7,0-11.4,0-17.1c0-0.3,0.1-0.5,0.4-0.7c0.6-0.3,1.3-0.7,1.9-1.1
		C59.9,6.9,60,6.7,60,6.4c0-0.5,0-1.1,0-1.6c0-0.3,0.1-0.5,0.4-0.6c2-1.2,4-2.4,5.9-3.6c0,0,0.1,0,0.1,0c0.5-0.5,0.9-0.4,1.4,0
		c2.8,1.7,5.6,3.3,8.4,4.9c0.3,0.2,0.5,0.4,0.5,0.8c0,1.3,0,2.5,0,3.8c0,0.3,0.1,0.4,0.3,0.5c0.9,0.5,1.8,1.1,2.7,1.6
		c0.2,0.1,0.3,0.3,0.3,0.6c0,5.6,0,11.2,0,16.8c0,0.3-0.1,0.4-0.3,0.6c-1.5,1.1-3.1,2.1-4.6,3.2c-0.8,0.5-1.5,1.1-2.3,1.6
		c-0.3,0.2-0.5,0.2-0.8,0c-0.9-0.5-1.7-1-2.6-1.5c-0.1-0.1-0.3-0.1-0.4-0.2c-0.5,0.4-1,0.7-1.5,1c-0.2,0.2-0.4,0.2-0.6,0
		c-1-0.6-2.1-1.2-3.1-1.8c-0.3-0.2-0.5-0.2-0.8,0c-2.9,1.7-5.7,3.4-8.6,5.1c-0.4,0.2-0.8,0.5-1.2,0.7c-0.3,0.1-0.4,0.4-0.5,0.7
		c-0.4,1.4-0.7,2.9-1.1,4.3c-0.2,0.9-0.5,1.7-0.7,2.6c-0.1,0.3-0.2,0.5-0.5,0.7c-2.2,1.3-4.4,2.6-6.6,3.9
		C43.8,50.4,43.7,50.5,43.5,50.6z M31.7,57c0.2-0.1,0.4-0.2,0.5-0.3c3.7-2.2,7.4-4.4,11.1-6.5c2.3-1.4,4.6-2.7,6.9-4.1
		c0.3-0.2,0.4-0.4,0.5-0.7c0.4-1.8,0.9-3.6,1.4-5.4c0.6-2.4,1.3-4.9,1.9-7.3c0-0.1,0-0.3,0.1-0.4c-0.3-0.1-0.5,0.1-0.7,0.2
		c-2.5,1.4-5,2.9-7.5,4.2c-0.9,0.5-1.6,1.2-2.2,2c-0.9,1.3-0.5,1-1.9,1.8c-2,1.2-4.1,2.4-6.1,3.5c-0.3,0.2-0.5,0.4-0.6,0.8
		c-0.3,1.3-0.7,2.5-1,3.8c-0.7,2.6-1.4,5.2-2.1,7.8C31.8,56.6,31.8,56.8,31.7,57z M10.2,78.4c0-1,0-2,0-2.9c0-7.1,0-14.2,0-21.2
		c0-0.3-0.1-0.5-0.4-0.7c-3-1.7-6.1-3.4-9.1-5.1c-0.1-0.1-0.2-0.1-0.3-0.2c0,0.2,0,0.3,0,0.4c0,7.7,0,15.5,0,23.2
		c0,0.3,0.1,0.5,0.4,0.7c2.8,1.7,5.7,3.5,8.5,5.2C9.5,78,9.8,78.1,10.2,78.4z M48.7,22.8c-0.2,0.1-0.3,0.2-0.4,0.2
		c-1.9,1.1-3.8,2.2-5.7,3.3c-3.2,1.9-6.4,3.7-9.6,5.6c-0.3,0.2-0.5,0.4-0.5,0.8c0,6.4,0,12.7,0,19.1c0,0.1,0,0.3,0,0.4
		c0.1-0.1,0.2-0.3,0.2-0.4c0.6-2.3,1.2-4.5,1.8-6.8c0.1-0.6,0.4-1,1-1.2c2.2-1.2,4.3-2.5,6.5-3.7c0.7-0.4,1.1-1.1,1.5-1.7
		c-0.1,0-0.2,0.1-0.3,0.1c-0.5,0.3-0.9,0.5-1.4,0.8c-0.1,0.1-0.2,0.1-0.3-0.1c0.1-0.1,0.1-0.1,0.2-0.2c1-0.6,2.1-1.2,3-1.9
		c0.8-0.6,1.8-1,2.6-1.5c0.4-0.2,0.8-0.5,1.2-0.7C48.7,30.8,48.7,26.8,48.7,22.8z M21.1,71.4c0-8,0-16,0-24.1
		c-0.2,0.1-0.3,0.2-0.5,0.3c-3.3,2-6.5,4-9.8,5.9c-0.3,0.2-0.3,0.3-0.3,0.6c0,1.1,0,2.1,0,3.2c0,6.8,0,13.6,0,20.4
		c0,0.2,0,0.3,0,0.5c0.5-0.3,1-0.6,1.5-0.9c0-0.2,0-0.3,0-0.5c0-1.4,0-2.9,0-4.3c0-0.2,0-0.4,0.2-0.5c2-1.3,4-2.6,6-3.9
		c0.2-0.1,0.4-0.1,0.6,0c0.3,0.2,0.5,0.3,0.8,0.5c0.2,0.1,0.3,0.3,0.3,0.6c0,0.9,0,1.7,0,2.6c0,0.1,0,0.2,0,0.4
		C20.4,71.8,20.8,71.6,21.1,71.4z M21.8,5.1c-0.2,0.1-0.3,0.1-0.3,0.2c-3.1,1.9-6.2,3.7-9.3,5.6c-0.3,0.2-0.4,0.4-0.4,0.7
		c0,3.8,0,7.6,0,11.4c0,3.9,0,7.8,0,11.7c0,0.2,0,0.4,0,0.6c0.6-0.4,1.2-0.7,1.7-1c0-0.2,0-0.4,0-0.5c0-1.5,0-3,0-4.5
		c0-0.4,0.1-0.5,0.4-0.7c1.7-0.9,3.3-1.8,5-2.7c1-0.5,0.6-0.5,1.5,0.1c0.2,0.1,0.3,0.3,0.3,0.6c0,1.1,0,2.2,0,3.3c0,0.1,0,0.2,0,0.4
		c0.4-0.2,0.7-0.4,1.1-0.6C21.8,21.5,21.8,13.4,21.8,5.1z M45.4,22.3c-0.1-0.3-0.1-0.6-0.2-0.8c-0.1-0.4-0.3-0.5-0.7-0.2
		c-2.3,1.3-4.5,2.7-6.8,4c-0.7,0.4-1.4,0.8-2.1,1.2c-0.4,0.2-0.4,0.2-0.8-0.1c-0.3-0.3-0.5-0.6-0.8-0.9c-0.4-0.4-0.4-0.4-0.9-0.1
		c-1.6,0.9-3.1,1.8-4.7,2.8c-0.7,0.4-1.4,0.8-2.1,1.2c-0.4,0.2-0.6,0.6-0.5,1c0,0.1,0,0.2,0.1,0.3c0.8,3.7,1.5,7.4,2.3,11.1
		c0.9,4.1,1.7,8.2,2.6,12.3c0.2,0.8,0.4,1.7,0.5,2.5c0.1-0.1,0.1-0.1,0.1-0.1c0.2-0.9,0.5-1.9,0.7-2.8c0.1-0.2,0-0.5,0-0.7
		c-0.4,0.1-0.7,0.5-1.2,0.5c-0.2-7.5-0.3-14.9-0.5-22.3C35.6,28.1,40.5,25.2,45.4,22.3z M0.4,15.9c0,0.3,0,0.4,0,0.6c0,5,0,10,0,15
		c0,0.3,0.1,0.5,0.3,0.7c1.7,1.2,3.4,2.3,5.1,3.5c0.1,0.1,0.2,0.1,0.3,0.1c0-0.2,0-0.4,0-0.6c0-1.6,0-3.1,0-4.7c0-3.4,0-6.9,0-10.3
		c0-0.3,0-0.5-0.3-0.6c-1.4-0.9-2.9-1.9-4.3-2.9C1.2,16.4,0.8,16.1,0.4,15.9z M60.8,48.7c2.4,1.3,4.8,2.6,7.1,3.9
		c0.1-0.1,0.2-0.1,0.3-0.2c0.7-0.5,1.4-0.9,2.1-1.4c0.2-0.1,0.4-0.1,0.6,0c0.2,0.1,0.4,0.2,0.6,0.2c0-0.3,0-0.6,0-1
		c0-0.3,0.1-0.5,0.4-0.6c1.5-0.8,3-1.7,4.5-2.5c0.1-0.1,0.2-0.1,0.3-0.2c-0.1-0.1-0.1-0.1-0.2-0.2c-2.4-1.4-4.7-2.8-7.1-4.2
		c-0.2-0.1-0.4-0.1-0.6,0c-2.2,1.3-4.4,2.7-6.5,4c-0.1,0-0.1,0.1-0.2,0.2c0.2,0.3,0.6,0.3,0.8,0.6C62.3,47.7,61.6,48.2,60.8,48.7z
		 M79.6,46.8c-0.2,0.1-0.3,0.1-0.4,0.2c-2,1.1-3.9,2.3-5.9,3.4c-0.3,0.2-0.4,0.3-0.4,0.7c0,7,0,14,0.1,21c0,0.1,0,0.3,0,0.5
		c0.7-0.4,1.4-0.8,2-1.2c0-6.7,0-13.3,0-20c1.1-0.7,2.2-1.3,3.4-2c0.1,0,0.2,0,0.3,0c0,0.2,0,0.4,0,0.5c0,3.7,0,7.4,0,11
		c0,2.5,0,5.1,0,7.6c0,0.2,0,0.3,0.1,0.5c0.3-0.2,0.5-0.3,0.8-0.5C79.6,61.4,79.6,54.1,79.6,46.8z M76.2,6.1c-0.1,0-0.1,0.1-0.2,0.1
		c-2.7,1.6-5.4,3.3-8.1,4.9c-0.3,0.2-0.4,0.4-0.4,0.8c0,3.8,0,7.6,0,11.4c0,3.3,0,6.6,0,9.9c0,0.2,0,0.3,0,0.5
		c0.4-0.3,0.7-0.6,1.1-0.8c0.3-0.2,0.4-0.4,0.4-0.8c0-5.6,0-11.2-0.1-16.7c0-0.3,0.1-0.5,0.4-0.6c0.1,0,0.2-0.1,0.3-0.2
		c0.2-0.1,0.3-0.1,0.5,0c0.2,0.1,0.4,0.2,0.6,0.3c0.1-0.1,0.2-0.1,0.3-0.2c1.5-0.9,2.9-1.9,4.4-2.8c0.4-0.2,0.6-0.4,0.5-0.9
		c0-0.2,0-0.4,0.2-0.5c0.2-0.1,0.3-0.3,0.3-0.6c0-1.2,0-2.4,0-3.6C76.2,6.4,76.2,6.3,76.2,6.1z M68,78.6c0-0.3,0-0.4,0-0.6
		c0-7.5,0-15.1,0-22.6c0-0.4-0.1-0.6-0.5-0.8c-2.8-1.6-5.7-3.1-8.5-4.7c0,0-0.1,0-0.2,0c0,7.8,0,15.6,0,23.4c0.3,0.2,0.6,0.4,1,0.6
		c0-0.4,0-0.8,0-1.1c0-0.3,0-0.7,0-1c0-0.3-0.1-0.7,0.1-1c0.2,0.1,0.3,0.2,0.5,0.2c1.9,1.1,3.7,2.2,5.6,3.3c0.3,0.2,0.4,0.4,0.4,0.7
		c0,0.8,0,1.7,0,2.5c0,0.1,0,0.3,0.2,0.4C67,78.1,67.4,78.3,68,78.6z M67.1,33.8c0-0.3,0-0.5,0-0.7c0-5.2,0-10.4,0.1-15.6
		c0-1.9,0-3.8,0-5.7c0-0.2,0-0.4-0.2-0.5c-2.1-1.2-4.1-2.5-6.1-3.7c-0.1-0.1-0.2-0.1-0.4-0.1c0,7.5,0,15,0.1,22.5
		c0.5,0.3,1,0.6,1.6,1c0-0.3,0-0.4,0-0.6c0-0.7,0-1.5,0-2.2c0-0.1-0.1-0.3,0.1-0.4c0,0,0.1,0,0.2,0.1c1,0.6,2.1,1.2,3.1,1.8
		c0.2,0.1,0.2,0.2,0.2,0.4c0,0.7,0,1.3,0,2c0,0.4,0,0.7,0,1.1C66.2,33.3,66.6,33.5,67.1,33.8z M68.3,78.6c1-0.6,2-1.1,2.9-1.6
		c0.2-0.1,0.3-0.3,0.3-0.5c0-8.1,0.1-16.2,0.1-24.4c0-0.1,0-0.2,0-0.3c-0.2,0.1-0.3,0.2-0.4,0.3c-0.8,0.5-1.6,1.1-2.4,1.6
		c-0.3,0.2-0.5,0.4-0.5,0.8c0,7.9,0,15.9,0,23.8C68.2,78.3,68.3,78.5,68.3,78.6z M4.2,11.9c0.2,0.1,0.4,0.2,0.5,0.3
		c1.9,1.3,3.8,2.5,5.7,3.8c0.3,0.2,0.4,0.4,0.4,0.8c0,4-0.1,8-0.1,12.1c0,1.8,0,3.6,0,5.4c0,0.2,0,0.4,0.1,0.5
		c0.2,0.2,0.4,0.3,0.7,0.6c0-0.3,0-0.4,0-0.6c0-7.7,0-15.5,0-23.2c0-0.3-0.1-0.4-0.3-0.6C9,9.5,6.7,8,4.5,6.6
		C4.4,6.6,4.3,6.5,4.2,6.5C4.2,8.3,4.2,10.1,4.2,11.9z M31.3,53c0.3-0.2,0.4-0.3,0.6-0.4c0.2-0.1,0.3-0.3,0.3-0.6
		c0-6.5,0-13.1,0-19.6c0-0.4,0.1-0.6,0.4-0.7c3.7-2.2,7.4-4.3,11.2-6.5c1-0.6,1.9-1.1,2.9-1.7c0.1-0.1,0.3-0.1,0.3-0.3
		c0-0.5,0-1,0-1.6c-5.4,3.2-10.8,6.4-16.1,9.6C31,38.5,31.2,45.7,31.3,53z M72.5,34.4c0.1,0,0.1,0,0.2,0c2.2-1.5,4.4-3.1,6.7-4.6
		c0.2-0.2,0.3-0.3,0.3-0.6c0-2.6,0-5.1,0-7.7c0-0.1,0-0.3,0-0.5c-0.1,0.1-0.2,0.1-0.3,0.2c-2.1,1.3-4.3,2.7-6.4,4
		c-0.3,0.2-0.4,0.3-0.4,0.6c0,2.7,0,5.3,0,8C72.5,34,72.5,34.2,72.5,34.4z M10.4,17.6c-0.2,0.1-0.3,0.1-0.4,0.2
		c-1.1,0.6-2.1,1.1-3.2,1.7c-0.3,0.2-0.4,0.3-0.4,0.7c0,5.1,0,10.2,0,15.4c0,0.1,0,0.2,0,0.4c1.3-0.5,2.6-0.9,4-1.4
		C10.4,28.9,10.4,23.2,10.4,17.6z M79.6,69c-0.2,0.1-0.3,0.1-0.4,0.2c-2,1.2-3.9,2.3-5.9,3.5C73.1,72.8,73,73,73,73.2
		c0,1.3,0,2.6,0,3.9c0,0.1,0,0.2,0,0.3c0.1,0,0.1,0,0.2,0c2-1.2,4.1-2.4,6.1-3.5c0.3-0.2,0.3-0.3,0.3-0.6c0-1.2,0-2.4,0-3.7
		C79.6,69.4,79.6,69.3,79.6,69z M0.5,14.5c2,1.3,3.9,2.6,5.7,3.9c1.3-0.7,2.7-1.4,4-2.1c0-0.1,0-0.1,0-0.1c-1.9-1.3-3.8-2.5-5.7-3.8
		c-0.2-0.1-0.3,0-0.4,0c-0.6,0.4-1.3,0.7-1.9,1.1C1.6,13.8,1.1,14.1,0.5,14.5z M77,50.6c0,6.5,0,13,0,19.6c0.5-0.3,0.9-0.5,1.3-0.8
		c0.1,0,0.1-0.2,0.1-0.3c0-0.4,0-0.7,0-1.1c0-5.9,0-11.8,0-17.6c0-0.2,0-0.3,0-0.6C77.9,50.1,77.5,50.3,77,50.6z M75.4,71.1
		c0.4-0.2,0.7-0.4,1-0.6c0.2-0.1,0.3-0.3,0.3-0.6c0-1.7,0-3.4,0-5.1c0-4.5,0-9,0-13.5c0-0.2,0-0.3,0-0.6c-0.3,0.2-0.6,0.4-0.9,0.5
		c-0.3,0.2-0.5,0.4-0.4,0.8c0,6.2,0,12.4,0,18.7C75.4,70.8,75.4,71,75.4,71.1z M21,47c-0.3-0.2-0.5-0.3-0.8-0.4
		c-2.8-1.6-5.6-3.2-8.4-4.8c-0.2-0.1-0.4-0.2-0.6,0c-3.5,2-7,4.1-10.5,6.1c-0.1,0-0.1,0.1-0.2,0.2c3.3,1.8,6.5,3.7,9.8,5.5
		C13.9,51.3,17.4,49.2,21,47z M60.2,18.6c-0.3-0.2-0.6-0.3-0.9-0.5c-0.3-0.2-0.6-0.2-0.8-0.5c0.1-0.2,0.2-0.1,0.3,0
		c0.3,0.2,0.6,0.3,0.9,0.5c0.1,0.1,0.2,0.1,0.4,0.2c0-0.2,0-0.4,0-0.5c0.1-0.4-0.1-0.5-0.4-0.7c-0.4-0.2-0.8-0.5-1.2-0.7
		c0-0.3,0-0.6,0-0.9c0-0.3-0.1-0.5,0.1-0.9c0.3,0.2,0.5,0.3,0.8,0.4c0.2,0.1,0.5,0.3,0.8,0.4c0-0.4,0-0.7,0-1.1
		c-0.5-0.3-0.9-0.5-1.4-0.8c-0.1-0.1-0.2-0.2-0.2-0.2c0-0.5,0-1.1,0-1.6c0.6,0.2,1,0.6,1.6,0.8c0-0.4,0-0.9,0-1.3
		c-0.8-0.4-1.5-0.9-2.4-1.3c0,0.2,0,0.4,0,0.6c0,1.4,0,2.7,0,4.1c0,3.8,0,7.5,0,11.3c0,0.3,0.1,0.4,0.3,0.6c0.6,0.3,1.2,0.7,1.8,1.1
		c0.1,0,0.2,0.1,0.3,0.1c0-1,0-1.9,0-2.9c0-0.2-0.1-0.3-0.2-0.4c-0.4-0.2-0.8-0.5-1.2-0.7c-0.2-0.1-0.2-0.2-0.2-0.4
		c0-0.4,0-0.9,0-1.3c0-0.1,0-0.2,0.1-0.3c0.3,0.2,0.5,0.3,0.8,0.4c0.2,0.1,0.5,0.3,0.8,0.4c0-0.4,0-0.7,0-1
		c-0.5-0.3-0.9-0.5-1.4-0.8c-0.1-0.1-0.2-0.2-0.2-0.2c0-0.5,0-1.1,0-1.7c0.6,0.2,1,0.6,1.6,0.8C60.2,19.3,60.2,18.9,60.2,18.6z
		 M79.6,13.9c-0.2,0.1-0.3,0.2-0.4,0.2c-2.1,1.3-4.2,2.6-6.3,3.9c-0.2,0.2-0.3,0.3-0.3,0.6c0,2,0,4.1,0,6.1c0,0.1,0,0.2,0,0.4
		c2.4-1.5,4.7-3,7-4.4C79.6,18.4,79.6,16.2,79.6,13.9z M72.7,77.4c0-0.2,0-0.4,0-0.5c0-1.7,0-3.4,0-5.1c0-6.9,0-13.9,0-20.8
		c0-0.1,0-0.2,0-0.3c0-0.1,0-0.2-0.1-0.2c-0.2-0.1-0.4-0.2-0.7-0.4c0,0.6,0,1.1,0,1.6c0,8-0.1,16.1-0.1,24.1c0,0.3,0,0.5,0,0.8
		c0,0.1,0,0.2,0.1,0.3C72.1,77.1,72.4,77.2,72.7,77.4z M22.1,18.6c0.6-0.4,1.2-0.7,1.8-1.1c0,0.2,0,0.3,0,0.5c0,0.8,0,1.7,0,2.5
		c0,0.3-0.1,0.4-0.3,0.5c-0.5,0.3-1,0.6-1.4,0.9c-0.2,0.1-0.3,0.2-0.1,0.4c0.6-0.3,1.2-0.7,1.8-1c0,0.2,0.1,0.4,0.1,0.5
		c0,1,0,1.9,0,2.9c0,0.4-0.1,0.6-0.5,0.8c-0.5,0.3-1,0.6-1.5,0.9c0,0.4-0.1,0.7,0.1,1.1c1-0.6,1.9-1.1,2.8-1.6c0-5.3,0-10.5,0-15.7
		c0,0-0.1,0-0.1,0c-0.9,0.5-1.7,1-2.6,1.6c-0.1,0-0.1,0.1-0.1,0.2c0,0.5,0,1.1,0,1.7c0.7-0.3,1.2-0.7,1.9-1c0,0.2,0,0.4,0,0.5
		c0,1,0,2,0,3c0,0.3-0.1,0.5-0.3,0.6c-0.5,0.3-1.1,0.6-1.6,1C22.1,18,22.1,18.3,22.1,18.6z M69.2,32.7c1,0.6,2,1.1,3,1.7
		c0-3,0-6,0-8.9c-1-0.6-2-1.1-3-1.7C69.2,26.8,69.2,29.8,69.2,32.7z M76.1,5.8c-3.1-1.8-6-3.5-9-5.3c-2.2,1.3-4.3,2.6-6.5,4
		c0.4,0.2,0.7,0.4,1,0.6c0.3,0.2,0.7,0.4,1,0.7c-0.7,0.4-1.3,0.8-1.9,1.2c0.6,0.4,1.2,0.7,1.8,1.1c1.5,0.9,3.1,1.8,4.6,2.8
		c0.2,0.1,0.4,0.2,0.6,0c0.1,0,0.1-0.1,0.2-0.1c2.2-1.3,4.4-2.6,6.5-4C74.9,6.5,75.5,6.2,76.1,5.8z M79.5,46.5
		c-0.2-0.1-0.3-0.2-0.4-0.3c-0.8-0.5-1.6-0.9-2.4-1.4c-2.4-1.4-4.8-2.9-7.2-4.3c-0.2-0.1-0.4-0.1-0.6,0c-2.5,1.5-5,3-7.5,4.5
		c-0.1,0.1-0.2,0.1-0.3,0.2c0.2,0.1,0.3,0.2,0.4,0.2c0.2,0.2,0.4,0.2,0.6,0c0.4-0.3,0.8-0.5,1.2-0.7c1.9-1.1,3.8-2.3,5.7-3.4
		c0.3-0.2,0.4-0.2,0.7,0c0.7,0.5,1.5,0.9,2.2,1.3c1.9,1.2,3.9,2.3,5.8,3.5c0.1,0.1,0.3,0.2,0.5,0.3c-1,0.7-2,1.2-3,1.8
		c-1,0.6-2,1.1-3,1.7c0.3,0.2,0.5,0.3,0.8,0.4C75,49.1,77.2,47.8,79.5,46.5z M11.6,10.8c3.3-2,6.6-4,10-6c-2.6-1.5-5.1-3-7.6-4.4
		c-1.4,0.7-9.4,5.5-9.7,5.8C6.8,7.7,9.2,9.3,11.6,10.8z M69.2,16.5c0,0.1,0,0.2,0,0.2c0,2.1,0,4.3,0,6.4c0,0.2,0.1,0.3,0.3,0.4
		c0.9,0.5,1.7,1,2.5,1.5c0.1,0,0.1,0,0.2,0.1c0-0.1,0-0.1,0-0.2c0-2.2,0-4.3,0-6.5c0-0.2-0.1-0.3-0.3-0.4c-0.6-0.3-1.2-0.7-1.7-1
		C69.9,17,69.6,16.8,69.2,16.5z M59,48.6c0.1,0.1,0.2,0.1,0.3,0.2c2.8,1.6,5.7,3.1,8.5,4.7c0.2,0.1,0.4,0.1,0.6,0
		c1-0.6,1.9-1.2,2.9-1.9c0.1,0,0.1-0.1,0.2-0.1c-0.2-0.1-0.3-0.1-0.4-0.2c-0.3-0.2-0.5-0.1-0.8,0.1c-0.7,0.5-1.4,0.9-2.1,1.4
		c-0.2,0.1-0.3,0.1-0.5,0c-2.4-1.3-4.7-2.6-7.1-3.9c-0.1,0-0.1-0.1-0.2-0.2c0.6-0.6,1.4-0.9,2.1-1.4c-0.2-0.1-0.4-0.2-0.6-0.3
		C60.9,47.5,60,48,59,48.6z M19.6,69.1c-0.4,0.3-0.8,0.5-1.1,0.7c-1.5,1-3.1,2-4.6,3c-0.2,0.1-0.3,0.3-0.3,0.6c0,1.6,0,3.2,0,4.8
		c0,0.1,0,0.2,0,0.3c0.2-0.2,0.4-0.3,0.6-0.4c0-0.2,0-0.3,0-0.5c0-1.4,0-2.8,0-4.2c0-0.2,0-0.4,0.3-0.6c1.3-0.8,2.6-1.7,4-2.6
		c0.1-0.1,0.3-0.1,0.5-0.2c0,1.6,0,3.2,0,4.8c0.5-0.1,0.6-0.4,0.6-0.8c0-1.5,0-3,0-4.5C19.6,69.5,19.6,69.4,19.6,69.1z M72.3,16
		c1.7-1.1,3.4-2.1,5.1-3.2c-0.5-0.3-1-0.6-1.4-0.8c-1.7,1.1-3.4,2.1-5.1,3.2C71.4,15.5,71.8,15.8,72.3,16z M0.4,72.7
		c-0.1,0.5,0,0.8,0.4,1c3.1,1.9,6.1,3.8,9.2,5.6c0.1,0,0.1,0.1,0.2,0.1c0.1-0.5,0-0.8-0.5-1.1c-2-1.2-3.9-2.4-5.8-3.6
		C2.7,74.1,1.6,73.4,0.4,72.7z M13.4,72.8c2-1.3,4-2.6,6.1-3.9c-0.4-0.2-0.7-0.4-1-0.6c-2,1.3-4,2.6-6.1,4
		C12.8,72.4,13.1,72.6,13.4,72.8z M72.4,16.9c2.4-1.5,4.7-3,7.1-4.5c-1-0.6-1.9-1.1-2.8-1.6c-0.2-0.1-0.3,0-0.5,0.1
		c0.1,0.1,0.2,0.1,0.3,0.2c0.5,0.3,1.1,0.6,1.6,1c0.1,0.1,0.2,0.2,0.4,0.3c-0.2,0.1-0.3,0.2-0.5,0.3c-1.8,1.1-3.6,2.3-5.4,3.4
		c-0.2,0.1-0.4,0.2-0.6,0c-0.7-0.4-1.4-0.8-2.1-1.2c-0.2-0.1-0.4-0.1-0.6,0.1C70.4,15.8,71.4,16.4,72.4,16.9z M19.9,31.6
		c0.5-0.1,0.5-0.1,0.5-0.5c0-1.4,0-2.8,0-4.2c0-0.1,0-0.2,0-0.4c-1.9,1-3.8,2-5.7,3c0,1.7,0,3.4,0,5.1c0.2-0.1,0.3-0.2,0.5-0.3
		c0-1.6,0-3.1,0-4.6c1.6-0.8,3.1-1.7,4.8-2.5C19.9,28.8,19.9,30.2,19.9,31.6z M12.3,78.2c0.3,0.2,0.6,0.3,0.9,0.4
		c0-0.1,0.1-0.1,0.1-0.1c0-1.8,0-3.5,0-5.3c0-0.1,0-0.2-0.1-0.2c-0.3-0.2-0.6-0.3-0.9-0.5C12.3,74.5,12.3,76.3,12.3,78.2z
		 M16.9,29.1c0,1,0,2,0,3c0.7-0.4,1.3-0.7,1.8-1c0-0.5,0-1,0-1.5c0-0.5,0-1,0-1.5C18.1,28.5,17.5,28.8,16.9,29.1z M79.6,12.8
		c-0.2,0.1-0.3,0.2-0.4,0.3c-0.9,0.6-1.8,1.1-2.7,1.7c-1.2,0.8-2.4,1.5-3.6,2.3c-0.2,0.1-0.3,0.2-0.2,0.4c0,0.1,0,0.2,0,0.4
		c0.1-0.1,0.3-0.1,0.3-0.2c2-1.3,4.1-2.5,6.1-3.8C79.5,13.6,79.7,13.3,79.6,12.8z M58.9,48.9c-0.1,0.4,0,0.6,0.3,0.8
		c2.6,1.5,5.3,2.9,7.9,4.4c0.3,0.1,0.5,0.3,0.8,0.5c0-0.3,0.1-0.6-0.3-0.8c-2.6-1.4-5.1-2.8-7.7-4.3C59.6,49.3,59.3,49.1,58.9,48.9z
		 M22.1,17.3c0.5-0.3,0.9-0.6,1.4-0.8c0.2-0.1,0.3-0.2,0.3-0.5c0-0.9,0-1.8,0-2.7c0-0.1,0-0.2-0.1-0.3c-0.5,0.3-0.9,0.5-1.4,0.8
		c-0.1,0.1-0.2,0.2-0.2,0.3C22.1,15.2,22.1,16.2,22.1,17.3z M22.1,26.1c0.5-0.3,0.9-0.5,1.3-0.8c0.2-0.1,0.3-0.3,0.3-0.5
		c0-0.9,0-1.7,0-2.6c0-0.1,0-0.2,0-0.3c-0.4,0.3-0.8,0.5-1.3,0.7c-0.2,0.1-0.3,0.3-0.3,0.5c0,0.9,0,1.7,0,2.6
		C22.1,25.8,22.1,25.9,22.1,26.1z M22.1,6.9c0,1.2,0,2.3,0,3.5c0.9-0.6,1.8-1.1,2.7-1.7C23.9,8,23,7.5,22.1,6.9z M69.4,41.5
		c-0.1,0.4,0,0.6,0.3,0.8c2.1,1.2,4.2,2.5,6.2,3.7c0.4,0.2,0.8,0.5,1.2,0.7c0.2-0.1,0.3-0.2,0.5-0.3C74.8,44.8,72.1,43.2,69.4,41.5z
		 M22.1,21.7c0.5-0.3,0.9-0.6,1.3-0.8c0.2-0.1,0.3-0.3,0.3-0.5c0-0.7,0-1.4,0-2c0-0.1,0-0.2,0-0.3c-0.5,0.3-0.9,0.6-1.4,0.8
		c-0.1,0.1-0.2,0.2-0.2,0.3C22.1,20,22.1,20.8,22.1,21.7z M61.9,46.4c0.1-0.1,0.2-0.1,0.4-0.2c2.2-1.3,4.3-2.6,6.4-3.9
		c0.4-0.2,0.4-0.2,0.2-0.7c-0.1,0.1-0.2,0.1-0.3,0.2c-2.2,1.3-4.3,2.6-6.5,3.9C61.8,45.9,61.8,45.9,61.9,46.4z M19.6,25.8
		c-1.9,1-3.8,2-5.7,3.1c0.2,0.2,0.4,0.3,0.6,0.4c1.9-1,3.8-2,5.7-3.1C20,26,19.8,25.9,19.6,25.8z M63.8,31.9c0-1,0-1.8,0-2.7
		c0-0.1,0-0.3-0.1-0.3c-0.4-0.3-0.8-0.5-1.3-0.8c0,1,0,1.9,0,2.8c0,0.1,0.1,0.2,0.1,0.3C62.9,31.4,63.3,31.6,63.8,31.9z M64.2,29.1
		c0,0.1-0.1,0.1-0.1,0.1c0,0.9,0,1.7,0,2.6c0,0.1,0.1,0.2,0.2,0.3c0.4,0.2,0.8,0.5,1.2,0.7c0,0,0.1,0,0.1-0.1c0-0.9,0-1.8,0-2.7
		c0-0.1-0.1-0.2-0.1-0.2C65,29.6,64.6,29.4,64.2,29.1z M17.4,71.5c-0.4,0.3-0.8,0.5-1.1,0.7C16,72.3,16,72.5,16,72.7
		c0,0.8,0,1.7,0,2.5c0,0.1,0,0.2,0,0.3c0.4-0.3,0.8-0.5,1.1-0.7c0.1-0.1,0.2-0.2,0.2-0.4C17.4,73.4,17.4,72.5,17.4,71.5z M0.4,14.8
		c0,0.3-0.1,0.6,0.2,0.9c1.7,1.1,3.4,2.3,5.1,3.4c0.1,0.1,0.2,0.1,0.4,0.2c0-0.3,0.1-0.6-0.3-0.8c-1.7-1.1-3.4-2.3-5.1-3.4
		C0.6,14.9,0.5,14.9,0.4,14.8z M65,74C64.9,74,64.9,74,65,74c-0.1,0.9-0.1,1.8-0.1,2.7c0,0.1,0,0.2,0.1,0.2c0.4,0.2,0.7,0.4,1.2,0.7
		c0-1,0-1.9,0-2.8c0-0.1,0-0.2-0.1-0.2C65.7,74.4,65.3,74.2,65,74z M63.2,73c0,0.9,0,1.8,0,2.7c0,0.1,0,0.3,0.1,0.3
		c0.4,0.2,0.8,0.5,1.1,0.7c0,0,0.1,0,0.1,0c0-0.9,0-1.8,0-2.7c0-0.1-0.1-0.2-0.1-0.2C64,73.4,63.7,73.2,63.2,73z M61.6,72
		c0,1,0,2,0,2.9c0.4,0.2,0.9,0.5,1.3,0.7c0-1,0-1.9,0-2.9C62.5,72.5,62.1,72.3,61.6,72z M18.6,75.1c0-1.5,0-2.9,0-4.4
		c-0.3,0.2-0.5,0.3-0.8,0.5c-0.2,0.1-0.2,0.2-0.2,0.4c0,0.4,0,0.9,0,1.3c0,0.5,0,1.1,0,1.6C18,74.7,18.3,74.9,18.6,75.1z M16.6,32.3
		c0-1,0-2,0-3c-0.3,0.2-0.6,0.3-0.9,0.4c-0.2,0.1-0.3,0.2-0.3,0.5c0,0.8,0,1.6,0,2.4c0,0.1,0,0.2,0,0.3
		C15.8,32.7,16.2,32.5,16.6,32.3z M60.2,71.1c0,1,0,2,0,2.9c0.4,0.2,0.7,0.4,1.1,0.6c0-0.1,0.1-0.1,0.1-0.1c0-0.8,0-1.7,0-2.5
		c0-0.2-0.1-0.2-0.2-0.3C60.8,71.5,60.5,71.3,60.2,71.1z M15.7,72.6c-0.3,0.2-0.6,0.4-0.9,0.5c-0.2,0.1-0.3,0.2-0.3,0.5
		c0,0.8,0,1.7,0,2.5c0,0.1,0,0.2,0,0.4c0.4-0.2,0.7-0.4,1-0.7c0.1-0.1,0.1-0.2,0.1-0.3C15.7,74.6,15.7,73.6,15.7,72.6z M14.4,34.7
		c0-0.3,0-0.4,0-0.6c0-1.4,0-2.8,0-4.1c0-0.5,0-0.6-0.6-0.7c0,1.7,0,3.4,0,5.1C14,34.4,14.1,34.5,14.4,34.7z M6.4,19.3
		c0.2-0.1,0.3-0.1,0.4-0.2c1-0.5,2.1-1.1,3.1-1.6c0.4-0.2,0.5-0.4,0.5-0.8c0-0.1,0-0.1,0-0.2c-1.3,0.7-2.7,1.4-4,2.1
		C6.4,18.9,6.4,19.1,6.4,19.3z M69.2,15.4c0,0.3,0,0.5,0,0.8c1,0.6,2,1.2,3,1.7c0.1-0.5,0-0.8-0.4-1c-0.1,0-0.2-0.1-0.2-0.1
		C70.8,16.3,70,15.9,69.2,15.4z M24.9,9.7c0-0.3,0-0.5,0-0.7c-0.1,0-0.1,0.1-0.2,0.1c-0.8,0.5-1.5,1-2.3,1.4
		c-0.4,0.2-0.4,0.4-0.2,0.9C23.1,10.8,24,10.3,24.9,9.7z M60.2,10.1c-0.8-0.4-1.5-0.9-2.4-1.3c0,0.3,0,0.5,0,0.8
		c0.8,0.4,1.5,0.9,2.4,1.3C60.2,10.6,60.2,10.4,60.2,10.1z M19.6,27.7c-0.5,0.1-0.6,0.4-0.6,0.8c0,0.7,0,1.5,0,2.2
		c0,0.5,0.1,0.6,0.5,0.8C19.6,30.2,19.6,29,19.6,27.7z M57.9,8.5c0.8,0.5,1.5,0.9,2.2,1.3c0-0.2,0-0.3,0-0.4
		c-0.4-0.3-0.8-0.5-1.3-0.8c0.4-0.4,0.9-0.6,1.3-0.9c0-0.1,0-0.3,0-0.5C59.4,7.6,58.7,8,57.9,8.5z M62.1,5.8
		c-0.6-0.3-1.1-0.6-1.6-0.9c-0.1,0.6-0.1,1.7,0,1.9C61,6.5,61.5,6.2,62.1,5.8z M58.9,22c0,0.4,0,0.7,0,1.1c0,0.1,0.1,0.2,0.1,0.2
		c0.3,0.2,0.7,0.4,1.1,0.7c0-0.4,0-0.7,0-1.1c0-0.1,0-0.1-0.1-0.2C59.7,22.5,59.3,22.3,58.9,22z M60.1,19.9
		c-0.4-0.2-0.8-0.5-1.2-0.7c0,0.4,0,0.8,0,1.2c0.4,0.2,0.8,0.4,1.2,0.7C60.1,20.7,60.1,20.3,60.1,19.9z M60.1,16.9
		c0-0.4,0-0.8,0-1.2c-0.4-0.2-0.8-0.4-1.2-0.7c0,0.4,0,0.8,0,1.2C59.2,16.4,59.6,16.7,60.1,16.9z M58.9,13.3
		c0.4,0.2,0.8,0.4,1.2,0.7c0-0.4,0-0.8,0-1.1c-0.4-0.2-0.8-0.4-1.2-0.7C58.9,12.6,58.9,13,58.9,13.3z M12,77.7
		c-0.5,0.3-1,0.6-1.4,0.9c-0.1,0-0.1,0.1-0.1,0.2c0,0.2,0,0.4,0,0.7c0.5-0.3,0.9-0.6,1.4-0.9c0.1,0,0.1-0.1,0.1-0.2
		C12,78.2,12,78,12,77.7z M19.9,73.3c0.4-0.3,0.8-0.5,1.1-0.7c0.1,0,0.1-0.1,0.1-0.2c0-0.2,0-0.4,0-0.7c-0.5,0.3-0.9,0.5-1.2,0.8
		C19.9,72.8,19.9,73,19.9,73.3z M60.9,45.5c0,0.6,0,1.1,0,1.6c0.8-0.4,0.8-0.3,0.7-1.2C61.3,45.7,61.1,45.6,60.9,45.5z M76.1,11.3
		c-0.1,0.3,0,0.5,0.2,0.6c0.4,0.2,0.7,0.4,1,0.6c0.3,0.2,0.3,0.2,0.6-0.1C77.4,12,76.8,11.6,76.1,11.3z M60.1,8.1
		c-0.2,0.1-0.5,0.3-0.7,0.4c0.2,0.1,0.3,0.2,0.4,0.2C60,8.6,60.3,8.5,60.1,8.1z"/>
	<path class="st0" d="M7.4,65.4c0.4,0.3,0.8,0.5,1.2,0.7c0.5,0.2,0.7,0.6,0.6,1.2c-0.1,1,0,1.9,0,2.9c0,0.1,0,0.3,0,0.5
		c-0.2-0.1-0.3-0.1-0.4-0.1c-0.4-0.3-0.8-0.5-1.2-0.8c-0.2-0.1-0.2-0.2-0.2-0.4c0-1.2,0-2.4,0-3.6C7.3,65.7,7.3,65.6,7.4,65.4z
		 M8.9,70.2c0-1.2,0-2.3,0-3.4c0-0.1,0-0.2-0.1-0.2c-0.4-0.2-0.7-0.5-1.2-0.7c0,1.2,0,2.4,0,3.5C8,69.7,8.4,69.9,8.9,70.2z"/>
	<path class="st0" d="M9.1,58.9c-0.2-0.1-0.3-0.2-0.4-0.2c-0.3-0.2-0.6-0.3-0.8-0.5c-0.7-0.4-0.6-0.2-0.6-1c0-1,0-2,0-3
		c0-0.1,0-0.3,0-0.5c0.4,0.2,0.7,0.4,1,0.6c1,0.7,0.8,0.3,0.8,1.5c0,0.9,0,1.8,0,2.7C9.2,58.6,9.1,58.7,9.1,58.9z M8.9,58.5
		c0-1.2,0-2.4,0-3.5c-0.4-0.2-0.8-0.5-1.2-0.7c0,0.1-0.1,0.1-0.1,0.1c0,1.1,0,2.1,0,3.2c0,0.1,0.1,0.2,0.1,0.3
		C8.1,58,8.4,58.2,8.9,58.5z"/>
	<path class="st0" d="M7.3,59.4c0.1,0,0.2,0,0.3,0.1c0.4,0.3,0.9,0.5,1.3,0.8c0.2,0.1,0.2,0.2,0.2,0.4c0,1.2,0,2.5,0,3.7
		c0,0,0,0.1-0.1,0.2c-0.1-0.1-0.2-0.1-0.4-0.2c-0.4-0.2-0.8-0.5-1.2-0.7c-0.2-0.1-0.3-0.2-0.3-0.5c0-1.2,0-2.4,0-3.6
		C7.3,59.6,7.3,59.5,7.3,59.4z M8.8,64.2c0-1.2,0-2.4,0-3.5c-0.4-0.2-0.8-0.5-1.2-0.7C7.6,60,7.6,60,7.6,60c0,1.1,0,2.1,0,3.2
		c0,0.1,0.1,0.2,0.1,0.2C8.1,63.7,8.4,63.9,8.8,64.2z"/>
	<path class="st0" d="M1.4,50.1c0.2,0.1,0.3,0.1,0.4,0.2c0.4,0.2,0.8,0.5,1.3,0.8c0.1,0.1,0.2,0.2,0.2,0.3c0,1.2,0,2.5,0,3.7
		c0,0.1,0,0.1,0,0.2c-0.1,0-0.1,0-0.2,0c-0.5-0.3-1.1-0.7-1.6-1C1.4,52.9,1.4,51.6,1.4,50.1z M1.7,50.6c0,1.2,0,2.3,0,3.3
		c0,0.1,0,0.1,0.1,0.2c0.1,0.1,1,0.6,1.2,0.7c0-1.1,0-2.2,0-3.2c0-0.1-0.1-0.2-0.1-0.3C2.5,51.1,2.1,50.9,1.7,50.6z"/>
	<path class="st0" d="M3.2,67c-0.2-0.1-0.3-0.1-0.3-0.1c-0.4-0.3-0.9-0.5-1.3-0.8c-0.2-0.1-0.2-0.2-0.2-0.4c0-1.2,0-2.4,0-3.6
		c0-0.1,0-0.1,0-0.3c0.7,0.3,1.2,0.7,1.8,1.1C3.2,64.2,3.2,65.6,3.2,67z M3,66.6c0-0.2,0-0.3,0-0.5c0-0.7,0-1.5,0-2.2
		C3,63,3,63,2.2,62.6c-0.2-0.1-0.3-0.3-0.5-0.2c0,1.1,0,2.3,0,3.4C2.1,66,2.5,66.3,3,66.6z"/>
	<path class="st0" d="M4.4,63.6c0.1,0,0.2,0,0.2,0.1c0.4,0.3,0.9,0.5,1.3,0.8c0.2,0.1,0.3,0.2,0.3,0.5c0,1.2,0,2.3,0,3.5
		c0,0.1,0,0.2-0.1,0.3c-0.1,0-0.2,0-0.2-0.1c-0.5-0.3-1-0.6-1.4-0.9c-0.1-0.1-0.2-0.2-0.2-0.3c0-1.3,0-2.5,0-3.8
		C4.3,63.7,4.4,63.7,4.4,63.6z M5.8,68.3C5.9,68.2,5.9,68.2,5.8,68.3c0.1-1.1,0.1-2.2,0.1-3.2c0-0.1,0-0.2-0.1-0.3
		C5.4,64.5,5,64.3,4.6,64c0,1.2,0,2.3,0,3.4c0,0.1,0.1,0.2,0.1,0.2C5.1,67.9,5.5,68.1,5.8,68.3z"/>
	<path class="st0" d="M1.4,55.8c0.1,0,0.2,0.1,0.3,0.1c0.4,0.3,0.9,0.5,1.3,0.8c0.1,0.1,0.2,0.2,0.2,0.3c0,1.2,0,2.5,0,3.7
		c0,0,0,0.1,0,0.1c-0.1,0-0.2,0-0.2-0.1c-0.5-0.3-0.9-0.6-1.4-0.8c-0.1-0.1-0.2-0.2-0.2-0.4c0-1.2,0-2.4,0-3.6
		C1.4,55.9,1.4,55.9,1.4,55.8z M1.8,56.2c0,0.1-0.1,0.1-0.1,0.1c0,1.1,0,2.1,0,3.2c0,0.1,0,0.2,0.1,0.2C2.2,60,2.5,60.2,3,60.5
		c0-1.2,0-2.4,0-3.5C2.6,56.7,2.2,56.5,1.8,56.2z"/>
	<path class="st0" d="M6.1,62.8c-0.1,0-0.2-0.1-0.2-0.1c-0.5-0.3-0.9-0.6-1.4-0.9c-0.1-0.1-0.2-0.2-0.2-0.4c0-1.2,0-2.5,0-3.7
		c0-0.1,0-0.1,0.1-0.2c0.1,0,0.2,0,0.3,0.1c0.4,0.3,0.9,0.5,1.3,0.8c0.2,0.1,0.3,0.2,0.3,0.4c0,1.2,0,2.4,0,3.6
		C6.2,62.6,6.2,62.6,6.1,62.8z M5.9,62.3c0-1.2,0-2.2,0-3.3c0-0.1,0-0.2-0.1-0.3c-0.4-0.2-0.7-0.5-1.1-0.7c-0.1,0-0.1,0-0.1,0.1
		c0,1.1,0,2.2,0,3.2c0,0.1,0.1,0.2,0.1,0.3C5.1,61.8,5.5,62.1,5.9,62.3z"/>
	<path class="st0" d="M6.2,57.1c-0.1,0-0.1,0-0.1,0c-0.5-0.3-1.1-0.6-1.6-1c-0.1,0-0.1-0.2-0.1-0.3c0-1.2,0-2.5,0-3.7
		c0,0,0-0.1,0.1-0.1c0.1,0,0.2,0.1,0.3,0.1c0.4,0.3,0.9,0.5,1.3,0.8c0.1,0.1,0.2,0.2,0.2,0.4c0,1.2,0,2.5,0,3.7
		C6.2,57,6.2,57,6.2,57.1z M4.6,52.4c0,1.2,0,2.4,0,3.5c0.4,0.2,0.8,0.5,1.3,0.7c0-1.1,0-2.2,0-3.2c0-0.1,0-0.3-0.2-0.3
		C5.4,52.9,5,52.6,4.6,52.4z"/>
	<path class="st0" d="M44.9,27.8c0.1,0.5,0.1,0.9,0,1.3c0,0.1-0.2,0.2-0.3,0.3c-0.9,0.5-1.9,1.1-2.8,1.6c-1.1,0.6-2.2,1.2-3.3,1.9
		c-0.1,0.1-0.3,0.1-0.5,0.2c0-0.2-0.1-0.3-0.1-0.4c0-1.1-0.2-0.8,0.8-1.4c1.9-1.1,3.7-2.1,5.6-3.2C44.5,28,44.7,27.9,44.9,27.8z
		 M38.4,32.6c2.1-1.2,4.2-2.4,6.3-3.6c0-0.2,0-0.4,0-0.7c-2.1,1.2-4.2,2.4-6.3,3.6C38.4,32.1,38.4,32.3,38.4,32.6z"/>
	<path class="st0" d="M47.4,32.6c0,0.2,0,0.3,0,0.3c-0.1,0.1-0.2,0.1-0.3,0.2c-2.8,1.6-5.5,3.2-8.3,4.8c-1.5,0.8-2.9,1.7-4.4,2.5
		c-0.1,0.1-0.3,0.1-0.4,0.2c0-0.3,0.1-0.3,0.3-0.4c0.9-0.5,1.7-1,2.6-1.5c3.3-1.9,6.7-3.9,10-5.8C47.1,32.8,47.2,32.7,47.4,32.6z"/>
	<path class="st0" d="M47.4,31.7c0,0.3-0.2,0.3-0.4,0.4c-1,0.6-2.1,1.2-3.1,1.8c-3.2,1.8-6.3,3.7-9.5,5.5c-0.1,0.1-0.3,0.1-0.4,0.2
		c-0.2-0.3,0-0.3,0.2-0.4c0.5-0.3,1.1-0.6,1.6-0.9c3.7-2.1,7.4-4.3,11-6.4C47,31.8,47.2,31.6,47.4,31.7z"/>
	<path class="st0" d="M34.1,41.6c-0.2-0.2-0.1-0.3,0-0.3c0.2-0.1,0.5-0.3,0.7-0.4c4-2.3,8-4.7,12-7c0.2-0.1,0.3-0.2,0.5-0.3
		c0.2,0.1,0.2,0.2,0.1,0.3c-0.1,0.1-0.2,0.1-0.3,0.2c-2.1,1.2-4.1,2.4-6.2,3.6c-2.1,1.2-4.3,2.5-6.4,3.7
		C34.4,41.5,34.2,41.6,34.1,41.6z"/>
	<path class="st0" d="M36.3,33.7c0.1,0.3,0.3,0.7,0.4,1c-0.2,0.1-0.4,0.2-0.5,0.3c-0.1,0.1-0.2,0.3-0.3,0.6
		c-0.2-0.3-0.3-0.5-0.5-0.8c-0.2,0.5-0.3,0.9-0.4,1.3c-0.1-0.1-0.3-0.2-0.4-0.2c-0.1,0.1-0.3,0.2-0.4,0.3c-0.1-0.3,0-0.5,0.1-0.7
		c0-0.2,0.1-0.4,0.2-0.7c-0.2-0.1-0.4-0.3-0.3-0.6c0,0,0,0,0,0c-0.5-0.5,0.2-0.9,0-1.3c0-0.1,0.1-0.1,0.1-0.2
		c0.1-0.1,0.2-0.2,0.3-0.4c0.1-0.3,0.3-0.5,0.6-0.6c0.1,0,0.2-0.1,0.2-0.1c0.2-0.2,0.4-0.3,0.6-0.1c0.1,0,0.2,0,0.3,0
		c0.1,0,0.1,0,0.2,0.1c0.1,0,0.1,0.1,0.1,0.2c0,0.3,0.4,0.5,0.2,0.9c-0.1,0.1-0.1,0.2-0.1,0.3C36.8,33.2,36.6,33.4,36.3,33.7z
		 M35.9,33.8c0.1-0.1,0.1-0.2,0.2-0.3c0.2-0.1,0.3-0.2,0.3-0.4c0-0.2,0.1-0.5,0.1-0.7c-0.1-0.2-0.2-0.4-0.2-0.6
		c-0.2,0-0.4-0.1-0.6-0.1c-0.1,0.1-0.2,0.2-0.3,0.2c-0.4,0.1-0.5,0.4-0.6,0.7c0,0,0,0,0,0.1c-0.5,0.5-0.5,1.1-0.2,1.7
		c0.2,0,0.4,0.1,0.6,0.1c0.2-0.1,0.4-0.2,0.6-0.3C35.8,34,35.8,33.9,35.9,33.8z M36.4,34.4c-0.1-0.1-0.1-0.3-0.2-0.4
		c-0.2,0.2-0.3,0.3-0.5,0.5c0.1,0.2,0.1,0.3,0.2,0.4C36,34.8,36.2,34.6,36.4,34.4z M34.7,34.7c-0.1,0.3-0.1,0.5-0.2,0.7
		c0.2,0,0.3,0,0.4,0c0.1-0.2,0.1-0.4,0.2-0.6C35,34.8,34.9,34.7,34.7,34.7z"/>
	<path class="st0" d="M43.8,32.6c0,0.1,0,0.2,0,0.3c-0.1,0.1-0.2,0.1-0.3,0.2c-3.1,1.8-6.1,3.6-9.2,5.3c-0.1,0.1-0.3,0.2-0.4,0.1
		c0-0.2,0.2-0.3,0.3-0.4c1.3-0.7,2.5-1.5,3.8-2.2c1.8-1,3.5-2.1,5.3-3.1C43.5,32.8,43.7,32.7,43.8,32.6z"/>
	<path class="st0" d="M40.6,39.9c-0.6,0.3-1.1,0.6-1.6,0.9c-1.5,0.9-3,1.7-4.5,2.6c-0.1,0.1-0.3,0.2-0.4,0.2c-0.1,0-0.1,0-0.3-0.1
		c0.1-0.1,0.2-0.2,0.3-0.3c2-1.1,3.9-2.3,5.9-3.4c0.1,0,0.2-0.1,0.2-0.1C40.4,39.7,40.5,39.8,40.6,39.9z"/>
	<path class="st0" d="M40.9,33.6c0-0.1,0-0.2,0-0.3c0.1-0.1,0.3-0.2,0.4-0.3c1.9-1.1,3.8-2.2,5.6-3.3c0.1-0.1,0.3-0.2,0.5,0
		c-0.2,0.1-0.3,0.2-0.4,0.3c-1.5,0.9-3,1.7-4.5,2.6c-0.4,0.3-0.9,0.5-1.3,0.8C41.2,33.5,41.1,33.5,40.9,33.6z"/>
	<path class="st0" d="M34,42.6c0.3-0.3,6.1-3.7,6.5-3.8c0,0.1-0.1,0.2-0.1,0.3c-0.2,0.1-0.4,0.2-0.6,0.3c-1.8,1-3.5,2-5.3,3.1
		C34.4,42.5,34.2,42.7,34,42.6z"/>
	<path class="st0" d="M41.5,38.1c0.2-0.1,0.3-0.2,0.4-0.3c1.7-1,3.4-2,5.2-3c0.1-0.1,0.2-0.1,0.3-0.1c0.1,0,0.1,0,0.3,0.1
		c-0.2,0.1-0.3,0.2-0.4,0.3c-1.7,1-3.4,2-5.1,3c-0.1,0.1-0.2,0.1-0.3,0.2C41.7,38.2,41.6,38.2,41.5,38.1z"/>
	<path class="st0" d="M35.9,36.4c0-0.1,0-0.2,0-0.2c0.1-0.1,0.2-0.2,0.3-0.2c1-0.6,2-1.1,3-1.7c0.1-0.1,0.3-0.2,0.5,0
		c-0.1,0.1-0.1,0.2-0.2,0.2c-1.1,0.7-2.3,1.3-3.4,2C36.1,36.4,36,36.4,35.9,36.4z"/>
	<path class="st0" d="M47.5,30.6c0,0.1-0.1,0.2-0.1,0.2c-0.8,0.4-1.5,0.9-2.3,1.3c0,0-0.1,0-0.1,0c0-0.1,0-0.2,0.1-0.2
		c0.8-0.5,1.5-0.9,2.3-1.3C47.3,30.6,47.4,30.6,47.5,30.6z"/>
	<path class="st0" d="M19.8,49.8c0,0.3,0,0.4,0,0.5c0,1.1,0,2.2,0,3.2c0,0.3-0.1,0.5-0.3,0.6c-0.4,0.2-0.8,0.5-1.2,0.7
		c-0.1,0.1-0.2,0.1-0.4,0.2c0-0.2,0-0.3,0-0.5c0-1.1,0-2.2,0-3.3c0-0.3,0.1-0.4,0.3-0.5C18.7,50.4,19.2,50.1,19.8,49.8z M19.5,50.3
		c-0.4,0.3-0.7,0.5-1.1,0.7c-0.2,0.1-0.2,0.3-0.2,0.5c0,0.9,0,1.8,0,2.7c0,0.1,0,0.3,0,0.5c0.3-0.2,0.6-0.4,0.9-0.5
		c0.3-0.2,0.4-0.4,0.4-0.7c0-0.8,0-1.7,0-2.5C19.5,50.7,19.5,50.5,19.5,50.3z"/>
	<path class="st0" d="M11.7,70.7c0-0.2,0-0.3-0.1-0.5c0-1.1,0-2.3,0-3.4c0-0.3,0.1-0.4,0.3-0.5c0.5-0.3,1-0.6,1.5-0.9
		c0.1,0.1,0.1,0.2,0.1,0.3c0,1.2,0,2.5,0,3.7c0,0.1,0,0.2-0.1,0.3C12.9,70,12.3,70.3,11.7,70.7z M13.3,65.9
		c-0.4,0.3-0.7,0.5-1.1,0.6c-0.2,0.1-0.3,0.3-0.3,0.5c0,1,0,1.9,0,2.9c0,0.1,0,0.2,0,0.3c0.2-0.2,0.4-0.3,0.7-0.4
		c0.5-0.2,0.7-0.6,0.6-1.1C13.2,67.8,13.3,66.9,13.3,65.9z"/>
	<path class="st0" d="M16.6,63.6c0.1,0.3,0.2,3,0.1,4.1c-0.6,0.3-1.2,0.7-1.8,1.1c0-0.2-0.1-0.2-0.1-0.3c0-1.2,0-2.4,0-3.6
		c0-0.1,0.1-0.3,0.1-0.3C15.4,64.2,16,63.9,16.6,63.6C16.5,63.6,16.6,63.6,16.6,63.6z M15.1,68.3c0.5-0.3,0.9-0.5,1.3-0.8
		c0-1.2,0-2.3-0.1-3.5c-0.4,0.2-0.7,0.5-1,0.6c-0.2,0.1-0.3,0.3-0.3,0.5c0,0.9,0,1.9,0,2.8C15.1,68,15.1,68.1,15.1,68.3z"/>
	<path class="st0" d="M16.7,57.6c0,0.1,0,0.3,0,0.4c0,1.1,0,2.2,0,3.4c0,0.3-0.1,0.4-0.3,0.5c-0.5,0.3-1,0.6-1.5,0.9
		c-0.1-0.1-0.1-0.2-0.1-0.3c0-1.2,0-2.4,0-3.6c0-0.1,0.1-0.3,0.1-0.3c0.5-0.3,1.1-0.6,1.6-1C16.5,57.6,16.6,57.6,16.7,57.6z
		 M15.1,62.3c0.4-0.2,0.7-0.4,1.1-0.6c0.2-0.1,0.3-0.2,0.3-0.5c0-1,0-1.9,0-2.9c0-0.1,0-0.2,0-0.3c-0.5,0.3-0.9,0.5-1.3,0.8
		C15.1,59.9,15.1,61.1,15.1,62.3z"/>
	<path class="st0" d="M11.7,58.8c0-0.1,0-0.2,0-0.4c0-1.1,0-2.3,0-3.4c0-0.2,0.1-0.4,0.3-0.5c0.4-0.2,0.8-0.5,1.2-0.8
		c0.1-0.1,0.2-0.1,0.4-0.2c0,0.2,0.1,0.3,0.1,0.5c0,1.1,0,2.2,0,3.4c0,0.2,0,0.3-0.2,0.4c-0.5,0.3-1,0.6-1.5,0.9
		C11.8,58.8,11.8,58.8,11.7,58.8z M13.2,57.6c0.1-0.9,0.1-3.2-0.1-3.5c-0.3,0.2-0.7,0.4-1,0.6c-0.2,0.1-0.3,0.2-0.2,0.5
		c0,0.9,0,1.9,0,2.8c0,0.1,0,0.2,0,0.4C12.4,58.1,12.8,57.8,13.2,57.6z"/>
	<path class="st0" d="M16.6,51.6c0,0.2,0,0.4,0,0.5c0,1.1,0,2.3,0,3.4c0,0.2-0.1,0.4-0.3,0.5c-0.4,0.3-0.9,0.5-1.3,0.8
		c-0.1,0-0.2,0.1-0.3,0.1c0-0.2-0.1-0.3-0.1-0.4c0-1.1,0-2.3,0-3.4c0-0.3,0.1-0.4,0.3-0.6C15.6,52.3,16.1,52,16.6,51.6z M16.4,52.1
		c-0.4,0.3-0.8,0.5-1.2,0.7c-0.1,0.1-0.1,0.2-0.1,0.3c0,1,0,2,0,3c0,0.1,0,0.2,0.1,0.3c0.4-0.2,0.7-0.4,1-0.6
		c0.2-0.1,0.3-0.3,0.3-0.5c0-1,0-2,0-2.9C16.4,52.3,16.4,52.3,16.4,52.1z"/>
	<path class="st0" d="M11.7,64.7c0-0.2,0-0.4,0-0.5c0-1.1,0-2.2,0-3.3c0-0.3,0.1-0.4,0.3-0.6c0.4-0.2,0.8-0.5,1.1-0.7
		c0.1-0.1,0.2-0.1,0.4-0.2c0,0.2,0.1,0.3,0.1,0.4c0,1.1,0,2.3,0,3.4c0,0.3-0.1,0.4-0.3,0.6c-0.4,0.2-0.8,0.5-1.1,0.7
		C12,64.5,11.9,64.6,11.7,64.7z M11.9,64.2c0.4-0.3,0.8-0.5,1.1-0.7c0.2-0.1,0.3-0.2,0.3-0.5c0-1,0-1.9,0-2.9c0-0.1,0-0.2,0-0.4
		c-0.4,0.3-0.8,0.5-1.2,0.7c-0.1,0.1-0.1,0.2-0.1,0.3C11.9,62,11.9,63.1,11.9,64.2z"/>
	<path class="st0" d="M19.8,65.9c-0.6,0.3-1.2,0.7-1.8,1.1c0-0.1-0.1-0.2-0.1-0.3c0-1.2,0-2.4,0-3.6c0-0.2,0-0.3,0.2-0.4
		c0.5-0.3,1-0.6,1.5-0.9c0,0,0.1,0,0.2,0C19.8,62.1,19.9,64.5,19.8,65.9z M19.5,65.7c0-1.2,0-2.3,0-3.6c-0.4,0.2-0.7,0.4-1,0.6
		c-0.3,0.1-0.4,0.3-0.4,0.7c0,0.9,0,1.8,0,2.7c0,0.1,0,0.2,0,0.4C18.7,66.2,19.1,65.9,19.5,65.7z"/>
	<path class="st0" d="M19.8,59.8c-0.6,0.3-1.1,0.7-1.8,1.1c0-0.2-0.1-0.3-0.1-0.4c0-1.1,0-2.3,0-3.4c0-0.2,0.1-0.4,0.3-0.5
		c0.4-0.2,0.8-0.5,1.3-0.8c0.1-0.1,0.2-0.1,0.4-0.1C19.8,57.1,19.8,58.4,19.8,59.8z M18.2,60.4c0.4-0.3,0.8-0.5,1.2-0.7
		c0.1-0.1,0.2-0.2,0.2-0.3c0-1,0-2.1,0-3.1c0,0,0-0.1-0.1-0.2c-0.3,0.2-0.6,0.4-1,0.6c-0.2,0.1-0.3,0.3-0.3,0.6c0,0.7,0,1.3,0,2
		C18.2,59.6,18.2,60,18.2,60.4z"/>
	<path class="st0" d="M14.4,11.7c0,0.2,0.1,0.3,0.1,0.4c0,0.9,0,1.8,0,2.7c0,0.3-0.1,0.4-0.3,0.5c-0.5,0.3-0.9,0.5-1.3,0.8
		c-0.1,0.1-0.2,0.1-0.3,0.2c0-0.1-0.1-0.2-0.1-0.3c0-0.9,0-1.9,0-2.8c0-0.1,0-0.3,0.2-0.4C13.2,12.5,13.8,12.1,14.4,11.7z
		 M14.2,12.2c-0.4,0.3-0.8,0.5-1.2,0.7c-0.2,0.1-0.3,0.2-0.3,0.5c0,0.7,0,1.5,0,2.2c0,0.1,0,0.2,0,0.3c0.4-0.3,0.8-0.5,1.2-0.7
		c0.1-0.1,0.2-0.2,0.2-0.3C14.2,14,14.2,13.2,14.2,12.2z"/>
	<path class="st0" d="M14.5,23.9c0,0.5,0,1,0,1.4c0,0.6,0,1.2,0,1.7c0,0.2,0,0.3-0.2,0.4c-0.6,0.4-1.2,0.7-1.8,1.1
		c0-0.2-0.1-0.3-0.1-0.4c0-0.9,0-1.9,0-2.8c0-0.2,0.1-0.3,0.2-0.4c0.5-0.3,1-0.6,1.5-0.9C14.3,23.9,14.3,23.9,14.5,23.9z M14.2,24.3
		c-0.5,0.3-0.9,0.5-1.3,0.8c-0.1,0.1-0.1,0.2-0.1,0.3c0,0.8,0,1.6,0,2.4c0,0,0,0.1,0.1,0.1c0.4-0.3,0.8-0.5,1.2-0.7
		c0.1-0.1,0.1-0.2,0.1-0.3C14.2,26.1,14.2,25.2,14.2,24.3z"/>
	<path class="st0" d="M12.5,24.4c0-0.1,0-0.2,0-0.3c0-0.9,0-1.8,0-2.8c0-0.2,0-0.3,0.2-0.5c0.5-0.3,1.1-0.6,1.6-1c0,0,0.1,0,0.2,0
		c0,0.1,0.1,0.2,0.1,0.3c0,0.9,0,1.8,0,2.8c0,0.2,0,0.3-0.2,0.4c-0.5,0.3-1,0.6-1.6,0.9C12.7,24.4,12.6,24.4,12.5,24.4z M12.8,24
		c0.4-0.2,0.8-0.5,1.1-0.7c0.2-0.1,0.3-0.3,0.3-0.5c0-0.7,0-1.4,0-2.1c0-0.1,0-0.2,0-0.3c-0.4,0.3-0.8,0.5-1.1,0.7
		c-0.2,0.1-0.3,0.3-0.3,0.5c0,0.7,0,1.4,0,2.1C12.8,23.7,12.8,23.8,12.8,24z"/>
	<path class="st0" d="M12.5,20.4c0-0.1-0.1-0.2-0.1-0.2c0-1,0-2,0-3c0-0.1,0.1-0.2,0.1-0.3c0.6-0.4,1.1-0.7,1.7-1c0,0,0.1,0,0.2,0
		c0,0.1,0,0.2,0,0.3c0,0.9,0,1.7,0,2.6c0,0.3-0.1,0.5-0.3,0.6c-0.4,0.2-0.8,0.5-1.3,0.8C12.8,20.3,12.7,20.3,12.5,20.4z M14.2,16.3
		c-0.1,0-0.2,0-0.3,0.1c-0.3,0.2-0.6,0.4-0.9,0.6c-0.2,0.1-0.2,0.3-0.2,0.5c0,0.7,0,1.4,0,2.1c0,0.1,0,0.2,0,0.3
		c0.4-0.3,0.8-0.5,1.2-0.7c0.1-0.1,0.2-0.2,0.2-0.3C14.2,18,14.2,17.2,14.2,16.3z"/>
	<path class="st0" d="M15.7,22.4c0-0.2,0-0.3,0-0.4c0-0.9,0-1.7,0-2.6c0-0.3,0.1-0.4,0.3-0.5c0.4-0.2,0.9-0.5,1.3-0.8
		c0.1-0.1,0.2-0.1,0.4-0.2c0,0.1,0.1,0.2,0.1,0.3c0,0.9,0,1.9,0,2.8c0,0.2,0,0.3-0.2,0.4c-0.5,0.3-1.1,0.6-1.6,1
		C15.9,22.4,15.8,22.4,15.7,22.4z M16,22c0.4-0.3,0.8-0.5,1.2-0.7c0.2-0.1,0.3-0.2,0.2-0.5c0-0.6,0-1.2,0-1.8c0-0.2,0-0.4,0-0.7
		c-0.5,0.3-1,0.6-1.4,0.9C16,20.2,16,21,16,22z"/>
	<path class="st0" d="M15.7,18.4c0-0.2,0-0.3,0-0.4c0-0.9,0-1.7,0-2.6c0-0.2,0-0.3,0.2-0.4c0.5-0.3,1.1-0.7,1.6-1c0,0,0.1,0,0.2,0
		c0,0.1,0.1,0.2,0.1,0.2c0,1,0,1.9,0,2.9c0,0.2,0,0.3-0.2,0.4c-0.5,0.3-1,0.6-1.6,0.9C15.9,18.4,15.8,18.4,15.7,18.4z M17.4,14.3
		c-0.5,0.3-0.8,0.5-1.2,0.7C16,15.2,16,15.3,16,15.5c0,0.7,0,1.5,0,2.2c0,0.1,0,0.1,0,0.3c0.5-0.3,0.9-0.5,1.3-0.8
		c0.1,0,0.1-0.2,0.1-0.3C17.4,16.1,17.4,15.3,17.4,14.3z"/>
	<path class="st0" d="M17.7,21.9c0,0.2,0,0.3,0,0.4c0,0.9,0,1.7,0,2.6c0,0.2,0,0.3-0.2,0.4c-0.5,0.3-1,0.6-1.5,0.9
		c-0.1,0-0.1,0-0.2,0.1c0-0.1-0.1-0.2-0.1-0.3c0-0.9,0-1.9,0-2.8c0-0.2,0-0.3,0.2-0.4c0.5-0.3,1.1-0.7,1.6-1
		C17.5,22,17.5,22,17.7,21.9z M17.4,22.3c-0.5,0.3-0.9,0.5-1.3,0.8C16,23.2,16,23.4,16,23.6c0,0.6,0,1.2,0,1.8c0,0.2,0,0.4,0,0.7
		c0.5-0.3,0.9-0.6,1.3-0.8c0.1,0,0.1-0.1,0.1-0.2C17.4,24.1,17.4,23.3,17.4,22.3z"/>
	<path class="st0" d="M15.7,14.4c0-0.2,0-0.3,0-0.4c0-0.9,0-1.7,0-2.6c0-0.2,0-0.3,0.2-0.5c0.5-0.3,1.1-0.6,1.6-1c0,0,0.1,0,0.2,0
		c0,0.1,0.1,0.2,0.1,0.3c0,0.9,0,1.9,0,2.8c0,0.2,0,0.3-0.2,0.4c-0.5,0.3-1.1,0.6-1.6,1C15.9,14.4,15.8,14.4,15.7,14.4z M17.4,10.3
		c-0.4,0.3-0.8,0.5-1.2,0.7C16,11.1,16,11.3,16,11.5c0,0.7,0,1.5,0,2.2c0,0.1,0,0.2,0,0.3c0.5-0.3,1-0.6,1.4-0.8
		C17.4,12.2,17.4,11.3,17.4,10.3z"/>
	<path class="st0" d="M20.8,12c0,0.2,0,0.2,0,0.3c0,0.9,0,1.8,0,2.7c0,0.2-0.1,0.4-0.3,0.5c-0.5,0.3-0.9,0.6-1.4,0.9
		c-0.1,0-0.2,0.1-0.3,0.1c0-0.1-0.1-0.2-0.1-0.3c0-0.9,0-1.9,0-2.8c0-0.2,0-0.3,0.2-0.4c0.5-0.3,1.1-0.6,1.6-1
		C20.6,12,20.7,12,20.8,12z M19.1,16.1c0.5-0.3,0.9-0.5,1.3-0.8c0.1-0.1,0.1-0.2,0.1-0.3c0-0.6,0-1.1,0-1.7c0-0.3,0-0.5,0-0.9
		c-0.3,0.2-0.5,0.3-0.7,0.4c-0.2,0.1-0.6,0.3-0.7,0.5c-0.1,0.2-0.1,0.5-0.1,0.8C19.1,14.8,19.1,15.4,19.1,16.1z"/>
	<path class="st0" d="M18.8,20.6c0-0.2-0.1-0.3-0.1-0.4c0-0.9,0-1.8,0-2.7c0-0.2,0.1-0.4,0.3-0.5c0.5-0.3,0.9-0.6,1.4-0.9
		c0.1-0.1,0.2-0.1,0.3-0.1c0,0.1,0.1,0.2,0.1,0.3c0,0.9,0,1.9,0,2.8c0,0.2-0.1,0.4-0.3,0.5C20,19.9,19.5,20.2,18.8,20.6z M20.5,16.4
		c-0.5,0.3-0.9,0.6-1.3,0.8c-0.2,0.1-0.2,0.2-0.2,0.4c0,0.7,0,1.5,0,2.2c0,0.1,0,0.2,0,0.3c0.5-0.3,0.9-0.5,1.3-0.8
		c0.1-0.1,0.2-0.2,0.2-0.3C20.5,18.2,20.5,17.3,20.5,16.4z"/>
	<path class="st0" d="M20.8,19.9c0,0.2,0,0.3,0,0.4c0,0.9,0,1.8,0,2.7c0,0.3-0.1,0.4-0.3,0.5c-0.4,0.2-0.9,0.5-1.3,0.8
		c-0.1,0.1-0.2,0.1-0.4,0.2c0-0.1-0.1-0.2-0.1-0.3c0-0.9,0-1.9,0-2.8c0-0.2,0-0.3,0.2-0.4C19.5,20.7,20.1,20.3,20.8,19.9z
		 M20.5,20.4c-0.5,0.3-0.8,0.5-1.2,0.7c-0.2,0.1-0.3,0.2-0.3,0.5c0,0.7,0,1.4,0,2.1c0,0.1,0,0.2,0,0.3c0.3-0.2,0.5-0.3,0.7-0.4
		c0.6-0.2,0.8-0.7,0.7-1.3C20.5,21.7,20.5,21.1,20.5,20.4z"/>
	<path class="st0" d="M20.8,8c0,0.2,0,0.3,0,0.4c0,0.9,0,1.7,0,2.6c0,0.2-0.1,0.4-0.3,0.5c-0.4,0.2-0.8,0.5-1.2,0.7
		c-0.1,0.1-0.3,0.2-0.5,0.3c0-0.2-0.1-0.3-0.1-0.4c0-0.9,0-1.8,0-2.7c0-0.2,0-0.3,0.2-0.4c0.5-0.3,1.1-0.7,1.6-1
		C20.6,8,20.7,8,20.8,8z M19.1,12.1c0.5-0.3,0.8-0.5,1.2-0.7c0.2-0.1,0.3-0.2,0.3-0.5c0-0.5,0-1,0-1.5c0-0.3,0-0.6,0-1
		C20,8.7,19.6,9,19.2,9.2c-0.1,0-0.1,0.2-0.1,0.3C19.1,10.3,19.1,11.2,19.1,12.1z"/>
	<path class="st0" d="M67.2,68.9c-0.4-0.3-0.8-0.5-1.2-0.7c-2.1-1.2-4.1-2.5-6.2-3.7c-0.2-0.1-0.3-0.2-0.3-0.5c0-1.1,0-2.3,0-3.4
		c0-0.1,0-0.1,0-0.3c0.2,0.1,0.3,0.1,0.4,0.2c1.6,0.9,3.2,1.9,4.7,2.8c0.8,0.4,1.5,0.9,2.3,1.3c0.2,0.1,0.3,0.3,0.3,0.5
		c0,1.1,0,2.2,0,3.3C67.3,68.7,67.2,68.8,67.2,68.9z M67,66.9c-1.7-1.1-6.8-4.1-7.2-4.2c0,0.4,0,0.8,0,1.2c0,0.2,0.1,0.4,0.3,0.5
		c2.2,1.3,4.3,2.6,6.5,3.9c0.1,0.1,0.2,0.1,0.4,0.2C67,67.9,67,67.4,67,66.9z M67,66.5c0-0.5,0-0.9,0-1.2c0-0.1-0.1-0.2-0.2-0.3
		c-0.1-0.1-0.2-0.1-0.3-0.2c-2.1-1.3-4.3-2.6-6.4-3.8c-0.1,0-0.2-0.1-0.3-0.1c0,0.4,0,0.7,0,1c0,0.3,0.1,0.5,0.3,0.6
		c2,1.1,3.9,2.3,5.8,3.5C66.3,66.1,66.6,66.3,67,66.5z"/>
	<path class="st0" d="M67.3,64.2c-0.2-0.1-0.3-0.2-0.5-0.3c-2.3-1.4-4.6-2.8-6.9-4.1c-0.2-0.1-0.4-0.3-0.3-0.6c0-1.1,0-2.1,0-3.2
		c0-0.1,0-0.2,0-0.4c0.2,0.1,0.3,0.1,0.4,0.1c1.4,0.8,2.8,1.6,4.2,2.5c0.9,0.6,1.9,1.1,2.8,1.7c0.3,0.2,0.4,0.4,0.4,0.7
		c0,1,0,2,0,3.1C67.3,63.9,67.3,64,67.3,64.2z M59.8,57.9c0,0.5,0,0.9,0,1.3c0,0.2,0.1,0.3,0.3,0.5c2.2,1.3,4.4,2.6,6.6,3.9
		c0.1,0,0.2,0.1,0.3,0.1c0-0.4,0-0.8,0-1.1c0-0.3-0.1-0.5-0.3-0.6c-1.4-0.8-2.8-1.7-4.2-2.5C61.6,59,60.7,58.5,59.8,57.9z
		 M59.8,56.1c0,0.4,0,0.6,0,0.9c0,0.4,0.1,0.6,0.4,0.8c2.1,1.3,4.3,2.5,6.4,3.8c0.1,0.1,0.2,0.1,0.4,0.2c0-0.3,0-0.6,0-0.9
		c0-0.4-0.1-0.6-0.4-0.8c-2.1-1.3-4.3-2.5-6.4-3.8C60.1,56.2,60,56.2,59.8,56.1z"/>
	<path class="st0" d="M67.2,59.5c-0.4-0.3-0.8-0.5-1.3-0.7c-2-1.2-4-2.4-6.1-3.6c-0.3-0.2-0.4-0.3-0.4-0.6c0-1,0-2,0-3
		c0-0.2,0-0.3,0-0.5c0.4,0.1,6.8,3.8,7.7,4.5C67.4,56.3,67.3,59.1,67.2,59.5z M67,59c0-0.4,0-0.8,0-1.2c0-0.2-0.1-0.4-0.3-0.5
		c-2.2-1.3-4.4-2.6-6.6-3.9c-0.1-0.1-0.2-0.1-0.3-0.1c0,0.4,0,0.7,0,1c0,0.4,0.1,0.6,0.5,0.8c1.9,1.1,3.8,2.3,5.7,3.4
		C66.3,58.6,66.6,58.8,67,59z M59.8,51.4c0,0.4,0,0.8,0,1.1c0,0.3,0.1,0.4,0.3,0.6c2.2,1.3,4.4,2.6,6.5,3.9c0.1,0,0.2,0.1,0.3,0.1
		c0-0.5,0-1,0-1.4C64.6,54.2,62.3,52.8,59.8,51.4z"/>
	<path class="st0" d="M67.2,73.4c-0.1-0.1-0.3-0.1-0.4-0.2c-2.3-1.4-4.7-2.8-7-4.2c-0.2-0.1-0.3-0.2-0.3-0.5c0-1.2,0-2.3,0-3.5
		c0-0.1,0-0.1,0-0.2c0.2,0.1,0.3,0.1,0.4,0.2c2.4,1.4,4.7,2.8,7.1,4.2c0.1,0.1,0.2,0.2,0.2,0.3c0,1.2,0,2.4,0,3.6
		C67.2,73.3,67.2,73.4,67.2,73.4z M59.7,67.2c0,0.4,0,0.8,0,1.1c0,0.3,0.1,0.5,0.4,0.7c2.2,1.3,4.4,2.6,6.6,3.9
		c0.1,0,0.2,0.1,0.2,0.1c0-0.4,0-0.7,0-1.1c0-0.4-0.1-0.6-0.4-0.7c-1.8-1-3.5-2.1-5.2-3.1C60.8,67.8,60.3,67.5,59.7,67.2z
		 M59.7,65.3c0,0.5,0,0.8,0,1.2c0,0.2,0.1,0.3,0.3,0.5c2.2,1.3,4.4,2.6,6.6,3.9c0.1,0,0.2,0.1,0.3,0.1c0-0.5,0-1,0-1.4
		C64.6,68.2,62.2,66.8,59.7,65.3z"/>
	<path class="st0" d="M66.1,28.1c-0.2-0.1-0.3-0.1-0.4-0.2c-1.3-0.8-2.5-1.5-3.8-2.3c-0.3-0.1-0.3-0.3-0.3-0.6c0-3.9,0-7.8,0-11.7
		c0-1.2,0-2.5,0-3.7c0-0.2,0-0.3,0-0.5c0.1,0,0.2,0.1,0.3,0.1c1.3,0.8,2.6,1.6,3.9,2.3c0.2,0.1,0.2,0.3,0.2,0.5c0,2.3,0,4.7,0,7
		c0,2.8,0,5.6,0,8.4C66.1,27.7,66.1,27.9,66.1,28.1z M64.4,26.9c0-0.1,0-0.2,0-0.3c0-5,0-9.9,0-14.9c0-0.1,0-0.2,0-0.4
		c0-0.1-0.1-0.2-0.2-0.3c-0.3-0.2-0.6-0.4-1-0.6c0,0.3,0,0.4,0,0.6c0,4.3,0,8.5,0,12.8c0,0.7,0,1.4,0,2c0,0.2,0,0.3,0.2,0.4
		C63.8,26.5,64.1,26.7,64.4,26.9z M63,26c0-0.2,0-0.4,0-0.5c0-4.7,0-9.3,0-14c0-0.3,0-0.7,0-1c0-0.1,0-0.2-0.1-0.3
		c-0.3-0.2-0.6-0.4-1-0.6c0,5.3,0,10.5,0,15.7C62.2,25.6,62.6,25.8,63,26z M64.7,11.3c0,5.3,0,10.5,0,15.8c0.3,0.2,0.7,0.4,1.1,0.6
		c0-0.2,0-0.4,0-0.5c0-3.5,0-7.1,0-10.6c0-1.4,0-2.9,0-4.3c0-0.2-0.1-0.4-0.3-0.5C65.3,11.7,65.1,11.5,64.7,11.3z"/>
	<path class="st0" d="M69,63.7c0-0.3,0-0.4,0-0.5c0-1,0-2,0-3c0-0.2,0.1-0.4,0.3-0.5c0.5-0.3,0.9-0.6,1.4-0.9c0,0.2,0.1,0.3,0.1,0.4
		c0,1,0,2.1,0,3.1c0,0.1,0,0.3-0.1,0.4C70.1,63,69.6,63.3,69,63.7z M69.3,63.2c0.3-0.2,0.6-0.4,0.9-0.5c0.2-0.1,0.3-0.3,0.3-0.5
		c0-0.8,0-1.7,0-2.5c0-0.1,0-0.2,0-0.3c-0.3,0.2-0.6,0.4-0.9,0.5c-0.2,0.1-0.3,0.3-0.3,0.5c0,0.8,0,1.6,0,2.4
		C69.3,62.9,69.3,63,69.3,63.2z"/>
	<path class="st0" d="M69,68.5c0-0.2,0-0.3,0-0.5c0-0.9,0-1.9,0-2.8c0-0.3,0.1-0.5,0.3-0.6c0.3-0.2,0.6-0.4,0.9-0.6
		c0.1-0.1,0.2-0.1,0.4-0.3c0,0.2,0.1,0.3,0.1,0.4c0,1,0,2.1,0,3.1c0,0.2,0,0.3-0.2,0.4c-0.5,0.3-0.9,0.6-1.4,0.9
		C69.1,68.6,69.1,68.5,69,68.5z M70.4,67.4c0-1,0-2.1,0-3.1c-0.4,0.2-0.6,0.4-0.9,0.6c-0.2,0.1-0.3,0.3-0.3,0.5c0,0.8,0,1.6,0,2.4
		c0,0.1,0,0.2,0,0.3C69.7,67.9,70,67.6,70.4,67.4z"/>
	<path class="st0" d="M70.7,57.7c-0.5,0.4-1.1,0.7-1.7,1.1c0-0.2-0.1-0.3-0.1-0.5c0-1,0-2,0-3c0-0.2,0.1-0.4,0.3-0.5
		c0.4-0.3,0.9-0.6,1.3-0.8c0.1,0,0.1,0,0.1,0.1c0,0,0,0,0,0c0,0,0,0.1,0,0.1c0,1,0,2,0,3C70.7,57.4,70.7,57.5,70.7,57.7z M70.4,57.6
		c0-1.1,0-2.1,0-3.1c-0.3,0.2-0.6,0.4-0.8,0.5c-0.2,0.1-0.3,0.3-0.3,0.6c0,0.8,0,1.6,0,2.4c0,0.1,0,0.2,0,0.3
		C69.7,58,70.1,57.8,70.4,57.6z"/>
	<path class="st0" d="M79,22.7c0,0.6,0,1.1,0,1.6c0,0.1-0.1,0.2-0.2,0.3c-0.6,0.4-1.2,0.8-1.9,1.2c-1,0.6-2,1.3-3,1.9
		c-0.2,0.1-0.4,0.2-0.6,0.3c0-0.2-0.1-0.2-0.1-0.3c0-0.4,0-0.7,0-1.1c0-0.2,0.1-0.4,0.3-0.5c0.6-0.4,1.2-0.8,1.8-1.2
		c1.1-0.7,2.1-1.3,3.2-2C78.6,22.8,78.8,22.8,79,22.7z M78.7,23.2C78.6,23.2,78.6,23.2,78.7,23.2c-1.7,1-3.4,2.1-5.1,3.1
		c-0.1,0-0.2,0.1-0.2,0.2c0,0.3,0,0.6,0,1c1.8-1.1,3.5-2.2,5.2-3.3C78.7,23.9,78.7,23.5,78.7,23.2z"/>
	<path class="st0" d="M73.3,30.9c0-0.1-0.1-0.1-0.1-0.2c0-0.5,0-0.9,0-1.4c0-0.2,0.1-0.3,0.3-0.4c1-0.7,2.1-1.3,3.1-2
		c0.6-0.4,1.3-0.8,1.9-1.2c0.1-0.1,0.2-0.1,0.5-0.2c0,0.6,0,1.1,0,1.6c0,0.1-0.2,0.2-0.3,0.3c-0.9,0.6-1.8,1.2-2.7,1.8
		c-0.8,0.5-1.5,1-2.3,1.5C73.6,30.7,73.4,30.8,73.3,30.9z M73.5,30.4c0.2-0.1,0.4-0.3,0.6-0.4c1.3-0.8,2.6-1.6,3.8-2.5
		c0.3-0.2,0.6-0.2,0.7-0.5c0.1-0.3,0-0.6,0-0.9c0,0,0,0-0.1-0.1c-1.7,1.1-3.5,2.2-5.2,3.3C73.5,29.7,73.5,30,73.5,30.4z"/>
	<path class="st0" d="M9.6,29.5c0,0.1,0,0.2,0,0.4c0,1.1,0,2.1,0,3.2c0,0.3-0.1,0.4-0.3,0.5c-0.6,0.3-1.3,0.7-2,1.1
		c-0.1-0.2-0.1-0.3-0.1-0.4c0-1.1,0-2.2,0-3.3c0-0.1,0.1-0.3,0.2-0.3c0.7-0.4,1.4-0.8,2.1-1.2C9.5,29.4,9.6,29.5,9.6,29.5z
		 M9.4,29.9C9.2,29.9,9.2,30,9.1,30c-0.4,0.2-0.8,0.5-1.2,0.7c-0.2,0.1-0.3,0.2-0.3,0.5c0,0.9,0,1.7,0,2.6c0,0.1,0,0.2,0,0.4
		c0.5-0.3,1-0.5,1.5-0.8c0.2-0.1,0.3-0.2,0.3-0.5c0-0.9,0-1.8,0-2.7C9.4,30.1,9.4,30,9.4,29.9z"/>
	<path class="st0" d="M9.6,19.9c0.1,0.3,0.1,3.1,0,3.9c-0.7,0.4-1.5,0.8-2.3,1.3c0-0.1-0.1-0.2-0.1-0.3c0-1.1,0-2.3,0-3.4
		c0-0.2,0-0.3,0.2-0.4c0.6-0.3,1.2-0.7,1.8-1C9.4,20,9.5,20,9.6,19.9z M9.4,23.6c0-1.1,0-2.2,0-3.3c-0.6,0.4-1.2,0.7-1.8,1
		c0,1.1,0,2.2,0,3.3C8.2,24.3,8.8,24,9.4,23.6z"/>
	<path class="st0" d="M7.3,29.9c0-0.2-0.1-0.3-0.1-0.4c0-1.1,0-2.2,0-3.2c0-0.2,0-0.3,0.2-0.4c0.6-0.4,1.3-0.7,1.9-1.1
		c0,0,0.1,0,0.2,0c0.1,0.3,0.2,2.7,0.1,3.9C8.9,29,8.2,29.4,7.3,29.9z M9.4,25.1c-0.7,0.4-1.2,0.7-1.8,1c0,1.1,0,2.2,0,3.3
		c0.6-0.4,1.2-0.7,1.8-1C9.4,27.3,9.4,26.3,9.4,25.1z"/>
	<path class="st0" d="M19.7,47c-0.1,0.1-0.2,0.2-0.3,0.2c-3,1.8-6,3.6-9,5.4c-0.3,0.2-0.5,0.1-0.7-0.1c-1.8-1-3.5-2-5.3-3
		c-0.8-0.4-1.6-0.9-2.3-1.3C2,48.2,2,48.1,1.8,48c0.2-0.1,0.3-0.2,0.5-0.3c2-1.2,4-2.4,6-3.5c0.9-0.6,1.9-1.1,2.8-1.7
		c0.3-0.2,0.5-0.2,0.7,0c2.5,1.4,5,2.8,7.5,4.3C19.4,46.8,19.6,46.9,19.7,47z M10.2,52.4c2.8-1.7,5.5-3.3,8.3-5
		c-0.1-0.1-0.1-0.1-0.2-0.1c-2.2-1.3-4.4-2.5-6.6-3.8c-0.2-0.1-0.4-0.1-0.6,0.1c-2.4,1.4-4.7,2.8-7.1,4.2c-0.3,0.2-0.7,0.4-1.1,0.7
		C5.4,49.7,7.8,51.1,10.2,52.4z M2.3,48c0.2,0.3,0.4,0.2,0.6,0.1c1.3-0.8,2.6-1.5,3.8-2.3c1.4-0.8,2.9-1.7,4.3-2.5
		c0.3-0.2,0.3-0.2,0.2-0.6C8.3,44.5,5.3,46.2,2.3,48z M11.7,42.7c-0.1,0.3,0,0.5,0.3,0.6c1.4,0.8,2.7,1.6,4.1,2.3
		c0.9,0.5,1.9,1.1,2.8,1.6c0.1-0.1,0.2-0.2,0.3-0.3C16.7,45.5,14.2,44.1,11.7,42.7z"/>
	<path class="st0" d="M79,15.6c0,0.6,0,1.1,0,1.6c0,0.1-0.2,0.3-0.3,0.3c-1,0.7-2.1,1.3-3.1,1.9c-0.6,0.4-1.2,0.7-1.8,1.1
		c-0.1,0.1-0.3,0.2-0.5,0.3c0-0.1-0.1-0.2-0.1-0.3c0-0.4,0-0.8,0-1.2c0-0.2,0.1-0.3,0.3-0.4c0.6-0.4,1.2-0.7,1.8-1.1
		c1-0.6,2.1-1.3,3.1-1.9C78.6,15.8,78.7,15.8,79,15.6z M78.7,16.1c-0.2,0.1-0.2,0.1-0.3,0.2c-0.4,0.2-0.7,0.4-1.1,0.7
		c-1.2,0.7-2.4,1.5-3.6,2.2c-0.1,0.1-0.2,0.2-0.2,0.3c0,0.3,0,0.6,0,1c0.6-0.3,1-0.6,1.5-0.9c1.1-0.7,2.3-1.4,3.4-2.1
		c0.1-0.1,0.3-0.2,0.3-0.3C78.7,16.8,78.7,16.5,78.7,16.1z"/>
	<path class="st0" d="M73.2,23.8c0-0.6,0-1.1,0-1.6c0-0.2,0.2-0.3,0.3-0.4c0.6-0.4,1.3-0.8,2-1.2c1-0.6,2-1.3,3.1-1.9
		c0.1-0.1,0.3-0.1,0.5-0.3c0.1,0.6,0,1.1,0,1.7c0,0.1-0.2,0.2-0.3,0.3c-0.7,0.4-1.3,0.8-2,1.2c-1,0.6-2,1.2-3,1.8
		C73.6,23.7,73.4,23.7,73.2,23.8z M73.5,23.4c1.8-1.1,3.5-2.2,5.2-3.2c0-0.4,0-0.7,0-1.1c-1.8,1.1-3.5,2.2-5.2,3.2
		C73.5,22.6,73.5,22.9,73.5,23.4z"/>
	<path class="st0" d="M71.3,30.9c-0.3-0.2-0.6-0.4-0.9-0.5c-0.6-0.2-0.8-0.6-0.7-1.2c0-0.3,0-0.6,0-1c0.2,0.1,0.3,0.1,0.3,0.1
		c0.4,0.2,0.8,0.5,1.1,0.7c0.1,0.1,0.2,0.2,0.2,0.3c0,0.1,0,0.2,0,0.3c0,0.4,0,0.9,0,1.3C71.4,30.8,71.3,30.8,71.3,30.9z M70,28.6
		c0,0.4,0,0.7,0,1c0,0.1,0,0.2,0.1,0.3c0.3,0.2,0.6,0.4,1,0.6c0-0.4,0-0.6,0-0.9c0-0.1-0.1-0.2-0.1-0.3C70.7,29,70.4,28.8,70,28.6z"
		/>
	<path class="st0" d="M71.3,28c-0.5-0.3-1-0.6-1.4-0.9c-0.1,0-0.1-0.2-0.1-0.3c0-0.5,0-1,0-1.6c0.2,0,0.3,0.1,0.4,0.1
		c0.4,0.2,0.7,0.4,1.1,0.7c0.1,0.1,0.2,0.2,0.2,0.3c0,0.5,0,1,0,1.5C71.4,27.9,71.3,28,71.3,28z M71.1,27.5c0-0.4,0-0.7,0-1
		c0-0.1,0-0.2-0.1-0.2c-0.3-0.2-0.6-0.4-1-0.6c-0.1,1.1-0.1,1.1,0.8,1.6C70.9,27.4,71,27.4,71.1,27.5z"/>
	<path class="st0" d="M61.5,7c0.7-0.4,1.2-0.8,1.9-1.2c-0.6-0.4-1.3-0.7-1.9-1.2c1.9-1.2,3.7-2.3,5.6-3.4c2.6,1.5,5.2,3,7.9,4.6
		c-0.2,0.2-0.3,0.3-0.5,0.4C73,7,71.5,7.9,70,8.9c-0.8,0.5-1.5,0.9-2.3,1.4c-0.3,0.2-0.4,0.2-0.7,0c-1.3-0.8-2.6-1.6-4-2.4
		c-0.4-0.2-0.7-0.4-1.1-0.7C61.8,7.2,61.7,7.1,61.5,7z M62.8,7.4c0.1,0.1,0.1,0.1,0.1,0.1c1.4,0.8,2.8,1.7,4.2,2.5
		c0.2,0.1,0.3,0.1,0.5,0c2-1.2,4-2.4,6-3.6c0.1-0.1,0.2-0.1,0.3-0.2c-2.3-1.3-4.5-2.6-6.7-3.9c-1.5,0.9-2.9,1.8-4.4,2.7
		c0.4,0.2,0.6,0.4,0.9,0.6c0.2,0.1,0.3,0.3,0.3,0.5c0,0.1,0,0.2,0,0.3c0,0.2-0.1,0.4-0.3,0.5C63.4,7,63.1,7.2,62.8,7.4z M74.5,5.8
		c-2.4-1.4-4.8-2.8-7.2-4.1c-0.1,0.3,0.1,0.5,0.3,0.6c1.3,0.7,2.5,1.5,3.8,2.2c0.9,0.5,1.9,1.1,2.8,1.6C74.2,5.9,74.3,5.9,74.5,5.8z
		 M62.4,4.9c0.4-0.2,0.7-0.4,1-0.7c1.1-0.7,2.1-1.3,3.2-2C67,2,67,2,66.9,1.7c-0.1,0.1-0.3,0.1-0.4,0.2c-0.8,0.5-1.6,1-2.4,1.5
		c-0.6,0.4-1.3,0.8-1.9,1.2c0,0,0,0.1-0.1,0.1C62.2,4.7,62.3,4.8,62.4,4.9z M63.5,6.1c-0.5,0.3-1,0.6-1.5,0.9
		c0.1,0.1,0.2,0.2,0.4,0.2c0.3-0.2,0.6-0.4,1-0.6C63.6,6.5,63.6,6.4,63.5,6.1z"/>
	<path class="st0" d="M20.7,4.9c-3,1.8-6,3.6-9,5.4C9.6,8.9,7.4,7.6,5.3,6.2C5.4,6.1,5.5,6,5.6,5.9c2.5-1.5,5-3,7.5-4.5
		c0.2-0.1,0.4-0.2,0.6-0.3c0.2-0.1,0.4-0.1,0.6,0c1.1,0.7,2.3,1.3,3.4,2c0.8,0.5,1.7,1,2.5,1.5C20.3,4.7,20.5,4.8,20.7,4.9z
		 M19.5,5.3c-0.1-0.1-0.2-0.1-0.3-0.2c-1.6-1-3.2-1.9-4.9-2.9c-0.2-0.1-0.4-0.1-0.6,0C11.8,3.4,10,4.5,8.1,5.6
		C7.5,5.9,7,6.2,6.4,6.6c1.8,1.1,3.5,2.3,5.3,3.4C14.3,8.4,16.9,6.8,19.5,5.3z M13.8,1.4C13.4,1.6,6,6,5.8,6.2
		C6,6.4,6.1,6.4,6.3,6.3C7,5.9,7.6,5.5,8.2,5.1C10,4.1,11.8,3,13.6,2C13.8,1.9,14,1.7,13.8,1.4z M20.1,4.8c-2-1.2-3.9-2.3-5.9-3.4
		c-0.1,0.3,0,0.4,0.2,0.6c1.7,1,3.4,2,5.1,3C19.7,5.1,19.9,5.1,20.1,4.8z"/>
	<path class="st0" d="M69.8,18.4c0.1,0,0.1,0,0.1,0c0.5,0.3,0.9,0.5,1.4,0.8c0.1,0,0.1,0.1,0.1,0.2c0,0.5,0,1.1,0,1.6
		c-0.1,0-0.2,0-0.3-0.1c-0.4-0.2-0.8-0.5-1.2-0.7c-0.2-0.1-0.2-0.2-0.2-0.4c0-0.4,0-0.9,0-1.3C69.7,18.5,69.8,18.4,69.8,18.4z
		 M70,18.7c0,0.4,0,0.7,0,1c0,0.1,0,0.2,0.1,0.2c0.3,0.2,0.7,0.4,1.1,0.6c0-0.4,0-0.6,0-0.9c0-0.2-0.1-0.2-0.2-0.3
		C70.7,19.1,70.4,19,70,18.7z"/>
	<path class="st0" d="M69.9,21.2c0.5,0.3,1,0.6,1.6,0.9c0,0.6,0,1.1,0,1.7c-0.2-0.1-0.2-0.1-0.3-0.1c-0.4-0.2-0.7-0.4-1.1-0.7
		c-0.1-0.1-0.2-0.2-0.2-0.3c0-0.5,0-1,0-1.5C69.7,21.3,69.8,21.3,69.9,21.2z M71.1,23.5c0-0.4,0-0.7,0-0.9c0-0.1,0-0.2-0.1-0.3
		c-0.3-0.2-0.6-0.4-1-0.6c0,0.4,0,0.8,0,1.1C70.4,23,70.7,23.2,71.1,23.5z"/>
	<path class="st0" d="M34.7,32.6C34.7,32.6,34.7,32.6,34.7,32.6c0.3-0.2,0.4-0.4,0.7-0.6c0.5-0.2,0.9,0,0.9,0.5
		c0,0.3-0.1,0.6-0.2,0.9c-0.1,0.1-0.1,0.2-0.2,0.3c-0.1,0.1-0.3,0.1-0.4,0.2c-0.2,0.1-0.5,0.2-0.7,0c-0.2-0.2-0.3-0.4-0.2-0.7
		C34.6,33.1,34.6,32.9,34.7,32.6z M34.8,33.4c0,0.4,0.2,0.5,0.5,0.4c0.4-0.2,0.7-0.5,0.7-1c0-0.2,0-0.4-0.1-0.5
		c-0.2-0.1-0.4,0-0.5,0.1C35,32.6,34.8,33,34.8,33.4z"/>
</g>
</svg>
