<?xml version="1.0" encoding="utf-8"?>
<!-- Generator: Adobe Illustrator 24.0.2, SVG Export Plug-In . SVG Version: 6.00 Build 0)  -->
<svg version="1.1" id="Capa_1" xmlns="http://www.w3.org/2000/svg" xmlns:xlink="http://www.w3.org/1999/xlink" x="0px" y="0px"
	 viewBox="0 0 80 80" style="enable-background:new 0 0 80 80;" xml:space="preserve">
<style type="text/css">
	.st0{fill:#E31F26;}
</style>
<g>
	<path class="st0" d="M38.5,1.3c-7.6,4.4-18,10.4-21.3,12.2c-0.4,0.2-0.5,0.4-0.5,0.8c0,2.7,0,5.4,0,8.2c0,14.2,0,28.4,0,42.6
		c0,0.4,0.1,0.6,0.4,0.7c2.2,1.2,4.3,2.5,6.5,3.7c3.5,2,7,4.1,10.5,6.1c1.8,1.1,3.7,2.1,5.5,3.2c0.3,0.1,0.5,0.2,0.7,0
		c0.1,0,0.1-0.1,0.2-0.1c2.4-1.3,4.8-2.6,7.2-3.9c3.9-2.1,7.7-4.2,11.6-6.3c1.2-0.6,2.4-1.3,3.5-1.9c0.3-0.1,0.4-0.3,0.4-0.6
		c0-0.1,0-0.1,0-0.2c0-10.6,0-21.2,0-31.8c0-6.3,0-12.7,0-19c0-0.4-0.1-0.6-0.4-0.7c-3.9-2.1-7.7-4.3-11.6-6.5
		c-2.1-1.2-7.4-4.1-11.8-6.6L39,1L38.5,1.3z M62.7,15.3C62.7,15.3,62.7,15.3,62.7,15.3c0,14.5,0,29,0,43.6
		c-7.4,4.5-14.9,9-22.5,13.6c0-15.1,0-30.1,0-45.2C47.7,23.3,55.2,19.2,62.7,15.3C62.7,15.3,62.7,15.3,62.7,15.3z M39.7,77.8
		c0,0.1,0,0.3,0,0.5c-0.7-0.4-1.4-0.8-2.1-1.2c-3.4-2-6.8-4-10.2-5.9c-3.3-1.9-6.6-3.8-9.9-5.7c-0.2-0.1-0.3-0.2-0.3-0.5
		c0-1.6,0-3.1,0-4.7c0-0.1,0-0.1,0-0.3c0.7,0.4,1.3,0.8,2,1.1c5.2,3,10.3,6,15.5,9c1.5,0.9,3,1.8,4.6,2.6c0.3,0.2,0.4,0.4,0.4,0.8
		C39.7,75,39.8,76.4,39.7,77.8z M39.8,53.2c0,6.2,0,12.4,0,18.7c0,0.2,0,0.4,0,0.6c-0.1-0.1-0.2-0.1-0.3-0.1
		c-5-2.9-9.9-5.8-14.9-8.6c-2.3-1.3-4.6-2.7-6.9-4c-0.3-0.2-0.3-0.3-0.3-0.6c0-8,0-16,0-24c0-6.7,0-13.4,0-20.2c0-0.2,0-0.3,0-0.6
		c0.2,0.1,0.3,0.2,0.5,0.2c3.1,1.8,6.2,3.5,9.2,5.3c4.1,2.4,8.2,4.7,12.4,7.1c0.3,0.2,0.5,0.4,0.5,0.7
		C39.8,36.2,39.8,44.7,39.8,53.2z M39.6,26.6c-0.5-0.3-1.1-0.6-1.6-0.9c-5.6-3.2-11.2-6.4-16.8-9.6c-1.2-0.7-2.4-1.4-3.7-2.1
		c0.2-0.1,0.3-0.2,0.4-0.2C21.1,11.9,31.4,5.9,39,1.6c5.1,2.9,11.5,6.4,14.3,8c2.9,1.6,5.8,3.3,8.8,4.9c0.1,0.1,0.3,0.2,0.5,0.3
		c-0.1,0.1-0.2,0.1-0.3,0.2c-1.7,0.9-3.4,1.8-5.1,2.7c-4,2.1-7.9,4.3-11.9,6.4c-1.6,0.9-3.3,1.8-4.9,2.6
		C40.1,26.8,39.9,26.8,39.6,26.6z M62.7,66.3c-7.4,4-14.9,8-22.5,12.1c0-0.2,0-0.3,0-0.4c0-1.5,0-3,0-4.5c0-0.3,0.1-0.4,0.3-0.5
		c7.1-4.3,14.3-8.6,21.4-12.9c0.2-0.1,0.5-0.3,0.8-0.5C62.7,61.8,62.7,64,62.7,66.3z"/>
	<path class="st0" d="M33.2,46.7c0.3,1,0.6,2,0.9,3c0.3,1,0.6,2,0.9,3.1c0.2,0.5,0.2,0.5-0.3,0.8c-0.9,0.5-0.7,0.5-1.4-0.2
		c-0.4-0.4-0.9-0.8-1.3-1.3c-0.1,0.2-0.2,0.4-0.3,0.6c-0.1,0.3-0.3,0.5-0.5,0.6c-0.2,0.1-0.4,0.2-0.6,0.3c-0.2,0.1-0.3,0.1-0.4-0.2
		c0-0.1-0.1-0.2-0.1-0.3c-0.6-1.8-1.1-3.7-1.7-5.5c0-0.1-0.1-0.3-0.2-0.5c-0.1,0.2-0.2,0.3-0.2,0.5c-0.4,0.8-0.7,1.5-1,2.3
		c-0.1,0.2-0.3,0.4-0.5,0.5c-0.2,0.1-0.3,0.2-0.5,0.3c-0.3,0.2-0.4,0.1-0.5-0.2c-0.2-0.6-0.4-1.2-0.6-1.8c-0.1-0.5-0.3-0.9-0.4-1.4
		c-0.7-0.1-1.4-0.1-2.1-0.2c-0.5,0-0.6-0.2-0.4-0.6c0.5-1.1,1-2.3,1.6-3.4c0.2-0.3,0.2-0.6,0-0.9c-0.2-0.4-0.5-0.9-0.7-1.3
		c-0.1-0.2-0.3-0.3-0.4-0.5c-0.4-0.6-0.7-1.2-0.7-1.9c0-0.8-0.2-1.6-0.5-2.3c-0.1-0.1-0.1-0.3-0.1-0.4c-0.2-0.6-0.1-1.1,0.2-1.6
		c0.3-0.4,0.4-0.9,0.4-1.4c0-0.3,0-0.6,0-0.8c0-0.4,0.2-0.7,0.6-0.9c0.4-0.2,0.8-0.4,1.3-0.7c0.1,0,0.1,0,0.2-0.1
		c0.3-0.5,0.8-0.6,1.3-0.9c0.4-0.2,0.8-0.3,1.1-0.1c0.2,0.1,0.3,0.1,0.5,0.2c0.4,0.2,0.9,0.3,1.3,0.3c0.7-0.1,1.2,0.2,1.6,0.7
		c0.6,0.8,1.4,1.4,2.3,2c0.5,0.3,0.9,0.8,1.1,1.4c0.4,1,0.9,1.9,1.5,2.7c0.5,0.6,0.7,1.4,0.7,2.2c0,0.7,0.1,1.3,0.4,1.9
		c0.1,0.2,0.2,0.5,0.2,0.7c0.1,0.6,0.1,1.1-0.2,1.6c-0.3,0.5-0.4,1-0.4,1.5c0,0.2,0,0.4-0.1,0.6c0,0.4-0.3,0.7-0.7,0.9
		C34.1,46.2,33.7,46.4,33.2,46.7z M21.5,35c0.1,0.4,0.2,0.7,0.3,1.1c0.2,0.6,0.5,1.3,0.4,2c0,0.9,0.3,1.6,0.8,2.3
		c0.6,0.7,1,1.4,1.2,2.3c0.2,0.7,0.6,1.2,1.2,1.5c0.7,0.4,1.3,0.9,1.8,1.6c0.1,0.1,0.2,0.2,0.2,0.3c0.3,0.4,0.7,0.5,1.1,0.5
		c0.7-0.1,1.3,0.2,1.8,0.5c0.8,0.4,0.8,0.4,1.4-0.3c0.3-0.3,0.6-0.5,1-0.6c0.7-0.2,0.9-0.3,0.9-1.1c0-0.1,0-0.2,0-0.2
		c0-0.6,0.1-1.2,0.5-1.7c0.2-0.4,0.3-0.8,0.2-1.2c0-0.2-0.1-0.4-0.2-0.5c-0.3-0.8-0.5-1.6-0.5-2.4c0-0.6-0.2-1.1-0.5-1.6
		c-0.7-0.8-1.2-1.8-1.6-2.8c-0.2-0.5-0.5-1-1-1.2c-0.8-0.5-1.5-1.1-2.1-1.8c-0.4-0.5-0.8-0.8-1.5-0.7c-0.5,0.1-1-0.1-1.4-0.3
		c-0.2-0.1-0.4-0.2-0.5-0.3c-0.4-0.1-0.5-0.1-0.8,0.2c-0.1,0.1-0.1,0.2-0.2,0.3c-0.2,0.3-0.6,0.5-1,0.6c-0.1,0-0.2,0.1-0.4,0.1
		c-0.3,0.1-0.5,0.2-0.5,0.5c0,0.3-0.1,0.6-0.1,0.8c0,0.5-0.1,1-0.4,1.4C21.7,34.5,21.6,34.8,21.5,35z M30.4,52.4
		C30.5,52.4,30.5,52.4,30.4,52.4c0.3-0.4,0.5-0.8,0.7-1.3c0.2-0.5,0.3-0.5,0.7-0.1c0.4,0.4,0.8,0.8,1.2,1.2c0.1,0.1,0.2,0.2,0.3,0.3
		c0,0,0.1,0,0.1-0.1c-0.5-1.6-1-3.3-1.5-5c-0.5,0.4-1,0.2-1.4,0c-0.2-0.1-0.5-0.3-0.7-0.4c-0.3-0.1-0.6-0.2-1-0.1
		C29.4,48.8,29.9,50.6,30.4,52.4z M27.3,46.4c-0.6-0.7-1.2-1.4-2-1.9c-0.4-0.2-0.8-0.5-1.1-1c-0.1-0.1-0.1-0.2-0.2-0.3
		c-0.5,1.1-1,2.1-1.5,3.2c0.6,0.1,1.2,0.1,1.8,0.2c0.5,0,0.5,0,0.6,0.5c0.2,0.6,0.4,1.3,0.6,1.9c0.1,0.2,0.1,0.4,0.2,0.6
		C26.3,48.6,26.8,47.5,27.3,46.4z M34.2,45.5c0.3-0.1,0.4-0.3,0.4-0.5c0-0.2,0.1-0.5,0.1-0.7c0-0.6,0.1-1.1,0.4-1.6
		c0.3-0.4,0.3-0.9,0.1-1.4c-0.1-0.2-0.1-0.5-0.2-0.7c-0.2-0.6-0.4-1.2-0.4-1.9c0-0.8-0.2-1.6-0.8-2.3c-0.6-0.7-1-1.5-1.3-2.3
		c-0.3-0.8-0.8-1.4-1.6-1.8c-0.4-0.2-0.8-0.6-1.1-0.9c-0.3-0.2-0.5-0.6-0.7-0.8c-0.3-0.3-0.6-0.5-1.1-0.5c-0.7,0.1-1.3-0.1-1.9-0.4
		c-0.1-0.1-0.3-0.1-0.4-0.2c-0.2-0.1-0.4,0-0.5,0.1c0.6,0.4,1.3,0.6,2,0.5c0.5-0.1,0.8,0.1,1.2,0.4c0.2,0.1,0.3,0.3,0.4,0.5
		c0.5,0.7,1.1,1.2,1.8,1.6c0.6,0.3,1.1,0.8,1.3,1.5c0.4,1,0.9,2,1.6,2.8c0.4,0.5,0.6,1.1,0.6,1.8c0,0.8,0.2,1.6,0.5,2.4
		c0.3,0.8,0.3,1.5-0.2,2.2c-0.1,0.2-0.2,0.4-0.2,0.6C34.3,44.6,34.3,45,34.2,45.5z M32.4,47.4c0.2,1,1.6,5.4,1.8,5.7
		c0.1-0.1,0.2-0.2,0.4-0.2c-0.6-1.9-1.2-3.8-1.7-5.8C32.7,47.3,32.6,47.3,32.4,47.4z M26.3,49.8c0.3-0.3,1.4-2.7,1.4-3.1
		C27.2,47.8,26.7,48.8,26.3,49.8z M31.1,52.5c0.3-0.3,0.5-0.7,0.5-1.1C31.4,51.8,31.2,52.2,31.1,52.5z"/>
	<path class="st0" d="M43.3,47.7c0-1.4,0-2.8,0-4.2c0-0.3,0.1-0.5,0.4-0.7c3.9-2.3,7.9-4.6,11.8-6.9c1.3-0.7,2.5-1.5,3.8-2.2
		c0.4-0.2,0.5-0.2,0.5,0.3c0,2.8,0,5.6,0,8.5c0,0.3-0.1,0.5-0.4,0.6c-3.1,1.8-6.2,3.6-9.3,5.5c-2,1.2-4.1,2.4-6.2,3.6
		c-0.1,0.1-0.2,0.1-0.3,0.2c-0.2,0.1-0.3,0-0.3-0.2c0-0.1,0-0.2,0-0.4C43.3,50.5,43.3,49.1,43.3,47.7C43.3,47.7,43.3,47.7,43.3,47.7
		z M54,37.5c-0.1,0-0.2,0.1-0.2,0.1c-1.7,1-3.4,2-5.2,3c-0.2,0.1-0.2,0.3-0.2,0.5c0,2.1,0,4.3,0,6.4c0,0.1,0,0.2,0,0.3
		c1.9-1.1,3.7-2.2,5.6-3.3C54,42.2,54,39.9,54,37.5z M43.8,50.5c1.4-0.8,2.7-1.6,4-2.3c0.1-1.5,0.1-6.7-0.1-7.1
		c-0.1,0-0.1,0-0.2,0.1c-1.1,0.7-2.3,1.3-3.4,2c-0.3,0.2-0.3,0.3-0.3,0.6c0,2.1,0,4.2,0,6.3C43.8,50.2,43.8,50.3,43.8,50.5z
		 M54.5,37.2c0,2.4,0,4.7,0,7.1c1.3-0.8,2.5-1.5,3.7-2.2c0.1-1.2,0.1-6.7-0.1-7C56.9,35.8,55.7,36.5,54.5,37.2z M59,42.9
		c-0.5-0.4-0.5-0.4-0.9-0.1c-0.1,0.1-0.2,0.1-0.3,0.2c-4,2.4-8,4.7-12.1,7.1c-0.7,0.4-1.3,0.8-2,1.2c0,0.2,0,0.4,0,0.6
		C48.9,48.8,53.9,45.8,59,42.9z M58.8,34.7c0,0.1,0,0.2,0,0.3c0,2.3,0,4.5,0,6.8c0,0.4,0,0.4,0.5,0.5c0-2.6,0-5.2,0-7.9
		C59.1,34.5,58.9,34.6,58.8,34.7z"/>
	<path class="st0" d="M43.3,60.5c0-1.4,0-2.8,0-4.2c0-0.3,0.1-0.5,0.4-0.7c5.1-3,10.3-6,15.4-9c0.1-0.1,0.2-0.1,0.4-0.2
		c0.2-0.1,0.4,0,0.4,0.2c0,0.1,0,0.2,0,0.3c0,2.8,0,5.6,0,8.3c0,0.3-0.1,0.5-0.4,0.7c-2.8,1.6-5.6,3.3-8.4,4.9
		c-2.3,1.4-4.7,2.8-7,4.1c-0.2,0.1-0.3,0.3-0.5,0.2c-0.2-0.1-0.1-0.4-0.1-0.5C43.3,63.3,43.3,61.9,43.3,60.5
		C43.3,60.5,43.3,60.5,43.3,60.5z M54,50.2c-1.9,1.1-3.8,2.2-5.6,3.3c0,2.4,0,4.7,0,7.1c1.9-1.1,3.8-2.2,5.6-3.3
		C54,55,54,52.7,54,50.2z M47.8,53.8c-0.2,0.1-0.3,0.1-0.3,0.2c-1.1,0.6-2.2,1.3-3.3,1.9c-0.3,0.2-0.3,0.3-0.3,0.6
		c0,2.1,0,4.2,0,6.3c0,0.1,0,0.2,0,0.3c0.1-0.1,0.2-0.1,0.3-0.2c1.1-0.7,2.2-1.3,3.3-1.9c0.3-0.2,0.4-0.3,0.4-0.7c0-2.1,0-4.2,0-6.3
		C47.8,54.1,47.8,54,47.8,53.8z M54.5,57c0.2-0.1,0.2-0.1,0.3-0.1c1.1-0.6,2.1-1.2,3.2-1.8c0.3-0.2,0.3-0.3,0.3-0.6
		c0-2.1,0-4.1,0-6.2c0-0.1,0-0.3,0-0.5c-0.2,0.1-0.3,0.2-0.4,0.2c-1,0.6-2,1.2-3,1.7c-0.3,0.1-0.4,0.3-0.4,0.6c0,1.6,0,3.1,0,4.7
		C54.5,55.6,54.5,56.3,54.5,57z M58.5,55.2c-0.1,0.1-0.2,0.1-0.3,0.2c-4.7,2.7-9.3,5.5-14,8.2c-0.4,0.2-0.5,0.4-0.4,0.9
		c5.1-3,10.1-5.9,15.2-8.9C58.9,55.4,58.7,55.3,58.5,55.2z M59.3,47.2c-0.5,0.1-0.5,0.1-0.5,0.5c0,2.2,0,4.5,0,6.7
		c0,0.4,0,0.4,0.5,0.6C59.3,52.4,59.3,49.8,59.3,47.2z"/>
	<path class="st0" d="M59.8,25.4c0,1.4,0,2.7,0,4.1c0,0.3-0.1,0.5-0.4,0.7c-2.6,1.5-5.2,3-7.8,4.6c-2.5,1.5-5.1,3-7.6,4.4
		c-0.2,0.1-0.4,0.3-0.6,0.2c-0.2-0.1-0.1-0.4-0.1-0.5c0-2.7,0-5.4,0-8.1c0-0.4,0.1-0.6,0.5-0.8c4.2-2.4,8.4-4.9,12.6-7.3
		c0.9-0.5,1.9-1.1,2.8-1.6c0.1,0,0.2-0.1,0.2-0.1c0.2-0.1,0.3,0,0.3,0.2c0,0.1,0,0.2,0,0.4C59.8,22.7,59.8,24.1,59.8,25.4
		C59.8,25.4,59.8,25.4,59.8,25.4z M54,24.6c-0.1,0-0.2,0-0.2,0.1c-1.7,1-3.4,2-5.2,3c-0.2,0.1-0.3,0.3-0.3,0.5c0,2.1,0,4.2,0,6.3
		c0,0.1,0,0.2,0,0.4c1.9-1.1,3.7-2.2,5.6-3.3C54,29.2,54,26.9,54,24.6z M43.8,37.5c0.1,0,0.2-0.1,0.2-0.1c1.2-0.7,2.3-1.4,3.5-2.1
		c0.2-0.1,0.3-0.3,0.3-0.5c0-2.1,0-4.1,0-6.2c0-0.1,0-0.3,0-0.5c-1.4,0.8-2.7,1.6-4,2.3C43.8,32.8,43.8,35.1,43.8,37.5z M58.2,22.1
		c-0.1,0-0.1,0-0.2,0.1c-1.1,0.6-2.2,1.3-3.3,1.9c-0.2,0.1-0.3,0.3-0.3,0.5c0,2.1,0,4.2,0,6.3c0,0.1,0,0.2,0,0.4
		c1.3-0.8,2.5-1.5,3.8-2.2C58.2,26.8,58.2,24.5,58.2,22.1z M43.8,38.7c0.6-0.2,14.9-8.7,15.2-8.9c-0.3-0.3-0.6-0.3-0.9-0.1
		c-4.6,2.7-9.3,5.4-13.9,8.2C43.8,38.1,43.7,38.3,43.8,38.7z M59.3,21.5c-0.3,0.1-0.5,0.2-0.5,0.6c0,2.2,0,4.4,0,6.7
		c0,0.4,0,0.4,0.5,0.5C59.3,26.7,59.3,24.1,59.3,21.5z"/>
	<path class="st0" d="M28.6,44.4c0.1,0.2,0.2,0.3,0.3,0.5c0.1,0.1,0.2,0.3,0,0.4c-0.2,0.1-0.3-0.1-0.4-0.2c-0.1-0.2-0.2-0.4-0.4-0.6
		c-0.2-0.3-0.3-0.3-0.6-0.1c0,0,0,0-0.1,0.1c-0.1,0.1-0.3,0.1-0.4,0c-0.1-0.1-0.1-0.3,0-0.4c0.1-0.1,0.2-0.2,0.3-0.3
		c-0.2-0.1-0.3-0.3-0.5-0.4c-0.1-0.1-0.3-0.1-0.4-0.1c-0.6,0-1.4-0.5-1.6-1c-0.1-0.2,0-0.3,0.2-0.4c0.1,0,0.2,0,0.3-0.1
		c-0.4-0.1-0.8-0.4-1.1-0.7c-0.3-0.3-0.6-0.7-0.7-1.2c0.2,0,0.4,0,0.6,0c-0.6-0.3-0.9-0.9-1.2-1.5C23,38.2,23,38,22.9,37.9
		c-0.1-0.4,0-0.4,0.4-0.3c-0.3-0.5-0.6-1-0.6-1.5c0-0.1,0-0.3,0-0.4c0-0.4,0-0.5,0.5-0.4c-0.2-0.5-0.3-1-0.1-1.5
		c0.1-0.4,0.1-0.4,0.5-0.2c0.1-0.2,0.1-0.5,0.2-0.7c0-0.1,0.1-0.2,0.1-0.3c0.2-0.4,0.3-0.4,0.7,0c0.1-0.1,0.1-0.2,0.2-0.3
		c0.2-0.2,0.3-0.3,0.5-0.5c0.2-0.1,0.4,0,0.5,0.2c0,0.1,0,0.2,0.1,0.4c0.5-0.2,1-0.1,1.4,0.3c0.2,0.2,0.2,0.3,0,0.5
		c-0.2,0.2-0.5,0.3-0.8,0.3c0,0.1,0,0.1,0.1,0.2c0.2,0.4,0.1,0.5-0.3,0.6c-0.1,0-0.3,0-0.4,0c-0.1,0.4-0.4,0.5-0.7,0.6
		c0.1,0.5-0.1,0.8-0.4,1.1c0.2,0.5,0.1,1,0,1.5c0.4,0.5,0.4,1.1,0.4,1.7c0.3,0.2,0.5,0.6,0.6,1c0.1,0.3,0.2,0.5,0.5,0.8
		c0.5,0.4,0.8,1,0.9,1.7c0.1,0.3,0.2,0.6,0.4,0.7c0,0,0,0,0.1,0.1c0.3,0.4,0.8,0.6,1.3,0.6c0.2-0.6,0.6-1.1,1.3-0.8
		c0.3-0.2,0.5-0.4,0.7-0.5c0.2-0.4,0.3-0.7,0.5-1c0-0.1,0-0.2,0-0.3c0-0.4-0.1-0.8,0.1-1.1c0-0.1,0-0.2-0.1-0.3
		c-0.1-0.3-0.2-0.6-0.3-0.8c0-0.2,0-0.4,0-0.6c-0.2-0.4-0.6-0.8-0.6-1.4c-0.3-0.3-0.5-0.5-0.8-0.8c-0.3-0.3-0.2-0.4,0.1-0.7
		c-0.5-0.4-0.8-0.9-1-1.5c0-0.1,0-0.2,0-0.3c0.1,0,0.2,0,0.3,0c0.5,0.2,0.9,0.6,1.2,1.2c0.1-0.1,0.2-0.2,0.3-0.3
		c0.6,0.5,0.9,1.2,1,2c0.1,0,0.2,0,0.3,0c0.1,0.1,0.2,0.2,0.2,0.3c0.4,0.7,0.4,1.3,0.2,2.1c0.1-0.1,0.3-0.1,0.4-0.2
		c0.4,0.3,0.3,0.8,0.3,1.2c0,0.4-0.1,0.8-0.5,1.1c0.2,0,0.2,0,0.3,0c0.4,0,0.5,0.1,0.5,0.5c0,0.7-0.3,1.1-1,1.3
		c0.2,0.1,0.3,0.1,0.5,0.2c0.3,0.2,0.3,0.3,0.2,0.6c-0.3,0.5-0.6,0.6-1.3,0.5c0.2,0.2,0.3,0.3,0.4,0.4c0.3,0.3,0.2,0.6-0.2,0.6
		c-0.3,0-0.5,0-0.8,0c-0.1,0-0.2-0.1-0.3-0.1c0.1,0.1,0.1,0.2,0.1,0.3c0,0.1,0,0.3,0,0.4c-0.1,0-0.3,0.1-0.4,0c-0.6-0.1-1-0.5-1.4-1
		C29,44.5,28.9,44.4,28.6,44.4z M25.1,33.2c0.1,0.3,0.3,0.3,0.5,0.3C25.4,33.4,25.2,33.3,25.1,33.2c0-0.3,0.1-0.6,0.1-0.9
		c-0.3,0.2-0.3,0.5-0.3,0.8C24.9,33.1,25,33.2,25.1,33.2z M25.7,42.4c0.2,0.3,0.5,0.6,0.9,0.4c0-0.4-0.1-0.7-0.4-1
		c0,0.1,0.1,0.2,0.1,0.3c0,0.1,0,0.3,0,0.3c-0.1,0.1-0.2,0-0.3,0C25.9,42.4,25.8,42.4,25.7,42.4z M31.5,42.5c0,0-0.1,0-0.1,0
		c0,0.3,0.1,0.6,0.1,0.9c0,0.2,0.2,0.3,0.4,0.4c0.2,0,0.4-0.1,0.5-0.3c-0.2,0-0.3,0-0.4,0c-0.3,0-0.4-0.1-0.4-0.4
		C31.6,42.8,31.6,42.7,31.5,42.5z M31.9,41.2c0,0.4,0.1,0.7,0.3,1c0.4-0.1,0.5-0.3,0.5-0.7c-0.1,0.1-0.2,0.1-0.2,0.1
		c-0.3,0.2-0.4,0.2-0.5-0.1C32,41.5,32,41.4,31.9,41.2z M31.6,44.6c-0.2-0.1-0.4-0.2-0.5-0.3c-0.4-0.2-0.4-0.2-0.3-0.6
		c0-0.1,0.1-0.3,0-0.5c-0.2,0.3-0.3,0.6-0.1,0.9C30.7,44.5,31,44.7,31.6,44.6z M30,45.1c0,0,0.1-0.1,0.1-0.1
		c-0.2-0.1-0.3-0.2-0.5-0.4c-0.2-0.1-0.2-0.3-0.1-0.5c0.1-0.1,0.1-0.3,0.2-0.5c-0.5,0.2-0.7,0.5-0.4,0.9
		C29.6,44.7,29.8,44.8,30,45.1z M24.6,40.6c0.1,0.3,0.3,0.5,0.7,0.6c0-0.4,0-0.8-0.2-1.1c0,0.1,0,0.2,0,0.3c0,0.1,0,0.2-0.1,0.3
		c0,0-0.2,0-0.3-0.1C24.7,40.7,24.6,40.6,24.6,40.6z M24.3,39.4c0.2-0.4,0.2-0.7,0.1-1.1c-0.1,0.2-0.1,0.4-0.2,0.5
		c-0.1,0.1-0.3,0-0.5-0.1C23.9,39,24.1,39.1,24.3,39.4z M32.3,40.5c0.3-0.4,0.4-0.5,0.2-0.9c-0.3,0.5-0.3,0.5-0.7,0.1c0,0,0,0-0.1,0
		C31.9,39.9,32.1,40.2,32.3,40.5z M23.5,34.4c0,0-0.1,0-0.1,0c0.1,0.2,0.1,0.5,0.2,0.7c0.1,0.2,0.1,0.4,0.4,0.3
		c0.2,0,0.4-0.2,0.4-0.4c-0.1,0-0.2,0-0.3,0c-0.4,0.1-0.5,0.1-0.5-0.4C23.5,34.7,23.5,34.5,23.5,34.4z M24.1,36.6
		c-0.4,0.4-0.5,0.4-0.7-0.1c0,0,0,0-0.1,0c0.2,0.5,0.2,0.6,0.6,0.7C24.1,36.9,24.1,36.9,24.1,36.6z M31.9,38.5
		c0.2-0.4,0.2-0.7,0-1.1c0,0.2,0,0.4,0,0.5c0,0.1-0.2,0.1-0.4,0.2C31.6,38.2,31.7,38.4,31.9,38.5z M24.1,33.1
		c-0.1,0.4-0.2,0.7,0.1,1c0.2,0.2,0.4,0.2,0.7,0.1c-0.2-0.1-0.5-0.1-0.7-0.3C24.1,33.7,24.1,33.4,24.1,33.1z M31,36.6
		c0.1-0.5,0.1-0.5-0.1-0.8c0,0.5,0,0.5-0.4,0.5C30.7,36.4,30.8,36.5,31,36.6z M26.1,32.7c0,0,0,0.1,0,0.1c0.3,0.1,0.3,0.1,0.5,0
		C26.4,32.7,26.2,32.7,26.1,32.7z"/>
</g>
</svg>
