<?xml version="1.0" encoding="utf-8"?>
<!-- Generator: Adobe Illustrator 24.0.2, SVG Export Plug-In . SVG Version: 6.00 Build 0)  -->
<svg version="1.1" id="Capa_1" xmlns="http://www.w3.org/2000/svg" xmlns:xlink="http://www.w3.org/1999/xlink" x="0px" y="0px"
	 viewBox="0 0 80 80" style="enable-background:new 0 0 80 80;" xml:space="preserve">
<style type="text/css">
	.st0{fill:#E31F26;}
</style>
<g>
	<path class="st0" d="M6.4,31.5C6.2,31.7,6,31.8,5.7,32c7.1,4.3,14.2,8.5,21.3,12.8c0.8-0.5,1.6-1,2.5-1.5c3.3-2,6.6-3.9,9.8-5.9
		c2.1-1.3,4.3-2.5,6.4-3.8c0.4-0.2,0.6-0.2,1,0c3.4,2,6.8,3.9,10.2,5.9c0.1,0.1,0.3,0.2,0.5,0.3c0.3-0.2,0.6-0.3,1-0.5
		c4.2-2.5,8.4-5,12.6-7.5c0.4-0.2,0.8-0.4,1.4-0.2c-5,2.9-9.8,5.8-14.7,8.7c0,1.2,0,2.3,0,3.5c0.2-0.1,0.4-0.2,0.6-0.3
		c4.1-2.4,8.2-4.8,12.3-7.2c1.6-1,3.2-1.9,4.9-2.8c0.3-0.2,0.5-0.4,0.5-0.8c0-0.7,0-1.4,0-2.1c-0.5,0.3-0.9,0.5-1.3,0.7
		c-0.4,0.2-0.7,0.3-1.2,0.2c0.7-0.5,1.4-0.8,2.1-1.4c-0.1-0.1-0.2-0.2-0.4-0.3c-2.5-1.5-5.1-3-7.6-4.4c-7.7-4.4-15.3-8.9-23-13.3
		c-0.4-0.2-0.7-0.4-1.1-0.6c-0.4-0.3-0.7-0.3-1.1,0c-1.5,0.9-3.1,1.8-4.6,2.7c-4.7,2.7-9.3,5.5-14,8.2c-4.9,2.9-9.9,5.8-14.8,8.8
		c-0.5,0.3-0.9,0.6-1.6,0.4c0.2-0.1,0.4-0.3,0.6-0.4c3.2-1.9,6.4-3.8,9.6-5.7c8.2-4.8,16.4-9.6,24.5-14.4c0.6-0.4,1.1-0.4,1.7,0
		c3.5,2.1,7,4.1,10.5,6.1c7.2,4.2,14.4,8.4,21.6,12.6c0.2,0.1,0.4,0.2,0.4,0.4c0,1.1,0,2.2,0,3.3c-0.4,0.3-0.8,0.5-1.2,0.7
		c0,0.2,0,0.4,0,0.5c0,4.2,0,8.4,0,12.5c0,0.4,0.1,0.7,0.5,0.9c1.4,0.7,2.7,1.5,4,2.3c0.1,0,0.2,0.1,0.2,0.1c0.2,0.2,0.2,0.3,0,0.5
		c-0.1,0.1-0.2,0.1-0.3,0.2c-2.8,1.6-5.5,3.3-8.3,4.9c-4.5,2.6-8.9,5.3-13.4,7.9c-0.4,0.2-0.6,0.2-1,0c-3-1.8-6.1-3.6-9.2-5.3
		c-0.4-0.2-0.7-0.4-1.1-0.6c-0.3-0.2-0.5-0.2-0.8,0c-3.2,1.9-6.5,3.9-9.7,5.8c-2.9,1.7-5.9,3.5-8.8,5.2c-0.3,0.2-0.6,0.2-0.9,0
		c-6.5-3.8-13-7.6-19.4-11.4c-2.2-1.3-4.5-2.6-6.7-3.9c-0.1,0-0.2-0.1-0.2-0.1c-0.2-0.2-0.3-0.3,0-0.5c0.2-0.1,0.4-0.3,0.6-0.4
		c1.2-0.7,2.4-1.4,3.6-2.1c0.4-0.2,0.5-0.5,0.5-0.9c0-4.9,0-9.8,0-14.6c0-0.9,0-1.8,0-2.8c0-0.5,0.3-0.9,0.8-0.9
		C6,31.4,6.2,31.5,6.4,31.5C6.4,31.5,6.4,31.5,6.4,31.5z M74.6,34.5c-0.5,0.3-0.9,0.5-1.3,0.8c-5.1,3-10.1,6-15.2,8.9
		c-0.3,0.2-0.4,0.4-0.4,0.8c0,5,0,10,0,15c0,0.2,0,0.3,0,0.5c0.2-0.1,0.2-0.1,0.3-0.2c5.4-3.2,10.7-6.3,16.1-9.5
		c0.4-0.2,0.5-0.4,0.5-0.8c0-4.4,0-8.8,0-13.3C74.6,36.1,74.6,35.3,74.6,34.5z M5.4,38.1c0,0.4,0,0.6,0,0.9c0,4.6,0,9.1,0,13.7
		c0,0.4,0.1,0.6,0.5,0.7c3.8,2.2,7.6,4.4,11.4,6.6c0.2,0.1,0.3,0.2,0.5,0.3c0-0.3,0-0.5,0-0.6c0-2.4,0-4.9,0-7.3c0-0.2,0-0.3,0-0.5
		c0-0.3,0.1-0.4,0.4-0.2c0.1,0,0.1,0.1,0.2,0.1c1.4,0.8,2.8,1.6,4.2,2.4c0.4,0.2,0.5,0.4,0.5,0.8c0,2.6,0,5.2,0,7.8
		c0,0.2,0,0.3,0,0.5c1.2,0.7,2.4,1.4,3.6,2.1c0-1,0-1.8,0-2.6c0-3.8,0-7.6,0.1-11.4c0-0.3,0-0.5-0.4-0.7C19.6,46.6,12.8,42.5,6,38.4
		C5.9,38.3,5.7,38.2,5.4,38.1z M57.4,63.8c7.3-4.3,14.6-8.6,21.9-13c-1.4-0.8-2.8-1.6-4.2-2.4c0,0.7,0,1.2,0,1.8
		c0,0.5-0.1,0.7-0.5,1c-5.3,3.1-10.6,6.2-15.9,9.3c-0.4,0.2-0.8,0.5-1.3,0.7c-0.2-0.1-0.3-0.1-0.4-0.2c-3.4-2-6.9-3.9-10.3-5.9
		c-0.3-0.2-0.6-0.2-0.9,0c-2.3,1.4-4.6,2.7-6.8,4.1c-1.2,0.7-2.5,1.4-3.7,2.2c-0.4-0.2-0.9-0.5-1.3-0.7c-0.2-0.1-0.4-0.1-0.6,0
		c-0.7,0.4-1.4,0.8-2.1,1.2c0,0.5,0,0.9,0,1.4c0,0.3-0.1,0.5-0.3,0.7c-1.2,0.7-2.4,1.4-3.6,2.1c-0.2,0.1-0.4,0.1-0.6,0
		c-1.2-0.7-2.5-1.4-3.7-2.2c-0.3-0.2-0.4-0.3-0.4-0.6c0-0.5,0-1,0-1.5c0-0.2-0.1-0.4-0.3-0.5c-0.8-0.4-1.5-0.9-2.3-1.3
		c-0.5,0.3-1.1,0.6-1.6,0.9c-0.3,0.2-0.6,0.2-0.9,0c-2-1.2-4.1-2.4-6.1-3.6c-2-1.2-4.1-2.4-6.1-3.5c-0.3-0.2-0.5-0.4-0.4-0.8
		c0-0.4,0-0.9,0-1.4c0-0.2,0-0.3,0-0.5c-1.4,0.8-2.7,1.6-4.1,2.4C9.5,58.6,18.3,63.7,27,68.8c0.2-0.1,0.4-0.2,0.6-0.3
		c2.3-1.4,4.7-2.8,7-4.2c3.7-2.2,7.4-4.4,11.1-6.7c0.4-0.2,0.7-0.2,1.1,0c3.2,1.9,6.4,3.8,9.7,5.6C56.7,63.5,57,63.6,57.4,63.8z
		 M35.4,60.6c0.2-0.1,0.3-0.1,0.4-0.2c3.2-1.9,6.4-3.8,9.7-5.7c0.3-0.2,0.5-0.4,0.5-0.8c0-4.6,0-9.1,0-13.7c0-0.1,0-0.2,0-0.4
		c-6.3,3.7-12.5,7.4-18.7,11c-0.1,2.3-0.1,14.1,0,14.5c1-0.6,1.9-1.1,2.9-1.7c0.4-0.2,0.5-0.5,0.5-0.9c0-2.4,0-4.8,0-7.2
		c0-1.1-0.1-0.8,0.8-1.3c1.1-0.6,2.2-1.3,3.3-1.9c0.2-0.1,0.4-0.3,0.6-0.1C35.4,55,35.4,57.8,35.4,60.6z M57.1,60.5
		c0-0.2,0-0.4,0-0.5c0-2.4,0-4.7,0-7.1c0-2.7,0-5.3,0-8c0-0.4-0.1-0.6-0.4-0.8c-0.3-0.1-0.5-0.3-0.8-0.4c-3-1.7-6-3.5-8.9-5.2
		c-0.2-0.1-0.3-0.3-0.6-0.2c0,5.4,0,10.7,0,16.1C50,56.5,53.5,58.5,57.1,60.5z M26.8,50.4c0-0.9,0-1.7,0-2.4c0-0.3-0.1-0.4-0.3-0.6
		c-1.2-0.7-2.4-1.5-3.6-2.2C17.2,41.7,11.6,38.4,6,35c-0.2-0.1-0.3-0.2-0.6-0.3c0,0.8,0,1.6,0,2.3c0,0.4,0.1,0.6,0.5,0.8
		c6.3,3.8,12.6,7.6,18.9,11.4C25.4,49.5,26,49.9,26.8,50.4z M46,36.6c-6.3,3.7-12.5,7.3-18.7,10.9c0,0.9,0,1.8,0,2.8
		c6.3-3.7,12.5-7.4,18.7-11C46,38.4,46,37.6,46,36.6z M46.5,34.1c0,1.2,0,2.2,0,3.3c0,0.2,0.1,0.3,0.3,0.4c0.3,0.1,0.5,0.3,0.8,0.4
		c3.1,1.8,6.1,3.6,9.2,5.4c0.1,0.1,0.3,0.1,0.4,0.2c0-1,0-2,0-2.9c0-0.4-0.1-0.7-0.5-0.9c-2.5-1.4-5.1-2.9-7.6-4.3
		C48.3,35.1,47.4,34.7,46.5,34.1z M26.8,47c0-0.4,0-0.7,0-1c0.1-0.5-0.1-0.8-0.6-1.1c-3.8-2.3-7.5-4.5-11.3-6.8
		c-2.9-1.7-5.8-3.5-8.7-5.2c-0.2-0.1-0.5-0.3-0.8-0.4c0,0.4,0,0.7,0,1c0,0.4,0.1,0.7,0.5,0.9c6.5,3.9,13,7.8,19.5,11.8
		C25.8,46.4,26.2,46.6,26.8,47z M27.3,47C33.5,43.3,39.8,39.7,46,36c0-0.3,0-0.6,0-0.9c0-0.3,0-0.6,0-1c-6.3,3.8-12.5,7.5-18.7,11.2
		C27.3,45.8,27.3,46.4,27.3,47z M20.3,53.4c0,0.2,0,0.3,0,0.3c0,1.8,0,3.6,0,5.4c0,0.3,0.1,0.4,0.3,0.6c0.5,0.3,1.1,0.6,1.6,0.9
		c0.1,0,0.2,0.1,0.3,0.1c0-0.5,0-1,0-1.4c0-1.4,0-2.8,0-4.2c0-0.2,0.1-0.4-0.2-0.6C21.7,54.2,21.1,53.8,20.3,53.4z M33.3,53.7
		c-0.6,0.4-1.1,0.7-1.7,1c-0.3,0.2-0.4,0.4-0.4,0.8c0,1.8,0,3.5,0,5.3c0,0.1,0,0.3,0,0.5c0.6-0.3,1.1-0.7,1.7-1
		c0.3-0.2,0.5-0.4,0.4-0.7c0-1.8,0-3.5,0-5.3C33.3,54.1,33.3,54,33.3,53.7z M18.3,60.3c0.4-0.3,0.8-0.5,1.2-0.7
		c0.3-0.1,0.4-0.4,0.4-0.7c0-1.8,0-3.6,0-5.5c0-0.1,0-0.3,0-0.5c-0.3-0.2-0.5-0.3-0.8-0.4c-0.3-0.1-0.5-0.3-0.8-0.4
		C18.3,55,18.3,57.6,18.3,60.3z M34.9,60.7c0-2.7,0-5.2,0-7.8c-0.3,0.2-0.5,0.3-0.8,0.4c-0.2,0.1-0.3,0.3-0.3,0.5c0,2,0,4,0,6
		c0,0.1,0.1,0.3,0.1,0.4C34.2,60.3,34.5,60.5,34.9,60.7z"/>
	<path class="st0" d="M10.9,29.4c1.7-1,3.3-1.9,4.8-2.9c6-3.5,11.9-7.1,17.9-10.6c2.7-1.6,5.5-3.2,8.2-4.8c0.1-0.1,0.3-0.2,0.4-0.3
		c0.3-0.2,0.5-0.2,0.8,0c6.9,4,13.9,8,20.8,12.1c2.7,1.6,5.4,3.2,8.1,4.7c0.6,0.4,0.6,0.5,0,0.8c-0.4,0.2-0.8,0.4-1.1,0.7
		c-0.4,0.2-0.8,0.4-1.1,0.3c-0.3-0.2-0.4-0.4-0.6-0.5c-2-1.2-4.1-2.4-6.1-3.6c-6.6-3.8-13.2-7.7-19.9-11.5c-0.3-0.2-0.5-0.3-0.8-0.5
		c-1.3,0.7-2.6,1.5-3.8,2.2c-6.2,3.6-12.3,7.3-18.5,10.9c-1.5,0.9-3,1.8-4.5,2.7c-0.4,0.2-0.8,0.3-1.3,0.2c0.2-0.1,0.3-0.2,0.4-0.3
		c4.2-2.5,8.5-5,12.7-7.5c3.5-2.1,7-4.1,10.5-6.2c1.3-0.8,2.6-1.5,3.8-2.3c0.3-0.2,0.5-0.4,0.5-0.7c0-0.3,0.1-0.7,0.2-1.1
		c-0.2,0.1-0.4,0.2-0.6,0.3c-4.9,2.9-9.8,5.8-14.7,8.7c-5,2.9-10,5.9-15,8.9C11.8,29.4,11.5,29.6,10.9,29.4z M71.8,28.1
		c-0.1-0.1-0.2-0.2-0.3-0.2c-9.4-5.5-18.8-10.9-28.3-16.4c0,0-0.1,0-0.2-0.1c0,0,0,0-0.1,0c0,0,0,0-0.1,0c-0.1,0.5-0.2,1-0.2,1.5
		c9.2,5.4,18.4,10.7,27.6,16C70.8,28.7,71.3,28.4,71.8,28.1z"/>
	<path class="st0" d="M38,15c0-0.5,0-0.9,0-1.4c0-0.2,0.1-0.4,0.3-0.5c1.4-0.8,2.7-1.6,4-2.4c0.3-0.2,0.5-0.1,0.7,0.1
		c1.4,0.8,2.8,1.6,4.1,2.4c0.3,0.2,0.6,0.4,1,0.6c0.3,0.2,0.5,0.4,0.9,0.3c0.1,0,0.2,0.1,0.4,0.1c0.5,0.3,1,0.6,1.5,0.9
		c0.3,0.2,0.7,0.3,0.7,0.7c0,0.1,0.2,0.2,0.3,0.2c0.4,0.2,0.8,0.5,1.2,0.7c0.2,0.1,0.4,0.3,0.4,0.6c0,0.6,0,1.2,0,1.9
		c0,0.3-0.1,0.4-0.3,0.5c-1.3,0.8-2.6,1.5-3.9,2.3c-0.3,0.2-0.5,0.1-0.8,0c-1.2-0.7-2.3-1.4-3.5-2.1c-0.3-0.2-0.6-0.2-0.9,0
		c-0.2,0.1-0.4,0.2-0.6,0.3c-0.3,0.2-0.6,0.3-0.6,0.8c0,0.4-1.1,1-1.5,0.8c-0.9-0.5-0.9-0.5-0.9-1.5c0-0.4-0.1-0.9,0.1-1.2
		c0.2-0.3,0.6-0.4,1-0.7c0.1-0.1,0.2-0.2,0.4-0.3c-0.7-0.4-1.4-0.8-2.2-1.3c-0.4,0.2-0.8,0.5-1.2,0.7c-0.2,0.1-0.2,0.2-0.2,0.4
		c0,0.3-0.1,0.6-0.4,0.7c-1,0.5-0.6,0.6-1.7,0c-0.3-0.1-0.4-0.3-0.4-0.6c0-0.4,0-0.9,0-1.3c0-0.4,0.1-0.6,0.4-0.8
		C36.8,15.7,37.4,15.3,38,15z M38.7,13.5c1.3,0.8,2.5,1.5,3.8,2.2c1.2-0.8,2.5-1.4,3.8-2.2c-0.1-0.1-0.1-0.1-0.2-0.2
		c-1.1-0.6-2.2-1.3-3.3-1.9c-0.2-0.1-0.4-0.1-0.6,0c-0.7,0.4-1.3,0.8-2,1.2C39.7,12.8,39.2,13.1,38.7,13.5z M51.4,16.4
		c0,0.4,0,0.6-0.3,0.8c-0.6,0.3-1.3,0.7-1.9,1.1c-0.2,0.1-0.4,0.1-0.6,0c-0.4-0.2-0.8-0.5-1.2-0.7c-1.2-0.7-0.9-0.3-0.9-1.6
		c0-0.3,0.1-0.6,0.4-0.7c0.4-0.2,0.8-0.5,1.3-0.7c-0.5-0.3-0.9-0.5-1.3-0.8c-1.3,0.8-2.5,1.5-3.8,2.2c0.1,0.1,0.2,0.2,0.3,0.2
		c1.7,1,3.4,2,5.1,3c0.2,0.1,0.4,0.1,0.6,0c1-0.6,2-1.2,3.1-1.8c0.1-0.1,0.2-0.2,0.4-0.3C52.1,16.9,51.8,16.7,51.4,16.4z M42.7,17.6
		c0.3-0.1,0.6-0.2,0.7-0.2c0.4,0.1,0.8,0.3,1,0.6c0.2,0.2,0.1,0.5,0.1,0.8c0,0.1,0,0.3,0,0.4c1.2,0.7,2.5,1.4,3.8,2.2
		c0-0.5,0-0.9,0-1.3c0-0.3-0.1-0.4-0.3-0.6c-1.7-1-3.3-2-5-2.9c-0.1-0.1-0.2-0.1-0.4-0.1C42.7,16.9,42.7,17.2,42.7,17.6z M52.8,19.2
		c0-0.6,0-1.1,0-1.7c-1.3,0.8-2.6,1.5-3.8,2.2c0,0.6,0,1.1,0,1.7C50.3,20.7,51.5,20,52.8,19.2z M38.5,14.6c0.2,0,0.4,0,0.5,0.1
		c0.3,0.2,0.7,0.3,1,0.6c0.2,0.2,0.1,0.6,0.1,0.9c0,0,0,0.1,0,0.1c0,0.2,0.1,0.4,0.3,0.5c0.5,0.3,1,0.6,1.6,0.9
		c0.1,0.1,0.2,0.1,0.4,0.2c0-0.5,0-0.9,0-1.4c0-0.3-0.1-0.4-0.3-0.5c-1-0.6-2-1.2-3.1-1.8c-0.1-0.1-0.2-0.1-0.4-0.1
		C38.5,14.2,38.5,14.4,38.5,14.6z M50.7,15.6c-0.5-0.3-1-0.6-1.5-0.9c-0.1-0.1-0.3-0.1-0.4,0c-0.5,0.3-1,0.6-1.6,0.9
		c0.6,0.3,1,0.6,1.5,0.9c0.1,0.1,0.3,0,0.4,0C49.6,16.3,50.1,16,50.7,15.6z M39.5,15.8c-0.7,0.4-1.4,0.8-2.1,1.2
		c-0.1,0-0.2,0.2-0.2,0.3c0,0.3,0,0.7,0,1.1c0.5-0.2,0.5-0.2,0.5-0.6c0-0.3,0.1-0.4,0.4-0.6c0.4-0.2,0.7-0.4,1.1-0.6
		C39.5,16.5,39.6,16.2,39.5,15.8z M41.8,21.2c0.3-0.1,0.5-0.2,0.5-0.5c0-0.3,0.1-0.5,0.4-0.7c0.4-0.2,0.7-0.4,1.1-0.6
		c0.3-0.2,0.4-0.4,0.3-0.8c-0.7,0.4-1.5,0.8-2.2,1.3c-0.1,0-0.1,0.1-0.1,0.2C41.8,20.5,41.8,20.8,41.8,21.2z M43.8,18.2
		c-0.3-0.3-0.4-0.4-0.6-0.2c-0.7,0.4-1.4,0.8-2.1,1.3c0.2,0.1,0.3,0.2,0.5,0.3C42.3,19.1,43,18.7,43.8,18.2z M36.6,16.4
		c0.2,0.3,0.5,0.3,0.7,0.1c0.5-0.3,1.1-0.6,1.6-0.9c0.1-0.1,0.2-0.1,0.3-0.2c-0.2-0.1-0.4-0.3-0.6-0.2C37.9,15.6,37.3,16,36.6,16.4z
		 M48.6,17.1c-0.5-0.3-1.1-0.6-1.7-1c0.1,0.3-0.1,0.6,0.2,0.7c0.5,0.3,1,0.6,1.6,0.9C48.6,17.5,48.6,17.3,48.6,17.1z M49.2,17.7
		c0.5-0.3,0.9-0.5,1.4-0.8c0.4-0.2,0.4-0.3,0.2-0.8c-0.4,0.2-0.8,0.5-1.3,0.7C49.1,17.1,49.1,17.1,49.2,17.7z M36.3,16.9
		c0,0.3,0,0.6,0,1c0,0.3,0.1,0.4,0.4,0.5C36.9,17.4,36.8,17.1,36.3,16.9z M41.3,21.2c0-0.3,0-0.7,0-1c0-0.3-0.2-0.4-0.5-0.4
		c0,0.3,0,0.6,0,0.9C40.8,21,41,21.1,41.3,21.2z"/>
	<path class="st0" d="M3.7,31.1c-0.8-0.4-1.5-0.9-2.2-1.2c-0.7-0.3-0.9-0.9-0.9-1.6c0-2.6,0-5.1,0-7.7c0-1.3,0.6-2.4,1.7-3.1
		c3.1-1.9,6.3-3.7,9.4-5.5c0.6-0.4,1.2-0.7,1.9-1.1c0.6-0.4,1.2-0.4,1.8,0c0.6,0.4,1.2,0.7,1.9,1.1c0.5,0.2,0.7,0.6,0.8,1.1
		c0,0.2,0,0.5,0,0.7c0,2.3,0,4.6,0,6.9c0,1.6-0.6,2.8-2,3.6c-1.9,1.1-3.8,2.2-5.8,3.4c-0.3,0.2-0.5,0.3-0.6,0.6
		c-1,1.9-1.9,3.7-2.9,5.6c-0.3,0.5-0.3,0.6-0.9,0.3c-0.6-0.3-1.1-0.7-1.7-1c-0.3-0.2-0.4-0.4-0.4-0.7C3.8,32.1,3.7,31.6,3.7,31.1z
		 M6.7,32.9c0.1-0.2,0.2-0.3,0.3-0.5c0.8-1.4,1.5-2.9,2.3-4.3c0.2-0.3,0.4-0.6,0.7-0.8c2-1.2,4-2.3,6-3.5c1-0.6,1.6-1.5,1.6-2.7
		c0-2.5,0-5,0-7.5c0-0.2,0-0.4-0.1-0.6c-0.1-0.4-0.4-0.5-0.8-0.4c-0.3,0.1-0.5,0.2-0.8,0.3c-3.6,2.1-7.1,4.2-10.7,6.3
		c-1.3,0.7-1.8,1.8-1.8,3.3c0,2.3,0,4.6,0,6.9c0,0.2,0,0.3,0,0.5c0.1,0.8,0.5,1,1.2,0.7c0.4-0.2,0.8-0.5,1.3-0.7
		c0.2-0.1,0.3-0.1,0.6-0.3C6.6,30.7,6.5,31.8,6.7,32.9z M16.3,12.1c-0.4-0.2-0.7-0.4-1-0.6c-0.5-0.4-1-0.4-1.6,0
		c-3.5,2.1-6.9,4.1-10.4,6.1c-0.1,0.1-0.2,0.2-0.3,0.3c0.6,0.4,1.2,0.7,1.8,1.1C8.5,16.7,12.4,14.4,16.3,12.1z M1.1,20.9
		c0,0.2,0,0.2,0,0.3c0,2.3,0,4.6,0,6.9c0,0.2,0,0.5,0.1,0.7c0.1,0.2,0.1,0.4,0.3,0.5c0.5,0.3,1,0.6,1.4,0.8c0-2.8,0-5.4,0-8.1
		C2.3,21.6,1.7,21.3,1.1,20.9z M6,33.8c0-1.2,0-2.3,0-3.5c-0.6,0.3-1.2,0.6-1.8,0.9c0,0.4,0,0.8,0,1.3c0,0.1,0.1,0.3,0.2,0.4
		C4.9,33.2,5.4,33.4,6,33.8z M1.6,18.9c0.6,0.4,1.3,0.8,1.9,1.1c0.3-0.3,0.5-0.6,0.7-0.8c-0.1-0.1-0.1-0.1-0.1-0.1
		c-0.4-0.2-0.8-0.5-1.2-0.7c-0.6-0.4-0.7-0.4-1.1,0.2C1.7,18.7,1.7,18.8,1.6,18.9z M1,20.3c0.7,0.4,1.3,0.7,1.9,1.1
		c0.1-0.3,0.2-0.6,0.3-0.9c-0.6-0.4-1.3-0.7-1.9-1.1C1.2,19.7,1.1,20,1,20.3z"/>
	<path class="st0" d="M10.1,10.8c-0.3,0.2-0.5,0.3-0.7,0.5c0.4,0.2,0.8,0.5,1.1,0.7c0.6-0.3,1.2-0.7,1.7-1c0.5-0.3,0.5-0.3,1.2-0.2
		c-0.8,0.5-1.6,1-2.4,1.4c0.2,0.1,0.3,0.2,0.4,0.3c4.9,3,9.8,5.9,14.7,8.9c0,0,0,0,0,0c0.5,0.5,1,0.4,1.6,0
		c5.8-3.5,11.7-7,17.5-10.4c0.1,0,0.1-0.1,0.2-0.1c0.5-0.4,0.9-0.3,1.4,0c2,1.1,3.9,2.3,5.9,3.4c1.5,0.9,3,1.7,4.5,2.6
		c0.3-0.2,0.6-0.3,0.9-0.5c3.1-1.8,6.2-3.6,9.3-5.5c0.4-0.2,0.8-0.3,1.3-0.2c-3.9,2.3-7.7,4.5-11.5,6.7c-0.5-0.3-0.9-0.5-1.3-0.8
		c-3-1.7-6-3.5-9-5.2c-0.1-0.1-0.2-0.1-0.3-0.2c-0.3-0.2-0.5-0.2-0.8,0c-1.7,1-3.4,2-5.1,3c-4.4,2.6-8.8,5.2-13.2,7.9
		c-0.4,0.2-0.6,0.2-1,0c-5.1-3.1-10.2-6.2-15.3-9.3c-0.7-0.4-1.5-0.9-2.2-1.3c-0.4-0.3-0.4-0.4,0-0.7C9.3,10.8,9.3,10.8,10.1,10.8z"
		/>
	<path class="st0" d="M15.5,21.4c-0.5-0.3-0.8-0.5-1.2-0.7c-1.9-1.1-3.8-2.2-5.7-3.3c-0.3-0.2-0.4-0.4-0.4-0.8c0-1.8,0-3.6,0-5.4
		c0-0.1,0-0.2,0-0.3c0-0.2,0.2-0.3,0.4-0.2c0.1,0,0.2,0.1,0.3,0.2c2.1,1.2,4.2,2.5,6.3,3.7c0.3,0.2,0.4,0.4,0.4,0.7
		c0,1.8,0,3.7,0,5.5C15.5,20.9,15.5,21.1,15.5,21.4z M15,19.1c0-1.3,0-2.6,0-3.8c0-0.3-0.1-0.4-0.3-0.5c-1.5-0.9-2.9-1.7-4.4-2.6
		c-0.1-0.1-0.3-0.1-0.5-0.2c0,1.2,0,2.3,0,3.5c0,0.4,0.1,0.6,0.5,0.8c1.3,0.7,2.6,1.5,3.8,2.2C14.4,18.8,14.7,18.9,15,19.1z M8.9,17
		c2.1,1.2,4,2.4,6.1,3.6c0-0.4,0-0.6,0-0.9c-1.8-1-3.6-2.1-5.4-3.1C9.4,16.7,9.2,16.8,8.9,17z M8.7,11.4c0,1.7,0,3.4,0,5.1
		c0.3-0.2,0.5-0.3,0.7-0.4c0-1.3,0-2.6,0-3.8C9.4,11.7,9.4,11.7,8.7,11.4z"/>
	<path class="st0" d="M37.5,20.2c0-0.2-0.1-0.3-0.1-0.5c0-1.7,0-3.3,0-5c0-0.3,0.2-0.5,0.4-0.7c1.4-0.8,2.7-1.6,4-2.4
		c0.5-0.3,1.1-0.6,1.6-0.9c0.4-0.2,0.5-0.2,0.5,0.3c0,1.7,0,3.3,0,5c0,0.3-0.1,0.4-0.3,0.6c-2,1.2-4,2.3-6,3.5
		C37.7,20.2,37.6,20.2,37.5,20.2z M37.9,18c0.1,0,0.2,0,0.2-0.1c1.3-0.8,2.6-1.5,3.9-2.3c0.2-0.1,0.3-0.3,0.3-0.5c0-0.9,0-1.8,0-2.8
		c0-0.1,0-0.1-0.1-0.2c-1.4,0.8-2.8,1.6-4.2,2.4c-0.1,0.1-0.2,0.2-0.2,0.4C37.8,15.9,37.9,17,37.9,18z M37.9,19.4
		c0.6-0.2,5-2.8,5.3-3.1c-0.2-0.1-0.4-0.2-0.6-0.4c-1.6,0.9-3.1,1.8-4.7,2.7C37.9,18.9,37.9,19.2,37.9,19.4z M43.5,11.5
		c-0.5,0.1-0.7,0.4-0.6,0.9c0,0.4,0,0.9,0,1.3c0,0.6,0,1.3,0,1.9c0.2,0.1,0.3,0.2,0.5,0.3c0,0,0.1,0,0.1,0
		C43.5,14.3,43.5,12.9,43.5,11.5z"/>
	<path class="st0" d="M49.4,10.7c0.2,0.1,0.4,0.1,0.5,0.2c1.5,0.9,3,1.8,4.6,2.7c0.2,0.1,0.3,0.3,0.3,0.6c0,2.8,0,5.6,0,8.4
		c0,0.5-0.1,0.6-0.6,0.3c-1.5-0.9-2.9-1.8-4.4-2.6c-0.3-0.2-0.5-0.4-0.5-0.8c0-2.7,0-5.4,0-8.1C49.4,11.1,49.4,11,49.4,10.7z
		 M54.3,22.3c0-2.8,0-5.5,0-8.2c-1.3-0.9-4.1-2.5-4.4-2.5c0,2.7,0,5.4,0,8.1C51.3,20.5,52.8,21.4,54.3,22.3z"/>
</g>
</svg>
