<?xml version="1.0" encoding="utf-8"?>
<!-- Generator: Adobe Illustrator 24.0.2, SVG Export Plug-In . SVG Version: 6.00 Build 0)  -->
<svg version="1.1" id="Capa_1" xmlns="http://www.w3.org/2000/svg" xmlns:xlink="http://www.w3.org/1999/xlink" x="0px" y="0px"
	 viewBox="0 0 80 80" style="enable-background:new 0 0 80 80;" xml:space="preserve">
<style type="text/css">
	.st0{fill:#E31F26;}
</style>
<g>
	<path class="st0" d="M8.4,32.8c-0.7-0.6-1.2-1.3-1.6-2.1c-0.4-0.7-0.6-1.5-0.8-2.3C6,28.2,5.9,28,5.7,27.8
		c-0.7-0.5-1.1-1.2-1.1-2.1c0-0.2,0-0.4,0-0.6c0-0.6,0.2-1.2,0.7-1.6c0.2-0.2,0.3-0.4,0.4-0.6c0.2-0.8,0.6-1.5,1.1-2.1
		c0.1-0.1,0.2-0.3,0.2-0.5c0.1-0.4,0.3-0.7,0.6-0.9c0.7-0.4,1.4-0.7,2.1-1c0.7-0.3,1.3-0.2,2,0.1c0.6,0.2,1.3,0.4,1.9,0.7
		c1.9,0.7,3.1,2.1,3.6,4c0.1,0.4,0.3,0.7,0.7,1c0.4,0.4,0.9,0.8,1.2,1.3c0.7,1,0.5,2.1-0.4,2.8c-0.2,0.2-0.5,0.4-0.8,0.5
		c-0.2,0.1-0.3,0.2-0.3,0.4c-0.1,0.5-0.3,1.1-0.4,1.7c0.3,0.2,0.5,0.3,0.9,0.5c0.6,0.4,1.3,0.8,1.9,1.1c0.6,0.3,1,0.8,1.2,1.4
		c0.3,1,0.5,2,0.8,3c0.4,1.7,0.8,3.3,1.3,5c0,0.1,0.2,0.3,0.3,0.4c0.2,0.1,0.4,0.2,0.6,0.3c0.1-0.1,0.1-0.1,0.2-0.2
		c0.5-0.6,1.1-0.7,1.8-0.5c0.3,0.1,0.5,0.1,0.7-0.2c0.4-0.5,0.9-1,1.4-1.5c-0.3-0.4-0.5-0.8-0.8-1.3c-1.3-2.2-2-4.6-2.3-7.1
		c-0.3-2.5,0-4.9,0.8-7.3c0.8-2.4,2.2-4.4,4.1-6c0.7-0.6,1.6-1,2.4-1.4c0.2-0.1,0.3-0.1,0.5-0.2c0-0.2,0-0.5,0-0.7
		c0-3.6,0-7.2,0-10.9c0-0.4,0.1-0.7,0.5-0.9c1.8-1,3.5-2.1,5.3-3.1c0.2-0.1,0.4-0.1,0.6,0c2.3,0.9,4.7,1.5,7.1,2.1
		c3.5,0.7,7,1.1,10.6,0.9c0.6,0,1.3-0.1,1.9-0.1c0.4,0,0.6,0,0.9,0.4c1.9,2.4,3.9,4.6,5.9,6.9c3.8,4.2,8,7.9,12.4,11.4
		c0.5,0.4,1.1,0.8,1.6,1.2c0.3,0.2,0.4,0.4,0.4,0.8c0,5.7,0,11.5,0,17.2c0,2.1,0,4.3,0,6.4c0,2.2-0.3,4.4-0.9,6.5
		c-0.9,3.2-2.4,6-5,8.2c-0.5,0.4-1,0.9-1.6,1.2c-2.3,1.3-4.5,2.7-6.8,4c-2.2,1.3-4.7,1.9-7.2,2.4c-1.6,0.3-3.2,0.4-4.8,0.5
		c-0.3,0-0.5-0.1-0.8-0.3c-3.3-3.8-6.3-7.7-9-11.9c-2.7-4.1-5.1-8.3-6.9-12.8c-0.1-0.2-0.2-0.3-0.5-0.4c-2.1-0.2-3.9-1.1-5.5-2.4
		c-0.2-0.1-0.3-0.2-0.5-0.4c0,0-0.1,0-0.1,0c-0.4,0.4-0.9,0.9-1.3,1.4c-0.1,0.1-0.1,0.3-0.1,0.3c0.2,0.5,0.2,1,0.1,1.5
		c0.1,0.1,0.2,0.2,0.4,0.3c0.4,0.3,0.5,0.6,0.5,1c-0.1,0.6-0.2,1.2-0.3,1.7c-0.1,0.4-0.3,0.8-0.7,1c-0.6,0.4-1.2,0.8-1.8,1.2
		c-0.2,0.2-0.4,0.2-0.7,0c-0.5-0.3-1-0.5-1.5-0.8c-0.2,0.2-0.4,0.4-0.6,0.6c-1.7,1.8-3.3,3.5-5,5.3c-0.2,0.2-0.3,0.4-0.3,0.8
		c-0.1,3-0.2,6-0.4,9c-0.1,2.4-0.2,4.7-0.3,7.1c0,0.9,0,0.7-0.7,1.2c-0.8,0.5-1.6,0.9-2.4,1.4c-0.2,0.1-0.4,0.1-0.6,0
		c-0.5-0.3-1-0.6-1.6-0.9c0,0.5-0.1,1-0.1,1.5c0.1,0.7-0.2,1-0.8,1.3c-0.9,0.5-1.7,1-2.6,1.5c-0.2-0.1-0.5-0.2-0.7-0.4
		c-1.1-0.6-2.2-1.2-3.3-1.8c-0.3-0.2-0.4-0.3-0.4-0.7c-0.1-5.3-0.3-10.5-0.4-15.8c0-1.4-0.1-2.7-0.1-4.1c0-0.9,0.1-0.6-0.6-1.2
		c-1.2-1-2.4-2-3.6-3c-0.4-0.3-0.5-0.6-0.4-1.1c0.3-2.1,0.6-4.3,0.9-6.5c0.2-1.5,0.4-3,0.6-4.4c0.3-2.3,1.4-4.2,3.5-5.3
		c1-0.5,1.9-1.1,2.8-1.6C8.1,33,8.2,32.9,8.4,32.8z M54.8,65.9c-0.2,0-0.4,0.1-0.7,0.1C54.4,66,54.6,66.1,54.8,65.9
		c0.2,0,0.4,0,0.6,0c0,0,0-0.1,0-0.1C55.2,65.9,55,65.9,54.8,65.9z M51.4,41c0.4-0.3,0.7-0.6,1-0.9c3.3-3.1,6.6-6.2,10-9.4
		c0.1-0.1,0.2-0.2,0.3-0.3c0.1-0.1,0.2-0.1,0.3,0c0.1,0.1,0.1,0.2,0.2,0.2c0.9,1.3,1.8,2.7,2.7,4c0.4,0.6,0.8,1.2,1.2,1.9
		c0.2,0.3,0.2,0.4-0.1,0.6c-0.3,0.2-0.6,0.5-0.9,0.7c-4.4,3.6-8.8,7.3-13.2,10.9c-0.4,0.4-0.8,0.7-1.3,1.1c-0.3,0.2-0.4,0.2-0.6-0.1
		c-0.1-0.1-0.1-0.2-0.2-0.3c-1-1.6-1.9-3.2-2.9-4.8c-0.4-0.6-0.8-1.3-1.2-2c-1.7,1.4-3.6,2.2-5.8,2.5c0.1,0.2,0.1,0.4,0.2,0.5
		c1.5,3.3,3.2,6.5,5.1,9.6c2.2,3.5,4.7,6.8,7.4,9.9c0.2,0.2,0.3,0.3,0.6,0.2c0.6-0.1,1.1-0.1,1.7-0.2c2.2-0.3,4.4-0.8,6.5-1.7
		c1.1-0.4,2.1-0.9,3-1.7c2.2-1.8,3.6-4.2,4.4-6.9c0.6-2,0.8-4.1,0.8-6.2c0-6.5,0-13,0.1-19.4c0-0.3-0.1-0.6-0.4-0.8
		c-1.6-1.3-3.2-2.6-4.7-3.9c-4.3-3.8-8.3-7.9-12-12.2c-0.3-0.3-0.5-0.4-0.9-0.4c-2.3,0.2-4.6,0.1-6.9-0.1c-2.7-0.3-5.3-0.8-7.9-1.6
		c-0.2,0-0.3-0.1-0.5-0.1c0,1.8,0,3.6,0,5.4c0.2,0,0.4,0,0.6,0c1.4-0.1,2.7,0.1,4,0.5c2,0.6,3.6,1.8,5,3.3c3.9,4,5.5,10.3,4.2,15.8
		c-0.3,1.1-0.6,2.1-1.1,3.2c-0.1,0.2-0.2,0.3-0.1,0.5C50.6,39.6,51,40.3,51.4,41z M35.9,16c0-0.2,0-0.3,0-0.5c0-1.9,0-3.7,0-5.6
		c0-0.1,0-0.3,0-0.4c0-0.2,0.1-0.3,0.4-0.3c0.1,0,0.2,0.1,0.3,0.1c3.4,1.1,6.8,1.8,10.3,2.1c2.1,0.2,4.2,0.2,6.3,0
		c0.4,0,0.7,0,0.9,0.3c0.1,0.1,0.2,0.2,0.3,0.3c2.7,3.2,5.6,6.2,8.6,9.1c2.5,2.4,5.2,4.8,8,6.9c0.4,0.3,0.5,0.6,0.5,1
		c0,6.4,0,12.8-0.1,19.1c0,2.1-0.2,4.3-0.7,6.4c-1.1,4.2-3.6,7.3-7.4,9.4c-3.1,1.6-6.4,2.3-9.9,2.5c-0.3,0-0.4-0.1-0.6-0.3
		c-2.2-2.5-4.2-5.1-6.1-7.9c-2.4-3.5-4.5-7.1-6.3-11c-0.3-0.7-0.6-1.4-0.9-2.1c-0.7,0-1.3,0.1-2,0.1c0.1,0.2,0.1,0.3,0.2,0.5
		c1.2,2.9,2.7,5.6,4.2,8.3c1.7,3,3.7,5.8,5.7,8.6c1.8,2.4,3.7,4.8,5.6,7.1c0.2,0.2,0.4,0.3,0.7,0.3c0.7-0.1,1.5-0.1,2.2-0.1
		c2.5-0.2,4.8-0.7,7.2-1.6c4.7-1.8,7.9-5.1,9.6-9.9c0.9-2.6,1.2-5.2,1.3-7.9c0-7.6,0-15.2,0.1-22.8c0-0.4-0.1-0.6-0.4-0.8
		c-4.1-2.9-7.8-6.2-11.4-9.7c-2.9-2.8-5.6-5.9-8.1-9c-0.2-0.3-0.4-0.6-0.7-0.7c-0.3-0.1-0.7,0-1,0c-2.7,0.3-5.3,0.2-8-0.1
		c-3.4-0.4-6.7-1.1-10-2.3c-0.4-0.1-0.8-0.3-1.2-0.4c0,3.8,0,7.6,0,11.4C34.2,16.3,35,16.1,35.9,16z M22.6,42c0-0.1,0-0.2-0.1-0.3
		c-0.6-2.2-1.1-4.4-1.7-6.7c-0.1-0.5-0.2-0.9-0.4-1.4c-0.3-0.8-0.8-1.1-1.6-1c-0.4,0.1-0.8,0.2-1.1,0.4c-0.5,0.2-1,0.5-1.4,0.8
		c-2.3,1.3-4.5,2.6-6.8,3.9c-1.8,1-2.9,2.6-3.2,4.6c-0.5,2.4-0.8,4.9-1.3,7.3c0,0.1,0,0.2,0,0.4c0.7-0.4,1.3-0.7,1.9-1
		c0.2-0.1,0.2-0.3,0.3-0.4C7.2,48,7.3,47.5,7.4,47C7.6,46,7.8,45.1,8,44.2c0.1-0.3,0.2-0.6,0.4-1c0.1-0.2,0.2-0.4,0.4-0.4
		c0.3,0,0.3,0.3,0.3,0.5c0,0.2,0,0.4,0.1,0.6c0.1,2.1,0.1,4.2,0.2,6.3c0,0.3,0.1,0.5,0.3,0.6c0.9,0.8,1.7,1.6,2.6,2.4
		c0.2,0.2,0.4,0.4,0.7,0.7c0.1-0.2,0.2-0.3,0.3-0.4c1.6-1.7,3.3-3.5,4.9-5.2c0.4-0.4,0.5-0.8,0.5-1.3c0-2.8,0.1-5.6,0.1-8.3
		c0-0.2,0-0.4,0.2-0.5c0.3,0,0.3,0.2,0.3,0.4c0,0,0,0.1,0,0.1c0.4,1.4,0.7,2.7,1.1,4.1c0,0.1,0.1,0.2,0.1,0.3
		C21.2,42.8,21.9,42.4,22.6,42z M79.5,24.6c-1.7,1-3.3,1.9-4.9,2.9c0,0.2,0,0.3,0,0.5c0,7.3-0.1,14.5-0.1,21.8c0,2-0.1,4.1-0.5,6.1
		c-0.6,2.9-1.7,5.6-3.5,8c-0.3,0.4-0.6,0.7-0.9,1.1c0.1,0,0.2,0,0.3-0.1c0.6-0.3,1.2-0.7,1.7-1c0.8-0.5,1.6-1,2.4-1.7
		c2-1.8,3.4-4,4.2-6.5c0.9-2.5,1.2-5,1.2-7.6c0.1-7.7,0.1-15.4,0.1-23.1C79.5,24.9,79.5,24.8,79.5,24.6z M54,7.5
		c0.1,0.2,0.2,0.3,0.3,0.4c0.8,0.9,1.6,1.9,2.4,2.8c3.4,3.9,7,7.7,11,11.1c2,1.7,4,3.4,6.1,4.9c0.2,0.1,0.4,0.2,0.6,0.4
		c1.7-1,3.3-1.9,5-2.9c-3.8-2.8-7.4-5.9-10.7-9.2c-3.4-3.3-6.5-6.8-9.4-10.5C57.4,5.5,55.7,6.5,54,7.5z M51.5,49.5
		c5.1-4.2,10.2-8.4,15.2-12.6c-1.3-2-2.6-3.9-3.8-5.8c-0.2,0.2-0.4,0.4-0.6,0.5c-1.6,1.5-3.1,3-4.7,4.4c-1.9,1.8-3.8,3.6-5.7,5.3
		c-0.1,0.1-0.3,0.2-0.5,0.4c-0.5-0.9-1-1.7-1.6-2.5c-0.7,1.2-1.5,2.3-2.5,3.2C48.6,44.8,50,47.1,51.5,49.5z M48.2,31.9
		c-0.1-0.7-0.1-1.5-0.2-2.2c-0.4-2.7-1.3-5.3-2.9-7.6c-1.5-2.3-3.5-4-6.2-4.9c-3.1-1.1-6-0.6-8.7,1.3c-1.8,1.3-3,3.1-3.9,5.2
		c-1,2.4-1.3,5-1.1,7.6c0.3,3.1,1.3,5.9,3.1,8.4c1.4,1.9,3.1,3.5,5.4,4.5c2.6,1.1,5.2,1.1,7.7-0.2c2.1-1.1,3.7-2.7,4.9-4.8
		C47.6,36.9,48.2,34.5,48.2,31.9z M13.3,54.3c0.1,0.1,0.2,0.2,0.2,0.2c0.5,0.4,0.9,0.9,1.4,1.3c0.3,0.2,0.4,0.5,0.4,0.9
		c0,0.9-0.3,1.7-1,2.3c-0.1,0.1-0.3,0.2-0.4,0.3c-0.7,0.4-1.3,0.9-2,1.3c-0.3,0.2-0.5,0.2-0.7,0c-0.2-0.2-0.4-0.3-0.6-0.5
		c-0.5-0.4-1-0.8-1.5-1.2c-0.3,0.3-0.6,0.6-0.9,0.9c-0.3,0.4-0.4,0.8-0.3,1.3c0.2,1.3,1.5,2.6,2.8,2.8c0.4,0.1,0.8,0,1.1-0.4
		c0.4-0.4,0.8-0.8,1.1-1.2c4.5-4.7,8.9-9.4,13.4-14.1c0.5-0.5,0.9-1,1.4-1.5c-1.9-0.5-3.1-1.7-3.7-3.6
		C20.3,46.9,16.8,50.6,13.3,54.3z M2.9,37.6c-0.5,0.8-0.7,1.6-0.8,2.4c-0.5,3.6-1,7.2-1.6,10.8c-0.1,0.4,0,0.7,0.4,1
		c3.1,2.5,6.1,5,9.2,7.4c0.4,0.3,0.9,0.7,1.3,1c0-0.1,0.1-0.2,0.1-0.3c0.2-0.6,0.3-1.3,0.5-1.9c0.1-0.3,0-0.4-0.2-0.6
		C10.2,56,8.6,54.6,7,53.2c-0.8-0.8-1.7-1.5-2.5-2.3c-0.2-0.2-0.3-0.4-0.2-0.7c0-0.1,0-0.2,0-0.3c0.4-2.2,0.8-4.4,1.1-6.7
		c0.2-1.1,0.3-2.1,0.9-3.1c0.1-0.1,0.2-0.3,0.3-0.5C5.4,39,4.2,38.3,2.9,37.6z M33.6,4.6c0.2,0.1,0.3,0.1,0.4,0.2
		c1.1,0.4,2.1,0.7,3.2,1c3.2,0.9,6.5,1.5,9.8,1.6c2,0.1,3.9,0,5.9-0.2c0.3,0,0.7-0.1,1-0.3c1.2-0.7,2.5-1.5,3.7-2.2
		c0.1-0.1,0.2-0.1,0.3-0.2c-0.2,0-0.2,0-0.3,0C54,4.7,50.3,4.4,46.6,3.7c-2.5-0.5-4.9-1.2-7.3-2.1c-0.3-0.1-0.5-0.1-0.8,0.1
		c-0.9,0.6-1.9,1.1-2.9,1.7C35,3.8,34.3,4.2,33.6,4.6z M37.6,16.3c0.1,0,0.2,0,0.3,0.1c0.8,0.2,1.5,0.4,2.3,0.7
		c2.5,1.1,4.3,2.9,5.8,5.1c1.4,2.2,2.2,4.5,2.6,7.1c0.5,3.2,0.1,6.2-1.2,9.2c-1.1,2.5-2.8,4.5-5.2,5.8c-0.1,0-0.1,0.1-0.2,0.2
		c0.1,0,0.1,0,0.1,0c0,0,0.1,0,0.1,0c2-0.4,3.7-1.4,5.1-2.8c2.5-2.6,3.8-5.8,4-9.4c0.2-3.1-0.4-6-1.8-8.7c-1.3-2.5-3.1-4.7-5.6-6.1
		C42,16.4,39.9,15.9,37.6,16.3z M5.7,76.2c1.3,0.8,3.2,1.9,3.6,2c0-0.2,0-0.4,0-0.5c0-0.9,0-1.7-0.1-2.6C9.2,71.5,9.1,67.9,9,64.3
		c0-0.3-0.1-0.6-0.4-0.8c-0.8-0.6-1.3-1.4-1.5-2.3c-0.1-0.7,0-1.3,0.5-1.8c0.3-0.3,0.5-0.5,0.8-0.8c-1.1-0.9-2.2-1.8-3.3-2.7
		C5.3,62.7,5.5,69.4,5.7,76.2z M15.2,75c0.6-0.4,1.2-0.7,1.8-1c0.8-0.5,0.8-0.5,0.9-1.5c0.1-2.2,0.2-4.5,0.2-6.7
		c0.1-2.7,0.2-5.4,0.3-8.1c0-0.2,0-0.4,0-0.6c-0.2,0.2-0.3,0.3-0.4,0.4c-1,1-1.9,2-2.9,3c-0.3,0.3-0.4,0.7-0.4,1.1
		c0.2,4.3,0.3,8.7,0.4,13C15.2,74.8,15.2,74.8,15.2,75z M12.4,76.7c0.3-2.7,0.8-13.5,0.6-13.9c-0.3,0.3-0.6,0.6-0.9,1
		c-0.5,0.6-1.1,0.7-1.8,0.6c-0.2,0-0.4-0.1-0.7-0.2c0.1,4.7,0.2,9.4,0.2,14.1C10.7,77.7,11.6,77.2,12.4,76.7z M13.4,27.1
		c-0.2-2.1-0.7-4-2.2-5.5c-0.4-0.5-1-0.8-1.6-1.1C8.6,20,7.7,20.1,7,21.2c-0.6,0.8-0.9,1.7-1.1,2.7c-0.2,1,0.2,1.8,1.1,2.4
		c0.3,0.2,0.5,0.3,0.8,0.5c1,0.4,2,0.7,3.1,0.7C11.7,27.4,12.5,27.3,13.4,27.1z M16.8,31c-0.3,0.4-0.5,0.7-0.7,1.1
		c-1,1.2-2.2,2-3.8,2.1c-1.2,0.1-2.2-0.3-3.2-0.9c-0.2-0.1-0.4-0.2-0.6,0c-1.1,0.7-2.3,1.3-3.4,2c-0.5,0.3-0.9,0.6-1.3,1
		c-0.3,0.2-0.4,0.5-0.7,0.9c1.3,0.8,2.5,1.5,3.7,2.2C7,39.2,7.1,39.1,7.2,39c0.5-0.7,1.2-1.3,2-1.7c1.5-0.9,3-1.7,4.5-2.6
		c1.6-0.9,3.1-2,4.9-2.6C18,31.7,17.4,31.4,16.8,31z M6.6,28.4c0.4,1.8,1.2,3.3,2.6,4.3c1.8,1.4,4.1,1.3,5.8-0.2
		c1-0.8,1.6-2,1.9-3.2c0-0.1,0-0.2,0.1-0.4c-0.2,0.1-0.3,0.1-0.4,0.2c-1.9,1-3.8,1.1-5.8,0.7C9.3,29.5,7.9,29.1,6.6,28.4z M4.9,50.6
		c2.5,2.3,5,4.5,7.4,6.8c0.7-0.4,1.4-0.8,2.1-1.1c-2.4-2.3-4.8-4.6-7.2-6.9C6.5,49.8,5.7,50.1,4.9,50.6z M14.7,27.2
		c0.5-0.2,1-0.5,1.5-0.7c0.2-0.1,0.3-0.3,0.3-0.6c-0.1-0.9-0.3-1.7-0.7-2.5c-0.6-1.5-1.5-2.8-2.8-3.8c-0.6-0.5-1.3-0.8-2.1-0.9
		c-0.6-0.1-1.1,0-1.7,0.4c0.1,0,0.1,0.1,0.2,0.1c0.9,0.2,1.7,0.7,2.4,1.3c1.4,1.3,2.2,2.9,2.6,4.8C14.5,25.8,14.6,26.5,14.7,27.2z
		 M39.8,45.3C43,53,47.7,59.8,53,66c0.2-0.1,0.3-0.2,0.4-0.4c-5.3-6.2-9.8-12.9-13-20.4C40.3,45.3,40.1,45.3,39.8,45.3z M5.4,24.1
		c-0.1,0.1-0.1,0.1-0.1,0.2c-0.3,0.7-0.1,1.3,0.3,1.8c0.5,0.6,1.1,1,1.8,1.3c1.5,0.7,3,1.1,4.6,1.4c2.2,0.4,4.2-0.1,6-1.3
		c0.3-0.2,0.5-0.5,0.8-0.7c0.2-0.2,0.2-0.5,0.1-0.8c-0.2-0.7-0.8-1.2-1.3-1.6c-0.2,0.5-0.4,1-0.5,1.5c0,0.1,0,0.2,0,0.3
		c0,0.3-0.1,0.5-0.3,0.6c-0.6,0.3-1.1,0.6-1.7,0.9c-0.3,0.2-0.6,0.2-1,0c-0.2-0.1-0.5-0.1-0.8-0.1c-1,0.3-2,0.3-2.9,0.2
		c-1.2-0.1-2.3-0.4-3.3-1c-0.7-0.4-1.3-1-1.5-1.9C5.4,24.7,5.4,24.4,5.4,24.1z M14.2,61.7c0,0-0.1,0-0.1,0c-0.3,0.2-0.5,0.5-0.5,0.9
		c-0.1,2.1-0.2,4.2-0.3,6.4c-0.1,1.7-0.2,3.3-0.3,5c0,0.1,0,0.3,0.1,0.4c0.5,0.3,1,0.5,1.5,0.8C14.5,70.5,14.4,66.1,14.2,61.7z
		 M28.2,40.4c-0.8,0.9-1.6,1.8-2.4,2.6c-0.2,0.2-0.2,0.4-0.1,0.6c0.2,0.6,0.6,1,1.1,1.2c0.3,0.1,0.5,0.1,0.8-0.1
		c0.8-0.8,1.6-1.6,2.3-2.4C29.3,41.6,28.8,41,28.2,40.4z M21.6,44.8c-0.4-0.3-0.8-0.5-1.2-0.7c-0.2-0.1-0.3-0.3-0.4-0.5
		c-0.2-0.8-0.4-1.6-0.6-2.4c0-0.1-0.1-0.2-0.1-0.3c0,0,0,0-0.1,0c0,2.1,0,4.1,0,6.3C20.1,46.4,20.8,45.5,21.6,44.8z M25.8,42.2
		c-0.3,0-0.4-0.1-0.6-0.1c-0.5,0-0.8,0.3-0.8,0.8c0,0.1,0,0.3,0.1,0.4c0.4,1.4,1.3,2.3,2.6,2.8c0.8,0.3,1.7,0.1,1.4-1.2
		c0-0.1,0-0.1-0.1-0.3c-0.2,0.2-0.3,0.3-0.5,0.5c-0.3,0.3-0.7,0.4-1.1,0.3c-0.9-0.3-1.4-0.9-1.7-1.7c-0.1-0.4,0-0.7,0.3-1
		C25.6,42.5,25.7,42.3,25.8,42.2z M8.7,44.1c0,0-0.1,0-0.1,0c-0.4,1.6-0.7,3.2-1,4.9c0.4,0.4,0.8,0.7,1.2,1.1c0,0,0.1,0,0.1,0
		C8.8,48.1,8.7,46.1,8.7,44.1z M37,15.7c0-1.9,0-3.8,0-5.7c-0.2-0.1-0.4-0.1-0.6-0.2c0,2,0,4,0,5.9C36.6,15.8,36.8,15.8,37,15.7z
		 M14.8,56.6c-0.6,0.3-1,0.6-1.5,0.8c-0.6,0.3-0.9,0.7-1,1.3c0,0.4-0.2,0.7-0.3,1.2c0.7-0.5,1.4-0.9,2-1.4
		C14.7,58.1,14.9,57.4,14.8,56.6z M27.1,50.4c0.6-0.4,1.1-0.7,1.6-1.1c0.1,0,0.1-0.1,0.2-0.2c0.3-0.6,0.4-1.2,0.4-1.9
		c-0.4,0.3-0.8,0.6-1.2,0.8c-0.5,0.3-0.7,0.6-0.8,1.1C27.3,49.5,27.2,49.9,27.1,50.4z M7.7,19.8c1.1-0.3,2,0,2.8,0.6
		c0.5,0.4,0.9,0.8,1.3,1.2c1,1.1,1.5,2.5,1.8,3.9c0.1,0.4,0.1,0.9,0.2,1.3c0,0.2,0,0.3,0.3,0.2c0-0.1,0-0.2,0-0.2
		c-0.1-0.6-0.2-1.1-0.3-1.7c-0.4-1.8-1.3-3.4-2.7-4.7c-0.7-0.6-1.5-0.9-2.4-1.1C8.4,19.5,8,19.5,7.7,19.8z M20.8,43.7
		c0.4,0.2,0.7,0.5,1.1,0.7c0.5-0.6,1-1.1,1.6-1.7c-0.2-0.1-0.4-0.2-0.6-0.3C22.2,42.8,21.5,43.2,20.8,43.7z M16.8,25
		c0.5-1.7-1.1-4.7-2.7-5.1C15.6,21.3,16.3,23,16.8,25z M13.8,29.5c-3-0.2-5.9-0.9-8.5-2.7c0.4,0.7,1,1,1.6,1.3
		c1.2,0.6,2.5,1,3.8,1.3C11.8,29.5,12.8,29.6,13.8,29.5z M27,48.2C27,48.2,26.9,48.2,27,48.2c-0.6,0.5-1.2,1.1-1.8,1.7
		c0.5,0.2,0.8,0.5,1.3,0.6C26.7,49.7,26.8,49,27,48.2z M27.2,47.8C27.3,47.8,27.3,47.8,27.2,47.8c0.7-0.3,1.3-0.7,1.9-1.2
		c-0.2-0.1-0.4-0.2-0.5-0.3C28.2,46.8,27.7,47.3,27.2,47.8z"/>
	<path class="st0" d="M46.8,31.4c0,2.9-0.6,5.3-1.9,7.4c-1.4,2.3-3.4,3.8-6.1,4.3c-1.9,0.3-3.8-0.1-5.5-1c-2-1.1-3.5-2.7-4.6-4.7
		c-2.1-3.8-2.5-7.7-1.3-11.8c0.5-1.7,1.4-3.3,2.7-4.6c1.6-1.5,3.4-2.4,5.6-2.5c2-0.1,3.9,0.5,5.5,1.7c2,1.4,3.5,3.3,4.4,5.6
		C46.4,27.6,46.8,29.6,46.8,31.4z M37.5,19.1c0,0.2,0,0.4,0,0.6c0,2.9,0,5.7,0,8.6c0,2.1,0.1,4.1,0.4,6.2c0.3,2.2,0.8,4.3,1.5,6.4
		c0.1,0.5,0.3,0.9,0.5,1.4c0.6-0.2,1-0.4,1.5-0.7c1.1-0.7,2-1.6,2.8-2.6c0.2-0.2,0.2-0.4,0-0.7c0-0.1-0.1-0.1-0.1-0.2
		c-1.1-1.8-2.2-3.7-3.3-5.5c-0.3-0.4-0.2-0.5,0.1-0.8c0.5-0.4,1-0.8,1.5-1.2c0.6-0.4,1.1-0.9,1.7-1.3c0.3-0.2,0.4-0.2,0.6,0.1
		c0,0.1,0.1,0.1,0.1,0.2c0.4,0.7,0.9,1.4,1.3,2.1c0.1,0.1,0.1,0.2,0.3,0.4c0-0.2,0-0.3,0-0.4c0-2.7-0.7-5.2-2.1-7.6
		c-1-1.7-2.3-3.1-4-4C39.4,19.6,38.5,19.3,37.5,19.1z M32.7,20.7C32.7,20.7,32.7,20.6,32.7,20.7c-0.2,0-0.3,0.1-0.4,0.2
		c-1.2,1.2-2.1,2.6-2.6,4.2c-1.1,3.2-1,6.4,0.1,9.6c0.8,2.4,2.2,4.4,4.2,6c0.3,0.3,0.7,0.5,1.1,0.7c0,0,0.1,0,0.1-0.1
		C35.1,41.2,35,41,35,40.8c-1.4-4.4-2.3-8.9-2.2-13.5c0-1.6,0-3.2,0-4.9C32.7,21.9,32.7,21.3,32.7,20.7z M38.2,42.5
		c0-0.1,0-0.1,0-0.2c0-0.1-0.1-0.2-0.1-0.4c-1.4-4-2.2-8.2-2.2-12.4c0-3.3,0-6.7,0-10c0-0.2,0-0.4,0-0.6c-0.4,0.1-0.7,0.1-0.9,0.2
		c-0.4,0.2-0.8,0.5-1.3,0.7c-0.3,0.2-0.4,0.4-0.4,0.8c0,2.1,0,4.2,0,6.3c0,3.3,0.3,6.5,1.1,9.7c0.4,1.6,0.9,3.3,1.4,4.9
		c0,0.1,0.1,0.3,0.3,0.4C36.7,42.2,37.4,42.4,38.2,42.5z M33,19.7C33,19.6,33,19.6,33,19.7c-0.3,0-0.6,0.2-0.9,0.3
		c-2.1,1.2-3.4,3-4.2,5.2c-1.2,3.2-1.1,6.4,0,9.5c0.9,2.6,2.4,4.8,4.7,6.4c1,0.7,2.1,1.2,3.3,1.4c-0.2-0.1-0.4-0.2-0.6-0.3
		c-0.3-0.2-0.7-0.3-1-0.5c-1.8-1.2-3.2-2.9-4.2-4.8c-1.5-2.9-2-5.9-1.6-9.1c0.3-2.2,1-4.3,2.4-6C31.6,20.9,32.2,20.2,33,19.7z
		 M44.2,29.8c-1.1,0.8-2.1,1.6-3.2,2.4c1.2,2,2.4,3.9,3.5,5.9c0.1-0.1,0.1-0.1,0.1-0.1c0.8-1.5,1.3-3,1.5-4.7c0-0.1,0-0.3-0.1-0.4
		c-0.5-0.9-1.1-1.8-1.6-2.7C44.4,30.1,44.3,29.9,44.2,29.8z M39.4,42.4c0-0.1-0.1-0.2-0.1-0.3c-0.3-0.9-0.6-1.9-0.9-2.8
		c-1-3.5-1.5-7.1-1.4-10.8c0-3,0-6,0-9c0-0.1,0-0.3,0-0.4c-0.2,0-0.4,0-0.6,0c0,0.2,0,0.4,0,0.5c0,3.3,0,6.5,0,9.8
		c0,1.4,0.1,2.8,0.2,4.2c0.3,2.9,1,5.8,2,8.6c0.1,0.2,0.1,0.3,0.2,0.5C39,42.5,39.2,42.5,39.4,42.4z"/>
</g>
</svg>
