<?xml version="1.0" encoding="utf-8"?>
<!-- Generator: Adobe Illustrator 24.0.2, SVG Export Plug-In . SVG Version: 6.00 Build 0)  -->
<svg version="1.1" id="Capa_1" xmlns="http://www.w3.org/2000/svg" xmlns:xlink="http://www.w3.org/1999/xlink" x="0px" y="0px"
	 viewBox="0 0 80 80" style="enable-background:new 0 0 80 80;" xml:space="preserve">
<style type="text/css">
	.st0{fill:#E31F26;}
</style>
<g>
	<g>
		<path class="st0" d="M12.2,48.9c-0.4-0.2-0.7-0.4-1.1-0.6c-1.1-0.6-1.6-1.5-1.7-2.8v-0.1c0.1-2-0.5-3.8-0.9-5.6
			C8,37.4,7.4,35,6.9,32.5c-0.2-0.8-0.1-1.6-0.1-2.4c0.1-1.5,0.2-3,0.4-4.4c0.2-2.1,0.5-4.2,1-6.3c0.4-1.5,1.2-2.7,2.5-3.6
			c1.3-1,2.6-2,3.9-2.9c0.3-0.2,0.4-0.4,0.5-0.8c0.1-0.7,0.1-1.3-0.2-1.9c-0.2-0.4-0.4-0.8-0.6-1.2c-0.9-1.9-1-3.7,0-5.6
			c0.6-1.2,1.7-1.9,3-2.2c1.6-0.4,3.2-0.1,4.6,0.7c0.6,0.4,1.1,0.9,1.4,1.6c0.4,0.8,0.6,1.6,0.8,2.5c0.1,0.5,0,0.9-0.2,1.3
			c-0.1,0.3-0.1,0.5,0,0.7c0.2,0.4,0.4,0.8,0.5,1.1c0.2,0.6,0.1,0.8-0.4,1.1c-0.2,0.1-0.2,0.2-0.3,0.4c0,0.4-0.1,0.8-0.1,1.3
			c0.1,0,0.2,0.1,0.4,0.1c1.9,0.5,3.1,1.8,3.3,3.8c0.3,2.5,0.4,4.9,0.5,7.4c0.1,1.2,0,2.5,0.2,3.7c0.5,2.9,0.8,5.9,1,8.8
			c0.1,1.1,0.2,2.1,0.6,3.2c0.5,1.6,0.1,3.1-1.1,4.3c-0.4,0.4-0.8,0.7-1.4,0.4c0,0.9-0.1,1.7-0.1,2.5c-0.1,3.1-0.4,6.2-0.7,9.2
			c-0.2,1.4-0.3,2.8-0.3,4.2c-0.2,2.5-0.3,5.1-0.4,7.6c0,0.5,0.1,0.8,0.4,1.1c0.6,0.6,1.3,1.1,2,1.5c0.4,0.2,0.8,0.4,1.2,0.7
			c0.4,0.3,0.8,0.6,1,1c0.6,0.9,0.2,1.8-0.8,2.1c-0.5,0.2-1.1,0.3-1.6,0.2c-1-0.1-1.9-0.3-2.8-0.8c-0.8-0.4-1.7-0.8-2.6-1
			c-0.5-0.1-1-0.3-1.4-0.5c-0.5-0.2-0.7-0.6-0.7-1.2c0-0.2,0-0.4,0-0.6c0.3-1.4,0.1-2.7-0.1-4.1c-0.2-2.1-0.5-4.2-0.7-6.3
			c-0.1-1.1,0-2.1,0.1-3.2c0.1-0.6,0.1-1.3,0.1-1.9c0-0.1,0-0.2,0-0.3h-0.1c-0.1,0.3-0.1,0.7-0.2,1c-0.3,1.5-0.6,2.9-0.9,4.4
			c-0.3,1.6-0.4,3.2-0.5,4.7c-0.1,1.8-0.2,3.5-0.4,5.3c-0.1,0.8-0.1,1.6-0.2,2.4c-0.1,0.5,0.1,1,0.3,1.4c0.4,0.6,0.8,1.2,1.2,1.8
			c0.3,0.5,0.7,1.1,1,1.6c0.1,0.2,0.1,0.3,0.2,0.5c0.2,1-0.1,1.5-1,1.7c-1.8,0.5-4,0-5-1.9c-0.3-0.6-0.8-1.2-1.3-1.7
			c-0.5-0.4-0.7-1-0.6-1.7c0.2-1,0.1-1.9,0-2.9c-0.2-2.4-0.5-4.9-0.7-7.3c-0.2-2,0-4.1,0.5-6c0.4-1.8,0.5-3.6,0.5-5.4
			c0-0.9-0.1-1.8-0.1-2.7C12.3,49.2,12.2,49,12.2,48.9z M13,49.1c0,0.2,0,0.4,0,0.5c0,1.2,0,2.3,0.1,3.5c0.1,1.3-0.1,2.6-0.4,3.9
			c-0.5,1.9-0.7,3.8-0.6,5.8c0.2,2,0.4,4,0.6,6.1c0.1,1.6,0.5,3.2,0.2,4.8c-0.1,0.5,0.1,0.9,0.5,1.2c0.5,0.4,0.8,0.8,1.1,1.4
			c0.1,0.2,0.2,0.3,0.3,0.5c1,1.6,3.1,1.7,4.2,1.3c0.4-0.1,0.5-0.3,0.4-0.7c-0.1-0.4-0.2-0.8-0.4-1.1c-0.2-0.4-0.6-0.8-0.8-1.3
			c-0.4-0.6-0.8-1.1-1.1-1.7c-0.3-0.4-0.4-0.9-0.4-1.4c0.1-1.1,0.2-2.2,0.2-3.2c0.1-1.8,0.3-3.6,0.4-5.4c0.1-1.3,0.2-2.7,0.4-4
			c0.5-3,1.2-6,1.8-9c0.4-1.9,0.7-3.8,1-5.7c0.1-0.9,0.6-1.4,1.3-1.7c0.2-0.1,0.4-0.1,0.5,0.1c0.1,0.2,0,0.4-0.1,0.5
			s-0.2,0.2-0.4,0.2c-0.4,0.2-0.6,0.5-0.6,0.9c-0.3,1.7-0.5,3.3-0.8,5c-0.2,0.9-0.2,1.7-0.1,2.6c0.2,1.4,0.2,2.8,0,4.2
			c-0.2,1.3-0.2,2.5,0,3.8c0.2,2.1,0.5,4.1,0.7,6.1c0.1,1,0.3,2.1,0,3.1c0,0.2-0.1,0.4-0.1,0.6c0,0.4,0.1,0.7,0.5,0.9
			c0.4,0.1,0.8,0.3,1.2,0.4c0.7,0.1,1.4,0.4,2,0.7c0.8,0.5,1.7,0.8,2.7,1c0.6,0.1,1.2,0.1,1.8-0.1c0.6-0.2,0.7-0.6,0.4-1.2
			c-0.2-0.2-0.4-0.5-0.6-0.6c-0.4-0.3-0.9-0.5-1.3-0.8c-0.8-0.5-1.7-1-2.3-1.8c-0.3-0.4-0.5-0.8-0.5-1.3c0.1-2.4,0.3-4.8,0.4-7.3
			c0-0.7,0-1.4,0.1-2.2c0.2-2.1,0.4-4.1,0.6-6.2c0.3-2.9,0.4-5.8,0.5-8.7c0.1-3.6-0.4-7.3-0.7-10.9c-0.1-1.7-0.2-3.4-0.3-5.1
			c-0.1-2.2,0.2-4.4,0-6.6c0-0.3,0-0.6,0-0.9c0-0.4,0.1-0.6,0.3-0.6c0.2,0,0.4,0.2,0.4,0.6c0,1.6,0.1,3.2,0.1,4.8
			c-0.1,3.5,0.2,6.9,0.4,10.4c0.1,1.6,0.3,3.1,0.4,4.6c0.1,1.2,0.1,2.4,0.1,3.6c0.4,0.3,0.4,0.3,0.8,0c0.8-0.7,1.2-1.5,1.2-2.5
			c0-0.5-0.1-1-0.2-1.4c-0.1-0.5-0.3-1.1-0.4-1.6c-0.1-0.9-0.1-1.9-0.2-2.8c-0.2-1.9-0.4-3.8-0.6-5.7c-0.1-1.2-0.4-2.3-0.5-3.5
			c-0.1-2.8-0.3-5.5-0.5-8.3c0-0.5-0.1-1-0.2-1.4c-0.4-1.6-1.5-2.6-3.1-2.7c-0.4,0.8-1.2,0.9-2,1c-0.1,0.3-0.1,0.5-0.2,0.7
			s-0.2,0.3-0.4,0.2c-0.2,0-0.3-0.2-0.2-0.4c0-0.2,0.1-0.5,0.1-0.7c-0.2-0.1-0.4-0.1-0.5-0.2c-0.8-0.3-1.5-0.6-2.1-1.1
			c-0.1-0.1-0.2-0.2-0.3-0.4c-0.1-0.2-0.1-0.3,0.1-0.4c0.1-0.1,0.3,0,0.4,0s0.2,0.2,0.3,0.3c0.9,0.7,1.9,1.2,3.1,1.2
			c0.9,0,1.3-0.3,1.4-1.2c0.1-0.4,0.1-0.8,0.2-1.2c0-0.3,0.1-0.6,0.5-0.7c0.1,0,0.1-0.1,0.2-0.1c-0.2-0.5-0.4-0.9-0.6-1.4
			c-0.1-0.3-0.2-0.7,0-1c0.2-0.5,0.2-1,0.1-1.4c-0.1-0.5-0.3-1-0.5-1.6c-0.3-0.8-0.8-1.4-1.6-1.8c-1.1-0.6-2.3-0.8-3.5-0.5
			c-1.9,0.4-3,1.5-3.3,3.3c-0.2,1.3,0,2.5,0.6,3.6c0.2,0.4,0.5,0.9,0.7,1.4c0.3,0.7,0.3,1.5,0.1,2.2c-0.1,0.6-0.6,1-1,1.3
			c0,0-0.1,0-0.1,0.1c-1.2,0.9-2.3,1.7-3.5,2.6c-1.2,0.9-2,2-2.3,3.5c-0.3,1.8-0.6,3.6-0.9,5.3C8,27,7.9,28.7,7.7,30.3
			c-0.1,0.9-0.1,1.9,0.1,2.8c0.7,3.1,1.4,6.2,2.2,9.2c0.1,0.6,0.2,1.2,0.2,1.8s0.1,1.3,0.1,1.9c0,0.6,0.3,1.2,0.9,1.6
			c0.7,0.5,1.4,0.8,2.2,1.1c0.1,0,0.2,0,0.3,0c-0.1-0.2-0.2-0.3-0.3-0.4c-0.4-0.7-0.6-1.5-0.6-2.4c0-0.3,0.1-0.5,0.4-0.6
			c0.3-0.1,0.4,0.1,0.6,0.3c0.2,0.2,0.3,0.4,0.5,0.6c0.1,0.1,0.2,0.1,0.4,0.2c-0.2-0.4-0.3-0.7-0.4-1c-0.3-0.8-0.6-1.5-1.2-2.1
			c-0.2-0.3-0.4-0.6-0.4-0.9c0-0.7-0.1-1.4-0.1-2.1c-0.1-2.3-0.2-4.5-0.3-6.8c0-0.8-0.2-1.7,0-2.5c0.4-2.3,0.9-4.5,1.3-6.8
			c0-0.2,0.1-0.3,0.1-0.5c0.1-0.1,0.2-0.2,0.3-0.2s0.2,0.1,0.3,0.2c0,0.1,0,0.2,0,0.3c-0.3,1.8-0.6,3.7-1,5.5
			c-0.2,1.1-0.5,2.2-0.3,3.4c0.1,1.3,0.2,2.6,0.2,4c0.1,1.8,0.1,3.5,0.2,5.3c0,0.3,0.1,0.6,0.3,0.8c0.9,0.9,1.2,2.1,1.7,3.2
			c0.1,0.3,0.1,0.7-0.2,0.9s-0.6,0.2-0.9,0.1c-0.2-0.1-0.3-0.2-0.5-0.3c0,0.2,0,0.2,0.1,0.3c0.1,0.5,0.4,0.9,0.7,1.2
			c0.2,0.2,0.2,0.5,0.1,0.8c-0.1,0.3-0.4,0.4-0.7,0.4C13.4,49.2,13.2,49.1,13,49.1z"/>
		<path class="st0" d="M36.5,38.3c0-7.2,0-14.5,0-21.7c0-0.8,0.3-1.4,1-1.8c0.9-0.5,1.8-1,2.7-1.5c0.8-0.5,1.5-0.4,2.3,0
			c5.3,3.1,10.6,6.1,15.9,9.1c3.2,1.9,6.5,3.7,9.7,5.6c0.4,0.2,0.7,0.4,1,0.7c0.8,0.7,1.2,1.7,1.2,2.8c0,5.5,0,11.1,0,16.6
			c0,8.8,0,17.5,0,26.3c0,0.2,0,0.4,0,0.6c0,0.7-0.3,1.2-0.9,1.6c-1.1,0.6-2.1,1.2-3.1,1.8c-0.5,0.3-1.1,0.4-1.6,0
			c-1-0.6-2-1.1-3-1.7c-3.4-2-6.8-3.9-10.2-5.9c-4.1-2.4-8.3-4.7-12.4-7.1c-0.3-0.2-0.5-0.3-0.8-0.5c-1.3-0.7-2-1.9-2-3.4
			c0-2.7,0-5.4,0-8.1C36.5,47.2,36.5,42.7,36.5,38.3L36.5,38.3z M66.2,55.1L66.2,55.1c0-7.2,0-14.4,0-21.5c0-1.3-0.6-2.2-1.6-2.9
			c-1.1-0.7-2.3-1.3-3.4-2c-6.8-3.9-13.5-7.8-20.3-11.7c-0.9-0.5-1.7-1-2.6-1.4c-0.5-0.3-1-0.1-1,0.5c0,0.1,0,0.3,0,0.4
			c0,1.3,0,2.6,0,4c0,13,0,26.1-0.1,39.1c0,1.3,0.5,2.3,1.7,2.9c2.6,1.5,5.1,2.9,7.7,4.4c5.8,3.3,11.6,6.7,17.4,10
			c0.4,0.2,0.8,0.5,1.2,0.7c0.6,0.3,1,0.1,1-0.6c0-0.3,0-0.7,0-1C66.2,69.1,66.2,62.1,66.2,55.1z M69.8,31.4c-0.9,0.5-1.7,1-2.6,1.4
			c-0.2,0.1-0.3,0.3-0.3,0.5c0,0.1,0,0.2,0,0.3c0,14.3,0,28.5,0,42.8c0,0.2,0,0.3,0,0.6c0.7-0.4,1.4-0.8,2.1-1.2
			c0.6-0.3,0.8-0.7,0.8-1.4c0-1.4,0-2.7,0-4.1c0-12.8,0-25.6,0-38.4C69.8,31.9,69.8,31.7,69.8,31.4z M39.9,15.7
			c8.5,4.9,16.9,9.7,25.3,14.6c0.9-0.5,1.8-1.1,2.8-1.6c-0.2-0.1-0.3-0.2-0.5-0.3c-1.7-1-3.5-2-5.2-3c-5.4-3.1-10.8-6.2-16.1-9.3
			c-1.1-0.6-2.1-1.2-3.2-1.8c-0.1-0.1-0.3-0.2-0.5-0.1C41.7,14.7,40.9,15.2,39.9,15.7z M65.9,30.7c0.3,0.6,0.7,1.1,1,1.6
			c0.9-0.5,1.9-1.1,2.8-1.6c-0.1-0.7-0.5-1.2-1-1.6C67.7,29.6,66.8,30.2,65.9,30.7z M42,13.7c-0.6-0.2-0.7-0.2-1.1,0
			c-0.6,0.3-1.1,0.6-1.7,0.9c-0.2,0.1-0.4,0.2-0.6,0.3c0.2,0.1,0.4,0.2,0.6,0.3C40.1,14.8,41,14.3,42,13.7z"/>
		<path class="st0" d="M39.8,32.2c0-2.1,0-4.2,0-6.3c0-0.1,0-0.2,0-0.3c0-0.5,0.1-0.6,0.6-0.3c2,1.1,3.9,2.2,5.9,3.4
			c1.3,0.7,2.5,1.5,3.8,2.2c0.3,0.2,0.5,0.4,0.5,0.8c0,4.3,0,8.7,0,13c0,0.1,0,0.1,0,0.2c0,0.3-0.2,0.4-0.5,0.3
			c-0.1,0-0.2-0.1-0.2-0.1c-3.2-1.8-6.4-3.7-9.5-5.5c-0.4-0.2-0.5-0.5-0.5-0.9C39.8,36.5,39.8,34.3,39.8,32.2L39.8,32.2z M49.9,41.9
			L49.9,41.9c0.1-0.2,0.1-0.3,0.1-0.5c0-3.1,0-6.3,0-9.4c0-0.4-0.1-0.6-0.5-0.8c-2.9-1.7-5.8-3.3-8.7-5c-0.1-0.1-0.2-0.1-0.4-0.2
			c0,3.8,0,7.4,0,11.3c0.5-0.5,1-0.5,1.5-0.5c0.3,0,0.6,0.1,0.9,0.1c0.3,0,0.6,0,0.9,0.1c-0.1-0.3-0.1-0.6-0.2-0.8
			c-0.1-0.4-0.3-0.8-0.5-1.2c-0.1-0.3-0.2-0.6-0.3-0.8c-0.2-0.4-0.4-0.9-0.2-1.3c0.2-0.5,0.1-1,0.2-1.4c0-0.2,0.1-0.4,0.1-0.6
			c0.2-0.7,0.8-1,1.5-1c0.4,0,0.8,0.2,1.1,0.4c1.6,1,2.5,2.3,2.4,4.3c0,0.3,0,0.6,0.1,0.8c0.2,0.4,0.1,0.9-0.2,1.3
			c-0.2,0.3-0.5,0.6-0.8,1c-0.3,0.3-0.3,0.7-0.1,1c0.2,0.2,0.4,0.4,0.6,0.7C48.3,40.1,49.3,40.8,49.9,41.9z M40.6,39
			c3,1.7,6,3.5,9.1,5.2c-0.1-1.1-0.2-2-0.9-2.8c-0.4-0.4-0.8-0.8-1.2-1.2C47,39.5,46.2,39,46,38c-0.8,0.1-1.4-0.3-1.9-0.9
			c-0.2,0.4-0.5,0.4-0.9,0.4c-0.6,0-1.2-0.1-1.8-0.1c-0.5,0-0.6,0.1-0.8,0.6C40.7,38.3,40.7,38.6,40.6,39z M47.2,34.1
			c-0.1-1.5-0.8-2.7-2.2-3.4c-0.2-0.1-0.3-0.1-0.5-0.2c-0.7-0.1-1.1,0.2-1.2,0.9c0,0.3,0,0.7,0,1c0,0.2,0,0.4-0.1,0.5
			c-0.3,0.4-0.1,0.7,0.1,1c0.2,0.3,0.3,0.7,0.4,1c0.2,0.4,0.3,0.9,0.5,1.2c0.2,0.4,0.5,0.7,0.9,1c0.6,0.5,1.3,0.3,1.6-0.4
			c0.1-0.1,0.1-0.2,0.2-0.3c0.1-0.1,0.1-0.2,0.2-0.2c0.3-0.3,0.4-0.4,0.2-0.8c-0.2-0.3-0.2-0.5-0.1-0.8
			C47.2,34.4,47.2,34.3,47.2,34.1z"/>
		<path class="st0" d="M64.8,37.2c-0.3-0.1-0.5-0.2-0.7-0.3c-4.9-2.9-9.9-5.7-14.8-8.6c-3.4-2-6.8-3.9-10.2-5.8
			c-0.4-0.2-0.6-0.5-0.6-1c0-0.9,0-1.8,0-2.8c0-0.1,0-0.3,0-0.4c0-0.2,0.2-0.3,0.3-0.2c0.1,0,0.3,0.1,0.4,0.2c2.6,1.5,5.3,3,7.9,4.5
			c3.7,2.1,7.4,4.3,11.1,6.4c2,1.2,4,2.3,6.1,3.5c0.4,0.2,0.5,0.4,0.5,0.8c0,1,0,2,0,3C64.9,36.8,64.9,36.9,64.8,37.2z M39.1,19
			c0,0.8,0,1.5,0,2.3c0,0.4,0.1,0.6,0.5,0.8c4.1,2.3,8.2,4.7,12.3,7c4,2.3,8,4.7,12.1,7c0.1,0.1,0.2,0.1,0.4,0.1c0-0.8,0-1.5,0-2.2
			c0-0.4-0.1-0.6-0.5-0.8c-1.7-1-3.4-1.9-5.1-2.9c-6.4-3.7-12.7-7.3-19.1-11C39.5,19.1,39.3,19.1,39.1,19z"/>
		<path class="st0" d="M63.7,56.7c0,0.4,0,0.7,0,1.1c0,0.5-0.2,0.6-0.6,0.3c-0.8-0.4-1.5-0.9-2.2-1.3c-2.6-1.5-5.1-3-7.7-4.4
			c-4-2.3-8.1-4.6-12.1-6.9c-0.3-0.2-0.6-0.4-1-0.6c-0.2-0.1-0.3-0.3-0.3-0.5c0-0.7,0-1.5,0-2.2c0-0.5,0.2-0.5,0.6-0.3
			c1.2,0.7,2.4,1.3,3.5,2c3.7,2.1,7.4,4.2,11.1,6.3c2.7,1.6,5.5,3.2,8.2,4.7c0.4,0.2,0.6,0.5,0.5,0.9C63.6,56.1,63.7,56.4,63.7,56.7
			L63.7,56.7z M40.3,44.3C47.8,48.6,55.4,53,63,57.4c0-0.5,0-1,0-1.5c0-0.3-0.1-0.5-0.4-0.7c-2.2-1.2-4.4-2.5-6.5-3.7
			c-5.1-2.9-10.2-5.9-15.3-8.8c-0.1-0.1-0.3-0.1-0.5-0.2C40.3,43.2,40.3,43.7,40.3,44.3z"/>
		<path class="st0" d="M59.9,43.1c0,0.1,0.1,0.2,0.1,0.4c0.4-0.2,0.8-0.2,1,0.2c0.3,0.4,0.5,0.9,0.4,1.5c-0.1,0.3-0.5,0.4-0.8,0.4
			c-0.3-0.1-0.6-0.3-0.8-0.6c-0.1-0.2-0.2-0.3-0.3-0.5c0,0-0.1,0-0.1,0.1c0.1,0.2,0.2,0.4,0.2,0.6c0.1,0.4,0,0.6-0.4,0.6
			c-0.2,0-0.4,0-0.6-0.1c-0.8-0.2-1.3-0.8-1.8-1.4c-0.2-0.2-0.1-0.4,0-0.5c0.1-0.2,0.3-0.4,0.5-0.6c-0.2,0-0.4-0.1-0.6-0.1
			c0,0.1-0.1,0.2-0.1,0.2c-0.2,0.3-0.5,0.3-0.7,0.1c-0.3-0.4-0.6-0.8-0.7-1.3c-0.1-0.5-0.2-0.9-0.3-1.4c-0.1-0.4-0.2-0.8-0.4-1.2
			c-0.1-0.3-0.1-0.5,0.2-0.6c-0.2-0.9-0.3-1.9,0-2.8c0-0.2,0.1-0.3,0.2-0.5c0.2-0.4,0.5-0.4,0.8-0.1c0.1,0.1,0.2,0.2,0.2,0.4
			c0.3,0.5,0.6,0.9,0.9,1.4c0.1,0.1,0.2,0.3,0.4,0.4c0.2-0.5,0.2-0.6-0.1-0.8s-0.4-0.4-0.3-0.8c0.1-0.3,0.3-0.4,0.6-0.4
			c0.9-0.1,1.6,0.5,1.8,1.3c0.1,0.6,0.2,1.2,0.3,1.8c0.3-0.1,0.5-0.1,0.7-0.2c0.2-0.1,0.3-0.2,0.5-0.3c0.4-0.2,0.7-0.1,0.8,0.3
			c0.3,1.1,0.6,2.2,0.3,3.3c-0.2,0.7-0.7,1-1.4,1.1C60.2,43.1,60.1,43.1,59.9,43.1z M56.7,42.3c0.2,0,0.4,0.1,0.6,0.1
			c0.7,0.1,0.8,0.5,0.5,1.1c-0.1,0.2-0.2,0.4-0.4,0.6c0.5,0.4,0.9,0.9,1.6,0.9c-0.1-0.3-0.2-0.5-0.3-0.7c-0.1-0.3-0.2-0.6-0.2-0.9
			c0-0.3,0.2-0.4,0.4-0.2c0.1,0.1,0.3,0.2,0.4,0.3c0-0.2-0.1-0.5-0.2-0.7c-0.1-0.3,0.1-0.5,0.3-0.4c0.1,0,0.3,0.1,0.4,0.1
			c0.7,0.1,1.1-0.2,1.2-0.9c0-0.5,0-1.1-0.1-1.6c0-0.3-0.1-0.6-0.2-0.9c-0.3,0.1-0.6,0.3-0.9,0.4c-0.7,0.2-1.1-0.1-1.2-0.8
			c0-0.1,0-0.2,0-0.3c-0.1-0.4-0.1-0.9-0.2-1.3c0-0.3-0.3-0.5-0.5-0.6c-0.1-0.1-0.3,0-0.6,0c0.6,0.3,0.6,0.8,0.6,1.2
			c0,0.3-0.2,0.6-0.5,0.7c-0.3,0.1-0.6,0-0.8-0.3c-0.4-0.5-0.7-1-1.1-1.5c-0.1-0.1-0.1-0.2-0.2-0.3c-0.5,1.6,0,3.3,1.1,4.4
			c0.1,0.1,0.3,0.3,0.4,0.4c0.2,0.2,0.3,0.5,0.1,0.7C57,41.9,56.8,42.1,56.7,42.3z M60.5,44c-0.2,0.2-0.4,0.4-0.1,0.7
			c0.1,0.1,0.3,0.4,0.6,0.2C60.9,44.5,60.8,44.2,60.5,44z M56,40.9c0.1,0.3,0.2,0.4,0.4,0.7C56.5,41.2,56.5,41.2,56,40.9z
			 M55.9,41.9C55.9,42,55.8,42,55.9,41.9c0,0.2,0,0.3,0.1,0.5c0.1-0.1,0.2-0.1,0.3-0.2C56.2,42.1,56,42,55.9,41.9z"/>
		<path class="st0" d="M50.5,60.8c0,0.2,0,0.5,0,0.7c0,0.4-0.2,0.5-0.6,0.3c-0.7-0.4-1.4-0.8-2-1.2c-2.5-1.4-5-2.9-7.5-4.3
			c-0.1-0.1-0.3-0.2-0.4-0.2c-0.2-0.1-0.3-0.2-0.3-0.4c0-0.5,0-1,0-1.6c0-0.3,0.2-0.4,0.5-0.3c0.3,0.1,0.6,0.3,0.9,0.5
			c2.9,1.7,5.9,3.4,8.8,5.1c0.1,0.1,0.2,0.1,0.4,0.2c0.2,0.1,0.3,0.3,0.3,0.5C50.5,60.3,50.5,60.5,50.5,60.8z M40.3,54.5
			c0,0.2,0,0.4,0,0.5c-0.1,0.4,0.1,0.6,0.4,0.8c0.7,0.3,1.3,0.7,2,1.1c2.2,1.3,4.4,2.6,6.7,3.9c0.1,0.1,0.3,0.1,0.5,0.3
			c0-0.3,0-0.5,0-0.6c0-0.3-0.1-0.5-0.4-0.6c-2.9-1.7-5.9-3.4-8.8-5.1C40.6,54.6,40.5,54.6,40.3,54.5z"/>
		<path class="st0" d="M54.1,65.8c0.1,0,0.2,0.1,0.3,0.1c3,1.7,5.9,3.4,8.9,5.1c0.1,0.1,0.3,0.2,0.3,0.3c0.1,0.1,0.1,0.3,0,0.3
			c-0.1,0.1-0.2,0.1-0.3,0.1s-0.2-0.1-0.2-0.1c-2.9-1.7-5.9-3.4-8.8-5.1c-0.2-0.1-0.3-0.2-0.4-0.3C53.7,66,53.9,65.7,54.1,65.8z"/>
		<path class="st0" d="M49.5,62.9c0,0.3-0.1,0.4-0.3,0.4c-0.1,0-0.3-0.1-0.4-0.2c-2.9-1.6-5.7-3.3-8.6-4.9c-0.1-0.1-0.3-0.2-0.4-0.3
			c-0.1-0.1-0.1-0.3,0-0.3c0-0.1,0.2-0.1,0.3-0.1s0.2,0.1,0.3,0.1c2.2,1.3,4.5,2.6,6.7,3.8c0.7,0.4,1.3,0.8,2,1.2
			C49.3,62.6,49.4,62.8,49.5,62.9z"/>
		<path class="st0" d="M63.2,50.7c-0.1,0-0.2,0.2-0.4,0.2c-0.1,0-0.2-0.1-0.3-0.2c-2.9-1.7-5.8-3.3-8.7-5c-0.1-0.1-0.3-0.1-0.4-0.2
			c-0.1-0.1-0.1-0.3-0.1-0.4c0-0.1,0.2-0.1,0.4-0.1c0.1,0,0.2,0.1,0.3,0.2c2.9,1.7,5.8,3.3,8.6,5C62.9,50.2,63.1,50.3,63.2,50.7z"/>
		<path class="st0" d="M58.9,57.7c0,0.3-0.1,0.4-0.3,0.4c-0.1,0-0.2-0.1-0.3-0.1c-2.3-1.4-4.7-2.7-7-4.1c-0.3-0.2-0.6-0.4-0.9-0.5
			c-0.1-0.1-0.2-0.2-0.3-0.3c-0.1-0.2,0.1-0.4,0.3-0.3c0.1,0,0.2,0.1,0.3,0.1c2.6,1.5,5.2,3,7.8,4.5C58.7,57.5,58.8,57.7,58.9,57.7z
			"/>
		<path class="st0" d="M48.1,51.6c0,0.3-0.2,0.4-0.3,0.3c-0.1,0-0.2-0.1-0.2-0.1c-2.4-1.4-4.9-2.8-7.3-4.2c-0.1-0.1-0.3-0.1-0.4-0.2
			c-0.1-0.1-0.1-0.3-0.1-0.4c0-0.1,0.2-0.1,0.4-0.1c0.1,0,0.1,0.1,0.2,0.1c2.4,1.4,4.8,2.7,7.2,4.1c0.1,0.1,0.3,0.2,0.4,0.3
			C48,51.4,48.1,51.6,48.1,51.6z"/>
		<path class="st0" d="M59,66.5c-0.2,0.1-0.4,0.2-0.6,0.2c-0.3,0.1-0.5-0.1-0.4-0.5c0-0.1,0.1-0.2,0.1-0.4c0-0.1-0.1-0.3-0.1-0.4
			c0,0-0.2,0-0.3,0.1c-0.2,0.2-0.3,0.4-0.5,0.6c-0.1,0.1-0.1,0.2-0.2,0.3c-0.1,0.2-0.3,0.2-0.5,0c-0.1-0.1-0.1-0.3,0-0.4
			c0.1-0.2,0.2-0.3,0.4-0.5c0-0.1-0.1-0.3-0.1-0.4s0.2-0.2,0.3-0.3c0.8-0.4,1.5,0,1.8,1c0.6-0.1,0.7,0.3,0.9,0.7
			c0.6-0.2,1.2,0.1,1.7,0.2c0.3,0,0.6,0.2,0.9,0.2c0.2,0.1,0.3,0.2,0.2,0.4c-0.1,0.2-0.2,0.2-0.4,0.2c-0.5-0.1-1-0.3-1.6-0.4
			c-0.2,0-0.3,0-0.5,0c-0.6,0.1-0.7,0.1-1-0.4C59.1,66.7,59.1,66.6,59,66.5z"/>
		<path class="st0" d="M60.6,71.4c0,0.3-0.1,0.4-0.3,0.4c-0.1,0-0.2-0.1-0.2-0.1c-1.9-1.1-3.8-2.2-5.8-3.3c-0.1-0.1-0.3-0.1-0.3-0.3
			c-0.1-0.1-0.1-0.3,0-0.4c0-0.1,0.2-0.1,0.3-0.1s0.1,0.1,0.2,0.1c1.9,1.1,3.9,2.2,5.8,3.4C60.4,71.2,60.5,71.3,60.6,71.4z"/>
		<path class="st0" d="M40,59.2c0.1,0,0.2,0.1,0.3,0.1c1.8,1,3.6,2,5.4,3.1l0.1,0.1c0.2,0.1,0.3,0.3,0.2,0.5s-0.3,0.1-0.5,0
			c-0.7-0.4-1.4-0.8-2.2-1.2c-1-0.6-2.1-1.2-3.1-1.8c-0.2-0.1-0.3-0.2-0.4-0.3C39.7,59.5,39.8,59.3,40,59.2z"/>
		<path class="st0" d="M57.1,62.7c1.2,0,1.7,0.6,1.4,1.5c-0.1,0.2-0.1,0.4-0.4,0.3c-0.2,0-0.3-0.2-0.2-0.5c0-0.1,0-0.2,0.1-0.3
			c0-0.3-0.1-0.5-0.4-0.5c-0.5-0.1-1.4,0.3-1.7,0.8c-0.2,0.3-0.1,0.6,0.1,0.8c0.1,0.1,0.1,0.1,0.2,0.2c0.2,0.1,0.2,0.3,0.1,0.4
			c-0.1,0.2-0.3,0.1-0.4,0.1c-0.8-0.4-1-1.4-0.4-2.1C56,63,56.6,62.7,57.1,62.7z"/>
		<path class="st0" d="M60.7,50.8c-0.1,0.1-0.2,0.2-0.3,0.1c-0.1,0-0.2-0.1-0.3-0.1c-1.3-0.7-2.5-1.4-3.8-2.2
			c-0.2-0.1-0.4-0.2-0.6-0.4c-0.1-0.1-0.1-0.3,0-0.4c0-0.1,0.2-0.1,0.3-0.1s0.2,0.1,0.3,0.1c1.3,0.8,2.6,1.5,3.9,2.3
			c0.1,0.1,0.2,0.1,0.3,0.2C60.6,50.6,60.7,50.7,60.7,50.8z"/>
		<path class="st0" d="M40.7,49.9c1,0.2,1.8,0.9,1.9,1.9c0,0.7-0.4,1-1,0.7c-0.1,0-0.2-0.1-0.3-0.2c-0.4-0.2-0.6-0.4-0.6-0.9
			C40.8,50.9,40.7,50.4,40.7,49.9z M41.3,51.8c0.1,0.1,0.3,0.1,0.4,0.2c0.3,0.1,0.5,0,0.5-0.4c-0.1-0.5-0.3-0.9-0.9-1
			C41.3,51,41.3,51.4,41.3,51.8z"/>
		<path class="st0" d="M54.2,58.5c0,0.2,0,0.5,0,0.7s-0.1,0.3-0.2,0.3c-0.1,0-0.3-0.1-0.3-0.2c0-0.6,0-1.2,0-1.8
			c0-0.2,0.3-0.2,0.4-0.1c0.1,0.1,0.2,0.3,0.2,0.4C54.2,58,54.2,58.3,54.2,58.5L54.2,58.5z"/>
		<path class="st0" d="M48.6,56.3C48.2,56.4,48,56.2,48,56c0-0.5,0-1.1,0-1.6c0-0.1,0.1-0.2,0.1-0.2c0.1,0,0.2,0,0.3,0.1
			s0.1,0.2,0.1,0.3C48.6,55.1,48.6,55.7,48.6,56.3z"/>
		<path class="st0" d="M40.4,51.6c-0.3,0-0.5-0.1-0.5-0.3c0-0.6,0-1.3,0-1.9c0.4-0.1,0.5,0.1,0.5,0.4C40.4,50.4,40.4,51,40.4,51.6z"
			/>
		<path class="st0" d="M49.1,55.8c0-0.3,0-0.5,0-0.8c0-0.1,0.1-0.3,0.2-0.3c0.1,0,0.2,0.1,0.3,0.2c0.1,0.1,0.1,0.2,0.1,0.3
			c0,0.5,0,1,0,1.5c0,0.2-0.1,0.3-0.2,0.3c-0.1,0-0.3-0.2-0.3-0.2C49.2,56.4,49.2,56.1,49.1,55.8C49.2,55.8,49.2,55.8,49.1,55.8z"/>
		<path class="st0" d="M45.8,53.9c0-0.3,0-0.5,0-0.8c0-0.1,0.1-0.2,0.2-0.2c0.1,0,0.2,0.1,0.3,0.2c0.1,0.1,0.1,0.2,0.1,0.3
			c0,0.5,0,1,0,1.5c0,0.1-0.1,0.3-0.2,0.3c-0.1,0-0.2-0.1-0.3-0.2c-0.1-0.1-0.1-0.2-0.1-0.3C45.8,54.3,45.8,54.1,45.8,53.9
			L45.8,53.9z"/>
		<path class="st0" d="M45.3,53.4c0,0.3,0,0.5,0,0.8c0,0.1-0.1,0.2-0.2,0.2c-0.1,0-0.2-0.1-0.3-0.1c-0.1-0.1-0.1-0.2-0.1-0.4
			c0-0.5,0-0.9,0-1.4c0-0.1,0.1-0.2,0.2-0.3c0.1,0.1,0.3,0.2,0.3,0.3s0,0.2,0,0.3C45.3,53,45.3,53.2,45.3,53.4L45.3,53.4z"/>
		<path class="st0" d="M54.7,59c0-0.3,0-0.5,0-0.8c0-0.1,0.1-0.2,0.2-0.2c0.1,0,0.2,0.1,0.3,0.1c0.1,0.1,0.1,0.2,0.1,0.3
			c0,0.5,0,0.9,0,1.4c0,0.2-0.1,0.3-0.3,0.3s-0.3-0.1-0.3-0.3S54.7,59.3,54.7,59L54.7,59z"/>
		<path class="st0" d="M50.8,56.5c0,0.3,0,0.5,0,0.8c0,0.1-0.1,0.3-0.2,0.3c-0.1,0-0.3-0.1-0.3-0.2c-0.1-0.1,0-0.3,0-0.5
			c0-0.4,0-0.8,0-1.1c0-0.1,0-0.3,0.2-0.3s0.3,0.1,0.4,0.3C50.8,56,50.8,56.3,50.8,56.5L50.8,56.5z"/>
		<path class="st0" d="M53,57.9c0,0.2,0,0.5,0,0.7c0,0.1-0.1,0.2-0.2,0.3c-0.1-0.1-0.3-0.1-0.3-0.2c0-0.6-0.1-1.2,0-1.8
			c0-0.2,0.2-0.2,0.3-0.1c0.1,0.1,0.2,0.2,0.2,0.4C53,57.4,53,57.6,53,57.9L53,57.9z"/>
		<path class="st0" d="M51.4,57.1c0-0.3,0-0.5,0-0.8c0-0.1,0.1-0.2,0.2-0.2c0.1,0,0.2,0.1,0.3,0.2c0.1,0.1,0,0.2,0,0.3
			c0,0.4,0,0.8,0,1.2c0,0.2,0,0.4-0.2,0.4s-0.3-0.2-0.3-0.4S51.4,57.3,51.4,57.1L51.4,57.1z"/>
		<path class="st0" d="M44.2,52.8c0,0.2,0,0.5,0,0.7c0,0.1-0.1,0.2-0.2,0.3c-0.1-0.1-0.2-0.1-0.3-0.2c0,0,0-0.1,0-0.2
			c0-0.5,0-1,0-1.5c0-0.2,0.1-0.3,0.2-0.3c0.1,0,0.2,0.2,0.3,0.3C44.2,52.1,44.2,52.5,44.2,52.8L44.2,52.8z"/>
		<path class="st0" d="M47.5,55.6c-0.4,0.1-0.5-0.1-0.5-0.3c0-0.5,0-1,0-1.5c0-0.1,0.1-0.3,0.2-0.3c0.1,0,0.2,0.1,0.3,0.2
			c0.1,0.1,0,0.2,0,0.3C47.5,54.5,47.5,55.1,47.5,55.6z"/>
	</g>
</g>
</svg>
