<?xml version="1.0" encoding="utf-8"?>
<!-- Generator: Adobe Illustrator 24.0.2, SVG Export Plug-In . SVG Version: 6.00 Build 0)  -->
<svg version="1.1" id="Capa_1" xmlns="http://www.w3.org/2000/svg" xmlns:xlink="http://www.w3.org/1999/xlink" x="0px" y="0px"
	 viewBox="0 0 80 80" style="enable-background:new 0 0 80 80;" xml:space="preserve">
<style type="text/css">
	.st0{fill:#E31F26;}
</style>
<g>
	<path class="st0" d="M54.2,30.3c0.3-0.7,0.5-1.4,0.8-2c0.3-0.9,0.7-1.7,1.1-2.6c0.2-0.5,0.5-0.9,0.8-1.2c0.1-0.1,0.3-0.3,0.4-0.4
		c0.7-0.5,1.4-0.6,2.2-0.1c1.2,0.7,2.4,1.4,3.6,2.1c0.8,0.4,1.3,1,1.9,1.7c3.1,4.3,6.2,8.5,9.3,12.7c1.7,2.4,3.5,4.8,5.2,7.2
		c0.6,0.8,0.7,1.6,0.4,2.4c-0.3,1-1,1.8-1.9,2.4c-2.7,1.6-5.3,3.1-8,4.7c-5.6,3.3-11.3,6.6-16.9,10c-2.1,1.2-4.2,2.5-6.3,3.7
		c-0.1,0.1-0.3,0.1-0.4,0.2c-0.5,0.3-1.1,0.3-1.6-0.1c-1.1-0.6-2.2-1.3-3.3-1.9c-0.3-0.2-0.7-0.4-1-0.6c-0.7-0.4-0.9-1-0.8-1.7
		c0-0.4,0.2-0.8,0.3-1.2c2-5,4-10,6-15.1c0.2-0.5,0.4-1,0.6-1.6c-0.1,0-0.1,0-0.2,0c-2.1,1.2-4.3,2.3-6.5,3.2
		c-5.2,2.1-10.4,3.8-15.8,5.3c-2.9,0.8-5.7,0.9-8.6,0.1c-1.1-0.3-2.1-0.7-3.1-1.1c-3-1.3-5.8-2.8-8.5-4.6c-0.7-0.5-1.4-1-2-1.6
		c-0.9-0.8-1.6-1.8-1.9-3C0,46.9,0,46.6,0,46.4c0-0.6,0-1.3,0-1.9c0-1,0.3-2,0.9-2.9c1.6-2.3,3.2-4.5,4.8-6.8
		c0.6-0.8,1.2-1.6,1.9-2.5c0.2-0.2,0.3-0.5,0.3-0.7c0.4-3.3,1.3-6.5,2.9-9.4c2.6-4.9,6.3-8.6,11.4-10.8c2.1-0.9,4.3-1.5,6.5-1.6
		c0.2,0,0.4-0.1,0.6-0.1c1.4-0.5,2.9-0.8,4.4-0.8c1.9-0.1,3.7,0.2,5.3,1c2.2,1.1,4.3,2.3,6.4,3.7c1.5,1,2.3,2.3,2.7,4
		c0,0.2,0.1,0.4,0.2,0.5c1.9,2.2,3,4.8,3.8,7.6c0.2,0.8,0.4,1.7,0.6,2.5c0,0.1,0.1,0.3,0.1,0.4C53.2,29.2,53.7,29.7,54.2,30.3z
		 M22.3,47.5c1,0.1,1.9,0.3,2.9,0.3c2.7,0.2,5.3,0.2,8-0.1c2.7-0.3,5.2-0.9,7.7-1.8c2.5-0.9,4.8-2.1,6.9-3.9
		c1.6-1.3,2.9-2.8,3.6-4.8c0.1-0.3,0.2-0.6,0.4-0.9c0.3-0.7,0.5-1.5,0.5-2.3c0-3-0.3-5.9-1.2-8.8c-0.7-2.3-1.7-4.4-3.2-6.3
		c-2-2.4-4.5-3.4-7.6-2.9c-1.5,0.2-2.8,0.8-4.1,1.5c-3,1.6-5.4,3.9-7.4,6.6c-2.2,2.9-3.7,6.2-4.8,9.7c-1.3,4.4-1.9,8.9-1.8,13.4
		C22.2,47.3,22.3,47.4,22.3,47.5z M43.1,13.1c-0.2-0.1-0.4-0.2-0.5-0.3c-1.1-0.6-2.2-1.2-3.2-1.8c-1.8-1-3.7-1.4-5.7-1.3
		c-2.2,0.1-4.3,0.7-6.2,1.6c-3.9,1.8-7.2,4.5-9.9,7.8c-3,3.6-5,7.7-6.4,12.2c-1,3.2-1.6,6.5-1.8,9.9c0,0.6-0.1,1.1-0.1,1.7
		c3.3,1.9,6.5,3.7,9.8,5.6c0-0.1,0.1-0.1,0.1-0.1c0-0.2,0-0.4,0-0.5c0.1-3,0.3-5.9,0.9-8.9c0.6-3.4,1.5-6.6,2.8-9.7
		c1.5-3.4,3.4-6.4,5.9-9.1c2.1-2.2,4.4-4,7.2-5.3c2.2-1.1,4.6-1.7,7.1-1.6C42.9,13.1,42.9,13.1,43.1,13.1z M49.6,41.5
		C49.6,41.5,49.6,41.5,49.6,41.5c-0.3,0.2-0.5,0.4-0.7,0.6c-1.8,1.6-3.8,2.9-6,3.8c-4.1,1.8-8.4,2.7-12.8,2.9
		c-2.7,0.1-5.3,0-7.9-0.5c-0.2,0-0.4,0-0.5,0.1c-0.6,0.3-1.1,0.6-1.7,0.9c-0.4,0.3-0.7,0.2-1.1,0c-2.3-1.3-4.6-2.7-7-4
		c-1-0.6-2-1.2-3.1-1.7c-0.3-0.2-0.5-0.4-0.5-0.8c0.1-0.6,0.1-1.3,0.1-1.9c0-0.2,0-0.4-0.1-0.6c-0.7-1.3-1-2.7-0.9-4.2
		c0-0.6,0.1-1.2,0.1-1.9c0-0.1,0-0.2,0-0.4c-0.2,0.2-0.3,0.3-0.4,0.5c-1.8,2.6-3.7,5.1-5.5,7.7c-0.3,0.4-0.5,0.9-0.7,1.3
		c-0.3,0.9-0.2,1.8,0.3,2.7c0.3,0.5,0.7,0.9,1.1,1.3c0.9,0.7,1.7,1.4,2.7,2c2.4,1.6,4.9,2.9,7.5,4.1c1.1,0.5,2.3,1,3.5,1.3
		c2.3,0.6,4.7,0.5,7,0c1.4-0.3,2.9-0.7,4.3-1.2c3.1-0.9,6.1-2,9.2-3.1c2.7-1,5.4-2.1,8-3.4c1.3-0.7,2.6-1.4,3.8-2.4
		c0.2-0.1,0.3-0.3,0.4-0.5c0.3-0.7,0.6-1.5,0.9-2.3C49.5,41.8,49.6,41.6,49.6,41.5z M79.2,49.2c0-0.4-0.1-0.7-0.3-0.9
		c-3-4.1-5.9-8.1-8.9-12.2c-2-2.8-4-5.6-6.1-8.3c-0.4-0.5-0.7-0.6-1.3-0.3c-0.1,0.1-0.3,0.2-0.4,0.3c-0.4,0.3-0.6,0.7-0.8,1.2
		c-1.4,3.5-2.8,6.9-4.2,10.4c-1.4,3.4-2.7,6.8-4.1,10.2c-2.4,6-4.9,12-7.3,18c-0.2,0.5-0.4,0.9-0.6,1.4c-0.1,0.3-0.1,0.6-0.1,0.9
		c0,0.3,0.2,0.5,0.5,0.4c0.3-0.1,0.5-0.2,0.7-0.3c3.9-2.3,7.8-4.6,11.7-6.9c5.6-3.3,11.3-6.6,16.9-10c0.9-0.6,1.9-1.1,2.8-1.7
		C78.7,51,79.1,50.2,79.2,49.2z M44.9,67.5c5.3-13,10.5-25.9,15.8-38.9c-1.3-0.8-2.7-1.5-4-2.3c-5.2,13-10.4,25.9-15.6,38.9
		C42.3,66,43.6,66.7,44.9,67.5z M0.9,46.9c0.1,1,0.6,1.8,1.3,2.4c0.7,0.6,1.4,1.3,2.2,1.8c2.9,2,6.1,3.6,9.3,5
		c2.7,1.1,5.5,1.4,8.5,0.9c1.5-0.2,2.9-0.7,4.3-1.1c3.9-1.1,7.8-2.5,11.5-3.9c2.8-1.1,5.6-2.3,8.2-3.8c0.9-0.5,0.9-0.5,1.3-1.5
		c0.1-0.2,0.2-0.4,0.3-0.7c-0.2,0.1-0.3,0.1-0.4,0.2c-0.4,0.2-0.7,0.5-1.1,0.7c-2.3,1.3-4.6,2.4-7.1,3.4c-4,1.6-8.1,3-12.3,4.2
		c-1.6,0.5-3.3,1-5,1.2c-2.6,0.3-5.2,0.2-7.7-0.7c-1.9-0.7-3.8-1.6-5.6-2.5C5.9,50.9,3.1,49.3,0.9,46.9z M46.9,16.7
		c-0.4-1.1-1.2-2-2.3-2.4c-0.6-0.2-1.2-0.3-1.9-0.4c-1.5-0.1-3,0.1-4.4,0.6c-3.2,1.1-6,2.9-8.4,5.3c-3.1,3-5.3,6.6-6.8,10.5
		c-1.2,3.1-2,6.3-2.5,9.6c-0.4,2.6-0.6,5.2-0.7,7.9c0,0.2,0,0.3,0,0.6c0.6-0.3,1.1-0.6,1.5-0.8c0-0.1,0-0.2,0-0.3
		c-0.1-2.8,0.1-5.7,0.6-8.5c0.7-4.2,2-8.3,4.1-12c1.8-3.3,4.2-6.2,7.2-8.4c2-1.5,4.1-2.6,6.5-3.1c1.8-0.4,3.6-0.3,5.2,0.4
		C45.7,16,46.3,16.4,46.9,16.7z M25.8,11.1C25.8,11.1,25.8,11.1,25.8,11.1c-0.1,0-0.2,0-0.3,0c-1.1,0.3-2.2,0.6-3.2,1.1
		c-4.7,2.1-8.1,5.4-10.6,9.9c-1.9,3.5-2.9,7.3-3.3,11.2c-0.1,1.1-0.1,2.1-0.2,3.2c0,0.7,0.1,1.3,0.3,2c0,0.1,0.1,0.1,0.1,0.3
		c0-0.1,0-0.2,0.1-0.3c0.3-1.5,0.5-3,0.8-4.5c0.9-4,2.3-7.8,4.4-11.3c2.7-4.6,6.3-8.2,10.9-10.9C25.2,11.4,25.5,11.3,25.8,11.1z
		 M61,27.9c0.5-0.5,0.9-0.9,1.4-1.3c-0.2-0.1-0.5-0.3-0.7-0.4c-0.9-0.5-1.8-1-2.6-1.5c-0.3-0.2-0.6-0.2-0.9-0.1
		c-0.5,0.2-0.8,0.6-1.1,1C58.4,26.4,59.7,27.1,61,27.9z M44.6,68.2c-1.3-0.7-2.5-1.5-3.9-2.2c-0.1,0.3-0.2,0.5-0.2,0.7
		c-0.1,0.6,0,0.8,0.5,1.1c1,0.6,1.9,1.1,2.9,1.7c0.1,0.1,0.2,0.1,0.3,0.2C44.3,69.2,44.4,68.8,44.6,68.2z M53,32.8
		C53.1,32.8,53.1,32.8,53,32.8c0.3-0.4,0.5-0.9,0.6-1.3c0-0.1,0.1-0.2,0-0.3c-0.2-0.4-0.4-0.8-0.8-1.2C52.9,31,53,31.9,53,32.8z"/>
	<path class="st0" d="M76.6,49.7c0,0.3-0.2,0.4-0.3,0.5c-0.5,0.3-0.9,0.5-1.4,0.8c-6.9,4-13.7,8.1-20.6,12.1c-1.7,1-3.5,2.1-5.2,3.1
		c-0.1,0.1-0.2,0.1-0.3,0.2c-0.2,0.1-0.3,0.1-0.5,0c-0.2-0.1-0.2-0.3-0.1-0.5c0.2-0.5,0.4-1.1,0.6-1.6c1.3-3.2,2.6-6.4,3.9-9.6
		c1.9-4.7,3.9-9.5,5.8-14.2c1.3-3.1,2.5-6.2,3.8-9.2c0.1-0.2,0.1-0.5,0.4-0.5c0.3,0,0.4,0.2,0.5,0.4c3.9,5.4,7.7,10.8,11.6,16.1
		c0.5,0.7,1,1.4,1.5,2.1C76.5,49.5,76.5,49.6,76.6,49.7z M75.5,49.6c-0.1-0.2-0.2-0.3-0.3-0.4c-0.6-0.9-1.3-1.8-1.9-2.7
		c-2.3-3.2-4.6-6.4-6.9-9.7c-1.1-1.5-2.1-2.9-3.2-4.4c-0.1-0.2-0.2-0.3-0.4-0.4C62,33.9,49.6,64.6,49.6,65
		C58.2,59.9,66.9,54.8,75.5,49.6z"/>
</g>
</svg>
