<?xml version="1.0" encoding="utf-8"?>
<!-- Generator: Adobe Illustrator 24.0.2, SVG Export Plug-In . SVG Version: 6.00 Build 0)  -->
<svg version="1.1" id="Capa_1" xmlns="http://www.w3.org/2000/svg" xmlns:xlink="http://www.w3.org/1999/xlink" x="0px" y="0px"
	 viewBox="0 0 80 80" style="enable-background:new 0 0 80 80;" xml:space="preserve">
<style type="text/css">
	.st0{fill:#E31F26;}
	.st1{fill:#FFFFFF;}
</style>
<g>
	<path class="st0" d="M74.8,56c0,0.5,0,0.8,0,1.2c0,0.3-0.1,0.4-0.3,0.6c-2.5,1.4-4.9,2.8-7.4,4.3c-0.8,0.4-1.5,0.9-2.3,1.3
		c-0.2,0.1-0.3,0.3-0.3,0.6c0,0.7,0,1.4,0,2.2c0.2-0.1,0.4-0.2,0.6-0.3c1.9-1.1,3.9-2.2,5.8-3.3c0.3-0.2,0.6-0.2,0.9,0
		c0.8,0.5,0.8,0.4,0.8,1.3c0,0.7,0,1.4,0,2.1c0,0.2-0.1,0.4-0.3,0.5c-0.3,0.1-0.6,0.3-0.9,0.5c-0.3-0.2-0.7-0.4-1-0.6
		c-0.1-0.1-0.2-0.3-0.3-0.5c-1.4,0.8-2.8,1.6-4.2,2.4c0.1,0.1,0.2,0.2,0.3,0.2c2,1.1,3.9,2.3,5.9,3.4c0.3,0.2,0.5,0.4,0.5,0.8
		c0,0.8,0,1.6,0,2.4c0,0.3-0.1,0.4-0.3,0.6c-0.8,0.5-1,0.5-1.9,0c-0.2-0.1-0.2-0.2-0.2-0.4c0-0.4,0-0.8,0-1.3c0-0.3-0.1-0.4-0.3-0.5
		c-2-1.2-4.1-2.3-6.1-3.5c-0.3-0.2-0.5-0.2-0.8,0c-2,1.2-4.1,2.3-6.1,3.5c-0.2,0.1-0.4,0.3-0.3,0.6c0,0.4,0,0.7,0,1.1
		c0,0.3-0.1,0.4-0.3,0.6c-0.3,0.1-0.6,0.3-0.9,0.5c-0.4-0.2-0.8-0.3-1.1-0.7c-0.2-0.3-0.1-0.8-0.1-1.2c0-0.5,0-1.1,0-1.6
		c0-0.4,0.1-0.6,0.4-0.7c2-1.1,3.9-2.2,5.8-3.3c0.1-0.1,0.3-0.2,0.5-0.3c-1.5-0.9-2.9-1.7-4.4-2.5c0,0.8-0.7,0.8-1.1,1.2
		c0,0-0.1,0-0.2,0c-0.3-0.2-0.6-0.3-1-0.6C54.1,66.3,54,66.1,54,66c0-0.9,0-1.8,0-2.7v-0.1c0.2-0.4,0.7-0.5,1-0.7
		c0.2-0.1,0.3-0.1,0.5,0c0.7,0.4,1.4,0.8,2.1,1.2c1.4,0.8,2.7,1.6,4.1,2.4c0.1,0,0.2,0.1,0.3,0.1c0-0.4,0-0.7,0-1
		c-1.4-0.8-2.8-1.6-4.2-2.4c-2.7-1.5-5.3-3.1-8-4.6c-0.4-0.2-0.5-0.4-0.5-0.9c0-0.3,0-0.6,0-0.9c0-0.3,0.1-0.5,0.4-0.7
		c1.2-0.7,2.4-1.4,3.6-2.1c2.8-1.6,5.6-3.2,8.4-4.9c0.1,0,0.1-0.1,0.3-0.2c-0.1-0.1-0.2-0.2-0.4-0.2c-1-0.6-2-1.2-3-1.8
		c-0.3-0.2-0.5-0.2-0.7,0c-3.6,2.1-7.2,4.2-10.9,6.3c-1.8,1.1-3.6,2.1-5.5,3.2c-0.3,0.2-0.5,0.4-0.5,0.8c0,5.5,0,11,0,16.5
		c0,1.8,0,3.5,0,5.3c0,0.4-0.1,0.6-0.4,0.7c-0.3,0.2-0.7,0.4-1,0.6s-0.5,0.2-0.8,0c-1.4-0.8-2.9-1.7-4.3-2.5
		c-4.7-2.7-9.4-5.4-14.1-8.1c-0.9-0.5-1.7-1-2.6-1.5c-0.3-0.2-0.4-0.4-0.4-0.8c0-7.2,0-14.5,0-21.7c0-0.6,0-1.3,0-1.9
		c0-0.4,0.1-0.6,0.4-0.7c2.9-1.7,5.9-3.4,8.8-5.1c2-1.2,4.1-2.4,6.1-3.5c0.3-0.2,0.4-0.4,0.4-0.7c0-4.1,0-8.1,0-12.2
		c0-0.2,0-0.5,0-0.7c0-0.7,0.3-1.2,0.9-1.6c1.8-1,3.5-2,5.3-3.1c4.2-2.5,8.5-4.9,12.7-7.4c1-0.6,2.1-1.2,3.1-1.8
		c0.5-0.3,0.9-0.3,1.4,0c1.1,0.7,1,0.6,1,1.7c0,3.8,0,7.6,0,11.4c0,0.2,0,0.3,0,0.6c0.3-0.2,0.6-0.3,0.9-0.5c0.2-0.2,0.4-0.1,0.7,0
		c3.5,2,7.1,4.1,10.6,6.1c3.2,1.9,6.4,3.7,9.7,5.6c0.1,0.1,0.2,0.1,0.3,0.2C80,31.8,80,32,80,32.3c0,1.5,0,2.9,0,4.4
		c0,6.5,0,12.9,0,19.4c0,0.1,0,0.3,0,0.4c0,0.2-0.1,0.4-0.3,0.5c-0.4,0.2-0.9,0.5-1.3,0.7c-0.2,0.1-0.4,0.1-0.6,0
		c-0.9-0.5-1.8-1.1-2.7-1.6C75,56.1,74.9,56.1,74.8,56z M33.8,20.8c-0.1,0-0.3-0.1-0.4-0.1c0,0.3,0,0.5,0,0.7c0,4.2,0,8.4,0,12.6
		c0,1,0,1.9,0,2.9c0,0.3,0.1,0.5,0.4,0.7c0.1,0.1,0.3,0.1,0.4,0.2c0-0.2,0-0.3,0-0.4c0-5.2,0-10.4,0-15.7
		C34.2,21.3,34.1,21,33.8,20.8c0.1,0,0.2,0.1,0.3,0.1c0.2-0.4,0.5-0.8,0.7-1.2c0.2-0.1,0.4-0.1,0.6-0.2c1.1-0.7,2.3-1.3,3.4-2
		c5.1-3,10.3-5.9,15.4-8.9c0.6-0.4,1.3-0.7,1.9-1.1c0.1-0.1,0.3-0.1,0.2-0.3c0.1,0,0.1,0,0.3,0C56.4,7,56.2,6.9,56,6.8
		c0,0,0,0.1-0.1,0.1C56,6.9,56,7,56.1,7c-0.3-0.3-0.6-0.2-0.9,0c-4.3,2.5-8.6,5-12.9,7.5c-2.6,1.5-5.2,3-7.8,4.5
		c-0.1,0.1-0.4,0.1-0.3,0.3c-0.5,0.1-0.7,0.4-0.8,1.1C33.5,20.5,33.6,20.6,33.8,20.8z M79.5,32c-0.1-0.1-0.2-0.2-0.3-0.2
		c-1.9-1.1-3.9-2.2-5.8-3.3c-4.6-2.7-9.2-5.3-13.8-8c-0.7-0.4-1.1-0.4-1.7,0c-0.2,0.2-0.4,0.3-0.4,0.6c0,1.1,0,2.2,0,3.3
		c0,0.5-0.1,0.9-0.5,1.3c-0.2,0.2-0.4,0.3-0.6,0.4c-2.4,1.4-4.7,2.8-7.1,4.1c-0.6,0.3-1,0.7-0.9,1.4c0,0.1,0,0.2,0,0.3
		c-0.1,0.4,0,0.6,0.4,0.8c0.9,0.5,1.8,1.1,2.8,1.6c0.3,0.2,0.4,0.4,0.4,0.8c0,0.3-0.1,0.5-0.4,0.7c-2,1.1-4,2.3-6,3.5
		c-0.2,0.1-0.4,0.1-0.6,0c-1.1-0.6-2.1-1.3-3.2-1.9c-0.6-0.4-0.9-1-0.9-1.7c0-0.1,0-0.3,0-0.5c-0.2,0.1-0.3,0.2-0.4,0.2
		c-1,0.6-1.9,1.1-2.9,1.7c-0.7,0.4-1.4,0.8-2.1,1.2c-0.4,0.2-0.7,0.2-1,0c-0.2-0.2-0.5-0.3-0.7-0.4c-0.4-0.2-0.5-0.4-0.5-0.8
		c0-0.8,0-1.5,0-2.3c0-0.1,0-0.3-0.1-0.4C28,37.1,22.9,40,17.8,43c7.2,4.2,14.3,8.3,21.4,12.4C52.6,47.6,66,39.8,79.5,32z
		 M17.7,44.9c0,0.3,0,0.4,0,0.5c0,3.8,0,7.6,0,11.4c0,3.3,0,6.6,0,9.9c0,0.4,0.1,0.5,0.4,0.7c0.5,0.3,1,0.6,1.5,0.9
		c4.1,2.4,8.2,4.7,12.2,7.1c2.3,1.3,4.5,2.6,6.8,3.9c0.1,0.1,0.3,0.1,0.4,0.2c0-7.5,0-14.9,0-22.3C32,53.2,24.9,49.1,17.7,44.9z
		 M76.6,39.3c-0.5,0.3-0.9,0.5-1.2,0.7c-3.6,2.1-7.2,4.2-10.8,6.3c-0.2,0.1-0.3,0.3-0.4,0.6c-0.3,2.5-0.6,4.9-1,7.4
		c-0.4,2.7-0.7,5.5-1.1,8.2c0,0.1,0,0.2,0,0.3c4.2-2.4,8.3-4.8,12.4-7.2C75.2,50.2,75.9,44.8,76.6,39.3z M62.2,48.4
		c0.1-0.9,0.3-1.6,0.3-2.4c0-0.4,0.2-0.6,0.5-0.8c2.4-1.4,4.8-2.8,7.2-4.2c1.6-0.9,3.2-1.8,4.8-2.8c0.3-0.2,0.5-0.2,0.7,0
		s0.5,0.3,0.7,0.5c0.4,0.2,0.4,0.5,0.4,0.9c-0.3,2.2-0.6,4.4-0.9,6.7c-0.3,2.4-0.6,4.7-0.9,7.1c-0.1,0.8-0.2,1.5-0.3,2.3
		c1.1,0.6,2.1,1.2,3.2,1.8c0-7.6,0-15,0-22.6c-6.5,3.8-12.9,7.5-19.5,11.3C59.8,47,61,47.7,62.2,48.4z M49.7,56
		c3.6,2.1,7.1,4.1,10.7,6.1c0.6-4.5,1.2-8.9,1.8-13.4C58,51.2,53.9,53.6,49.7,56z M79.6,32.3c-0.2,0.1-0.3,0.1-0.4,0.2
		c-2.2,1.3-4.5,2.6-6.7,3.9c-6.9,4-13.8,8-20.7,12c-3.3,1.9-6.5,3.8-9.8,5.7c-0.8,0.4-1.5,0.9-2.3,1.3c-0.1,0.1-0.3,0.2-0.4,0.3
		c0,0.4,0,0.7,0,1.2c0.2-0.1,0.3-0.2,0.5-0.2c3.5-2,6.9-4,10.4-6c5.7-3.3,11.5-6.6,17.2-10c3.8-2.2,7.6-4.4,11.4-6.6
		C79.7,33.6,79.7,33.6,79.6,32.3z M34.5,36.4c0.2-0.1,0.3-0.2,0.5-0.2c1.2-0.7,2.5-1.4,3.7-2.1c6-3.5,12.1-7,18.1-10.4
		c0.3-0.2,0.4-0.4,0.4-0.8c0-4.9,0-9.8,0-14.7c0-0.2,0.1-0.6-0.2-0.6c-0.2-0.1-0.4,0.1-0.6,0.2c-2.8,1.6-5.6,3.2-8.4,4.8
		c-4.2,2.4-8.5,4.9-12.7,7.3c-0.6,0.4-0.9,0.9-0.9,1.6c0,4.8,0,9.6,0,14.4C34.5,36,34.5,36.1,34.5,36.4z M57.2,23.7
		c-0.2,0.1-0.3,0.1-0.4,0.2c-4,2.3-8,4.6-12,6.9c-3.2,1.8-6.4,3.7-9.6,5.5c-0.8,0.4-0.8,0.4-0.7,1.3v0.1c0,0.3,0.2,0.5,0.5,0.3
		c0.2-0.1,0.3-0.2,0.5-0.2c5.3-3.1,10.6-6.1,15.9-9.2c1.7-1,3.3-1.9,5-2.9c0.5-0.3,0.8-0.7,0.8-1.2C57.2,24.3,57.2,24,57.2,23.7z
		 M79.6,34c-0.3,0.2-0.6,0.3-0.8,0.5c-0.6,0.4-0.6,0.2-0.6,1c0,1.7,0,3.4,0,5.1c0,5.5,0,10.9,0,16.4c0,0.2,0,0.4,0,0.6
		c0.5-0.3,1-0.6,1.4-0.8C79.6,49.2,79.6,41.6,79.6,34z M39.4,79.7c0.4-0.2,0.6-0.4,0.9-0.5c0.4-0.2,0.5-0.4,0.5-0.9
		c0-7.1,0-14.2,0-21.2c0-0.2,0-0.3,0-0.5c-0.4,0.2-0.6,0.4-1,0.5c-0.4,0.2-0.5,0.4-0.5,0.8c0,7.1,0,14.1,0,21.2
		C39.4,79.2,39.4,79.4,39.4,79.7z M39.1,55.6c-7.1-4.1-14.2-8.2-21.4-12.4c0,0.4,0,0.7,0,1s0.1,0.5,0.4,0.7c1.3,0.7,2.6,1.5,4,2.3
		c5.5,3.2,11.1,6.4,16.6,9.6c0.1,0.1,0.3,0.1,0.5,0.2C39.1,56.5,39.1,56.1,39.1,55.6z M48.1,32.6C46,33.8,44,35,41.9,36.3
		c1.2,0.7,2.2,1.3,3.3,2c2.1-1.2,4.1-2.4,6.3-3.7C50.3,33.9,49.2,33.3,48.1,32.6z M61.8,62.9c0.7-5.5,1.5-11,2.2-16.4
		c-0.4-0.2-0.7-0.4-1.1-0.6c-0.7,5.5-1.5,11-2.2,16.4C61,62.5,61.3,62.7,61.8,62.9z M62,64.6c0.1-0.1,0.2-0.1,0.3-0.2
		c3-1.7,5.9-3.4,8.9-5.2c1-0.6,1.9-1.1,2.9-1.7c0.1-0.1,0.3-0.2,0.3-0.3c0-0.4,0.1-0.9,0-1.3c-0.1,0-0.2,0.1-0.2,0.1
		c-3.7,2.2-7.5,4.3-11.2,6.5c-0.3,0.2-0.8,0.4-1,0.7C61.9,63.7,62,64.1,62,64.6z M49.6,56.3C49.6,56.4,49.5,56.4,49.6,56.3
		c-0.1,0.3-0.1,0.4-0.1,0.6c0,0.8,0,0.8,0.7,1.2c3.7,2.1,7.4,4.3,11.2,6.4c0.1,0,0.2,0.1,0.3,0.1c0-0.3,0-0.6,0-0.9
		c0-0.4-0.1-0.6-0.4-0.8c-3.8-2.2-7.6-4.4-11.4-6.6C49.8,56.4,49.7,56.3,49.6,56.3z M63.1,45.6c0.1,0.1,0.2,0.2,0.3,0.2
		c0.7,0.5,0.7,0.5,1.5,0c0.1,0,0.2-0.1,0.2-0.1c3.7-2.1,7.3-4.2,11-6.4c0.1-0.1,0.3-0.2,0.4-0.3c-0.2-0.1-0.4-0.2-0.5-0.3
		c-0.4-0.3-0.7-0.3-1.1,0c-3.8,2.2-7.5,4.4-11.3,6.6C63.4,45.3,63.3,45.5,63.1,45.6z M48.1,30.9c-0.1,0-0.2,0-0.2,0.1
		c-1.9,1.1-3.8,2.2-5.7,3.3c-0.1,0-0.2,0.1-0.2,0.2c-0.1,0.5-0.3,0.9-0.2,1.5c0.2-0.1,0.3-0.1,0.4-0.2c0.7-0.4,1.4-0.8,2.1-1.2
		c1.1-0.7,2.2-1.3,3.4-2c0.1-0.1,0.3-0.2,0.3-0.4C48.1,31.8,48.1,31.4,48.1,30.9z M71.9,72.3c-0.2-0.1-0.3-0.2-0.5-0.3
		c-0.8-0.4-1.5-0.9-2.3-1.3c-1.5-0.9-3-1.7-4.6-2.6c-0.2-0.1-0.4-0.2-0.7,0c-0.1,0.1-0.2,0.2-0.4,0.3c2.6,1.5,5.1,2.9,7.7,4.4
		C71.4,72.6,71.7,72.4,71.9,72.3z M55.2,72.7c2.6-1.5,5.1-2.9,7.6-4.4c-0.4-0.4-0.8-0.5-1.3-0.2c-2.2,1.3-4.4,2.5-6.6,3.8
		c-0.1,0.1-0.3,0.2-0.5,0.3C54.7,72.4,54.9,72.6,55.2,72.7z M63,68.6c-2.6,1.5-5.1,3-7.6,4.4c0,0.3,0,0.5,0,0.9
		c2.6-1.5,5.1-2.9,7.6-4.4C63,69.2,63,68.9,63,68.6z M71,73c-0.9-0.7-7.3-4.3-7.7-4.3c-0.2,0.5,0,0.8,0.5,1c2.3,1.3,4.5,2.6,6.8,3.9
		c0.1,0.1,0.2,0.1,0.4,0.2C71,73.5,71,73.2,71,73z M61.9,67.4c0.2-0.6,0-0.9-0.5-1.2c-1.9-1.1-3.8-2.2-5.7-3.3
		c-0.4-0.2-0.6-0.2-0.9,0c-0.1,0.1-0.1,0.1-0.3,0.2C57,64.6,59.4,66,61.9,67.4z M71.9,63.2c-0.4-0.4-0.8-0.5-1.3-0.2
		c-1.9,1.2-3.9,2.3-5.9,3.4c-0.1,0.1-0.2,0.2-0.3,0.2c0,0.3,0,0.5,0,0.9C67,66,69.4,64.6,71.9,63.2z M54.3,63.4
		c-0.1,0.8-0.1,0.8,0.5,1.1c1.7,1,3.4,1.9,5.1,2.9c0.4,0.2,0.8,0.4,1.2,0.7c0.2-0.1,0.5-0.3,0.8-0.4C59.3,66.2,56.8,64.8,54.3,63.4z
		 M64.6,67.7c0.4,0.2,0.6,0.5,1,0.3c2-1.2,4-2.3,6-3.5c0.5-0.3,0.6-0.4,0.4-1.1C69.5,64.8,67.1,66.2,64.6,67.7z M51.6,34.9
		c-0.4,0.2-0.7,0.4-1.1,0.6c-1.6,0.9-3.2,1.9-4.8,2.8c-0.3,0.2-0.3,0.2-0.2,0.6h0.1c1.5-0.9,3.1-1.8,4.6-2.7
		c0.4-0.2,0.8-0.5,1.3-0.7C51.6,35.3,51.7,35.2,51.6,34.9z M64.1,63.9c-0.8,0.3-0.8,0.3-0.8,1c0,0.9,0,1.8,0,2.7c0,0.1,0,0.3,0,0.4
		c0.8-0.3,0.8-0.3,0.8-1c0-0.9,0-1.7,0-2.6C64.1,64.2,64.1,64,64.1,63.9z M41.6,34.7c-0.3,0.1-0.5,0.2-0.6,0.5
		c-0.1,0.7,0,1.5,0.8,1.9c1,0.6,2,1.2,3,1.7c0,0,0.1,0,0.2,0c0.1-0.3,0-0.4-0.3-0.6c-1-0.6-1.9-1.1-2.9-1.7
		c-0.3-0.2-0.5-0.4-0.4-0.8C41.5,35.5,41.6,35.1,41.6,34.7z M63,64.4c-0.2,0.1-0.4,0.2-0.6,0.3c-0.1,0.1-0.2,0.2-0.2,0.3
		c0,0.8,0,1.5,0,2.3c0,0.2,0.1,0.3,0.2,0.4c0.2,0.1,0.3,0.2,0.5,0.3C63,66.8,63,65.7,63,64.4z M71.4,65c0,0.5,0,1,0,1.6
		c0.2-0.1,0.4-0.2,0.5-0.3c0.1-0.1,0.2-0.2,0.2-0.2c0-0.4,0-0.9,0-1.4C71.8,64.7,71.6,64.9,71.4,65z M55,75.6c0-0.3,0-0.6,0-0.9
		c0-0.6,0-0.7-0.7-0.9c0,0.3,0,0.6,0,0.9C54.3,75.4,54.3,75.4,55,75.6z M54.3,64.6c0,0.5,0,0.9,0,1.2c0,0.2,0.1,0.4,0.3,0.5
		c0.1,0.1,0.3,0.1,0.5,0.2c0-0.6,0-1.1,0-1.5C54.8,64.9,54.6,64.8,54.3,64.6z M72.1,75.3c0-0.5,0-1,0-1.5c-0.3,0.2-0.5,0.3-0.7,0.4
		c0,0.5,0,1,0,1.5C71.6,75.5,71.8,75.4,72.1,75.3z M55.4,75.7c0.2-0.1,0.4-0.2,0.6-0.3c0.1-0.1,0.1-0.2,0.1-0.3c0-0.4,0-0.8,0-1.3
		c-0.3,0.2-0.5,0.3-0.7,0.4C55.4,74.7,55.4,75.1,55.4,75.7z M70.3,73.7c0,0.5,0,0.9,0,1.3c0,0.1,0.1,0.2,0.2,0.3
		c0.1,0.1,0.3,0.2,0.5,0.3c0-0.5,0-1,0-1.5C70.8,74,70.6,73.9,70.3,73.7z M55.4,66.5c0.6-0.2,0.8-0.3,0.7-0.7c0-0.3-0.3-0.4-0.7-0.5
		C55.4,65.7,55.4,66.1,55.4,66.5z M70.3,65.6c-0.1,0.6,0.1,0.7,0.7,0.8c0-0.4,0-0.8,0-1.2c-0.1,0-0.1,0-0.2,0.1
		C70.6,65.4,70.5,65.5,70.3,65.6z M72,72.6c-0.6,0.2-0.9,0.2-0.6,1.1C72.1,73.4,72.2,73.4,72,72.6z M54.3,72.6
		c-0.1,0.8-0.1,0.8,0.7,1.1C55.1,72.9,55,72.8,54.3,72.6z"/>
	<path class="st0" d="M58.1,33.8c0.8,0.5,1.5,0.9,2.3,1.4c1,0.6,1.9,1.2,2.9,1.8c0.5,0.3,0.5,1,0,1.3c-4.5,2.6-9,5.2-13.5,7.8
		c-0.3,0.1-0.5,0.3-0.8,0.4c-0.2,0.2-0.4,0.2-0.7,0c-0.6-0.4-1.2-0.7-1.8-1.1c-1-0.6-2-1.1-3-1.7c-0.3-0.2-0.5-0.3-0.4-0.7
		c0-0.4,0-0.7,0.4-0.9c4.7-2.7,9.5-5.4,14.2-8.2C57.8,34,57.9,33.9,58.1,33.8z M58,34.1c-4.9,2.8-9.7,5.6-14.6,8.4
		c1.8,1.1,3.4,2.2,5.1,3.2c4.9-2.8,9.7-5.6,14.6-8.5C61.4,36.2,59.7,35.2,58,34.1z M63.2,37.6c-0.1,0-0.2,0.1-0.2,0.1
		c-4.3,2.5-8.5,4.9-12.8,7.4c-0.4,0.2-0.8,0.5-1.2,0.7c-0.2,0.1-0.3,0.2-0.2,0.4c0.1-0.1,0.2-0.1,0.3-0.2c3.7-2.1,7.4-4.3,11-6.4
		c0.9-0.5,1.9-1.1,2.8-1.6C63.1,38,63.4,37.9,63.2,37.6z M43.4,42.9c-0.1,0.4,0,0.5,0.2,0.7c1.5,0.8,2.9,1.7,4.4,2.5
		c0.1,0.1,0.2,0.1,0.4,0.2c0-0.1,0-0.2-0.1-0.3C46.7,45,45.1,43.9,43.4,42.9z"/>
	<path class="st0" d="M35.2,35.3c0-4.9,0-9.8,0-14.6c7-4.1,14.1-8.1,21.1-12.2c0.1,0,0.1,0,0.3,0c0,0.2,0,0.4,0,0.5
		c0,4.5,0,9,0,13.5c0,0.4-0.1,0.6-0.4,0.8c-5.8,3.4-11.7,6.7-17.5,10.1c-0.9,0.5-1.9,1.1-2.8,1.6C35.6,35.1,35.4,35.1,35.2,35.3z
		 M56.3,22.8c0-4.7,0-9.3,0-14c-7,4-13.9,8-20.8,12c-0.1,1.4,0,13.6,0.1,14C42.4,30.8,49.4,26.8,56.3,22.8z"/>
	<path class="st0" d="M50,44.2c0-0.1,0-0.2,0-0.3c-0.1-0.1-0.2-0.2-0.4-0.3c0.1,0,0.1,0,0.1,0c0.4,0.4,0.7,0.3,1.2,0
		c1.9-1.1,3.7-2.2,5.6-3.3c0.2-0.1,0.4-0.1,0.3-0.4l0,0c0.1,0,0.2,0.1,0.3,0.1c-0.1,0.1-0.2,0.2-0.3,0.2c-2.1,1.2-4.2,2.4-6.3,3.6
		C50.4,44.1,50.2,44.1,50,44.2L50,44.2z"/>
	<path class="st0" d="M50.9,39.1c-0.1,0.1-0.1,0.2-0.2,0.2c-1.5,0.8-3,1.7-4.5,2.5c-0.5,0.3-0.9,0.5-1.4,0.8c-0.2,0.1-0.3,0.2-0.5,0
		c0.3-0.1,0.7-0.1,0.8-0.5c0.2-0.1,0.5-0.1,0.6-0.2c0.2-0.2,0.5-0.3,0.7-0.4c0.1-0.1,0.2-0.3,0.3-0.3c0.1-0.1,0.3,0,0.4-0.1
		c0.1-0.1,0.4-0.1,0.3-0.4c0.3,0,0.6,0.1,0.7-0.3c0,0,0.1,0,0.2-0.1c0.2-0.1,0.5-0.2,0.7-0.3v-0.1c0.2-0.1,0.5-0.1,0.7-0.2
		c0.2-0.1,0.2-0.4,0.5-0.3C50.5,39.3,50.7,39.2,50.9,39.1L50.9,39.1z"/>
	<path class="st0" d="M53.9,38.5c-0.3-0.3-0.6-0.6-1-0.9c0.4,0,0.8,0,0.9-0.4c0,0,0.1,0,0.2-0.1c0.3-0.1,0.3-0.1,0.6-0.5l0,0
		c0.3,0.2,0.5-0.2,0.9-0.1c-0.7,0.4-1.4,0.9-2.2,1.3c0.3,0.2,0.5,0.3,0.7,0.4c0.2-0.1,0.4-0.2,0.7-0.4c-0.2-0.1-0.3-0.3-0.5-0.4
		c0,0,0,0,0-0.1c0.2,0.1,0.4,0.2,0.6,0.3c0.2-0.1,0.4-0.2,0.6-0.4c-0.1-0.1-0.3-0.2-0.5-0.4c0.3,0.1,0.5,0.2,0.7,0.2
		s0.4-0.2,0.6-0.2c-0.2,0.2-0.4,0.3-0.6,0.5l0,0c-0.6,0.3-1.1,0.6-1.7,0.9C54,38.5,53.9,38.5,53.9,38.5L53.9,38.5z"/>
	<path class="st0" d="M47.2,42.3c-0.2-0.2-0.4-0.3-0.6-0.5c0,0,0,0,0-0.1c0.1,0.1,0.2,0.1,0.3,0.2c0.1,0.1,0.2,0.1,0.4,0.2
		c0.2-0.1,0.4-0.2,0.6-0.3c-0.1-0.1-0.1-0.2-0.2-0.2c-0.1-0.1-0.2-0.1-0.2-0.3c0.2,0.1,0.4,0.2,0.7,0.3c0.2-0.1,0.4-0.2,0.6-0.4
		c-0.2-0.1-0.4-0.3-0.5-0.4c0,0,0,0,0-0.1c0.1,0,0.2,0,0.2,0.1c0.5,0.3,0.5,0.3,1-0.1c-0.2-0.1-0.3-0.2-0.5-0.4c0.2,0,0.3,0,0.3,0.1
		c0.3,0.3,0.6,0.2,0.9,0h0.1l0,0c0,0.1-0.1,0.2-0.1,0.2c-0.7,0.4-1.5,0.8-2.2,1.2c-0.2,0.1-0.3,0.2-0.5,0.3
		C47.5,42.3,47.3,42.3,47.2,42.3L47.2,42.3z"/>
	<path class="st0" d="M53.9,38.5c-0.1,0.1-0.1,0.2-0.2,0.2c-0.9,0.5-1.9,1.1-2.8,1.6c-0.1,0.1-0.3,0.1-0.4,0.1l0,0
		c-0.2-0.1-0.3-0.3-0.5-0.4c0.4,0.1,0.8,0.4,1.2,0c0-0.1,0-0.2,0.1-0.3c0.3,0.1,0.6-0.1,0.8-0.3c-0.1-0.1-0.3-0.3-0.4-0.4
		c0,0,0,0,0-0.1c0.2,0.1,0.4,0.2,0.7,0.4c0.2-0.1,0.4-0.2,0.6-0.4c-0.2-0.1-0.3-0.3-0.5-0.4c0.1,0,0.1,0,0.1,0
		c0.3,0.3,0.7,0.4,1.1,0C53.6,38.6,53.8,38.6,53.9,38.5L53.9,38.5z"/>
	<path class="st0" d="M51.6,41c-0.2-0.2-0.4-0.4-0.7-0.6c0.2,0,0.3,0,0.3,0.1c0.4,0.3,0.7,0.2,1-0.1c-0.2-0.1-0.3-0.2-0.5-0.4v-0.1
		c0.2,0.1,0.4,0.2,0.7,0.4c0.2-0.1,0.4-0.2,0.6-0.4c-0.2-0.1-0.4-0.3-0.5-0.4c0,0,0,0,0-0.1c0.1,0,0.1,0,0.2,0.1
		c0.4,0.3,0.7,0.3,1.1-0.1c-0.2-0.1-0.3-0.2-0.5-0.4v-0.1c0.2,0.1,0.5,0.3,0.8,0.4C53.3,40,52.5,40.5,51.6,41L51.6,41z"/>
	<path class="st0" d="M55.8,37.5c0.3,0.1,0.6,0.2,0.9,0.3c0.1-0.1,0.3-0.2,0.5-0.2v0.1c-0.7,0.4-1.5,0.9-2.3,1.3
		c-0.2-0.1-0.5-0.3-0.7-0.4c0,0,0-0.1,0.1-0.1c0.2,0.1,0.4,0.2,0.7,0.3c0.2-0.1,0.4-0.2,0.6-0.3c-0.2-0.2-0.3-0.3-0.5-0.4
		c0,0,0,0,0-0.1c0.2,0.1,0.4,0.2,0.6,0.3c0.2-0.1,0.4-0.2,0.7-0.4C56.2,37.8,56,37.7,55.8,37.5L55.8,37.5z"/>
	<path class="st0" d="M61.3,37.6c-0.2-0.1-0.4-0.2-0.5-0.4v-0.1c0.2,0.1,0.5,0.3,0.7,0.3s0.4-0.2,0.7-0.3c-0.1,0.1-0.1,0.2-0.2,0.3
		c-0.6,0.3-1.1,0.6-1.7,1c-0.3,0.2-0.6,0.3-0.9,0c-0.1-0.1-0.1-0.1-0.2-0.2c0.4,0.2,0.9,0.5,1.3,0c-0.1-0.1-0.2-0.1-0.3-0.2
		c-0.1-0.1-0.1-0.1-0.2-0.2c0.2,0.1,0.4,0.2,0.7,0.3C60.9,37.8,61.1,37.7,61.3,37.6z"/>
	<path class="st0" d="M57.7,36.2c0.2-0.1,0.4-0.2,0.6-0.4c-0.2-0.1-0.3-0.3-0.5-0.4c0.1,0,0.2,0,0.2,0c0.4,0.3,0.8,0.3,1.2-0.1h0.1
		c0,0,0,0,0.1,0.1c-0.8,0.5-1.6,0.9-2.5,1.4c-0.3-0.2-0.5-0.3-0.7-0.4c0,0,0,0,0-0.1c0.2,0.1,0.5,0.2,0.7,0.3c0.2,0,0.3-0.2,0.5-0.3
		c-0.2-0.1-0.3-0.2-0.5-0.4c0,0,0,0,0-0.1C57.3,36,57.5,36.1,57.7,36.2z"/>
	<path class="st0" d="M58.2,37.5c0.2,0.1,0.4,0.2,0.7,0.3c0.2-0.1,0.4-0.2,0.6-0.3c-0.1-0.1-0.1-0.2-0.2-0.3c0.4,0.2,0.7,0.1,1-0.2
		c-0.2-0.1-0.3-0.2-0.5-0.4c0,0,0,0,0-0.1c0.1,0,0.2,0,0.2,0.1c0.5,0.3,0.5,0.3,1-0.1c0,0,0.1,0,0.2,0.1c-0.5,0.3-1,0.6-1.5,0.8
		c-0.1,0.1-0.2,0.1-0.3,0.1C58.8,38,59,38.1,58.2,37.5z"/>
	<path class="st0" d="M51.6,41c-0.7,0.4-1.3,0.8-2,1.1c-0.2,0.1-0.3,0.1-0.5,0.2l0,0c-0.2-0.1-0.4-0.3-0.6-0.4
		c0.4,0.1,0.9,0.5,1.2-0.1c-0.1-0.1-0.3-0.2-0.4-0.3c0,0,0,0,0-0.1c0.1,0,0.2,0.1,0.3,0.1c0.5,0.2,0.5,0.3,0.9-0.2
		c-0.1-0.1-0.3-0.2-0.4-0.4v-0.1c0.2,0.1,0.4,0.2,0.6,0.3C51.1,41.3,51.3,40.8,51.6,41L51.6,41z"/>
	<path class="st0" d="M50,43c-0.1,0.1-0.1,0.2-0.2,0.2c-0.8,0.5-1.5,0.9-2.3,1.3c-0.3-0.2-0.5-0.3-0.7-0.5v-0.1
		c0.2,0.1,0.5,0.2,0.7,0.3c0.4-0.2,0.9-0.5,1.3-0.7c0.2-0.1,0.2-0.4,0.5-0.4C49.6,43.3,49.8,43.1,50,43L50,43z"/>
	<path class="st0" d="M58.5,37c-0.2-0.2-0.3-0.3-0.6-0.6c0.2,0.1,0.3,0.1,0.4,0.1c0.5,0.3,0.5,0.3,1-0.2c-0.1-0.1-0.2-0.1-0.3-0.2
		c-0.1-0.1-0.2-0.1-0.2-0.3c0.1,0,0.2,0.1,0.3,0.1c0.5,0.3,0.6,0.2,1-0.2c0,0,0.1,0,0.2,0c0,0.1,0,0.1,0,0.1c-0.5,0.3-1,0.6-1.4,0.9
		C58.7,36.9,58.6,36.9,58.5,37L58.5,37z"/>
	<path class="st0" d="M47.1,42.3c0,0.1-0.1,0.2-0.1,0.2c-0.4,0.2-0.8,0.4-1.1,0.7c-0.2,0.1-0.4,0.1-0.5,0c-0.2-0.1-0.3-0.2-0.5-0.3
		c0,0,0-0.1,0.1-0.1s0.2,0.1,0.2,0.1c0.5,0.3,0.5,0.3,1-0.2c-0.2-0.1-0.3-0.2-0.5-0.4c0.3,0,0.5,0.2,0.7,0.3
		C46.7,42.5,46.9,42.4,47.1,42.3C47.2,42.3,47.1,42.3,47.1,42.3z"/>
	<path class="st0" d="M59.6,38.8c-0.7,0.4-1.3,0.8-2,1.2c-0.1-0.1-0.3-0.2-0.4-0.2c0.4,0,0.7,0.1,0.9-0.3c0.3,0,0.5-0.1,0.8-0.3
		c0-0.1-0.1-0.2-0.1-0.2C59,38.9,59,38.9,59.6,38.8z"/>
	<path class="st0" d="M47.5,43.3c-0.2-0.1-0.3-0.3-0.5-0.4c0,0,0,0,0-0.1c0.1,0,0.1,0,0.2,0c0.5,0.3,0.5,0.3,1.1-0.1
		c-0.1-0.1-0.3-0.2-0.4-0.3c0,0,0,0,0-0.1c0.2,0.1,0.4,0.2,0.6,0.3c0.2-0.1,0.5-0.2,0.7-0.3l0,0c-0.1,0.1-0.2,0.2-0.3,0.3
		c-0.3,0.2-0.7,0.4-1,0.6C47.7,43.2,47.6,43.2,47.5,43.3L47.5,43.3z"/>
	<path class="st0" d="M52.6,41.6c-0.2-0.2-0.4-0.3-0.7-0.6c0.2,0.1,0.2,0.1,0.3,0.1c0.5,0.3,0.5,0.3,1-0.1c-0.1-0.1-0.1-0.1-0.2-0.2
		c-0.1,0-0.1-0.1-0.2-0.2c0.1,0,0.2,0.1,0.3,0.1s0.2,0.1,0.2,0.1c0.3-0.1,0.6-0.2,0.8-0.2l0,0C53.7,41,53.1,41.3,52.6,41.6
		L52.6,41.6z"/>
	<path class="st0" d="M50,44.2c-0.4,0.3-0.9,0.6-1.3,0.8c-0.1,0.1-0.2,0-0.3,0c-0.2-0.1-0.4-0.2-0.6-0.3c0,0,0-0.1,0.1-0.1
		c0.2,0.1,0.4,0.2,0.7,0.3c0.3-0.2,0.6-0.4,0.9-0.5c0-0.1-0.1-0.2-0.1-0.2C49.5,44.2,49.8,44.2,50,44.2L50,44.2z"/>
	<path class="st0" d="M50.9,39.1c0-0.1-0.1-0.2-0.1-0.3c0.4,0.1,0.6-0.1,0.9-0.3c0,0,0-0.1,0-0.2c0.4,0.2,0.6-0.3,1.1-0.4
		c-0.1,0.1-0.1,0.2-0.1,0.2c-0.5,0.3-1,0.6-1.5,0.9C51.1,39.1,51,39.1,50.9,39.1L50.9,39.1z"/>
	<path class="st0" d="M56.3,39.7c-0.3,0.1-0.5,0.2-0.8,0.3c-0.2,0.1-0.4,0.2-0.7,0l0,0c-0.2-0.1-0.3-0.3-0.5-0.4c0,0,0,0,0-0.1
		c0.1,0,0.2,0.1,0.3,0.1c0.5,0.3,0.7,0.3,1.1-0.2l0,0C56,39.5,56.2,39.6,56.3,39.7L56.3,39.7z"/>
	<path class="st0" d="M47.4,43.3c-0.1,0.4-0.6,0.4-0.8,0.6c-0.1,0.1-0.3-0.1-0.5-0.2c-0.1,0-0.2-0.1-0.3-0.2c0.1,0,0.1-0.1,0.1,0
		c0.4,0.4,0.8,0.3,1.3,0C47.3,43.3,47.4,43.3,47.4,43.3C47.5,43.3,47.4,43.3,47.4,43.3z"/>
	<path class="st0" d="M54.8,40c0,0.1,0,0.3,0,0.3c-0.2,0.1-0.4,0.2-0.6,0.3l0,0c-0.2-0.2-0.4-0.3-0.6-0.5l0,0c0.1,0,0.2,0.1,0.3,0.1
		C54.4,40.5,54.5,40.5,54.8,40L54.8,40z"/>
	<path class="st0" d="M51.7,42L51.7,42c-0.6,0.6-0.8,0.5-1.5,0c0.2,0.1,0.3,0.1,0.3,0.1c0.3,0.3,0.6,0.2,0.9,0
		C51.5,42.1,51.6,42.1,51.7,42L51.7,42z"/>
	<path class="st0" d="M50,43c-0.2-0.1-0.4-0.3-0.5-0.4c0.4,0.1,0.9,0.5,1.3-0.1C50.6,42.8,50.4,42.9,50,43L50,43z"/>
	<path class="st0" d="M58.5,37c-0.6,0.7-0.8,0.5-1.3,0C57.6,37.1,58.1,37.2,58.5,37L58.5,37z"/>
	<path class="st0" d="M51.7,42c-0.2-0.1-0.4-0.2-0.6-0.4v-0.1c0.2,0.1,0.4,0.2,0.6,0.3c0.3-0.1,0.5-0.2,0.8-0.2l0,0
		C52.3,41.8,52,41.9,51.7,42L51.7,42z"/>
	<path class="st0" d="M56.8,35.9c-0.1-0.1-0.2-0.2-0.2-0.2c0.2-0.1,0.4-0.1,0.6-0.2c0.2,0,0.3-0.1,0.5-0.1l0,0
		C57.3,35.5,57,35.7,56.8,35.9L56.8,35.9z"/>
	<path class="st0" d="M57.6,35.3c-0.1-0.1-0.2-0.2-0.3-0.2c0.4,0.1,0.6-0.2,0.9-0.3C58.2,35,58.1,35.1,57.6,35.3L57.6,35.3z"/>
	<path class="st0" d="M57.2,38.7c0.3,0.2,0.6,0.2,0.9,0C57.6,39.1,57.6,39.1,57.2,38.7z"/>
	<path class="st0" d="M56.8,35.9c-0.2,0.1-0.4,0.2-0.6,0.3c-0.1,0.1-0.3,0.1-0.4-0.1c0.2-0.1,0.3-0.1,0.5-0.2
		C56.4,35.8,56.6,35.8,56.8,35.9L56.8,35.9z"/>
	<path class="st0" d="M55.9,39.5c-0.2-0.1-0.3-0.2-0.5-0.3c0,0,0-0.1,0.1-0.1C55.6,39.3,55.7,39.4,55.9,39.5L55.9,39.5z"/>
	<path class="st0" d="M56.3,39.7c0.2,0.1,0.3,0.2,0.5,0.3l0,0C56.6,40,56.4,39.9,56.3,39.7L56.3,39.7z"/>
	<path class="st0" d="M2.7,35.3c-0.8-0.5-1.6-0.9-2.3-1.4c-0.3-0.2-0.3-0.4-0.3-0.7c0-4.2,0-8.3,0-12.5c0-1.9,0-3.9,0-5.8
		c0-0.2,0-0.4,0-0.6c0.2-0.1,0.3-0.2,0.5-0.3c6-3.5,12-6.9,18-10.4c2-1.2,4-2.3,6.1-3.5C24.9,0,25.1-0.1,25.3,0
		c0.8,0.5,1.7,1,2.5,1.5c0,0.6,0,1.1,0,1.7c0,5.6,0,11.2,0,16.8c0,0.1,0,0.2,0,0.4c0,0.3-0.1,0.5-0.4,0.7c-2.9,1.7-5.8,3.4-8.7,5
		c-3.9,2.3-7.8,4.5-11.7,6.8C5.6,33.7,4.2,34.5,2.7,35.3z M2.6,22.2c0-1.9,0-3.8,0-5.7c0-0.3-0.1-0.5-0.4-0.7
		c-0.5-0.2-0.9-0.6-1.4-0.8c-0.1-0.1-0.2-0.1-0.4-0.2c0,6.1,0,18.8,0,18.8s1.4,0.9,2.2,1.3C2.6,34.1,2.6,24.5,2.6,22.2z M12.1,19.9
		c-0.8-0.3-6.9-2.8-8.8-3.6c-0.1,0-0.3-0.1-0.4-0.1C2.9,16.4,3,34.6,3,34.6S12,20,12.1,19.9z M0.6,14.4c0.2,0.1,1.5,1,2,1.3
		c0.2,0.1,0.9-0.4,1.1-0.5C5.9,13.9,25,2.9,25,2.9V0.4C25,0.4,8.6,9.8,0.6,14.4z M3.5,34.2c-0.1,0.1-0.4,0.6-0.4,0.6l0.3-0.2
		c0,0,15.9-9.2,24-13.9c-0.9-0.4-7.3-2.8-9.5-3.6c-0.1,0.1-0.2,0.2-0.3,0.4c-0.6,0.9-1.2,1.8-1.7,2.7c-0.7,1.1-0.4,1-1.6,0.5
		c-0.6-0.2-1.2-0.5-1.8-0.7C10.3,23.4,4.2,33.1,3.5,34.2z M18.3,16.4c-0.1,0.1-0.2,0.3-0.3,0.5c2.2,0.8,9.2,3.4,9.5,3.6
		c0-6.1,0-12.1,0-18.3c-0.1,0.1-0.2,0.2-0.2,0.2c-0.6,1-6.3,9.8-8.1,12.7C18.8,15.5,18.6,16,18.3,16.4L18.3,16.4z M25.1,0.3v2.5
		l2.1-1.3L25.1,0.3z M26.9,2.1C26.4,2.4,3.4,15.7,3.2,15.9c0.1,0.1,11.6,4.7,11.9,4.8C15.9,19.5,26.9,2.5,26.9,2.1z"/>
</g>
<polygon class="st1" points="25.1,0.3 24.8,0.5 25,2.9 25.3,2.7 "/>
</svg>
